M48
; DRILL file KiCad 10.0.3 date 2026-07-22T13:27:26
; FORMAT={-:-/ absolute / inch / decimal}
; #@! TF.CreationDate,2026-07-22T13:27:26+03:00
; #@! TF.GenerationSoftware,Kicad,Pcbnew,10.0.3
; #@! TF.FileFunction,Plated,1,2,PTH
FMAT,2
INCH
; #@! TA.AperFunction,Plated,PTH,ComponentDrill
T1C0.0079
; #@! TA.AperFunction,Plated,PTH,ViaDrill
T2C0.0118
; #@! TA.AperFunction,Plated,PTH,ComponentDrill
T3C0.0276
; #@! TA.AperFunction,Plated,PTH,ComponentDrill
T4C0.0591
%
G90
G05
T1
X6.3604Y-3.4208
X6.3604Y-3.4808
X6.3905Y-3.3907
X6.3905Y-3.4508
X6.3905Y-3.5108
X6.4205Y-3.4208
X6.4205Y-3.4808
X6.4505Y-3.3907
X6.4505Y-3.4508
X6.4505Y-3.5108
X6.4805Y-3.4208
X6.4805Y-3.4808
X9.1457Y-2.552
X9.1457Y-2.5815
X9.1457Y-2.611
X9.1732Y-2.552
X9.1732Y-2.5815
X9.1732Y-2.611
T2
X6.4976Y-4.0339
X6.5268Y-3.7075
X6.5496Y-4.0598
X6.5776Y-3.687
X6.7016Y-3.948
X6.7047Y-4.2047
X6.752Y-2.9728
X6.7531Y-2.9386
X6.8909Y-3.1626
X6.9352Y-2.8622
X6.9665Y-3.1244
X7.039Y-3.0917
X7.0406Y-2.861
X7.063Y-3.1165
X7.0855Y-3.1386
X7.2618Y-3.0949
X7.3807Y-3.5126
X7.386Y-3.5943
X7.3866Y-3.4733
X7.402Y-4.0744
X7.4035Y-3.9776
X7.4278Y-3.6695
X7.4416Y-3.1668
X7.4772Y-4.1079
X7.478Y-3.1638
X7.4823Y-3.4709
X7.5409Y-3.6709
X7.5681Y-3.3737
X7.578Y-3.4953
X7.5795Y-3.2323
X7.5831Y-3.1996
X7.6638Y-3.9776
X7.687Y-3.4043
X7.7157Y-3.2677
X7.7165Y-3.1685
X7.7898Y-4.1587
X7.7924Y-3.2935
X7.7961Y-3.3248
X7.8484Y-3.1606
X7.8496Y-3.3571
X7.8713Y-4.0972
X7.928Y-3.1417
X7.9605Y-2.8238
X7.985Y-3.1476
X7.9929Y-2.9681
X8.0346Y-3.3709
X8.0362Y-4.1988
X8.1091Y-3.6461
X8.1516Y-2.6689
X8.2134Y-3.2516
X8.2382Y-4.2224
X8.2646Y-3.2504
X8.2646Y-3.352
X8.5197Y-3.5437
X8.5673Y-2.9157
X8.6126Y-2.985
X8.6126Y-3.1378
X8.6437Y-3.1106
X8.6602Y-2.8213
X8.7642Y-3.0161
T3
X10.1354Y-3.4241
X10.2354Y-3.3241
X10.2354Y-3.5241
X10.3354Y-3.4241
T4
X8.1736Y-3.9579
X8.9803Y-3.9579
M30
