%TF.GenerationSoftware,KiCad,Pcbnew,10.0.3*%
%TF.CreationDate,2026-07-22T13:27:26+03:00*%
%TF.ProjectId,CV-collar,43562d63-6f6c-46c6-9172-2e6b69636164,rev?*%
%TF.SameCoordinates,Original*%
%TF.FileFunction,Soldermask,Top*%
%TF.FilePolarity,Negative*%
%FSLAX46Y46*%
G04 Gerber Fmt 4.6, Leading zero omitted, Abs format (unit mm)*
G04 Created by KiCad (PCBNEW 10.0.3) date 2026-07-22 13:27:26*
%MOMM*%
%LPD*%
G01*
G04 APERTURE LIST*
G04 Aperture macros list*
%AMRoundRect*
0 Rectangle with rounded corners*
0 $1 Rounding radius*
0 $2 $3 $4 $5 $6 $7 $8 $9 X,Y pos of 4 corners*
0 Add a 4 corners polygon primitive as box body*
4,1,4,$2,$3,$4,$5,$6,$7,$8,$9,$2,$3,0*
0 Add four circle primitives for the rounded corners*
1,1,$1+$1,$2,$3*
1,1,$1+$1,$4,$5*
1,1,$1+$1,$6,$7*
1,1,$1+$1,$8,$9*
0 Add four rect primitives between the rounded corners*
20,1,$1+$1,$2,$3,$4,$5,0*
20,1,$1+$1,$4,$5,$6,$7,0*
20,1,$1+$1,$6,$7,$8,$9,0*
20,1,$1+$1,$8,$9,$2,$3,0*%
G04 Aperture macros list end*
%ADD10RoundRect,0.250000X-1.300000X-0.250000X1.300000X-0.250000X1.300000X0.250000X-1.300000X0.250000X0*%
%ADD11RoundRect,0.075000X-0.350000X-0.075000X0.350000X-0.075000X0.350000X0.075000X-0.350000X0.075000X0*%
%ADD12RoundRect,0.075000X0.075000X-0.350000X0.075000X0.350000X-0.075000X0.350000X-0.075000X-0.350000X0*%
%ADD13RoundRect,0.150000X0.150000X-0.875000X0.150000X0.875000X-0.150000X0.875000X-0.150000X-0.875000X0*%
%ADD14RoundRect,0.200000X0.200000X0.275000X-0.200000X0.275000X-0.200000X-0.275000X0.200000X-0.275000X0*%
%ADD15RoundRect,0.250000X-0.325000X-0.650000X0.325000X-0.650000X0.325000X0.650000X-0.325000X0.650000X0*%
%ADD16RoundRect,0.225000X0.250000X-0.225000X0.250000X0.225000X-0.250000X0.225000X-0.250000X-0.225000X0*%
%ADD17R,0.800000X1.000000*%
%ADD18R,1.500000X0.700000*%
%ADD19RoundRect,0.200000X-0.200000X-0.275000X0.200000X-0.275000X0.200000X0.275000X-0.200000X0.275000X0*%
%ADD20RoundRect,0.225000X-0.225000X-0.250000X0.225000X-0.250000X0.225000X0.250000X-0.225000X0.250000X0*%
%ADD21R,2.510000X1.000000*%
%ADD22R,1.000000X0.800000*%
%ADD23R,0.700000X1.500000*%
%ADD24RoundRect,0.250000X-1.500000X-0.550000X1.500000X-0.550000X1.500000X0.550000X-1.500000X0.550000X0*%
%ADD25RoundRect,0.150000X-0.587500X-0.150000X0.587500X-0.150000X0.587500X0.150000X-0.587500X0.150000X0*%
%ADD26RoundRect,0.200000X-0.275000X0.200000X-0.275000X-0.200000X0.275000X-0.200000X0.275000X0.200000X0*%
%ADD27R,0.900000X1.500000*%
%ADD28R,1.500000X0.900000*%
%ADD29C,0.600000*%
%ADD30R,4.200000X4.200000*%
%ADD31R,3.000000X3.000000*%
%ADD32C,3.000000*%
%ADD33R,0.300000X0.750000*%
%ADD34R,1.500000X1.500000*%
%ADD35RoundRect,0.250000X0.850000X-0.375000X0.850000X0.375000X-0.850000X0.375000X-0.850000X-0.375000X0*%
%ADD36RoundRect,0.062500X-0.350000X-0.062500X0.350000X-0.062500X0.350000X0.062500X-0.350000X0.062500X0*%
%ADD37R,1.200000X2.000000*%
%ADD38O,1.600000X1.200000*%
%ADD39C,1.200000*%
G04 APERTURE END LIST*
D10*
%TO.C,SW1*%
X173480000Y-68630000D03*
X182380000Y-68630000D03*
X173480000Y-72630000D03*
X182380000Y-72630000D03*
%TD*%
D11*
%TO.C,U2*%
X187250000Y-83800000D03*
X187250000Y-84300000D03*
X187250000Y-84800000D03*
X187250000Y-85300000D03*
X187250000Y-85800000D03*
X187250000Y-86300000D03*
D12*
X187950000Y-87000000D03*
X188450000Y-87000000D03*
X188950000Y-87000000D03*
X189450000Y-87000000D03*
X189950000Y-87000000D03*
X190450000Y-87000000D03*
D11*
X191150000Y-86300000D03*
X191150000Y-85800000D03*
X191150000Y-85300000D03*
X191150000Y-84800000D03*
X191150000Y-84300000D03*
X191150000Y-83800000D03*
D12*
X190450000Y-83100000D03*
X189950000Y-83100000D03*
X189450000Y-83100000D03*
X188950000Y-83100000D03*
X188450000Y-83100000D03*
X187950000Y-83100000D03*
%TD*%
D13*
%TO.C,U3*%
X206162500Y-88270000D03*
X207432500Y-88270000D03*
X208702500Y-88270000D03*
X209972500Y-88270000D03*
X211242500Y-88270000D03*
X212512500Y-88270000D03*
X213782500Y-88270000D03*
X215052500Y-88270000D03*
X215052500Y-78970000D03*
X213782500Y-78970000D03*
X212512500Y-78970000D03*
X211242500Y-78970000D03*
X209972500Y-78970000D03*
X208702500Y-78970000D03*
X207432500Y-78970000D03*
X206162500Y-78970000D03*
%TD*%
D14*
%TO.C,R6*%
X204565000Y-68700000D03*
X202915000Y-68700000D03*
%TD*%
D15*
%TO.C,C9*%
X231220000Y-70830000D03*
X234170000Y-70830000D03*
%TD*%
D16*
%TO.C,C8*%
X227580000Y-67045000D03*
X227580000Y-65495000D03*
%TD*%
D17*
%TO.C,SW5*%
X239215000Y-77760000D03*
X241425000Y-77760000D03*
X239215000Y-70460000D03*
X241425000Y-70460000D03*
D18*
X238565000Y-76360000D03*
X238565000Y-73360000D03*
X238565000Y-71860000D03*
%TD*%
D19*
%TO.C,R13*%
X196830000Y-103400000D03*
X198480000Y-103400000D03*
%TD*%
D20*
%TO.C,C1*%
X201175000Y-95430000D03*
X202725000Y-95430000D03*
%TD*%
D21*
%TO.C,J3*%
X237560000Y-99210000D03*
X240870000Y-101750000D03*
X237560000Y-104290000D03*
X240870000Y-106830000D03*
%TD*%
D19*
%TO.C,R3*%
X201175000Y-103430000D03*
X202825000Y-103430000D03*
%TD*%
D20*
%TO.C,C11*%
X192400000Y-108320000D03*
X193950000Y-108320000D03*
%TD*%
D22*
%TO.C,SW3*%
X205600000Y-110525000D03*
X205600000Y-112735000D03*
X212900000Y-110525000D03*
X212900000Y-112735000D03*
D23*
X207000000Y-109875000D03*
X210000000Y-109875000D03*
X211500000Y-109875000D03*
%TD*%
D24*
%TO.C,C10*%
X156970000Y-106060000D03*
X162570000Y-106060000D03*
%TD*%
D19*
%TO.C,R5*%
X167415000Y-106080000D03*
X169065000Y-106080000D03*
%TD*%
%TO.C,R7*%
X183595000Y-77540000D03*
X185245000Y-77540000D03*
%TD*%
D25*
%TO.C,Q1*%
X208862500Y-64960000D03*
X208862500Y-66860000D03*
X210737500Y-65910000D03*
%TD*%
D21*
%TO.C,J5*%
X228395000Y-76430000D03*
X231705000Y-78970000D03*
%TD*%
D26*
%TO.C,R4*%
X204720000Y-65105000D03*
X204720000Y-66755000D03*
%TD*%
D27*
%TO.C,U1*%
X155740000Y-95720000D03*
X157010000Y-95720000D03*
X158280000Y-95720000D03*
X159550000Y-95720000D03*
X160820000Y-95720000D03*
X162090000Y-95720000D03*
X163360000Y-95720000D03*
X164630000Y-95720000D03*
X165900000Y-95720000D03*
X167170000Y-95720000D03*
X168440000Y-95720000D03*
X169710000Y-95720000D03*
X170980000Y-95720000D03*
X172250000Y-95720000D03*
D28*
X173500000Y-92680000D03*
X173500000Y-91410000D03*
X173500000Y-90140000D03*
X173500000Y-88870000D03*
X173500000Y-87600000D03*
X173500000Y-86330000D03*
X173500000Y-85060000D03*
X173500000Y-83790000D03*
X173500000Y-82520000D03*
X173500000Y-81250000D03*
D27*
X172250000Y-78220000D03*
X170980000Y-78220000D03*
X169710000Y-78220000D03*
X168440000Y-78220000D03*
X167170000Y-78220000D03*
X165900000Y-78220000D03*
X164630000Y-78220000D03*
X163360000Y-78220000D03*
X162090000Y-78220000D03*
X160820000Y-78220000D03*
X159550000Y-78220000D03*
X158280000Y-78220000D03*
X157010000Y-78220000D03*
X155740000Y-78220000D03*
D29*
X162317500Y-89175000D03*
X163842500Y-89175000D03*
X161555000Y-88412500D03*
X163080000Y-88412500D03*
X164605000Y-88412500D03*
X162317500Y-87650000D03*
D30*
X163080000Y-87650000D03*
D29*
X163842500Y-87650000D03*
X161555000Y-86887500D03*
X163080000Y-86887500D03*
X164605000Y-86887500D03*
X162317500Y-86125000D03*
X163842500Y-86125000D03*
%TD*%
D19*
%TO.C,R12*%
X196375000Y-112040000D03*
X198025000Y-112040000D03*
%TD*%
D31*
%TO.C,BT1*%
X207610000Y-100530000D03*
D32*
X228100000Y-100530000D03*
%TD*%
D21*
%TO.C,J9*%
X250805000Y-82891830D03*
X254115000Y-85431830D03*
X250805000Y-87971830D03*
X254115000Y-90511830D03*
%TD*%
D19*
%TO.C,R9*%
X188980000Y-95140000D03*
X190630000Y-95140000D03*
%TD*%
D20*
%TO.C,C5*%
X189755000Y-78940000D03*
X191305000Y-78940000D03*
%TD*%
%TO.C,C3*%
X193850000Y-84920000D03*
X195400000Y-84920000D03*
%TD*%
D19*
%TO.C,R10*%
X226825000Y-70690000D03*
X228475000Y-70690000D03*
%TD*%
D20*
%TO.C,C6*%
X257485000Y-91441830D03*
X259035000Y-91441830D03*
%TD*%
D33*
%TO.C,U5*%
X193560000Y-105760000D03*
X194060000Y-105760000D03*
X194560000Y-105760000D03*
X195060000Y-105760000D03*
X195060000Y-102760000D03*
X194560000Y-102760000D03*
X194060000Y-102760000D03*
X193560000Y-102760000D03*
D34*
X194310000Y-104260000D03*
%TD*%
D20*
%TO.C,C4*%
X188955000Y-91100000D03*
X190505000Y-91100000D03*
%TD*%
D35*
%TO.C,L1*%
X238020000Y-66945000D03*
X238020000Y-64795000D03*
%TD*%
D19*
%TO.C,R8*%
X188895000Y-98300000D03*
X190545000Y-98300000D03*
%TD*%
D21*
%TO.C,J8*%
X237470000Y-82880000D03*
X240780000Y-85420000D03*
X237470000Y-87960000D03*
X240780000Y-90500000D03*
%TD*%
D36*
%TO.C,U4*%
X231437500Y-64570000D03*
X231437500Y-65070000D03*
X231437500Y-65570000D03*
X231437500Y-66070000D03*
X231437500Y-66570000D03*
X233862500Y-66570000D03*
X233862500Y-66070000D03*
X233862500Y-65570000D03*
X233862500Y-65070000D03*
X233862500Y-64570000D03*
D37*
X232650000Y-65570000D03*
%TD*%
D10*
%TO.C,SW2*%
X173400000Y-101410000D03*
X182300000Y-101410000D03*
X173400000Y-105410000D03*
X182300000Y-105410000D03*
%TD*%
D20*
%TO.C,C2*%
X201220000Y-99150000D03*
X202770000Y-99150000D03*
%TD*%
D16*
%TO.C,C7*%
X169050000Y-103155000D03*
X169050000Y-101605000D03*
%TD*%
D20*
%TO.C,C12*%
X195525000Y-108320000D03*
X197075000Y-108320000D03*
%TD*%
D19*
%TO.C,R11*%
X192090000Y-112100000D03*
X193740000Y-112100000D03*
%TD*%
D22*
%TO.C,SW4*%
X165880000Y-110365000D03*
X165880000Y-112575000D03*
X173180000Y-110365000D03*
X173180000Y-112575000D03*
D23*
X167280000Y-109715000D03*
X170280000Y-109715000D03*
X171780000Y-109715000D03*
%TD*%
D25*
%TO.C,Q2*%
X199080000Y-75690000D03*
X199080000Y-77590000D03*
X200955000Y-76640000D03*
%TD*%
D38*
%TO.C,J2*%
X262520000Y-86971830D03*
D39*
X259980000Y-89511830D03*
X257440000Y-86971830D03*
X259980000Y-84431830D03*
%TD*%
M02*
