%TF.GenerationSoftware,KiCad,Pcbnew,10.0.3*%
%TF.CreationDate,2026-08-31T11:55:46+03:00*%
%TF.ProjectId,CV-collar,43562d63-6f6c-46c6-9172-2e6b69636164,rev?*%
%TF.SameCoordinates,Original*%
%TF.FileFunction,Copper,L1,Top*%
%TF.FilePolarity,Positive*%
%FSLAX46Y46*%
G04 Gerber Fmt 4.6, Leading zero omitted, Abs format (unit mm)*
G04 Created by KiCad (PCBNEW 10.0.3) date 2026-08-31 11:55:46*
%MOMM*%
%LPD*%
G01*
G04 APERTURE LIST*
G04 Aperture macros list*
%AMRoundRect*
0 Rectangle with rounded corners*
0 $1 Rounding radius*
0 $2 $3 $4 $5 $6 $7 $8 $9 X,Y pos of 4 corners*
0 Add a 4 corners polygon primitive as box body*
4,1,4,$2,$3,$4,$5,$6,$7,$8,$9,$2,$3,0*
0 Add four circle primitives for the rounded corners*
1,1,$1+$1,$2,$3*
1,1,$1+$1,$4,$5*
1,1,$1+$1,$6,$7*
1,1,$1+$1,$8,$9*
0 Add four rect primitives between the rounded corners*
20,1,$1+$1,$2,$3,$4,$5,0*
20,1,$1+$1,$4,$5,$6,$7,0*
20,1,$1+$1,$6,$7,$8,$9,0*
20,1,$1+$1,$8,$9,$2,$3,0*%
G04 Aperture macros list end*
%TA.AperFunction,SMDPad,CuDef*%
%ADD10RoundRect,0.087500X-0.225000X-0.087500X0.225000X-0.087500X0.225000X0.087500X-0.225000X0.087500X0*%
%TD*%
%TA.AperFunction,SMDPad,CuDef*%
%ADD11RoundRect,0.087500X-0.087500X-0.225000X0.087500X-0.225000X0.087500X0.225000X-0.087500X0.225000X0*%
%TD*%
%TA.AperFunction,SMDPad,CuDef*%
%ADD12RoundRect,0.250000X-1.300000X-0.250000X1.300000X-0.250000X1.300000X0.250000X-1.300000X0.250000X0*%
%TD*%
%TA.AperFunction,SMDPad,CuDef*%
%ADD13RoundRect,0.150000X0.150000X-0.825000X0.150000X0.825000X-0.150000X0.825000X-0.150000X-0.825000X0*%
%TD*%
%TA.AperFunction,SMDPad,CuDef*%
%ADD14RoundRect,0.200000X0.200000X0.275000X-0.200000X0.275000X-0.200000X-0.275000X0.200000X-0.275000X0*%
%TD*%
%TA.AperFunction,SMDPad,CuDef*%
%ADD15RoundRect,0.250000X-0.325000X-0.650000X0.325000X-0.650000X0.325000X0.650000X-0.325000X0.650000X0*%
%TD*%
%TA.AperFunction,ComponentPad*%
%ADD16R,1.700000X1.700000*%
%TD*%
%TA.AperFunction,ComponentPad*%
%ADD17C,1.700000*%
%TD*%
%TA.AperFunction,SMDPad,CuDef*%
%ADD18RoundRect,0.225000X0.250000X-0.225000X0.250000X0.225000X-0.250000X0.225000X-0.250000X-0.225000X0*%
%TD*%
%TA.AperFunction,SMDPad,CuDef*%
%ADD19RoundRect,0.200000X-0.200000X-0.275000X0.200000X-0.275000X0.200000X0.275000X-0.200000X0.275000X0*%
%TD*%
%TA.AperFunction,SMDPad,CuDef*%
%ADD20RoundRect,0.225000X-0.225000X-0.250000X0.225000X-0.250000X0.225000X0.250000X-0.225000X0.250000X0*%
%TD*%
%TA.AperFunction,SMDPad,CuDef*%
%ADD21RoundRect,0.250000X1.500000X0.550000X-1.500000X0.550000X-1.500000X-0.550000X1.500000X-0.550000X0*%
%TD*%
%TA.AperFunction,SMDPad,CuDef*%
%ADD22RoundRect,0.150000X-0.587500X-0.150000X0.587500X-0.150000X0.587500X0.150000X-0.587500X0.150000X0*%
%TD*%
%TA.AperFunction,SMDPad,CuDef*%
%ADD23RoundRect,0.200000X-0.275000X0.200000X-0.275000X-0.200000X0.275000X-0.200000X0.275000X0.200000X0*%
%TD*%
%TA.AperFunction,SMDPad,CuDef*%
%ADD24R,0.300000X0.250013*%
%TD*%
%TA.AperFunction,SMDPad,CuDef*%
%ADD25R,2.000000X2.400000*%
%TD*%
%TA.AperFunction,SMDPad,CuDef*%
%ADD26R,0.900000X1.500000*%
%TD*%
%TA.AperFunction,SMDPad,CuDef*%
%ADD27R,1.500000X0.900000*%
%TD*%
%TA.AperFunction,SMDPad,CuDef*%
%ADD28R,1.050000X1.050000*%
%TD*%
%TA.AperFunction,HeatsinkPad*%
%ADD29C,0.600000*%
%TD*%
%TA.AperFunction,HeatsinkPad*%
%ADD30R,4.200000X4.200000*%
%TD*%
%TA.AperFunction,SMDPad,CuDef*%
%ADD31R,2.600000X3.600000*%
%TD*%
%TA.AperFunction,SMDPad,CuDef*%
%ADD32RoundRect,0.200000X0.275000X-0.200000X0.275000X0.200000X-0.275000X0.200000X-0.275000X-0.200000X0*%
%TD*%
%TA.AperFunction,SMDPad,CuDef*%
%ADD33RoundRect,0.225000X-0.250000X0.225000X-0.250000X-0.225000X0.250000X-0.225000X0.250000X0.225000X0*%
%TD*%
%TA.AperFunction,SMDPad,CuDef*%
%ADD34R,0.300000X0.750000*%
%TD*%
%TA.AperFunction,SMDPad,CuDef*%
%ADD35R,1.500000X1.500000*%
%TD*%
%TA.AperFunction,SMDPad,CuDef*%
%ADD36RoundRect,0.250000X0.850000X-0.375000X0.850000X0.375000X-0.850000X0.375000X-0.850000X-0.375000X0*%
%TD*%
%TA.AperFunction,SMDPad,CuDef*%
%ADD37RoundRect,0.062500X-0.350000X-0.062500X0.350000X-0.062500X0.350000X0.062500X-0.350000X0.062500X0*%
%TD*%
%TA.AperFunction,HeatsinkPad*%
%ADD38C,0.500000*%
%TD*%
%TA.AperFunction,HeatsinkPad*%
%ADD39R,1.200000X2.000000*%
%TD*%
%TA.AperFunction,SMDPad,CuDef*%
%ADD40RoundRect,0.150000X0.150000X-0.587500X0.150000X0.587500X-0.150000X0.587500X-0.150000X-0.587500X0*%
%TD*%
%TA.AperFunction,ViaPad*%
%ADD41C,0.600000*%
%TD*%
%TA.AperFunction,Conductor*%
%ADD42C,0.200000*%
%TD*%
%TA.AperFunction,Conductor*%
%ADD43C,0.500000*%
%TD*%
G04 APERTURE END LIST*
D10*
%TO.P,U7,1,SDO/SA0_1*%
%TO.N,Net-(J1-Pin_2)*%
X206325000Y-84020000D03*
%TO.P,U7,2,SDX_2*%
%TO.N,unconnected-(U7-SDX-Pad2)*%
X206325000Y-84520000D03*
%TO.P,U7,3,SCX_3*%
%TO.N,unconnected-(U7-SCX-Pad3)*%
X206325000Y-85020000D03*
%TO.P,U7,4,INT1_4*%
%TO.N,MPU_INT*%
X206325000Y-85520000D03*
D11*
%TO.P,U7,5,VDDIO_5*%
%TO.N,SEN_VCC*%
X206987500Y-85682500D03*
%TO.P,U7,6,GND_6*%
%TO.N,GND*%
X207487500Y-85682500D03*
%TO.P,U7,7,GND_7*%
X207987500Y-85682500D03*
D10*
%TO.P,U7,8,VDD_8*%
%TO.N,SEN_VCC*%
X208650000Y-85520000D03*
%TO.P,U7,9,INT2_9*%
%TO.N,unconnected-(U7-INT2-Pad9)*%
X208650000Y-85020000D03*
%TO.P,U7,10,NC_10*%
%TO.N,unconnected-(U7-NC-Pad10)*%
X208650000Y-84520000D03*
%TO.P,U7,11,NC_11*%
%TO.N,unconnected-(U7-NC-Pad11)*%
X208650000Y-84020000D03*
D11*
%TO.P,U7,12,CS_12*%
%TO.N,SEN_VCC*%
X207987500Y-83857500D03*
%TO.P,U7,13,SCL_13*%
%TO.N,SCL*%
X207487500Y-83857500D03*
%TO.P,U7,14,SDA_14*%
%TO.N,SDA*%
X206987500Y-83857500D03*
%TD*%
D12*
%TO.P,SW1,1,1_1*%
%TO.N,GND*%
X177740000Y-68930000D03*
X186640000Y-68930000D03*
%TO.P,SW1,2,2_2*%
%TO.N,GPIO0*%
X177740000Y-72930000D03*
X186640000Y-72930000D03*
%TD*%
D13*
%TO.P,U3,1,32KHZ_1*%
%TO.N,unconnected-(U3-32KHZ-Pad1)*%
X186505000Y-86535000D03*
%TO.P,U3,2,VCC_2*%
%TO.N,VCC*%
X187775000Y-86535000D03*
%TO.P,U3,3,~{INT}/SQW_3*%
%TO.N,INT{slash}SQW*%
X189045000Y-86535000D03*
%TO.P,U3,4,~{RST}_4*%
%TO.N,unconnected-(U3-~{RST}-Pad4)*%
X190315000Y-86535000D03*
%TO.P,U3,5,GND_5*%
%TO.N,GND*%
X190315000Y-81585000D03*
%TO.P,U3,6,VBAT_6*%
%TO.N,Net-(BT1-+)*%
X189045000Y-81585000D03*
%TO.P,U3,7,SDA_7*%
%TO.N,SDA*%
X187775000Y-81585000D03*
%TO.P,U3,8,SCL_8*%
%TO.N,SCL*%
X186505000Y-81585000D03*
%TD*%
D14*
%TO.P,R6,1*%
%TO.N,GND*%
X170490000Y-102010000D03*
%TO.P,R6,2*%
%TO.N,GPIO27*%
X168840000Y-102010000D03*
%TD*%
D15*
%TO.P,C9,1*%
%TO.N,GND*%
X231200000Y-68950000D03*
%TO.P,C9,2*%
%TO.N,VCC*%
X234150000Y-68950000D03*
%TD*%
D16*
%TO.P,J4,1,Pin_1_1*%
%TO.N,GND*%
X236830000Y-74005000D03*
D17*
%TO.P,J4,2,Pin_2_2*%
%TO.N,Net-(J4-Pin_2)*%
X236830000Y-76545000D03*
%TD*%
D18*
%TO.P,C8,1*%
%TO.N,GND*%
X227560000Y-65165000D03*
%TO.P,C8,2*%
%TO.N,Vin*%
X227560000Y-63615000D03*
%TD*%
D14*
%TO.P,R13,1*%
%TO.N,ALRT*%
X197055000Y-82640000D03*
%TO.P,R13,2*%
%TO.N,VCC*%
X195405000Y-82640000D03*
%TD*%
D18*
%TO.P,C1,1*%
%TO.N,VCC*%
X185600000Y-90090000D03*
%TO.P,C1,2*%
%TO.N,GND*%
X185600000Y-88540000D03*
%TD*%
D16*
%TO.P,J3,1,Pin_1_1*%
%TO.N,RX*%
X172660000Y-65410000D03*
D17*
%TO.P,J3,2,Pin_2_2*%
%TO.N,TX*%
X172660000Y-67950000D03*
%TO.P,J3,3,Pin_3_3*%
%TO.N,VCC*%
X172660000Y-70490000D03*
%TO.P,J3,4,Pin_4_4*%
%TO.N,GND*%
X172660000Y-73030000D03*
%TD*%
D19*
%TO.P,R3,1*%
%TO.N,VCC*%
X187605000Y-90100000D03*
%TO.P,R3,2*%
%TO.N,INT{slash}SQW*%
X189255000Y-90100000D03*
%TD*%
D20*
%TO.P,C11,1*%
%TO.N,GND*%
X197070000Y-89410000D03*
%TO.P,C11,2*%
%TO.N,Net-(U5-CELL)*%
X198620000Y-89410000D03*
%TD*%
D21*
%TO.P,C10,1*%
%TO.N,VCC*%
X166830000Y-106360000D03*
%TO.P,C10,2*%
%TO.N,GND*%
X161230000Y-106360000D03*
%TD*%
D19*
%TO.P,R5,1*%
%TO.N,VCC*%
X171675000Y-106380000D03*
%TO.P,R5,2*%
%TO.N,EN*%
X173325000Y-106380000D03*
%TD*%
D14*
%TO.P,R7,1*%
%TO.N,VCC*%
X188590000Y-75650000D03*
%TO.P,R7,2*%
%TO.N,GPIO0*%
X186940000Y-75650000D03*
%TD*%
D22*
%TO.P,Q1,1,G_1*%
%TO.N,GPIO25*%
X213122500Y-65260000D03*
%TO.P,Q1,2,S_2*%
%TO.N,VCC*%
X213122500Y-67160000D03*
%TO.P,Q1,3,D_3*%
%TO.N,SEN_VCC*%
X214997500Y-66210000D03*
%TD*%
D23*
%TO.P,R4,1*%
%TO.N,GPIO25*%
X208980000Y-65405000D03*
%TO.P,R4,2*%
%TO.N,VCC*%
X208980000Y-67055000D03*
%TD*%
D24*
%TO.P,U6,1,SDA_1*%
%TO.N,Net-(J9-Pin_2)*%
X260139618Y-85080000D03*
%TO.P,U6,2,VDD_2*%
%TO.N,Net-(J9-Pin_3)*%
X260139618Y-85580127D03*
%TO.P,U6,3,GND_3*%
%TO.N,GND*%
X260139618Y-86080000D03*
%TO.P,U6,4,SCL_4*%
%TO.N,Net-(J9-Pin_1)*%
X260139618Y-86580127D03*
%TO.P,U6,5,ADDR_5*%
%TO.N,GND*%
X260139618Y-87080000D03*
D25*
%TO.P,U6,6,6_6*%
X261640000Y-86080000D03*
%TD*%
D26*
%TO.P,U1,1,GND_1*%
%TO.N,GND*%
X160000000Y-96020000D03*
%TO.P,U1,2,VDD_2*%
%TO.N,VCC*%
X161270000Y-96020000D03*
%TO.P,U1,3,EN_3*%
%TO.N,EN*%
X162540000Y-96020000D03*
%TO.P,U1,4,SENSOR_VP_4*%
%TO.N,unconnected-(U1-SENSOR_VP-Pad4)*%
X163810000Y-96020000D03*
%TO.P,U1,5,SENSOR_VN_5*%
%TO.N,unconnected-(U1-SENSOR_VN-Pad5)*%
X165080000Y-96020000D03*
%TO.P,U1,6,IO34_6*%
%TO.N,unconnected-(U1-IO34-Pad6)*%
X166350000Y-96020000D03*
%TO.P,U1,7,IO35_7*%
%TO.N,unconnected-(U1-IO35-Pad7)*%
X167620000Y-96020000D03*
%TO.P,U1,8,IO32_8*%
%TO.N,unconnected-(U1-IO32-Pad8)*%
X168890000Y-96020000D03*
%TO.P,U1,9,IO33_9*%
%TO.N,unconnected-(U1-IO33-Pad9)*%
X170160000Y-96020000D03*
%TO.P,U1,10,IO25_10*%
%TO.N,GPIO25*%
X171430000Y-96020000D03*
%TO.P,U1,11,IO26_11*%
%TO.N,unconnected-(U1-IO26-Pad11)*%
X172700000Y-96020000D03*
%TO.P,U1,12,IO27_12*%
%TO.N,GPIO27*%
X173970000Y-96020000D03*
%TO.P,U1,13,IO14_13*%
%TO.N,unconnected-(U1-IO14-Pad13)*%
X175240000Y-96020000D03*
%TO.P,U1,14,IO12_14*%
%TO.N,unconnected-(U1-IO12-Pad14)*%
X176510000Y-96020000D03*
D27*
%TO.P,U1,15,GND_15*%
%TO.N,GND*%
X177760000Y-92980000D03*
%TO.P,U1,16,IO13_16*%
%TO.N,ALRT*%
X177760000Y-91710000D03*
%TO.P,U1,17,SHD/SD2_17*%
%TO.N,unconnected-(U1-SHD{slash}SD2-Pad17)*%
X177760000Y-90440000D03*
%TO.P,U1,18,SWP/SD3_18*%
%TO.N,unconnected-(U1-SWP{slash}SD3-Pad18)*%
X177760000Y-89170000D03*
%TO.P,U1,19,SCS/CMD_19*%
%TO.N,unconnected-(U1-SCS{slash}CMD-Pad19)*%
X177760000Y-87900000D03*
%TO.P,U1,20,SCK/CLK_20*%
%TO.N,unconnected-(U1-SCK{slash}CLK-Pad20)*%
X177760000Y-86630000D03*
%TO.P,U1,21,SDO/SD0_21*%
%TO.N,unconnected-(U1-SDO{slash}SD0-Pad21)*%
X177760000Y-85360000D03*
%TO.P,U1,22,SDI/SD1_22*%
%TO.N,unconnected-(U1-SDI{slash}SD1-Pad22)*%
X177760000Y-84090000D03*
%TO.P,U1,23,IO15_23*%
%TO.N,unconnected-(U1-IO15-Pad23)*%
X177760000Y-82820000D03*
%TO.P,U1,24,IO2_24*%
%TO.N,unconnected-(U1-IO2-Pad24)*%
X177760000Y-81550000D03*
D26*
%TO.P,U1,25,IO0_25*%
%TO.N,GPIO0*%
X176510000Y-78520000D03*
%TO.P,U1,26,IO4_26*%
%TO.N,INT{slash}SQW*%
X175240000Y-78520000D03*
%TO.P,U1,27,IO16_27*%
%TO.N,unconnected-(U1-IO16-Pad27)*%
X173970000Y-78520000D03*
%TO.P,U1,28,IO17_28*%
%TO.N,unconnected-(U1-IO17-Pad28)*%
X172700000Y-78520000D03*
%TO.P,U1,29,IO5_29*%
%TO.N,MPU_INT*%
X171430000Y-78520000D03*
%TO.P,U1,30,IO18_30*%
%TO.N,unconnected-(U1-IO18-Pad30)*%
X170160000Y-78520000D03*
%TO.P,U1,31,IO19_31*%
%TO.N,unconnected-(U1-IO19-Pad31)*%
X168890000Y-78520000D03*
%TO.P,U1,32,NC_32*%
%TO.N,unconnected-(U1-NC-Pad32)*%
X167620000Y-78520000D03*
%TO.P,U1,33,IO21_33*%
%TO.N,SDA*%
X166350000Y-78520000D03*
%TO.P,U1,34,RXD0/IO3_34*%
%TO.N,TX*%
X165080000Y-78520000D03*
%TO.P,U1,35,TXD0/IO1_35*%
%TO.N,RX*%
X163810000Y-78520000D03*
%TO.P,U1,36,IO22_36*%
%TO.N,SCL*%
X162540000Y-78520000D03*
%TO.P,U1,37,IO23_37*%
%TO.N,unconnected-(U1-IO23-Pad37)*%
X161270000Y-78520000D03*
%TO.P,U1,38,GND_38*%
%TO.N,GND*%
X160000000Y-78520000D03*
D28*
%TO.P,U1,39,GND_39*%
X165815000Y-89475000D03*
D29*
X166577500Y-89475000D03*
D28*
X167340000Y-89475000D03*
D29*
X168102500Y-89475000D03*
D28*
X168865000Y-89475000D03*
D29*
X165815000Y-88712500D03*
X167340000Y-88712500D03*
X168865000Y-88712500D03*
D28*
X165815000Y-87950000D03*
D29*
X166577500Y-87950000D03*
D28*
X167340000Y-87950000D03*
D30*
X167340000Y-87950000D03*
D29*
X168102500Y-87950000D03*
D28*
X168865000Y-87950000D03*
D29*
X165815000Y-87187500D03*
X167340000Y-87187500D03*
X168865000Y-87187500D03*
D28*
X165815000Y-86425000D03*
D29*
X166577500Y-86425000D03*
D28*
X167340000Y-86425000D03*
D29*
X168102500Y-86425000D03*
D28*
X168865000Y-86425000D03*
%TD*%
D19*
%TO.P,R12,1*%
%TO.N,Vin*%
X201045000Y-93130000D03*
%TO.P,R12,2*%
%TO.N,Net-(U5-VDD)*%
X202695000Y-93130000D03*
%TD*%
D31*
%TO.P,BT1,1,+_1*%
%TO.N,Net-(BT1-+)*%
X210000000Y-102580000D03*
%TO.P,BT1,2,-_2*%
%TO.N,GND*%
X239300000Y-102580000D03*
%TD*%
D16*
%TO.P,J9,1,Pin_1_1*%
%TO.N,Net-(J9-Pin_1)*%
X251750000Y-83070000D03*
D17*
%TO.P,J9,2,Pin_2_2*%
%TO.N,Net-(J9-Pin_2)*%
X251750000Y-85610000D03*
%TO.P,J9,3,Pin_3_3*%
%TO.N,Net-(J9-Pin_3)*%
X251750000Y-88150000D03*
%TO.P,J9,4,Pin_4_4*%
%TO.N,GND*%
X251750000Y-90690000D03*
%TD*%
D32*
%TO.P,R9,1*%
%TO.N,VCC*%
X182750000Y-82190000D03*
%TO.P,R9,2*%
%TO.N,SCL*%
X182750000Y-80540000D03*
%TD*%
D20*
%TO.P,C3,1*%
%TO.N,SEN_VCC*%
X208870000Y-82050000D03*
%TO.P,C3,2*%
%TO.N,GND*%
X210420000Y-82050000D03*
%TD*%
D19*
%TO.P,R10,1*%
%TO.N,Net-(U4-CFG1)*%
X226805000Y-68810000D03*
%TO.P,R10,2*%
%TO.N,GND*%
X228455000Y-68810000D03*
%TD*%
D16*
%TO.P,J5,1,Pin_1_1*%
%TO.N,3.7V*%
X229480000Y-73960000D03*
D17*
%TO.P,J5,2,Pin_2_2*%
%TO.N,Net-(J4-Pin_2)*%
X229480000Y-76500000D03*
%TD*%
D33*
%TO.P,C6,1*%
%TO.N,Net-(J9-Pin_3)*%
X255040000Y-88230000D03*
%TO.P,C6,2*%
%TO.N,GND*%
X255040000Y-89780000D03*
%TD*%
D34*
%TO.P,U5,1,CTG_1*%
%TO.N,GND*%
X198230000Y-86850000D03*
%TO.P,U5,2,CELL_2*%
%TO.N,Net-(U5-CELL)*%
X198730000Y-86850000D03*
%TO.P,U5,3,VDD_3*%
%TO.N,Net-(U5-VDD)*%
X199230000Y-86850000D03*
%TO.P,U5,4,GND_4*%
%TO.N,GND*%
X199730000Y-86850000D03*
%TO.P,U5,5,~{ALRT}_5*%
%TO.N,ALRT*%
X199730000Y-83850000D03*
%TO.P,U5,6,QSTRT_6*%
%TO.N,GND*%
X199230000Y-83850000D03*
%TO.P,U5,7,SCL_7*%
%TO.N,SCL*%
X198730000Y-83850000D03*
%TO.P,U5,8,SDA_8*%
%TO.N,SDA*%
X198230000Y-83850000D03*
D35*
%TO.P,U5,9,EP_9*%
%TO.N,GND*%
X198980000Y-85350000D03*
%TD*%
D20*
%TO.P,C4,1*%
%TO.N,SEN_VCC*%
X208810000Y-79250000D03*
%TO.P,C4,2*%
%TO.N,GND*%
X210360000Y-79250000D03*
%TD*%
D36*
%TO.P,L1,1,1_1*%
%TO.N,Net-(U4-LX2)*%
X238000000Y-65065000D03*
%TO.P,L1,2,2_2*%
%TO.N,Net-(U4-LX1)*%
X238000000Y-62915000D03*
%TD*%
D16*
%TO.P,J6,1,Pin_1_1*%
%TO.N,VCC*%
X173900000Y-99030000D03*
D17*
%TO.P,J6,2,Pin_2_2*%
%TO.N,GPIO27*%
X171360000Y-99030000D03*
%TD*%
D23*
%TO.P,R8,1*%
%TO.N,VCC*%
X188515000Y-77555000D03*
%TO.P,R8,2*%
%TO.N,SDA*%
X188515000Y-79205000D03*
%TD*%
D16*
%TO.P,J8,1,Pin_1_1*%
%TO.N,SCL*%
X239100000Y-83790000D03*
D17*
%TO.P,J8,2,Pin_2_2*%
%TO.N,SDA*%
X239100000Y-86330000D03*
%TO.P,J8,3,Pin_3_3*%
%TO.N,SEN_VCC*%
X239100000Y-88870000D03*
%TO.P,J8,4,Pin_4_4*%
%TO.N,GND*%
X239100000Y-91410000D03*
%TD*%
D37*
%TO.P,U4,1,EN_1*%
%TO.N,Vin*%
X231417500Y-62690000D03*
%TO.P,U4,2,SEL_2*%
X231417500Y-63190000D03*
%TO.P,U4,3,CFG1_3*%
%TO.N,Net-(U4-CFG1)*%
X231417500Y-63690000D03*
%TO.P,U4,4,CFG2_4*%
%TO.N,GND*%
X231417500Y-64190000D03*
%TO.P,U4,5,CFG3_5*%
X231417500Y-64690000D03*
%TO.P,U4,6,VOUT_6*%
%TO.N,VCC*%
X233842500Y-64690000D03*
%TO.P,U4,7,LX2_7*%
%TO.N,Net-(U4-LX2)*%
X233842500Y-64190000D03*
%TO.P,U4,8,GND_8*%
%TO.N,GND*%
X233842500Y-63690000D03*
%TO.P,U4,9,LX1_9*%
%TO.N,Net-(U4-LX1)*%
X233842500Y-63190000D03*
%TO.P,U4,10,VIN_10*%
%TO.N,Vin*%
X233842500Y-62690000D03*
D38*
%TO.P,U4,11,GND_11*%
%TO.N,GND*%
X232280000Y-62940000D03*
X232280000Y-63690000D03*
X232280000Y-64440000D03*
D39*
X232630000Y-63690000D03*
D38*
X232980000Y-62940000D03*
X232980000Y-63690000D03*
X232980000Y-64440000D03*
%TD*%
D12*
%TO.P,SW2,1,1_1*%
%TO.N,GND*%
X177660000Y-101710000D03*
X186560000Y-101710000D03*
%TO.P,SW2,2,2_2*%
%TO.N,EN*%
X177660000Y-105710000D03*
X186560000Y-105710000D03*
%TD*%
D33*
%TO.P,C2,1*%
%TO.N,VCC*%
X185540000Y-91750000D03*
%TO.P,C2,2*%
%TO.N,GND*%
X185540000Y-93300000D03*
%TD*%
D18*
%TO.P,C7,1*%
%TO.N,EN*%
X173310000Y-103455000D03*
%TO.P,C7,2*%
%TO.N,GND*%
X173310000Y-101905000D03*
%TD*%
D20*
%TO.P,C12,1*%
%TO.N,Net-(U5-VDD)*%
X200195000Y-89410000D03*
%TO.P,C12,2*%
%TO.N,GND*%
X201745000Y-89410000D03*
%TD*%
D14*
%TO.P,R11,1*%
%TO.N,Vin*%
X198420000Y-93170000D03*
%TO.P,R11,2*%
%TO.N,Net-(U5-CELL)*%
X196770000Y-93170000D03*
%TD*%
D16*
%TO.P,J1,1,Pin_1_1*%
%TO.N,SEN_VCC*%
X229470000Y-82150000D03*
D17*
%TO.P,J1,2,Pin_2_2*%
%TO.N,Net-(J1-Pin_2)*%
X229470000Y-84690000D03*
%TO.P,J1,3,Pin_3_3*%
%TO.N,GND*%
X229470000Y-87230000D03*
%TD*%
D40*
%TO.P,Q2,1,G_1*%
%TO.N,GND*%
X218440000Y-68377500D03*
%TO.P,Q2,2,S_2*%
%TO.N,Vin*%
X220340000Y-68377500D03*
%TO.P,Q2,3,D_3*%
%TO.N,3.7V*%
X219390000Y-66502500D03*
%TD*%
D41*
%TO.N,*%
X174620000Y-101830000D03*
%TO.N,Net-(J1-Pin_2)*%
X207250000Y-87780000D03*
X204190000Y-85270000D03*
%TO.N,MPU_INT*%
X184930000Y-85340000D03*
X179710000Y-82440000D03*
X175590000Y-76350000D03*
X192690000Y-85320000D03*
%TO.N,SEN_VCC*%
X217840000Y-71300000D03*
X217800000Y-69660000D03*
%TO.N,GND*%
X198180000Y-87590000D03*
X182830000Y-90780000D03*
X160000000Y-97450000D03*
X224400000Y-66530000D03*
X249820000Y-90710000D03*
X199780000Y-87520000D03*
X193140000Y-81070000D03*
X216960000Y-68370000D03*
X172030000Y-100940000D03*
X207848075Y-85137676D03*
X211590000Y-82110000D03*
X225380000Y-80840000D03*
X260270000Y-83120000D03*
%TO.N,SCL*%
X209672557Y-84582557D03*
X207530000Y-80470000D03*
%TO.N,SDA*%
X201031765Y-81771765D03*
X188910000Y-80090000D03*
X204950000Y-83250000D03*
X185040000Y-79630000D03*
X208220000Y-87880000D03*
X198644265Y-81075735D03*
%TO.N,VCC*%
X184440000Y-82170000D03*
X184870000Y-78380000D03*
%TO.N,INT{slash}SQW*%
X174300000Y-76950000D03*
X179770000Y-83530000D03*
X183830000Y-87720000D03*
X189860000Y-88170000D03*
%TO.N,Net-(BT1-+)*%
X189600735Y-83110735D03*
X192060000Y-84340000D03*
%TO.N,Vin*%
X225140000Y-71480000D03*
X225010000Y-69110000D03*
X203050000Y-80380000D03*
X199750000Y-91820000D03*
%TO.N,ALRT*%
X197180000Y-81160000D03*
X199761765Y-83041765D03*
X186690000Y-95070000D03*
X193660000Y-89730000D03*
%TO.N,EN*%
X174990000Y-105260000D03*
X174490000Y-103520000D03*
%TO.N,3.7V*%
X219390000Y-69550000D03*
X221090000Y-71210000D03*
%TD*%
%TO.N,*%
D42*
X174620000Y-101860000D02*
X174620000Y-101830000D01*
%TO.N,Net-(J1-Pin_2)*%
X229380000Y-84600000D02*
X210432932Y-84600000D01*
X204190000Y-85270000D02*
X205440000Y-84020000D01*
X210432932Y-84600000D02*
X207252932Y-87780000D01*
X207252932Y-87780000D02*
X207250000Y-87780000D01*
X229470000Y-84690000D02*
X229380000Y-84600000D01*
X205440000Y-84020000D02*
X206325000Y-84020000D01*
%TO.N,MPU_INT*%
X203067648Y-93945000D02*
X206325000Y-90687648D01*
X179710000Y-82440000D02*
X182610000Y-85340000D01*
X192690000Y-85320000D02*
X192690000Y-90277648D01*
X206325000Y-90687648D02*
X206325000Y-85520000D01*
X192690000Y-90277648D02*
X196357352Y-93945000D01*
X196357352Y-93945000D02*
X203067648Y-93945000D01*
X172650000Y-76350000D02*
X175590000Y-76350000D01*
X171430000Y-78520000D02*
X171430000Y-77570000D01*
X182610000Y-85340000D02*
X184930000Y-85340000D01*
X171430000Y-77570000D02*
X172650000Y-76350000D01*
%TO.N,SEN_VCC*%
X239670000Y-82060000D02*
X229560000Y-82060000D01*
X217840000Y-71300000D02*
X218620000Y-71300000D01*
X207437958Y-87100000D02*
X208650000Y-85887958D01*
X216590000Y-82150000D02*
X215715000Y-81275000D01*
X207987500Y-82932500D02*
X207987500Y-83857500D01*
X206987500Y-85682500D02*
X206987500Y-85220432D01*
X239100000Y-88870000D02*
X240250000Y-87720000D01*
X208650000Y-85887958D02*
X208650000Y-85520000D01*
X214997500Y-68287500D02*
X216370000Y-69660000D01*
X216370000Y-69660000D02*
X217800000Y-69660000D01*
X207062500Y-85145432D02*
X207062500Y-86049722D01*
X229470000Y-82150000D02*
X216590000Y-82150000D01*
X240250000Y-87720000D02*
X240250000Y-82640000D01*
X207240000Y-87100000D02*
X207437958Y-87100000D01*
X208870000Y-82050000D02*
X207987500Y-82932500D01*
X207548966Y-84658966D02*
X207987500Y-84220432D01*
X206675000Y-86437222D02*
X206675000Y-86535000D01*
X207548966Y-84658966D02*
X207062500Y-85145432D01*
X240250000Y-82640000D02*
X239670000Y-82060000D01*
X215715000Y-81275000D02*
X209645000Y-81275000D01*
X206675000Y-86535000D02*
X207240000Y-87100000D01*
X218620000Y-71300000D02*
X229470000Y-82150000D01*
X229560000Y-82060000D02*
X229470000Y-82150000D01*
X214997500Y-66210000D02*
X214997500Y-68287500D01*
X206987500Y-85220432D02*
X207548966Y-84658966D01*
X208810000Y-81990000D02*
X208870000Y-82050000D01*
X207987500Y-84220432D02*
X207987500Y-83857500D01*
X207062500Y-86049722D02*
X206675000Y-86437222D01*
X209645000Y-81275000D02*
X208870000Y-82050000D01*
X208810000Y-79250000D02*
X208810000Y-81990000D01*
%TO.N,GND*%
X231417500Y-64190000D02*
X231780000Y-64190000D01*
X224430000Y-66530000D02*
X224400000Y-66530000D01*
X193140000Y-81080000D02*
X193140000Y-81070000D01*
X207487500Y-85682500D02*
X207987500Y-85682500D01*
X261640000Y-84490000D02*
X260270000Y-83120000D01*
X198230000Y-86850000D02*
X198230000Y-87540000D01*
D43*
X231060000Y-68810000D02*
X231200000Y-68950000D01*
D42*
X225380000Y-80780000D02*
X225380000Y-80840000D01*
X160000000Y-96020000D02*
X160000000Y-97450000D01*
X258740000Y-86080000D02*
X260139618Y-86080000D01*
X260139618Y-87769618D02*
X260140000Y-87770000D01*
X216960000Y-68370000D02*
X218006030Y-68370000D01*
X198230000Y-87540000D02*
X198180000Y-87590000D01*
X218013530Y-68377500D02*
X218440000Y-68377500D01*
X251750000Y-90690000D02*
X252660000Y-89780000D01*
X210420000Y-82050000D02*
X211530000Y-82050000D01*
X249840000Y-90690000D02*
X249820000Y-90710000D01*
X211530000Y-82050000D02*
X211590000Y-82110000D01*
X251750000Y-90690000D02*
X249840000Y-90690000D01*
X172040000Y-100950000D02*
X172030000Y-100940000D01*
X207487500Y-85682500D02*
X207487500Y-85498251D01*
X231417500Y-64690000D02*
X232030000Y-64690000D01*
X231780000Y-64190000D02*
X232280000Y-63690000D01*
X233842500Y-63690000D02*
X232980000Y-63690000D01*
X207487500Y-85498251D02*
X207848075Y-85137676D01*
X218006030Y-68370000D02*
X218013530Y-68377500D01*
X252660000Y-89780000D02*
X255040000Y-89780000D01*
X199730000Y-87470000D02*
X199780000Y-87520000D01*
X255040000Y-89780000D02*
X258740000Y-86080000D01*
X261640000Y-86080000D02*
X261640000Y-84490000D01*
X199730000Y-86850000D02*
X199730000Y-87470000D01*
X232030000Y-64690000D02*
X232280000Y-64440000D01*
X199230000Y-85100000D02*
X198980000Y-85350000D01*
X199230000Y-83850000D02*
X199230000Y-85100000D01*
X182830000Y-90790000D02*
X182830000Y-90780000D01*
X260139618Y-87080000D02*
X260139618Y-87769618D01*
%TO.N,SCL*%
X207530000Y-80470000D02*
X207180000Y-80470000D01*
X162540000Y-79470000D02*
X163610000Y-80540000D01*
X207180000Y-80470000D02*
X206500000Y-81150000D01*
X186505000Y-80027352D02*
X188027352Y-78505000D01*
X200805000Y-81150000D02*
X198730000Y-83225000D01*
X188027352Y-78505000D02*
X198160000Y-78505000D01*
X198160000Y-78505000D02*
X200805000Y-81150000D01*
X228534365Y-84070000D02*
X229014365Y-83590000D01*
X198730000Y-83225000D02*
X198730000Y-83850000D01*
X210185114Y-84070000D02*
X228534365Y-84070000D01*
X207487500Y-82137500D02*
X206500000Y-81150000D01*
X229925635Y-83590000D02*
X230405635Y-84070000D01*
X162540000Y-78520000D02*
X162540000Y-79470000D01*
X186505000Y-81585000D02*
X186505000Y-80027352D01*
X207487500Y-83857500D02*
X207487500Y-82137500D01*
X182750000Y-80540000D02*
X185460000Y-80540000D01*
X185460000Y-80540000D02*
X186505000Y-81585000D01*
X206500000Y-81150000D02*
X200805000Y-81150000D01*
X238820000Y-84070000D02*
X239100000Y-83790000D01*
X230405635Y-84070000D02*
X238820000Y-84070000D01*
X229014365Y-83590000D02*
X229925635Y-83590000D01*
X209672557Y-84582557D02*
X210185114Y-84070000D01*
X163610000Y-80540000D02*
X182750000Y-80540000D01*
%TO.N,SDA*%
X188515000Y-79205000D02*
X190010000Y-79205000D01*
X187775000Y-79945000D02*
X188515000Y-79205000D01*
X206987500Y-83819568D02*
X204957932Y-81790000D01*
X166350000Y-78520000D02*
X166350000Y-79470000D01*
X204957932Y-83242068D02*
X204957932Y-81790000D01*
X204957932Y-81790000D02*
X201050000Y-81790000D01*
X166350000Y-79470000D02*
X166510000Y-79630000D01*
X196773530Y-79205000D02*
X198644265Y-81075735D01*
X238760000Y-85990000D02*
X210110000Y-85990000D01*
X239100000Y-86330000D02*
X238760000Y-85990000D01*
X187775000Y-81585000D02*
X187775000Y-79945000D01*
X190010000Y-79205000D02*
X196773530Y-79205000D01*
X189605000Y-79395000D02*
X189820000Y-79395000D01*
X166510000Y-79630000D02*
X185040000Y-79630000D01*
X210110000Y-85990000D02*
X208220000Y-87880000D01*
X206987500Y-83857500D02*
X206987500Y-83819568D01*
X188910000Y-80090000D02*
X189605000Y-79395000D01*
X198230000Y-81490000D02*
X198230000Y-83850000D01*
X204950000Y-83250000D02*
X204957932Y-83242068D01*
X201050000Y-81790000D02*
X201031765Y-81771765D01*
X198644265Y-81075735D02*
X198230000Y-81490000D01*
X189820000Y-79395000D02*
X190010000Y-79205000D01*
%TO.N,GPIO0*%
X171560000Y-70945635D02*
X172544365Y-71930000D01*
X186940000Y-73230000D02*
X186640000Y-72930000D01*
X186940000Y-75650000D02*
X186940000Y-73230000D01*
X172544365Y-71930000D02*
X176740000Y-71930000D01*
X186640000Y-72930000D02*
X183744365Y-70034365D01*
X173760000Y-70034365D02*
X173115635Y-69390000D01*
X172204365Y-69390000D02*
X171560000Y-70034365D01*
X176510000Y-74160000D02*
X177740000Y-72930000D01*
X183744365Y-70034365D02*
X173760000Y-70034365D01*
X173115635Y-69390000D02*
X172204365Y-69390000D01*
X171560000Y-70034365D02*
X171560000Y-70945635D01*
X176510000Y-78520000D02*
X176510000Y-74160000D01*
X176740000Y-71930000D02*
X177740000Y-72930000D01*
%TO.N,VCC*%
X195405000Y-82640000D02*
X190920000Y-82640000D01*
D43*
X234020000Y-65540000D02*
X234150000Y-65670000D01*
D42*
X177634744Y-70490000D02*
X184870000Y-77725256D01*
X161270000Y-100800000D02*
X166830000Y-106360000D01*
X166850000Y-106380000D02*
X166830000Y-106360000D01*
X232840000Y-70260000D02*
X234150000Y-68950000D01*
X187605000Y-97765000D02*
X181170000Y-104200000D01*
X173900000Y-99030000D02*
X175580000Y-100710000D01*
X175580000Y-100710000D02*
X175580000Y-104200000D01*
X172660000Y-70490000D02*
X177634744Y-70490000D01*
X209085000Y-67160000D02*
X208980000Y-67055000D01*
X185600000Y-90090000D02*
X187595000Y-90090000D01*
D43*
X234150000Y-65670000D02*
X234150000Y-68950000D01*
D42*
X187775000Y-85505000D02*
X187775000Y-86535000D01*
X171675000Y-106380000D02*
X166850000Y-106380000D01*
X185695000Y-77555000D02*
X184870000Y-78380000D01*
X185600000Y-90090000D02*
X185600000Y-91690000D01*
X188590000Y-75650000D02*
X188590000Y-77480000D01*
X213122500Y-67160000D02*
X216222500Y-70260000D01*
X197185000Y-67055000D02*
X188590000Y-75650000D01*
X187595000Y-90090000D02*
X187605000Y-90100000D01*
X187775000Y-89930000D02*
X187605000Y-90100000D01*
X185600000Y-91690000D02*
X185540000Y-91750000D01*
X233842500Y-64690000D02*
X233842500Y-65362500D01*
X216222500Y-70260000D02*
X232840000Y-70260000D01*
X184440000Y-82170000D02*
X182770000Y-82170000D01*
X184440000Y-82170000D02*
X187775000Y-85505000D01*
X181170000Y-104200000D02*
X175580000Y-104200000D01*
X187605000Y-90100000D02*
X187605000Y-97765000D01*
X161270000Y-96020000D02*
X161270000Y-100800000D01*
X190920000Y-82640000D02*
X187775000Y-85785000D01*
X188515000Y-77555000D02*
X185695000Y-77555000D01*
X187775000Y-86535000D02*
X187775000Y-89930000D01*
X175580000Y-104200000D02*
X173855000Y-104200000D01*
X188590000Y-77480000D02*
X188515000Y-77555000D01*
X187775000Y-85785000D02*
X187775000Y-86535000D01*
X233842500Y-65362500D02*
X234020000Y-65540000D01*
X213122500Y-67160000D02*
X209085000Y-67160000D01*
X173855000Y-104200000D02*
X171675000Y-106380000D01*
X182770000Y-82170000D02*
X182750000Y-82190000D01*
X184870000Y-77725256D02*
X184870000Y-78380000D01*
X208980000Y-67055000D02*
X197185000Y-67055000D01*
%TO.N,INT{slash}SQW*%
X175240000Y-77890000D02*
X174300000Y-76950000D01*
X175240000Y-78520000D02*
X175240000Y-77890000D01*
X179770000Y-83530000D02*
X183830000Y-87590000D01*
X189085000Y-88170000D02*
X189045000Y-88210000D01*
X189860000Y-88170000D02*
X189085000Y-88170000D01*
X189045000Y-86535000D02*
X189045000Y-88210000D01*
X189045000Y-89890000D02*
X189255000Y-90100000D01*
X183830000Y-87590000D02*
X183830000Y-87720000D01*
X189045000Y-88210000D02*
X189045000Y-89890000D01*
%TO.N,Net-(BT1-+)*%
X192060000Y-90213333D02*
X204426667Y-102580000D01*
X204426667Y-102580000D02*
X209440000Y-102580000D01*
X192060000Y-84340000D02*
X192060000Y-90213333D01*
X189045000Y-82555000D02*
X189600735Y-83110735D01*
X189045000Y-81585000D02*
X189045000Y-82555000D01*
%TO.N,GPIO27*%
X168840000Y-102010000D02*
X168840000Y-101550000D01*
X168840000Y-101550000D02*
X171360000Y-99030000D01*
X171360000Y-99030000D02*
X173970000Y-96420000D01*
X173970000Y-96420000D02*
X173970000Y-96020000D01*
%TO.N,Net-(J4-Pin_2)*%
X236785000Y-76500000D02*
X236830000Y-76545000D01*
X229480000Y-76500000D02*
X236785000Y-76500000D01*
%TO.N,Vin*%
X220340000Y-68377500D02*
X225102500Y-63615000D01*
X231417500Y-62690000D02*
X231417500Y-63190000D01*
X203050000Y-80380000D02*
X212730000Y-70700000D01*
D43*
X227560000Y-63615000D02*
X229555000Y-63615000D01*
D42*
X212730000Y-70700000D02*
X219731471Y-70700000D01*
X225102500Y-63615000D02*
X227560000Y-63615000D01*
X233542500Y-62390000D02*
X233842500Y-62690000D01*
X221072500Y-69110000D02*
X220340000Y-68377500D01*
D43*
X229555000Y-63615000D02*
X229700000Y-63470000D01*
D42*
X231417500Y-62690000D02*
X231717500Y-62390000D01*
X200985000Y-93190000D02*
X201045000Y-93130000D01*
X201045000Y-93115000D02*
X199750000Y-91820000D01*
X230630000Y-72810000D02*
X229300000Y-71480000D01*
X198410000Y-93190000D02*
X200985000Y-93190000D01*
X229700000Y-63470000D02*
X229980000Y-63190000D01*
X201045000Y-93130000D02*
X201045000Y-93115000D01*
X224141471Y-75110000D02*
X230630000Y-75110000D01*
X229980000Y-63190000D02*
X231417500Y-63190000D01*
X231717500Y-62390000D02*
X233542500Y-62390000D01*
X230630000Y-75110000D02*
X230630000Y-72810000D01*
X225010000Y-69110000D02*
X221072500Y-69110000D01*
X229300000Y-71480000D02*
X225140000Y-71480000D01*
X219731471Y-70700000D02*
X224141471Y-75110000D01*
%TO.N,ALRT*%
X199730000Y-83850000D02*
X199730000Y-83073530D01*
X177760000Y-91710000D02*
X181140000Y-91710000D01*
X199730000Y-83073530D02*
X199761765Y-83041765D01*
X197180000Y-81160000D02*
X197180000Y-82515000D01*
X197180000Y-82515000D02*
X197055000Y-82640000D01*
X181140000Y-91710000D02*
X184500000Y-95070000D01*
X184500000Y-95070000D02*
X186690000Y-95070000D01*
X197055000Y-86335000D02*
X197055000Y-82640000D01*
X193660000Y-89730000D02*
X197055000Y-86335000D01*
%TO.N,RX*%
X172660000Y-65410000D02*
X163810000Y-74260000D01*
X163810000Y-74260000D02*
X163810000Y-78520000D01*
%TO.N,TX*%
X172660000Y-67950000D02*
X165080000Y-75530000D01*
X165080000Y-75530000D02*
X165080000Y-78520000D01*
%TO.N,Net-(U5-CELL)*%
X198620000Y-89410000D02*
X198730000Y-89300000D01*
X198730000Y-89300000D02*
X198730000Y-86850000D01*
X196760000Y-91270000D02*
X198620000Y-89410000D01*
X196760000Y-93190000D02*
X196760000Y-91270000D01*
%TO.N,EN*%
X169097352Y-103455000D02*
X173310000Y-103455000D01*
X174490000Y-103520000D02*
X173375000Y-103520000D01*
X162540000Y-96897648D02*
X169097352Y-103455000D01*
X173375000Y-103520000D02*
X173310000Y-103455000D01*
X174990000Y-106380000D02*
X174990000Y-105260000D01*
X162540000Y-96020000D02*
X162540000Y-96897648D01*
X174990000Y-106380000D02*
X176990000Y-106380000D01*
X173325000Y-106380000D02*
X174990000Y-106380000D01*
X177660000Y-105710000D02*
X186560000Y-105710000D01*
X176990000Y-106380000D02*
X177660000Y-105710000D01*
%TO.N,GPIO25*%
X238623654Y-90020000D02*
X239576346Y-90020000D01*
X165095256Y-107460000D02*
X221183654Y-107460000D01*
X170910000Y-94970000D02*
X159250000Y-94970000D01*
X164780000Y-105575256D02*
X164780000Y-107144744D01*
X209125000Y-65260000D02*
X208980000Y-65405000D01*
X213122500Y-65260000D02*
X209125000Y-65260000D01*
X221183654Y-107460000D02*
X238623654Y-90020000D01*
X159250000Y-100045256D02*
X164780000Y-105575256D01*
X239084744Y-61990000D02*
X212395000Y-61990000D01*
X159250000Y-94970000D02*
X159250000Y-100045256D01*
X239576346Y-90020000D02*
X240650000Y-88946346D01*
X171430000Y-96020000D02*
X171430000Y-95490000D01*
X240650000Y-88946346D02*
X240650000Y-63555256D01*
X171430000Y-95490000D02*
X170910000Y-94970000D01*
X212395000Y-61990000D02*
X208980000Y-65405000D01*
X164780000Y-107144744D02*
X165095256Y-107460000D01*
X240650000Y-63555256D02*
X239084744Y-61990000D01*
%TO.N,Net-(J9-Pin_2)*%
X251750000Y-85610000D02*
X252280000Y-85080000D01*
X252280000Y-85080000D02*
X260139618Y-85080000D01*
%TO.N,Net-(J9-Pin_3)*%
X251830000Y-88230000D02*
X251750000Y-88150000D01*
X255040000Y-88230000D02*
X257689873Y-85580127D01*
X257689873Y-85580127D02*
X260139618Y-85580127D01*
X255040000Y-88230000D02*
X251830000Y-88230000D01*
%TO.N,Net-(J9-Pin_1)*%
X254504612Y-91840000D02*
X259764485Y-86580127D01*
X249060000Y-85760000D02*
X249060000Y-91410000D01*
X249490000Y-91840000D02*
X254504612Y-91840000D01*
X249060000Y-91410000D02*
X249490000Y-91840000D01*
X251750000Y-83070000D02*
X249060000Y-85760000D01*
X259764485Y-86580127D02*
X260139618Y-86580127D01*
%TO.N,Net-(U5-VDD)*%
X199230000Y-88445000D02*
X199230000Y-86850000D01*
X202695000Y-91910000D02*
X200195000Y-89410000D01*
X200195000Y-89410000D02*
X199230000Y-88445000D01*
X202695000Y-93130000D02*
X202695000Y-91910000D01*
%TO.N,Net-(U4-CFG1)*%
X229790000Y-64610000D02*
X230710000Y-63690000D01*
D43*
X226805000Y-68255000D02*
X229790000Y-65270000D01*
D42*
X230710000Y-63690000D02*
X231417500Y-63690000D01*
D43*
X226805000Y-68810000D02*
X226805000Y-68255000D01*
X229790000Y-65270000D02*
X229790000Y-64610000D01*
%TO.N,3.7V*%
D42*
X224150000Y-73960000D02*
X229480000Y-73960000D01*
X219390000Y-66502500D02*
X219390000Y-69550000D01*
X221400000Y-71210000D02*
X224150000Y-73960000D01*
X221090000Y-71210000D02*
X221400000Y-71210000D01*
%TO.N,Net-(U4-LX2)*%
D43*
X235595000Y-65065000D02*
X238000000Y-65065000D01*
D42*
X233842500Y-64190000D02*
X234720000Y-64190000D01*
D43*
X234900000Y-64370000D02*
X235595000Y-65065000D01*
D42*
X234720000Y-64190000D02*
X234900000Y-64370000D01*
%TO.N,Net-(U4-LX1)*%
X233842500Y-63190000D02*
X234470000Y-63190000D01*
D43*
X234745000Y-62915000D02*
X238000000Y-62915000D01*
X234610000Y-63050000D02*
X234745000Y-62915000D01*
D42*
X234470000Y-63190000D02*
X234610000Y-63050000D01*
%TD*%
%TA.AperFunction,Conductor*%
%TO.N,GND*%
G36*
X250318834Y-85452914D02*
G01*
X250374767Y-85494786D01*
X250399184Y-85560250D01*
X250399500Y-85569096D01*
X250399500Y-85716287D01*
X250432754Y-85926243D01*
X250482754Y-86080127D01*
X250498444Y-86128414D01*
X250594951Y-86317820D01*
X250719890Y-86489786D01*
X250870213Y-86640109D01*
X251042182Y-86765050D01*
X251050946Y-86769516D01*
X251101742Y-86817491D01*
X251118536Y-86885312D01*
X251095998Y-86951447D01*
X251050946Y-86990484D01*
X251042182Y-86994949D01*
X250870213Y-87119890D01*
X250719890Y-87270213D01*
X250594951Y-87442179D01*
X250498444Y-87631585D01*
X250432753Y-87833760D01*
X250399500Y-88043713D01*
X250399500Y-88256287D01*
X250432754Y-88466243D01*
X250477094Y-88602708D01*
X250498444Y-88668414D01*
X250594951Y-88857820D01*
X250719890Y-89029786D01*
X250870213Y-89180109D01*
X251042179Y-89305048D01*
X251042181Y-89305049D01*
X251042184Y-89305051D01*
X251051493Y-89309794D01*
X251102290Y-89357766D01*
X251119087Y-89425587D01*
X251096552Y-89491722D01*
X251051505Y-89530760D01*
X251042446Y-89535376D01*
X251042440Y-89535380D01*
X250988282Y-89574727D01*
X250988282Y-89574728D01*
X251620591Y-90207037D01*
X251557007Y-90224075D01*
X251442993Y-90289901D01*
X251349901Y-90382993D01*
X251284075Y-90497007D01*
X251267037Y-90560591D01*
X250634728Y-89928282D01*
X250634727Y-89928282D01*
X250595380Y-89982439D01*
X250498904Y-90171782D01*
X250433242Y-90373869D01*
X250433242Y-90373872D01*
X250400000Y-90583753D01*
X250400000Y-90796246D01*
X250433242Y-91006127D01*
X250433242Y-91006130D01*
X250456329Y-91077182D01*
X250458324Y-91147023D01*
X250422244Y-91206856D01*
X250359543Y-91237684D01*
X250338398Y-91239500D01*
X249790097Y-91239500D01*
X249760656Y-91230855D01*
X249730670Y-91224332D01*
X249725654Y-91220577D01*
X249723058Y-91219815D01*
X249702416Y-91203181D01*
X249696819Y-91197584D01*
X249663334Y-91136261D01*
X249660500Y-91109903D01*
X249660500Y-86060096D01*
X249680185Y-85993057D01*
X249696815Y-85972419D01*
X250187819Y-85481414D01*
X250249142Y-85447930D01*
X250318834Y-85452914D01*
G37*
%TD.AperFunction*%
%TA.AperFunction,Conductor*%
G36*
X254103682Y-88831582D02*
G01*
X254107428Y-88830723D01*
X254136944Y-88841349D01*
X254167035Y-88850185D01*
X254170599Y-88853465D01*
X254173167Y-88854390D01*
X254182085Y-88864037D01*
X254198407Y-88879060D01*
X254202232Y-88884049D01*
X254217032Y-88908044D01*
X254232427Y-88923439D01*
X254237390Y-88929913D01*
X254247153Y-88955203D01*
X254260145Y-88978995D01*
X254259550Y-88987313D01*
X254262554Y-88995094D01*
X254257094Y-89021646D01*
X254255161Y-89048687D01*
X254249829Y-89056983D01*
X254248483Y-89063532D01*
X254240125Y-89072082D01*
X254226663Y-89093031D01*
X254217428Y-89102265D01*
X254217424Y-89102271D01*
X254128457Y-89246507D01*
X254128452Y-89246518D01*
X254075144Y-89407393D01*
X254065000Y-89506677D01*
X254065000Y-89530000D01*
X254916000Y-89530000D01*
X254983039Y-89549685D01*
X255028794Y-89602489D01*
X255040000Y-89654000D01*
X255040000Y-89906000D01*
X255020315Y-89973039D01*
X254967511Y-90018794D01*
X254916000Y-90030000D01*
X254065001Y-90030000D01*
X254065001Y-90053322D01*
X254075144Y-90152607D01*
X254128452Y-90313481D01*
X254128457Y-90313492D01*
X254217424Y-90457728D01*
X254217427Y-90457732D01*
X254337267Y-90577572D01*
X254337271Y-90577575D01*
X254481507Y-90666542D01*
X254481520Y-90666548D01*
X254551555Y-90689755D01*
X254609000Y-90729527D01*
X254635824Y-90794043D01*
X254623509Y-90862819D01*
X254600234Y-90895142D01*
X254498370Y-90997007D01*
X254292194Y-91203182D01*
X254230873Y-91236666D01*
X254204515Y-91239500D01*
X253161602Y-91239500D01*
X253094563Y-91219815D01*
X253048808Y-91167011D01*
X253038864Y-91097853D01*
X253043671Y-91077182D01*
X253066757Y-91006130D01*
X253066757Y-91006127D01*
X253100000Y-90796246D01*
X253100000Y-90583753D01*
X253066757Y-90373872D01*
X253066757Y-90373869D01*
X253001095Y-90171782D01*
X252904624Y-89982449D01*
X252865270Y-89928282D01*
X252865269Y-89928282D01*
X252232962Y-90560589D01*
X252215925Y-90497007D01*
X252150099Y-90382993D01*
X252057007Y-90289901D01*
X251942993Y-90224075D01*
X251879409Y-90207037D01*
X252511716Y-89574728D01*
X252457547Y-89535373D01*
X252457547Y-89535372D01*
X252448500Y-89530763D01*
X252397706Y-89482788D01*
X252380912Y-89414966D01*
X252403451Y-89348832D01*
X252448508Y-89309793D01*
X252457816Y-89305051D01*
X252538395Y-89246507D01*
X252629786Y-89180109D01*
X252629788Y-89180106D01*
X252629792Y-89180104D01*
X252780104Y-89029792D01*
X252887761Y-88881613D01*
X252943089Y-88838949D01*
X252988078Y-88830500D01*
X254099996Y-88830500D01*
X254103682Y-88831582D01*
G37*
%TD.AperFunction*%
%TA.AperFunction,Conductor*%
G36*
X259082426Y-86200312D02*
G01*
X259128181Y-86253116D01*
X259138125Y-86322274D01*
X259109100Y-86385830D01*
X259103068Y-86392308D01*
X256167698Y-89327677D01*
X256106375Y-89361162D01*
X256036683Y-89356178D01*
X255980750Y-89314306D01*
X255962311Y-89279001D01*
X255951546Y-89246516D01*
X255951542Y-89246507D01*
X255862575Y-89102271D01*
X255862572Y-89102267D01*
X255853339Y-89093034D01*
X255819854Y-89031711D01*
X255824838Y-88962019D01*
X255853343Y-88917668D01*
X255862968Y-88908044D01*
X255952003Y-88763697D01*
X256005349Y-88602708D01*
X256015500Y-88503345D01*
X256015499Y-88155095D01*
X256035183Y-88088057D01*
X256051813Y-88067420D01*
X257902289Y-86216946D01*
X257963612Y-86183461D01*
X257989970Y-86180627D01*
X259015387Y-86180627D01*
X259082426Y-86200312D01*
G37*
%TD.AperFunction*%
%TA.AperFunction,Conductor*%
G36*
X265682987Y-80099191D02*
G01*
X265749985Y-80119014D01*
X265795631Y-80171911D01*
X265806705Y-80225706D01*
X265532003Y-93768485D01*
X265510963Y-93835111D01*
X265457242Y-93879786D01*
X265408125Y-93889970D01*
X253039917Y-93899500D01*
X247325669Y-93899500D01*
X247258630Y-93879815D01*
X247212875Y-93827011D01*
X247201688Y-93773302D01*
X247242179Y-91489054D01*
X248459498Y-91489054D01*
X248500423Y-91641785D01*
X248529358Y-91691900D01*
X248529359Y-91691904D01*
X248529360Y-91691904D01*
X248579479Y-91778714D01*
X248579481Y-91778717D01*
X248698349Y-91897585D01*
X248698355Y-91897590D01*
X249005139Y-92204374D01*
X249005149Y-92204385D01*
X249009479Y-92208715D01*
X249009480Y-92208716D01*
X249121284Y-92320520D01*
X249208095Y-92370639D01*
X249208097Y-92370641D01*
X249246151Y-92392611D01*
X249258215Y-92399577D01*
X249410943Y-92440501D01*
X249410946Y-92440501D01*
X249576653Y-92440501D01*
X249576669Y-92440500D01*
X254417943Y-92440500D01*
X254417959Y-92440501D01*
X254425555Y-92440501D01*
X254583666Y-92440501D01*
X254583669Y-92440501D01*
X254736397Y-92399577D01*
X254786516Y-92370639D01*
X254873328Y-92320520D01*
X254985132Y-92208716D01*
X254985132Y-92208714D01*
X254995340Y-92198507D01*
X254995341Y-92198504D01*
X259556010Y-87637836D01*
X259617329Y-87604354D01*
X259687021Y-87609338D01*
X259717998Y-87626253D01*
X259747529Y-87648360D01*
X259747531Y-87648361D01*
X259882238Y-87698603D01*
X259882245Y-87698605D01*
X259941773Y-87705006D01*
X259941790Y-87705007D01*
X260014612Y-87705007D01*
X260014612Y-87329633D01*
X260017162Y-87320947D01*
X260015874Y-87311986D01*
X260026852Y-87287945D01*
X260034297Y-87262594D01*
X260041137Y-87256666D01*
X260044899Y-87248430D01*
X260067133Y-87234140D01*
X260087101Y-87216839D01*
X260097615Y-87214551D01*
X260103677Y-87210656D01*
X260138612Y-87205633D01*
X260140624Y-87205633D01*
X260207663Y-87225318D01*
X260253418Y-87278122D01*
X260264624Y-87329633D01*
X260264624Y-87705007D01*
X260332664Y-87705007D01*
X260392089Y-87720174D01*
X260397906Y-87723350D01*
X260532623Y-87773597D01*
X260532627Y-87773598D01*
X260592155Y-87779999D01*
X260592172Y-87780000D01*
X261390000Y-87780000D01*
X261890000Y-87780000D01*
X262687828Y-87780000D01*
X262687844Y-87779999D01*
X262747372Y-87773598D01*
X262747379Y-87773596D01*
X262882086Y-87723354D01*
X262882093Y-87723350D01*
X262997187Y-87637190D01*
X262997190Y-87637187D01*
X263083350Y-87522093D01*
X263083354Y-87522086D01*
X263133596Y-87387379D01*
X263133598Y-87387372D01*
X263139999Y-87327844D01*
X263140000Y-87327827D01*
X263140000Y-86330000D01*
X261890000Y-86330000D01*
X261890000Y-87780000D01*
X261390000Y-87780000D01*
X261390000Y-85830000D01*
X261890000Y-85830000D01*
X263140000Y-85830000D01*
X263140000Y-84832172D01*
X263139999Y-84832155D01*
X263133598Y-84772627D01*
X263133596Y-84772620D01*
X263083354Y-84637913D01*
X263083350Y-84637906D01*
X262997190Y-84522812D01*
X262997187Y-84522809D01*
X262882093Y-84436649D01*
X262882086Y-84436645D01*
X262747379Y-84386403D01*
X262747372Y-84386401D01*
X262687844Y-84380000D01*
X261890000Y-84380000D01*
X261890000Y-85830000D01*
X261390000Y-85830000D01*
X261390000Y-84380000D01*
X260592155Y-84380000D01*
X260532627Y-84386401D01*
X260532620Y-84386403D01*
X260397911Y-84436646D01*
X260393008Y-84439324D01*
X260333579Y-84454493D01*
X259941747Y-84454493D01*
X259941741Y-84454494D01*
X259882134Y-84460901D01*
X259853232Y-84471682D01*
X259809899Y-84479500D01*
X253054085Y-84479500D01*
X252987046Y-84459815D01*
X252941291Y-84407011D01*
X252931347Y-84337853D01*
X252954819Y-84281189D01*
X253043793Y-84162335D01*
X253043792Y-84162335D01*
X253043796Y-84162331D01*
X253094091Y-84027483D01*
X253100500Y-83967873D01*
X253100499Y-82172128D01*
X253094091Y-82112517D01*
X253043796Y-81977669D01*
X253043795Y-81977668D01*
X253043793Y-81977664D01*
X252957547Y-81862455D01*
X252957544Y-81862452D01*
X252842335Y-81776206D01*
X252842328Y-81776202D01*
X252707482Y-81725908D01*
X252707483Y-81725908D01*
X252647883Y-81719501D01*
X252647881Y-81719500D01*
X252647873Y-81719500D01*
X252647864Y-81719500D01*
X250852129Y-81719500D01*
X250852123Y-81719501D01*
X250792516Y-81725908D01*
X250657671Y-81776202D01*
X250657664Y-81776206D01*
X250542455Y-81862452D01*
X250542452Y-81862455D01*
X250456206Y-81977664D01*
X250456202Y-81977671D01*
X250405908Y-82112517D01*
X250399501Y-82172116D01*
X250399501Y-82172123D01*
X250399500Y-82172135D01*
X250399500Y-83519902D01*
X250379815Y-83586941D01*
X250363181Y-83607583D01*
X248579481Y-85391282D01*
X248579479Y-85391285D01*
X248572363Y-85403611D01*
X248547857Y-85446057D01*
X248500423Y-85528215D01*
X248459499Y-85680943D01*
X248459499Y-85680945D01*
X248459499Y-85849046D01*
X248459500Y-85849059D01*
X248459500Y-91323330D01*
X248459499Y-91323348D01*
X248459499Y-91489054D01*
X248459498Y-91489054D01*
X247242179Y-91489054D01*
X247278017Y-89467246D01*
X247346450Y-85606612D01*
X247349193Y-85582790D01*
X247350291Y-85577674D01*
X247347828Y-85528911D01*
X247348694Y-85480097D01*
X247344516Y-85463323D01*
X247343645Y-85446057D01*
X247343644Y-85446053D01*
X247343644Y-85446052D01*
X247329943Y-85403611D01*
X247329942Y-85403611D01*
X247328646Y-85399595D01*
X247316848Y-85352219D01*
X247308470Y-85337095D01*
X247303160Y-85320646D01*
X247303160Y-85320645D01*
X247303159Y-85320644D01*
X247278947Y-85283206D01*
X247274605Y-85275964D01*
X247252989Y-85236941D01*
X247252035Y-85235952D01*
X247249346Y-85233166D01*
X247249344Y-85233165D01*
X247240983Y-85224502D01*
X247231596Y-85209986D01*
X247195373Y-85177246D01*
X247185962Y-85167495D01*
X247161469Y-85142117D01*
X247156969Y-85139412D01*
X247156969Y-85139411D01*
X247146648Y-85133206D01*
X247133829Y-85121619D01*
X247090387Y-85099379D01*
X247086760Y-85097199D01*
X247086752Y-85097195D01*
X247069367Y-85086743D01*
X247048527Y-85074213D01*
X247048524Y-85074212D01*
X247043480Y-85072764D01*
X247021194Y-85063957D01*
X247016521Y-85061565D01*
X246972908Y-85052207D01*
X246972908Y-85052206D01*
X246968750Y-85051314D01*
X246921857Y-85037855D01*
X246904579Y-85037548D01*
X246892809Y-85035023D01*
X246892806Y-85035023D01*
X246890214Y-85034467D01*
X246828794Y-85001160D01*
X246795132Y-84939934D01*
X246792228Y-84911894D01*
X246800620Y-84133085D01*
X246821026Y-84066261D01*
X246874320Y-84021078D01*
X246908433Y-84011481D01*
X246915883Y-84010500D01*
X246915892Y-84010500D01*
X246964492Y-83997477D01*
X246970447Y-83996039D01*
X247019654Y-83985457D01*
X247019662Y-83985452D01*
X247021724Y-83984718D01*
X247041211Y-83977210D01*
X247043183Y-83976393D01*
X247043183Y-83976392D01*
X247043186Y-83976392D01*
X247086765Y-83951230D01*
X247092133Y-83948306D01*
X247136931Y-83925347D01*
X247146334Y-83916839D01*
X247157314Y-83910500D01*
X247195064Y-83872749D01*
X247234653Y-83836931D01*
X247234657Y-83836924D01*
X247236053Y-83835283D01*
X247249166Y-83819050D01*
X247250492Y-83817321D01*
X247250500Y-83817314D01*
X247275653Y-83773745D01*
X247278861Y-83768496D01*
X247306163Y-83726236D01*
X247306274Y-83725892D01*
X247310054Y-83714161D01*
X247316392Y-83703186D01*
X247330209Y-83651619D01*
X247334384Y-83638662D01*
X247346584Y-83600808D01*
X247346585Y-83600802D01*
X247347218Y-83588138D01*
X247350500Y-83575892D01*
X247350500Y-83522504D01*
X247353166Y-83469184D01*
X247352992Y-83467050D01*
X247350500Y-83443605D01*
X247350500Y-80185784D01*
X247370185Y-80118745D01*
X247422989Y-80072990D01*
X247474753Y-80061784D01*
X265682987Y-80099191D01*
G37*
%TD.AperFunction*%
%TD*%
%TA.AperFunction,Conductor*%
%TO.N,GND*%
G36*
X243894911Y-61090361D02*
G01*
X243961945Y-61110060D01*
X244007688Y-61162875D01*
X244018882Y-61214483D01*
X244002001Y-78307650D01*
X244001998Y-78308416D01*
X243972134Y-82479355D01*
X243971900Y-82486126D01*
X243914325Y-83416549D01*
X243914053Y-83420944D01*
X243913557Y-83428966D01*
X243909500Y-83444108D01*
X243909500Y-83494528D01*
X243909263Y-83498359D01*
X243906386Y-83544852D01*
X243907028Y-83548019D01*
X243909500Y-83572656D01*
X243909500Y-83575897D01*
X243921556Y-83620892D01*
X243922552Y-83624612D01*
X243932567Y-83674011D01*
X243939548Y-83688039D01*
X243942769Y-83700057D01*
X243942771Y-83700062D01*
X243943607Y-83703183D01*
X243943609Y-83703188D01*
X243966898Y-83743526D01*
X243970522Y-83750276D01*
X243984819Y-83779001D01*
X243991284Y-83791991D01*
X244001661Y-83803737D01*
X244009500Y-83817314D01*
X244045157Y-83852972D01*
X244047689Y-83855838D01*
X244061778Y-83871786D01*
X244078537Y-83890755D01*
X244081235Y-83892543D01*
X244100397Y-83908212D01*
X244102685Y-83910500D01*
X244146353Y-83935712D01*
X244188377Y-83963570D01*
X244203235Y-83968552D01*
X244214011Y-83974774D01*
X244214015Y-83974776D01*
X244216813Y-83976392D01*
X244230108Y-83979954D01*
X244261825Y-83988452D01*
X244269124Y-83990651D01*
X244313321Y-84005475D01*
X244316600Y-84005677D01*
X244321903Y-84006122D01*
X244331580Y-84007143D01*
X244344108Y-84010500D01*
X244363389Y-84010500D01*
X244369880Y-84011185D01*
X244396395Y-84022106D01*
X244423906Y-84030185D01*
X244428290Y-84035244D01*
X244434484Y-84037796D01*
X244450887Y-84061323D01*
X244469661Y-84082989D01*
X244471314Y-84090621D01*
X244474444Y-84095110D01*
X244474898Y-84107158D01*
X244480866Y-84134704D01*
X244479618Y-84885707D01*
X244459823Y-84952713D01*
X244406943Y-84998380D01*
X244355619Y-85009500D01*
X244344107Y-85009500D01*
X244342268Y-85009742D01*
X244341372Y-85009859D01*
X244279338Y-85026852D01*
X244279337Y-85026851D01*
X244278782Y-85027002D01*
X244216814Y-85043608D01*
X244215585Y-85044317D01*
X244214214Y-85044693D01*
X244214210Y-85044695D01*
X244214207Y-85044696D01*
X244158778Y-85077110D01*
X244158779Y-85077111D01*
X244158399Y-85077332D01*
X244102685Y-85109500D01*
X244101679Y-85110505D01*
X244100456Y-85111221D01*
X244100450Y-85111226D01*
X244100448Y-85111228D01*
X244055333Y-85156847D01*
X244055334Y-85156848D01*
X244055070Y-85157114D01*
X244009500Y-85202686D01*
X244008789Y-85203915D01*
X244007791Y-85204926D01*
X244007781Y-85204942D01*
X244007780Y-85204944D01*
X243976020Y-85260668D01*
X243976021Y-85260669D01*
X243975833Y-85260999D01*
X243943608Y-85316814D01*
X243943240Y-85318185D01*
X243942537Y-85319420D01*
X243942534Y-85319430D01*
X243942534Y-85319431D01*
X243926249Y-85381586D01*
X243926124Y-85382060D01*
X243909500Y-85444108D01*
X243909500Y-85445527D01*
X243909140Y-85446902D01*
X243909500Y-85511415D01*
X243909500Y-85575892D01*
X243909865Y-85577257D01*
X243909917Y-85586516D01*
X243909918Y-85586517D01*
X243921998Y-87751123D01*
X243922000Y-87751815D01*
X243922000Y-89748449D01*
X243921999Y-89749006D01*
X243912336Y-91898980D01*
X243912304Y-91906134D01*
X243912296Y-91908002D01*
X243912000Y-91909108D01*
X243912000Y-91973890D01*
X243911999Y-91974113D01*
X243911686Y-92043827D01*
X243912000Y-92048781D01*
X243912000Y-93922179D01*
X243909272Y-93934960D01*
X243912000Y-93987883D01*
X243912000Y-94040892D01*
X243912001Y-94040895D01*
X243912009Y-94040957D01*
X243916056Y-94066583D01*
X243961817Y-94954341D01*
X243961981Y-94960865D01*
X243940210Y-114114929D01*
X243920449Y-114181946D01*
X243867593Y-114227641D01*
X243816003Y-114238788D01*
X155144404Y-114090543D01*
X155077397Y-114070746D01*
X155031731Y-114017866D01*
X155020611Y-113966521D01*
X155021072Y-111393978D01*
X155040769Y-111326942D01*
X155093581Y-111281196D01*
X155145072Y-111270000D01*
X158450000Y-111270000D01*
X158450000Y-106959986D01*
X158980001Y-106959986D01*
X158990494Y-107062697D01*
X159045641Y-107229119D01*
X159045643Y-107229124D01*
X159137684Y-107378345D01*
X159261654Y-107502315D01*
X159410875Y-107594356D01*
X159410880Y-107594358D01*
X159577302Y-107649505D01*
X159577309Y-107649506D01*
X159680019Y-107659999D01*
X160979999Y-107659999D01*
X161480000Y-107659999D01*
X162779972Y-107659999D01*
X162779986Y-107659998D01*
X162882697Y-107649505D01*
X163049119Y-107594358D01*
X163049124Y-107594356D01*
X163198345Y-107502315D01*
X163322315Y-107378345D01*
X163414356Y-107229124D01*
X163414358Y-107229119D01*
X163469505Y-107062697D01*
X163469506Y-107062690D01*
X163479999Y-106959986D01*
X163480000Y-106959973D01*
X163480000Y-106610000D01*
X161480000Y-106610000D01*
X161480000Y-107659999D01*
X160979999Y-107659999D01*
X160980000Y-107659998D01*
X160980000Y-106610000D01*
X158980001Y-106610000D01*
X158980001Y-106959986D01*
X158450000Y-106959986D01*
X158450000Y-105760013D01*
X158980000Y-105760013D01*
X158980000Y-106110000D01*
X160980000Y-106110000D01*
X161480000Y-106110000D01*
X163479999Y-106110000D01*
X163479999Y-105760028D01*
X163479998Y-105760013D01*
X163469505Y-105657302D01*
X163414358Y-105490880D01*
X163414356Y-105490875D01*
X163322315Y-105341654D01*
X163198345Y-105217684D01*
X163049124Y-105125643D01*
X163049119Y-105125641D01*
X162882697Y-105070494D01*
X162882690Y-105070493D01*
X162779986Y-105060000D01*
X161480000Y-105060000D01*
X161480000Y-106110000D01*
X160980000Y-106110000D01*
X160980000Y-105060000D01*
X159680028Y-105060000D01*
X159680012Y-105060001D01*
X159577302Y-105070494D01*
X159410880Y-105125641D01*
X159410875Y-105125643D01*
X159261654Y-105217684D01*
X159137684Y-105341654D01*
X159045643Y-105490875D01*
X159045641Y-105490880D01*
X158990494Y-105657302D01*
X158990493Y-105657309D01*
X158980000Y-105760013D01*
X158450000Y-105760013D01*
X158450000Y-100319999D01*
X158451827Y-100313775D01*
X158450642Y-100307397D01*
X158461551Y-100280660D01*
X158469685Y-100252960D01*
X158474586Y-100248712D01*
X158477038Y-100242705D01*
X158500670Y-100226110D01*
X158522489Y-100207205D01*
X158528910Y-100206281D01*
X158534219Y-100202554D01*
X158563066Y-100201370D01*
X158591647Y-100197261D01*
X158597548Y-100199955D01*
X158604030Y-100199690D01*
X158628938Y-100214291D01*
X158655203Y-100226286D01*
X158660104Y-100232560D01*
X158664306Y-100235024D01*
X158675239Y-100251938D01*
X158684589Y-100263908D01*
X158689496Y-100273584D01*
X158690423Y-100277041D01*
X158695543Y-100285909D01*
X158697225Y-100288823D01*
X158697229Y-100288830D01*
X158769477Y-100413968D01*
X158769481Y-100413973D01*
X158888349Y-100532841D01*
X158888355Y-100532846D01*
X164143181Y-105787672D01*
X164176666Y-105848995D01*
X164179500Y-105875353D01*
X164179500Y-107058074D01*
X164179499Y-107058092D01*
X164179499Y-107223798D01*
X164179498Y-107223798D01*
X164179499Y-107223801D01*
X164220423Y-107376529D01*
X164221471Y-107378345D01*
X164249358Y-107426644D01*
X164249359Y-107426648D01*
X164249360Y-107426648D01*
X164299479Y-107513458D01*
X164299481Y-107513461D01*
X164418349Y-107632329D01*
X164418355Y-107632334D01*
X164610395Y-107824374D01*
X164610405Y-107824385D01*
X164614735Y-107828715D01*
X164614736Y-107828716D01*
X164726540Y-107940520D01*
X164813351Y-107990639D01*
X164813353Y-107990641D01*
X164863469Y-108019576D01*
X164863471Y-108019577D01*
X165016198Y-108060500D01*
X165016199Y-108060500D01*
X221096985Y-108060500D01*
X221097001Y-108060501D01*
X221104597Y-108060501D01*
X221262708Y-108060501D01*
X221262711Y-108060501D01*
X221415439Y-108019577D01*
X221465558Y-107990639D01*
X221552370Y-107940520D01*
X221664174Y-107828716D01*
X221664174Y-107828714D01*
X221674382Y-107818507D01*
X221674383Y-107818504D01*
X225065043Y-104427844D01*
X237500000Y-104427844D01*
X237506401Y-104487372D01*
X237506403Y-104487379D01*
X237556645Y-104622086D01*
X237556649Y-104622093D01*
X237642809Y-104737187D01*
X237642812Y-104737190D01*
X237757906Y-104823350D01*
X237757913Y-104823354D01*
X237892620Y-104873596D01*
X237892627Y-104873598D01*
X237952155Y-104879999D01*
X237952172Y-104880000D01*
X239050000Y-104880000D01*
X239550000Y-104880000D01*
X240647828Y-104880000D01*
X240647844Y-104879999D01*
X240707372Y-104873598D01*
X240707379Y-104873596D01*
X240842086Y-104823354D01*
X240842093Y-104823350D01*
X240957187Y-104737190D01*
X240957190Y-104737187D01*
X241043350Y-104622093D01*
X241043354Y-104622086D01*
X241093596Y-104487379D01*
X241093598Y-104487372D01*
X241099999Y-104427844D01*
X241100000Y-104427827D01*
X241100000Y-102830000D01*
X239550000Y-102830000D01*
X239550000Y-104880000D01*
X239050000Y-104880000D01*
X239050000Y-102830000D01*
X237500000Y-102830000D01*
X237500000Y-104427844D01*
X225065043Y-104427844D01*
X228760733Y-100732155D01*
X237500000Y-100732155D01*
X237500000Y-102330000D01*
X239050000Y-102330000D01*
X239550000Y-102330000D01*
X241100000Y-102330000D01*
X241100000Y-100732172D01*
X241099999Y-100732155D01*
X241093598Y-100672627D01*
X241093596Y-100672620D01*
X241043354Y-100537913D01*
X241043350Y-100537906D01*
X240957190Y-100422812D01*
X240957187Y-100422809D01*
X240842093Y-100336649D01*
X240842086Y-100336645D01*
X240707379Y-100286403D01*
X240707372Y-100286401D01*
X240647844Y-100280000D01*
X239550000Y-100280000D01*
X239550000Y-102330000D01*
X239050000Y-102330000D01*
X239050000Y-100280000D01*
X237952155Y-100280000D01*
X237892627Y-100286401D01*
X237892620Y-100286403D01*
X237757913Y-100336645D01*
X237757906Y-100336649D01*
X237642812Y-100422809D01*
X237642809Y-100422812D01*
X237556649Y-100537906D01*
X237556645Y-100537913D01*
X237506403Y-100672620D01*
X237506401Y-100672627D01*
X237500000Y-100732155D01*
X228760733Y-100732155D01*
X237636123Y-91856766D01*
X237697440Y-91823285D01*
X237767132Y-91828269D01*
X237823065Y-91870141D01*
X237841729Y-91906134D01*
X237848903Y-91928215D01*
X237945375Y-92117550D01*
X237984728Y-92171716D01*
X238617037Y-91539408D01*
X238634075Y-91602993D01*
X238699901Y-91717007D01*
X238792993Y-91810099D01*
X238907007Y-91875925D01*
X238970590Y-91892962D01*
X238338282Y-92525269D01*
X238338282Y-92525270D01*
X238392449Y-92564624D01*
X238581782Y-92661095D01*
X238783870Y-92726757D01*
X238993754Y-92760000D01*
X239206246Y-92760000D01*
X239416127Y-92726757D01*
X239416130Y-92726757D01*
X239618217Y-92661095D01*
X239807554Y-92564622D01*
X239861716Y-92525270D01*
X239861717Y-92525270D01*
X239229408Y-91892962D01*
X239292993Y-91875925D01*
X239407007Y-91810099D01*
X239500099Y-91717007D01*
X239565925Y-91602993D01*
X239582962Y-91539408D01*
X240215270Y-92171717D01*
X240215270Y-92171716D01*
X240254622Y-92117554D01*
X240351095Y-91928217D01*
X240416757Y-91726130D01*
X240416757Y-91726127D01*
X240450000Y-91516246D01*
X240450000Y-91303753D01*
X240416757Y-91093872D01*
X240416757Y-91093869D01*
X240351095Y-90891782D01*
X240254624Y-90702449D01*
X240215270Y-90648282D01*
X240215269Y-90648282D01*
X239582962Y-91280590D01*
X239565925Y-91217007D01*
X239500099Y-91102993D01*
X239407007Y-91009901D01*
X239292993Y-90944075D01*
X239229408Y-90927037D01*
X239499626Y-90656820D01*
X239560949Y-90623335D01*
X239587307Y-90620501D01*
X239655400Y-90620501D01*
X239655403Y-90620501D01*
X239808131Y-90579577D01*
X239858250Y-90550639D01*
X239945062Y-90500520D01*
X240056866Y-90388716D01*
X240056866Y-90388714D01*
X240067074Y-90378507D01*
X240067076Y-90378504D01*
X241008506Y-89437074D01*
X241008511Y-89437070D01*
X241018714Y-89426866D01*
X241018716Y-89426866D01*
X241130520Y-89315062D01*
X241184859Y-89220943D01*
X241209577Y-89178131D01*
X241250501Y-89025403D01*
X241250501Y-88867289D01*
X241250501Y-88859694D01*
X241250500Y-88859676D01*
X241250500Y-63476200D01*
X241250499Y-63476196D01*
X241245682Y-63458216D01*
X241209577Y-63323471D01*
X241189908Y-63289403D01*
X241178078Y-63268913D01*
X241178077Y-63268912D01*
X241130520Y-63186540D01*
X241018716Y-63074736D01*
X241018715Y-63074735D01*
X241014385Y-63070405D01*
X241014374Y-63070395D01*
X239572334Y-61628355D01*
X239572332Y-61628352D01*
X239453461Y-61509481D01*
X239453460Y-61509480D01*
X239366648Y-61459360D01*
X239366648Y-61459359D01*
X239366644Y-61459358D01*
X239316529Y-61430423D01*
X239163801Y-61389499D01*
X239005687Y-61389499D01*
X238998091Y-61389499D01*
X238998075Y-61389500D01*
X212474057Y-61389500D01*
X212315942Y-61389500D01*
X212163215Y-61430423D01*
X212163214Y-61430423D01*
X212163212Y-61430424D01*
X212163209Y-61430425D01*
X212113096Y-61459359D01*
X212113095Y-61459360D01*
X212069689Y-61484420D01*
X212026285Y-61509479D01*
X212026282Y-61509481D01*
X211914480Y-61621284D01*
X211914478Y-61621286D01*
X210480340Y-63055425D01*
X209067584Y-64468181D01*
X209006261Y-64501666D01*
X208979903Y-64504500D01*
X208648384Y-64504500D01*
X208629145Y-64506248D01*
X208577807Y-64510913D01*
X208415393Y-64561522D01*
X208269811Y-64649530D01*
X208149530Y-64769811D01*
X208061522Y-64915393D01*
X208010913Y-65077807D01*
X208004500Y-65148386D01*
X208004500Y-65661613D01*
X208010913Y-65732192D01*
X208010913Y-65732194D01*
X208010914Y-65732196D01*
X208061522Y-65894606D01*
X208145010Y-66032712D01*
X208149530Y-66040188D01*
X208251661Y-66142319D01*
X208255999Y-66150264D01*
X208263247Y-66155690D01*
X208272481Y-66180449D01*
X208285146Y-66203642D01*
X208284500Y-66212671D01*
X208287664Y-66221154D01*
X208282047Y-66246974D01*
X208280162Y-66273334D01*
X208274343Y-66282387D01*
X208272812Y-66289427D01*
X208251661Y-66317681D01*
X208151161Y-66418181D01*
X208089838Y-66451666D01*
X208063480Y-66454500D01*
X197271670Y-66454500D01*
X197271654Y-66454499D01*
X197264058Y-66454499D01*
X197105943Y-66454499D01*
X197029579Y-66474961D01*
X196953214Y-66495423D01*
X196953209Y-66495426D01*
X196816290Y-66574475D01*
X196816282Y-66574481D01*
X188752584Y-74638181D01*
X188691261Y-74671666D01*
X188664903Y-74674500D01*
X188333384Y-74674500D01*
X188314145Y-74676248D01*
X188262807Y-74680913D01*
X188100393Y-74731522D01*
X187954811Y-74819530D01*
X187954810Y-74819531D01*
X187852681Y-74921661D01*
X187844735Y-74925999D01*
X187839310Y-74933247D01*
X187814550Y-74942481D01*
X187791358Y-74955146D01*
X187782328Y-74954500D01*
X187773846Y-74957664D01*
X187748025Y-74952047D01*
X187721666Y-74950162D01*
X187712612Y-74944343D01*
X187705573Y-74942812D01*
X187677319Y-74921661D01*
X187576819Y-74821161D01*
X187543334Y-74759838D01*
X187540500Y-74733480D01*
X187540500Y-74054499D01*
X187560185Y-73987460D01*
X187612989Y-73941705D01*
X187664500Y-73930499D01*
X187990002Y-73930499D01*
X187990008Y-73930499D01*
X188092797Y-73919999D01*
X188259334Y-73864814D01*
X188408656Y-73772712D01*
X188532712Y-73648656D01*
X188624814Y-73499334D01*
X188679999Y-73332797D01*
X188690500Y-73230009D01*
X188690499Y-72629992D01*
X188689060Y-72615909D01*
X188679999Y-72527202D01*
X188679998Y-72527200D01*
X188667531Y-72489577D01*
X188624814Y-72360666D01*
X188532712Y-72211344D01*
X188408656Y-72087288D01*
X188282369Y-72009394D01*
X188259336Y-71995187D01*
X188259331Y-71995185D01*
X188244553Y-71990288D01*
X188092797Y-71940001D01*
X188092795Y-71940000D01*
X187990016Y-71929500D01*
X187990009Y-71929500D01*
X186540097Y-71929500D01*
X186473058Y-71909815D01*
X186452416Y-71893181D01*
X184231955Y-69672720D01*
X184231953Y-69672717D01*
X184113082Y-69553846D01*
X184113081Y-69553845D01*
X184026269Y-69503725D01*
X184026269Y-69503724D01*
X184026265Y-69503723D01*
X183976150Y-69474788D01*
X183823422Y-69433864D01*
X183665308Y-69433864D01*
X183657712Y-69433864D01*
X183657696Y-69433865D01*
X179906484Y-69433865D01*
X179895330Y-69430589D01*
X179883766Y-69431766D01*
X179862415Y-69420925D01*
X179839445Y-69414180D01*
X179831834Y-69405396D01*
X179821468Y-69400133D01*
X179809366Y-69379467D01*
X179793690Y-69361376D01*
X179791134Y-69348333D01*
X179786161Y-69339840D01*
X179784268Y-69313288D01*
X179782591Y-69304727D01*
X179785691Y-69229986D01*
X184590001Y-69229986D01*
X184600494Y-69332697D01*
X184655641Y-69499119D01*
X184655643Y-69499124D01*
X184747684Y-69648345D01*
X184871654Y-69772315D01*
X185020875Y-69864356D01*
X185020880Y-69864358D01*
X185187302Y-69919505D01*
X185187309Y-69919506D01*
X185290019Y-69929999D01*
X186389999Y-69929999D01*
X186890000Y-69929999D01*
X187989972Y-69929999D01*
X187989986Y-69929998D01*
X188092697Y-69919505D01*
X188259119Y-69864358D01*
X188259124Y-69864356D01*
X188408345Y-69772315D01*
X188532315Y-69648345D01*
X188624356Y-69499124D01*
X188624358Y-69499119D01*
X188679505Y-69332697D01*
X188679506Y-69332690D01*
X188689999Y-69229986D01*
X188690000Y-69229973D01*
X188690000Y-69180000D01*
X186890000Y-69180000D01*
X186890000Y-69929999D01*
X186389999Y-69929999D01*
X186390000Y-69929998D01*
X186390000Y-69180000D01*
X184590001Y-69180000D01*
X184590001Y-69229986D01*
X179785691Y-69229986D01*
X179787764Y-69180000D01*
X175690001Y-69180000D01*
X175690001Y-69229989D01*
X175696874Y-69297264D01*
X175684104Y-69365957D01*
X175636223Y-69416841D01*
X175573516Y-69433865D01*
X174060098Y-69433865D01*
X173993059Y-69414180D01*
X173972417Y-69397546D01*
X173635064Y-69060193D01*
X173601579Y-68998870D01*
X173606563Y-68929178D01*
X173635063Y-68884831D01*
X173690104Y-68829792D01*
X173690107Y-68829787D01*
X173690109Y-68829786D01*
X173815050Y-68657817D01*
X173829210Y-68630028D01*
X173829218Y-68630013D01*
X175690000Y-68630013D01*
X175690000Y-68680000D01*
X177490000Y-68680000D01*
X177990000Y-68680000D01*
X179789999Y-68680000D01*
X179789999Y-68630029D01*
X179789998Y-68630013D01*
X184590000Y-68630013D01*
X184590000Y-68680000D01*
X186390000Y-68680000D01*
X186890000Y-68680000D01*
X188689999Y-68680000D01*
X188689999Y-68630028D01*
X188689998Y-68630013D01*
X188679505Y-68527302D01*
X188624358Y-68360880D01*
X188624356Y-68360875D01*
X188532315Y-68211654D01*
X188408345Y-68087684D01*
X188259124Y-67995643D01*
X188259119Y-67995641D01*
X188092697Y-67940494D01*
X188092690Y-67940493D01*
X187989986Y-67930000D01*
X186890000Y-67930000D01*
X186890000Y-68680000D01*
X186390000Y-68680000D01*
X186390000Y-67930000D01*
X185290028Y-67930000D01*
X185290012Y-67930001D01*
X185187302Y-67940494D01*
X185020880Y-67995641D01*
X185020875Y-67995643D01*
X184871654Y-68087684D01*
X184747684Y-68211654D01*
X184655643Y-68360875D01*
X184655641Y-68360880D01*
X184600494Y-68527302D01*
X184600493Y-68527309D01*
X184590000Y-68630013D01*
X179789998Y-68630013D01*
X179789998Y-68630012D01*
X179779505Y-68527302D01*
X179724358Y-68360880D01*
X179724356Y-68360875D01*
X179632315Y-68211654D01*
X179508345Y-68087684D01*
X179359124Y-67995643D01*
X179359119Y-67995641D01*
X179192697Y-67940494D01*
X179192690Y-67940493D01*
X179089986Y-67930000D01*
X177990000Y-67930000D01*
X177990000Y-68680000D01*
X177490000Y-68680000D01*
X177490000Y-67930000D01*
X176390028Y-67930000D01*
X176390012Y-67930001D01*
X176287302Y-67940494D01*
X176120880Y-67995641D01*
X176120875Y-67995643D01*
X175971654Y-68087684D01*
X175847684Y-68211654D01*
X175755643Y-68360875D01*
X175755641Y-68360880D01*
X175700494Y-68527302D01*
X175700493Y-68527309D01*
X175690000Y-68630013D01*
X173829218Y-68630013D01*
X173911557Y-68468412D01*
X173977246Y-68266243D01*
X174010500Y-68056287D01*
X174010500Y-67843713D01*
X173977246Y-67633757D01*
X173911557Y-67431588D01*
X173815051Y-67242184D01*
X173815049Y-67242181D01*
X173815048Y-67242179D01*
X173690109Y-67070213D01*
X173576569Y-66956673D01*
X173543084Y-66895350D01*
X173548068Y-66825658D01*
X173589940Y-66769725D01*
X173620915Y-66752810D01*
X173752331Y-66703796D01*
X173867546Y-66617546D01*
X173953796Y-66502331D01*
X174004091Y-66367483D01*
X174010500Y-66307873D01*
X174010499Y-64512128D01*
X174005154Y-64462402D01*
X174004091Y-64452516D01*
X173953797Y-64317671D01*
X173953793Y-64317664D01*
X173867547Y-64202455D01*
X173867544Y-64202452D01*
X173752335Y-64116206D01*
X173752328Y-64116202D01*
X173617482Y-64065908D01*
X173617483Y-64065908D01*
X173557883Y-64059501D01*
X173557881Y-64059500D01*
X173557873Y-64059500D01*
X173557864Y-64059500D01*
X171762129Y-64059500D01*
X171762123Y-64059501D01*
X171702516Y-64065908D01*
X171567671Y-64116202D01*
X171567664Y-64116206D01*
X171452455Y-64202452D01*
X171452452Y-64202455D01*
X171366206Y-64317664D01*
X171366202Y-64317671D01*
X171315908Y-64452517D01*
X171309630Y-64510914D01*
X171309501Y-64512123D01*
X171309500Y-64512135D01*
X171309500Y-65859902D01*
X171289815Y-65926941D01*
X171273181Y-65947583D01*
X163329481Y-73891282D01*
X163329479Y-73891284D01*
X163313565Y-73918848D01*
X163306839Y-73930500D01*
X163250423Y-74028215D01*
X163209499Y-74180943D01*
X163209499Y-74180945D01*
X163209499Y-74349046D01*
X163209500Y-74349059D01*
X163209500Y-77149906D01*
X163189815Y-77216945D01*
X163137011Y-77262700D01*
X163072247Y-77273195D01*
X163037873Y-77269500D01*
X163037865Y-77269500D01*
X162042129Y-77269500D01*
X162042123Y-77269501D01*
X161982518Y-77275908D01*
X161948331Y-77288659D01*
X161878639Y-77293642D01*
X161861669Y-77288659D01*
X161838897Y-77280166D01*
X161827483Y-77275909D01*
X161827482Y-77275908D01*
X161767883Y-77269501D01*
X161767881Y-77269500D01*
X161767873Y-77269500D01*
X161767864Y-77269500D01*
X160772129Y-77269500D01*
X160772123Y-77269501D01*
X160712520Y-77275908D01*
X160712517Y-77275908D01*
X160712517Y-77275909D01*
X160677620Y-77288925D01*
X160677617Y-77288926D01*
X160607925Y-77293909D01*
X160590952Y-77288925D01*
X160557379Y-77276403D01*
X160557372Y-77276401D01*
X160497844Y-77270000D01*
X160250000Y-77270000D01*
X160250000Y-79770000D01*
X160497828Y-79770000D01*
X160497844Y-79769999D01*
X160557372Y-79763598D01*
X160557375Y-79763597D01*
X160590949Y-79751075D01*
X160660640Y-79746089D01*
X160677619Y-79751075D01*
X160712511Y-79764089D01*
X160712512Y-79764089D01*
X160712517Y-79764091D01*
X160772127Y-79770500D01*
X161767872Y-79770499D01*
X161827483Y-79764091D01*
X161861667Y-79751340D01*
X161888025Y-79749455D01*
X161913848Y-79743839D01*
X161926890Y-79746676D01*
X161931358Y-79746357D01*
X161948335Y-79751342D01*
X161983928Y-79764618D01*
X162039861Y-79806490D01*
X162047979Y-79818796D01*
X162059480Y-79838716D01*
X162059482Y-79838718D01*
X162178349Y-79957585D01*
X162178354Y-79957589D01*
X163241284Y-81020520D01*
X163241286Y-81020521D01*
X163241290Y-81020524D01*
X163346304Y-81081153D01*
X163378216Y-81099577D01*
X163530943Y-81140501D01*
X163530945Y-81140501D01*
X163696654Y-81140501D01*
X163696670Y-81140500D01*
X176385500Y-81140500D01*
X176452539Y-81160185D01*
X176498294Y-81212989D01*
X176509500Y-81264500D01*
X176509500Y-82047870D01*
X176509501Y-82047876D01*
X176515908Y-82107481D01*
X176528659Y-82141669D01*
X176533642Y-82211361D01*
X176528659Y-82228331D01*
X176515908Y-82262518D01*
X176509501Y-82322116D01*
X176509500Y-82322135D01*
X176509500Y-83317870D01*
X176509501Y-83317876D01*
X176515908Y-83377481D01*
X176528659Y-83411669D01*
X176533642Y-83481361D01*
X176528659Y-83498331D01*
X176515908Y-83532518D01*
X176509501Y-83592116D01*
X176509500Y-83592135D01*
X176509500Y-84587870D01*
X176509501Y-84587876D01*
X176515908Y-84647481D01*
X176528659Y-84681669D01*
X176533642Y-84751361D01*
X176528659Y-84768331D01*
X176515908Y-84802518D01*
X176510710Y-84850874D01*
X176509501Y-84862123D01*
X176509500Y-84862135D01*
X176509500Y-85857870D01*
X176509501Y-85857876D01*
X176515908Y-85917481D01*
X176528659Y-85951669D01*
X176533642Y-86021361D01*
X176528659Y-86038331D01*
X176515908Y-86072518D01*
X176510526Y-86122584D01*
X176509501Y-86132123D01*
X176509500Y-86132135D01*
X176509500Y-87127870D01*
X176509501Y-87127876D01*
X176515908Y-87187481D01*
X176528659Y-87221669D01*
X176533642Y-87291361D01*
X176528659Y-87308331D01*
X176515908Y-87342518D01*
X176512183Y-87377172D01*
X176509500Y-87402127D01*
X176509501Y-88397872D01*
X176510105Y-88403489D01*
X176515908Y-88457481D01*
X176528659Y-88491669D01*
X176533642Y-88561361D01*
X176528659Y-88578331D01*
X176515908Y-88612518D01*
X176511907Y-88649735D01*
X176509501Y-88672123D01*
X176509500Y-88672135D01*
X176509500Y-89667870D01*
X176509501Y-89667876D01*
X176515908Y-89727481D01*
X176528659Y-89761669D01*
X176533642Y-89831361D01*
X176528659Y-89848331D01*
X176515908Y-89882518D01*
X176509501Y-89942116D01*
X176509501Y-89942123D01*
X176509500Y-89942135D01*
X176509500Y-90937870D01*
X176509501Y-90937872D01*
X176515908Y-90997481D01*
X176528659Y-91031669D01*
X176533642Y-91101361D01*
X176528659Y-91118331D01*
X176515908Y-91152518D01*
X176509501Y-91212116D01*
X176509500Y-91212135D01*
X176509500Y-92207870D01*
X176509501Y-92207876D01*
X176515908Y-92267483D01*
X176528925Y-92302381D01*
X176533909Y-92372072D01*
X176528925Y-92389047D01*
X176516403Y-92422619D01*
X176516401Y-92422627D01*
X176510000Y-92482155D01*
X176510000Y-92730000D01*
X179010000Y-92730000D01*
X179010000Y-92482172D01*
X179009999Y-92482160D01*
X179006300Y-92447758D01*
X179018704Y-92378998D01*
X179066313Y-92327860D01*
X179129589Y-92310500D01*
X180839903Y-92310500D01*
X180906942Y-92330185D01*
X180927583Y-92346818D01*
X184131284Y-95550520D01*
X184131286Y-95550521D01*
X184131290Y-95550524D01*
X184268209Y-95629573D01*
X184268216Y-95629577D01*
X184420943Y-95670501D01*
X184420945Y-95670501D01*
X184586654Y-95670501D01*
X184586670Y-95670500D01*
X186110234Y-95670500D01*
X186177273Y-95690185D01*
X186179125Y-95691398D01*
X186310814Y-95779390D01*
X186310827Y-95779397D01*
X186375498Y-95806184D01*
X186456503Y-95839737D01*
X186611153Y-95870499D01*
X186611156Y-95870500D01*
X186611158Y-95870500D01*
X186768844Y-95870500D01*
X186856308Y-95853102D01*
X186925900Y-95859329D01*
X186981077Y-95902192D01*
X187004322Y-95968081D01*
X187004500Y-95974719D01*
X187004500Y-97464903D01*
X186984815Y-97531942D01*
X186968181Y-97552584D01*
X180957584Y-103563181D01*
X180896261Y-103596666D01*
X180869903Y-103599500D01*
X176304500Y-103599500D01*
X176237461Y-103579815D01*
X176191706Y-103527011D01*
X176180500Y-103475500D01*
X176180500Y-102833879D01*
X176200185Y-102766840D01*
X176252989Y-102721085D01*
X176306864Y-102710799D01*
X176306864Y-102710000D01*
X177409999Y-102709999D01*
X177910000Y-102709999D01*
X179009972Y-102709999D01*
X179009986Y-102709998D01*
X179112697Y-102699505D01*
X179279119Y-102644358D01*
X179279124Y-102644356D01*
X179428345Y-102552315D01*
X179552315Y-102428345D01*
X179644356Y-102279124D01*
X179644358Y-102279119D01*
X179699505Y-102112697D01*
X179699506Y-102112690D01*
X179709999Y-102009986D01*
X179710000Y-102009973D01*
X179710000Y-101960000D01*
X177910000Y-101960000D01*
X177910000Y-102709999D01*
X177409999Y-102709999D01*
X177410000Y-102709998D01*
X177410000Y-101460000D01*
X177910000Y-101460000D01*
X179709999Y-101460000D01*
X179709999Y-101410028D01*
X179709998Y-101410013D01*
X179699505Y-101307302D01*
X179644358Y-101140880D01*
X179644356Y-101140875D01*
X179552315Y-100991654D01*
X179428345Y-100867684D01*
X179279124Y-100775643D01*
X179279119Y-100775641D01*
X179112697Y-100720494D01*
X179112690Y-100720493D01*
X179009986Y-100710000D01*
X177910000Y-100710000D01*
X177910000Y-101460000D01*
X177410000Y-101460000D01*
X177410000Y-100710000D01*
X176310028Y-100710000D01*
X176310010Y-100710001D01*
X176309608Y-100710043D01*
X176309521Y-100710026D01*
X176306867Y-100710162D01*
X176306834Y-100709527D01*
X176240916Y-100697269D01*
X176190035Y-100649384D01*
X176177243Y-100618784D01*
X176139577Y-100478215D01*
X176060520Y-100341284D01*
X175665805Y-99946569D01*
X175286818Y-99567582D01*
X175253333Y-99506259D01*
X175250499Y-99479901D01*
X175250499Y-98132129D01*
X175250498Y-98132123D01*
X175244091Y-98072516D01*
X175193797Y-97937671D01*
X175193793Y-97937664D01*
X175107547Y-97822455D01*
X175107544Y-97822452D01*
X174992335Y-97736206D01*
X174992328Y-97736202D01*
X174857482Y-97685908D01*
X174857483Y-97685908D01*
X174797883Y-97679501D01*
X174797881Y-97679500D01*
X174797873Y-97679500D01*
X174797865Y-97679500D01*
X173859096Y-97679500D01*
X173837850Y-97673261D01*
X173815762Y-97671682D01*
X173804978Y-97663609D01*
X173792057Y-97659815D01*
X173777557Y-97643081D01*
X173759829Y-97629810D01*
X173755121Y-97617189D01*
X173746302Y-97607011D01*
X173743150Y-97585093D01*
X173735412Y-97564346D01*
X173738274Y-97551185D01*
X173736358Y-97537853D01*
X173745557Y-97517709D01*
X173750264Y-97496073D01*
X173763532Y-97478347D01*
X173765383Y-97474297D01*
X173771415Y-97467819D01*
X173932416Y-97306818D01*
X173993739Y-97273333D01*
X174020097Y-97270499D01*
X174467871Y-97270499D01*
X174467872Y-97270499D01*
X174527483Y-97264091D01*
X174561667Y-97251340D01*
X174631358Y-97246357D01*
X174648327Y-97251338D01*
X174682517Y-97264091D01*
X174742127Y-97270500D01*
X175737872Y-97270499D01*
X175797483Y-97264091D01*
X175831667Y-97251340D01*
X175901358Y-97246357D01*
X175918327Y-97251338D01*
X175952517Y-97264091D01*
X176012127Y-97270500D01*
X177007872Y-97270499D01*
X177067483Y-97264091D01*
X177202331Y-97213796D01*
X177317546Y-97127546D01*
X177403796Y-97012331D01*
X177454091Y-96877483D01*
X177460500Y-96817873D01*
X177460499Y-95222128D01*
X177454091Y-95162517D01*
X177403796Y-95027669D01*
X177403795Y-95027668D01*
X177403793Y-95027664D01*
X177317547Y-94912455D01*
X177317544Y-94912452D01*
X177202335Y-94826206D01*
X177202328Y-94826202D01*
X177067482Y-94775908D01*
X177067483Y-94775908D01*
X177007883Y-94769501D01*
X177007881Y-94769500D01*
X177007873Y-94769500D01*
X177007864Y-94769500D01*
X176012129Y-94769500D01*
X176012123Y-94769501D01*
X175952518Y-94775908D01*
X175918331Y-94788659D01*
X175848639Y-94793642D01*
X175831669Y-94788659D01*
X175797480Y-94775908D01*
X175797482Y-94775908D01*
X175737883Y-94769501D01*
X175737881Y-94769500D01*
X175737873Y-94769500D01*
X175737864Y-94769500D01*
X174742129Y-94769500D01*
X174742123Y-94769501D01*
X174682518Y-94775908D01*
X174648331Y-94788659D01*
X174578639Y-94793642D01*
X174561669Y-94788659D01*
X174527480Y-94775908D01*
X174527482Y-94775908D01*
X174467883Y-94769501D01*
X174467881Y-94769500D01*
X174467873Y-94769500D01*
X174467864Y-94769500D01*
X173472129Y-94769500D01*
X173472123Y-94769501D01*
X173412518Y-94775908D01*
X173378331Y-94788659D01*
X173308639Y-94793642D01*
X173291669Y-94788659D01*
X173257480Y-94775908D01*
X173257482Y-94775908D01*
X173197883Y-94769501D01*
X173197881Y-94769500D01*
X173197873Y-94769500D01*
X173197864Y-94769500D01*
X172202129Y-94769500D01*
X172202123Y-94769501D01*
X172142518Y-94775908D01*
X172108331Y-94788659D01*
X172038639Y-94793642D01*
X172021669Y-94788659D01*
X171987480Y-94775908D01*
X171987482Y-94775908D01*
X171927883Y-94769501D01*
X171927881Y-94769500D01*
X171927873Y-94769500D01*
X171927865Y-94769500D01*
X171610097Y-94769500D01*
X171580656Y-94760855D01*
X171550670Y-94754332D01*
X171545654Y-94750577D01*
X171543058Y-94749815D01*
X171522416Y-94733181D01*
X171397590Y-94608355D01*
X171397588Y-94608352D01*
X171278717Y-94489481D01*
X171278716Y-94489480D01*
X171167934Y-94425520D01*
X171167934Y-94425519D01*
X171167929Y-94425518D01*
X171158806Y-94420250D01*
X171141786Y-94410423D01*
X171103603Y-94400192D01*
X170989057Y-94369499D01*
X170830943Y-94369499D01*
X170823347Y-94369499D01*
X170823331Y-94369500D01*
X159170943Y-94369500D01*
X159018216Y-94410423D01*
X159018209Y-94410426D01*
X158881290Y-94489475D01*
X158881282Y-94489481D01*
X158769481Y-94601282D01*
X158769475Y-94601290D01*
X158690422Y-94738215D01*
X158688560Y-94742712D01*
X158644719Y-94797115D01*
X158578424Y-94819179D01*
X158510725Y-94801899D01*
X158463115Y-94750761D01*
X158450000Y-94695258D01*
X158450000Y-93477844D01*
X176510000Y-93477844D01*
X176516401Y-93537372D01*
X176516403Y-93537379D01*
X176566645Y-93672086D01*
X176566649Y-93672093D01*
X176652809Y-93787187D01*
X176652812Y-93787190D01*
X176767906Y-93873350D01*
X176767913Y-93873354D01*
X176902620Y-93923596D01*
X176902627Y-93923598D01*
X176962155Y-93929999D01*
X176962172Y-93930000D01*
X177510000Y-93930000D01*
X178010000Y-93930000D01*
X178557828Y-93930000D01*
X178557844Y-93929999D01*
X178617372Y-93923598D01*
X178617379Y-93923596D01*
X178752086Y-93873354D01*
X178752093Y-93873350D01*
X178867187Y-93787190D01*
X178867190Y-93787187D01*
X178953350Y-93672093D01*
X178953354Y-93672086D01*
X179003596Y-93537379D01*
X179003598Y-93537372D01*
X179009999Y-93477844D01*
X179010000Y-93477827D01*
X179010000Y-93230000D01*
X178010000Y-93230000D01*
X178010000Y-93930000D01*
X177510000Y-93930000D01*
X177510000Y-93230000D01*
X176510000Y-93230000D01*
X176510000Y-93477844D01*
X158450000Y-93477844D01*
X158450000Y-90047844D01*
X164790000Y-90047844D01*
X164796401Y-90107372D01*
X164796403Y-90107379D01*
X164846645Y-90242086D01*
X164846649Y-90242093D01*
X164932809Y-90357187D01*
X164932812Y-90357190D01*
X165047906Y-90443350D01*
X165047913Y-90443354D01*
X165182620Y-90493596D01*
X165182627Y-90493598D01*
X165242155Y-90499999D01*
X165242172Y-90500000D01*
X165565000Y-90500000D01*
X166065000Y-90500000D01*
X166387828Y-90500000D01*
X166387844Y-90499999D01*
X166447377Y-90493597D01*
X166447379Y-90493597D01*
X166534165Y-90461227D01*
X166603857Y-90456241D01*
X166620835Y-90461227D01*
X166707621Y-90493597D01*
X166767155Y-90499999D01*
X166767172Y-90500000D01*
X167090000Y-90500000D01*
X167590000Y-90500000D01*
X167912828Y-90500000D01*
X167912844Y-90499999D01*
X167972377Y-90493597D01*
X167972379Y-90493597D01*
X168059165Y-90461227D01*
X168128857Y-90456241D01*
X168145835Y-90461227D01*
X168232621Y-90493597D01*
X168292155Y-90499999D01*
X168292172Y-90500000D01*
X168615000Y-90500000D01*
X169115000Y-90500000D01*
X169437828Y-90500000D01*
X169437844Y-90499999D01*
X169497372Y-90493598D01*
X169497379Y-90493596D01*
X169632086Y-90443354D01*
X169632093Y-90443350D01*
X169747187Y-90357190D01*
X169747190Y-90357187D01*
X169833350Y-90242093D01*
X169833354Y-90242086D01*
X169883596Y-90107379D01*
X169883598Y-90107372D01*
X169889999Y-90047844D01*
X169890000Y-90047827D01*
X169890000Y-89725000D01*
X169115000Y-89725000D01*
X169115000Y-90500000D01*
X168615000Y-90500000D01*
X168615000Y-89725000D01*
X167590000Y-89725000D01*
X167590000Y-90500000D01*
X167090000Y-90500000D01*
X167090000Y-89725000D01*
X166065000Y-89725000D01*
X166065000Y-90500000D01*
X165565000Y-90500000D01*
X165565000Y-89725000D01*
X164790000Y-89725000D01*
X164790000Y-90047844D01*
X158450000Y-90047844D01*
X158450000Y-88522844D01*
X164790000Y-88522844D01*
X164796401Y-88582372D01*
X164796403Y-88582383D01*
X164828772Y-88669168D01*
X164833756Y-88738859D01*
X164828772Y-88755832D01*
X164796403Y-88842616D01*
X164796401Y-88842627D01*
X164790000Y-88902155D01*
X164790000Y-89225000D01*
X165565000Y-89225000D01*
X166065000Y-89225000D01*
X167090000Y-89225000D01*
X167590000Y-89225000D01*
X168615000Y-89225000D01*
X169115000Y-89225000D01*
X169890000Y-89225000D01*
X169890000Y-88902172D01*
X169889999Y-88902155D01*
X169883597Y-88842622D01*
X169883597Y-88842620D01*
X169851227Y-88755835D01*
X169846241Y-88686143D01*
X169851227Y-88669165D01*
X169883597Y-88582379D01*
X169883597Y-88582377D01*
X169889999Y-88522844D01*
X169890000Y-88522827D01*
X169890000Y-88200000D01*
X169115000Y-88200000D01*
X169115000Y-89225000D01*
X168615000Y-89225000D01*
X168615000Y-88200000D01*
X167590000Y-88200000D01*
X167590000Y-89225000D01*
X167090000Y-89225000D01*
X167090000Y-88200000D01*
X166065000Y-88200000D01*
X166065000Y-89225000D01*
X165565000Y-89225000D01*
X165565000Y-88200000D01*
X164790000Y-88200000D01*
X164790000Y-88522844D01*
X158450000Y-88522844D01*
X158450000Y-86997844D01*
X164790000Y-86997844D01*
X164796401Y-87057372D01*
X164796403Y-87057383D01*
X164828772Y-87144168D01*
X164833756Y-87213859D01*
X164828772Y-87230832D01*
X164796403Y-87317616D01*
X164796401Y-87317627D01*
X164790000Y-87377155D01*
X164790000Y-87700000D01*
X165565000Y-87700000D01*
X166065000Y-87700000D01*
X167090000Y-87700000D01*
X167590000Y-87700000D01*
X168615000Y-87700000D01*
X169115000Y-87700000D01*
X169890000Y-87700000D01*
X169890000Y-87377172D01*
X169889999Y-87377155D01*
X169883597Y-87317622D01*
X169883597Y-87317620D01*
X169851227Y-87230835D01*
X169846241Y-87161143D01*
X169851227Y-87144165D01*
X169883597Y-87057379D01*
X169883597Y-87057377D01*
X169889999Y-86997844D01*
X169890000Y-86997827D01*
X169890000Y-86675000D01*
X169115000Y-86675000D01*
X169115000Y-87700000D01*
X168615000Y-87700000D01*
X168615000Y-86675000D01*
X167590000Y-86675000D01*
X167590000Y-87700000D01*
X167090000Y-87700000D01*
X167090000Y-86675000D01*
X166065000Y-86675000D01*
X166065000Y-87700000D01*
X165565000Y-87700000D01*
X165565000Y-86675000D01*
X164790000Y-86675000D01*
X164790000Y-86997844D01*
X158450000Y-86997844D01*
X158450000Y-85852155D01*
X164790000Y-85852155D01*
X164790000Y-86175000D01*
X165565000Y-86175000D01*
X166065000Y-86175000D01*
X167090000Y-86175000D01*
X167590000Y-86175000D01*
X168615000Y-86175000D01*
X169115000Y-86175000D01*
X169890000Y-86175000D01*
X169890000Y-85852172D01*
X169889999Y-85852155D01*
X169883598Y-85792627D01*
X169883596Y-85792620D01*
X169833354Y-85657913D01*
X169833350Y-85657906D01*
X169747190Y-85542812D01*
X169747187Y-85542809D01*
X169632093Y-85456649D01*
X169632086Y-85456645D01*
X169497379Y-85406403D01*
X169497372Y-85406401D01*
X169437844Y-85400000D01*
X169115000Y-85400000D01*
X169115000Y-86175000D01*
X168615000Y-86175000D01*
X168615000Y-85400000D01*
X168292155Y-85400000D01*
X168232627Y-85406401D01*
X168232616Y-85406403D01*
X168145832Y-85438772D01*
X168076141Y-85443756D01*
X168059168Y-85438772D01*
X167972383Y-85406403D01*
X167972372Y-85406401D01*
X167912844Y-85400000D01*
X167590000Y-85400000D01*
X167590000Y-86175000D01*
X167090000Y-86175000D01*
X167090000Y-85400000D01*
X166767155Y-85400000D01*
X166707627Y-85406401D01*
X166707616Y-85406403D01*
X166620832Y-85438772D01*
X166551141Y-85443756D01*
X166534168Y-85438772D01*
X166447383Y-85406403D01*
X166447372Y-85406401D01*
X166387844Y-85400000D01*
X166065000Y-85400000D01*
X166065000Y-86175000D01*
X165565000Y-86175000D01*
X165565000Y-85400000D01*
X165242155Y-85400000D01*
X165182627Y-85406401D01*
X165182620Y-85406403D01*
X165047913Y-85456645D01*
X165047906Y-85456649D01*
X164932812Y-85542809D01*
X164932809Y-85542812D01*
X164846649Y-85657906D01*
X164846645Y-85657913D01*
X164796403Y-85792620D01*
X164796401Y-85792627D01*
X164790000Y-85852155D01*
X158450000Y-85852155D01*
X158450000Y-79317844D01*
X159050000Y-79317844D01*
X159056401Y-79377372D01*
X159056403Y-79377379D01*
X159106645Y-79512086D01*
X159106649Y-79512093D01*
X159192809Y-79627187D01*
X159192812Y-79627190D01*
X159307906Y-79713350D01*
X159307913Y-79713354D01*
X159442620Y-79763596D01*
X159442627Y-79763598D01*
X159502155Y-79769999D01*
X159502172Y-79770000D01*
X159750000Y-79770000D01*
X159750000Y-78770000D01*
X159050000Y-78770000D01*
X159050000Y-79317844D01*
X158450000Y-79317844D01*
X158450000Y-77722155D01*
X159050000Y-77722155D01*
X159050000Y-78270000D01*
X159750000Y-78270000D01*
X159750000Y-77270000D01*
X159502155Y-77270000D01*
X159442627Y-77276401D01*
X159442620Y-77276403D01*
X159307913Y-77326645D01*
X159307906Y-77326649D01*
X159192812Y-77412809D01*
X159192809Y-77412812D01*
X159106649Y-77527906D01*
X159106645Y-77527913D01*
X159056403Y-77662620D01*
X159056401Y-77662627D01*
X159050000Y-77722155D01*
X158450000Y-77722155D01*
X158450000Y-63270000D01*
X155153705Y-63270000D01*
X155086666Y-63250315D01*
X155040911Y-63197511D01*
X155029705Y-63145978D01*
X155029729Y-63010932D01*
X155030054Y-61194612D01*
X155049751Y-61127579D01*
X155102563Y-61081833D01*
X155154079Y-61070637D01*
X243894911Y-61090361D01*
G37*
%TD.AperFunction*%
%TA.AperFunction,Conductor*%
G36*
X194580324Y-83260185D02*
G01*
X194619401Y-83300349D01*
X194645926Y-83344226D01*
X194649530Y-83350188D01*
X194769811Y-83470469D01*
X194769813Y-83470470D01*
X194769815Y-83470472D01*
X194915394Y-83558478D01*
X195077804Y-83609086D01*
X195148384Y-83615500D01*
X195148387Y-83615500D01*
X195661613Y-83615500D01*
X195661616Y-83615500D01*
X195732196Y-83609086D01*
X195894606Y-83558478D01*
X196040185Y-83470472D01*
X196142320Y-83368336D01*
X196150265Y-83363998D01*
X196155690Y-83356752D01*
X196180446Y-83347518D01*
X196203641Y-83334853D01*
X196212671Y-83335498D01*
X196221154Y-83332335D01*
X196246974Y-83337951D01*
X196273333Y-83339837D01*
X196282386Y-83345655D01*
X196289427Y-83347187D01*
X196317681Y-83368338D01*
X196418181Y-83468838D01*
X196451666Y-83530161D01*
X196454500Y-83556519D01*
X196454500Y-86034903D01*
X196434815Y-86101942D01*
X196418181Y-86122584D01*
X193645339Y-88895425D01*
X193584016Y-88928910D01*
X193581850Y-88929361D01*
X193438692Y-88957838D01*
X193369100Y-88951611D01*
X193313923Y-88908749D01*
X193290678Y-88842859D01*
X193290500Y-88836221D01*
X193290500Y-85899765D01*
X193310185Y-85832726D01*
X193311398Y-85830874D01*
X193399390Y-85699185D01*
X193399390Y-85699184D01*
X193399394Y-85699179D01*
X193459737Y-85553497D01*
X193490500Y-85398842D01*
X193490500Y-85241158D01*
X193490500Y-85241155D01*
X193490499Y-85241153D01*
X193459737Y-85086503D01*
X193458616Y-85083796D01*
X193399397Y-84940827D01*
X193399390Y-84940814D01*
X193311789Y-84809711D01*
X193311786Y-84809707D01*
X193200292Y-84698213D01*
X193200288Y-84698210D01*
X193069185Y-84610609D01*
X193069176Y-84610604D01*
X192935161Y-84555094D01*
X192880758Y-84511253D01*
X192858693Y-84444959D01*
X192860306Y-84424946D01*
X192859903Y-84424907D01*
X192860500Y-84418844D01*
X192860500Y-84261155D01*
X192860499Y-84261153D01*
X192838744Y-84151786D01*
X192829737Y-84106503D01*
X192810682Y-84060500D01*
X192769397Y-83960827D01*
X192769390Y-83960814D01*
X192681789Y-83829711D01*
X192681786Y-83829707D01*
X192570292Y-83718213D01*
X192570288Y-83718210D01*
X192439185Y-83630609D01*
X192439172Y-83630602D01*
X192293501Y-83570264D01*
X192293489Y-83570261D01*
X192138845Y-83539500D01*
X192138842Y-83539500D01*
X191981158Y-83539500D01*
X191981155Y-83539500D01*
X191826510Y-83570261D01*
X191826498Y-83570264D01*
X191680827Y-83630602D01*
X191680814Y-83630609D01*
X191549711Y-83718210D01*
X191549707Y-83718213D01*
X191438213Y-83829707D01*
X191438210Y-83829711D01*
X191350609Y-83960814D01*
X191350602Y-83960827D01*
X191290264Y-84106498D01*
X191290261Y-84106510D01*
X191259500Y-84261153D01*
X191259500Y-84418846D01*
X191290261Y-84573489D01*
X191290264Y-84573501D01*
X191350602Y-84719172D01*
X191350609Y-84719185D01*
X191438602Y-84850874D01*
X191459480Y-84917551D01*
X191459500Y-84919765D01*
X191459500Y-90126663D01*
X191459499Y-90126681D01*
X191459499Y-90292387D01*
X191459498Y-90292387D01*
X191467434Y-90322003D01*
X191499950Y-90443354D01*
X191500423Y-90445117D01*
X191500424Y-90445121D01*
X191526091Y-90489578D01*
X191526092Y-90489578D01*
X191579477Y-90582045D01*
X191579481Y-90582050D01*
X191698349Y-90700918D01*
X191698355Y-90700923D01*
X203941806Y-102944374D01*
X203941816Y-102944385D01*
X203946146Y-102948715D01*
X203946147Y-102948716D01*
X204057951Y-103060520D01*
X204135567Y-103105331D01*
X204194882Y-103139577D01*
X204347609Y-103180500D01*
X204347610Y-103180500D01*
X208075501Y-103180500D01*
X208142540Y-103200185D01*
X208188295Y-103252989D01*
X208199501Y-103304500D01*
X208199501Y-104427876D01*
X208205908Y-104487483D01*
X208256202Y-104622328D01*
X208256206Y-104622335D01*
X208342452Y-104737544D01*
X208342455Y-104737547D01*
X208457664Y-104823793D01*
X208457671Y-104823797D01*
X208592517Y-104874091D01*
X208592516Y-104874091D01*
X208599444Y-104874835D01*
X208652127Y-104880500D01*
X211347872Y-104880499D01*
X211407483Y-104874091D01*
X211542331Y-104823796D01*
X211657546Y-104737546D01*
X211743796Y-104622331D01*
X211794091Y-104487483D01*
X211800500Y-104427873D01*
X211800499Y-100732128D01*
X211794091Y-100672517D01*
X211774047Y-100618777D01*
X211743797Y-100537671D01*
X211743793Y-100537664D01*
X211657547Y-100422455D01*
X211657544Y-100422452D01*
X211542335Y-100336206D01*
X211542328Y-100336202D01*
X211407482Y-100285908D01*
X211407483Y-100285908D01*
X211347883Y-100279501D01*
X211347881Y-100279500D01*
X211347873Y-100279500D01*
X211347864Y-100279500D01*
X208652129Y-100279500D01*
X208652123Y-100279501D01*
X208592516Y-100285908D01*
X208457671Y-100336202D01*
X208457664Y-100336206D01*
X208342455Y-100422452D01*
X208342452Y-100422455D01*
X208256206Y-100537664D01*
X208256202Y-100537671D01*
X208205908Y-100672517D01*
X208199501Y-100732116D01*
X208199501Y-100732123D01*
X208199500Y-100732135D01*
X208199500Y-101855500D01*
X208179815Y-101922539D01*
X208127011Y-101968294D01*
X208075500Y-101979500D01*
X204726764Y-101979500D01*
X204659725Y-101959815D01*
X204639083Y-101943181D01*
X197453083Y-94757181D01*
X197419598Y-94695858D01*
X197424582Y-94626166D01*
X197466454Y-94570233D01*
X197531918Y-94545816D01*
X197540764Y-94545500D01*
X202980979Y-94545500D01*
X202980995Y-94545501D01*
X202988591Y-94545501D01*
X203146702Y-94545501D01*
X203146705Y-94545501D01*
X203299433Y-94504577D01*
X203349795Y-94475500D01*
X203436364Y-94425520D01*
X203548168Y-94313716D01*
X203548168Y-94313714D01*
X203558372Y-94303511D01*
X203558376Y-94303506D01*
X206683506Y-91178376D01*
X206683511Y-91178372D01*
X206693714Y-91168168D01*
X206693716Y-91168168D01*
X206805520Y-91056364D01*
X206884577Y-90919432D01*
X206916713Y-90799500D01*
X206925500Y-90766706D01*
X206925500Y-90608591D01*
X206925500Y-88682730D01*
X206945185Y-88615691D01*
X206997989Y-88569936D01*
X207067147Y-88559992D01*
X207073692Y-88561113D01*
X207171155Y-88580500D01*
X207171158Y-88580500D01*
X207328844Y-88580500D01*
X207328845Y-88580499D01*
X207483497Y-88549737D01*
X207606208Y-88498908D01*
X207675676Y-88491440D01*
X207722550Y-88510368D01*
X207840814Y-88589390D01*
X207840827Y-88589397D01*
X207986498Y-88649735D01*
X207986503Y-88649737D01*
X208099105Y-88672135D01*
X208141153Y-88680499D01*
X208141156Y-88680500D01*
X208141158Y-88680500D01*
X208298844Y-88680500D01*
X208298845Y-88680499D01*
X208453497Y-88649737D01*
X208599179Y-88589394D01*
X208730289Y-88501789D01*
X208841789Y-88390289D01*
X208929394Y-88259179D01*
X208929395Y-88259176D01*
X208929397Y-88259173D01*
X208932965Y-88250559D01*
X208976728Y-88144903D01*
X208989737Y-88113497D01*
X209014971Y-87986638D01*
X209020638Y-87958150D01*
X209053023Y-87896239D01*
X209054517Y-87894717D01*
X210322417Y-86626819D01*
X210383740Y-86593334D01*
X210410098Y-86590500D01*
X228087641Y-86590500D01*
X228154680Y-86610185D01*
X228200435Y-86662989D01*
X228210379Y-86732147D01*
X228205572Y-86752818D01*
X228153242Y-86913869D01*
X228153242Y-86913872D01*
X228120000Y-87123753D01*
X228120000Y-87336246D01*
X228153242Y-87546127D01*
X228153242Y-87546130D01*
X228218904Y-87748217D01*
X228315375Y-87937550D01*
X228354728Y-87991716D01*
X228987036Y-87359407D01*
X229004075Y-87422993D01*
X229069901Y-87537007D01*
X229162993Y-87630099D01*
X229277007Y-87695925D01*
X229340590Y-87712962D01*
X228708282Y-88345269D01*
X228708282Y-88345270D01*
X228762449Y-88384624D01*
X228951782Y-88481095D01*
X229153870Y-88546757D01*
X229363754Y-88580000D01*
X229576246Y-88580000D01*
X229786127Y-88546757D01*
X229786130Y-88546757D01*
X229988217Y-88481095D01*
X230177554Y-88384622D01*
X230231716Y-88345270D01*
X230231717Y-88345270D01*
X229599408Y-87712962D01*
X229662993Y-87695925D01*
X229777007Y-87630099D01*
X229870099Y-87537007D01*
X229935925Y-87422993D01*
X229952962Y-87359409D01*
X230585270Y-87991717D01*
X230585270Y-87991716D01*
X230624622Y-87937554D01*
X230721095Y-87748217D01*
X230786757Y-87546130D01*
X230786757Y-87546127D01*
X230820000Y-87336246D01*
X230820000Y-87123753D01*
X230786757Y-86913872D01*
X230786757Y-86913869D01*
X230734428Y-86752818D01*
X230732433Y-86682977D01*
X230768513Y-86623144D01*
X230831214Y-86592316D01*
X230852359Y-86590500D01*
X237674551Y-86590500D01*
X237741590Y-86610185D01*
X237787345Y-86662989D01*
X237792480Y-86676179D01*
X237848323Y-86848044D01*
X237848444Y-86848414D01*
X237944951Y-87037820D01*
X238069890Y-87209786D01*
X238220213Y-87360109D01*
X238392182Y-87485050D01*
X238400946Y-87489516D01*
X238451742Y-87537491D01*
X238468536Y-87605312D01*
X238445998Y-87671447D01*
X238400946Y-87710484D01*
X238392182Y-87714949D01*
X238220213Y-87839890D01*
X238069890Y-87990213D01*
X237944951Y-88162179D01*
X237848444Y-88351585D01*
X237782753Y-88553760D01*
X237749500Y-88763713D01*
X237749500Y-88976286D01*
X237782077Y-89181972D01*
X237782754Y-89186243D01*
X237831904Y-89337511D01*
X237848444Y-89388414D01*
X237855533Y-89402327D01*
X237944949Y-89577816D01*
X237997012Y-89649475D01*
X238020492Y-89715281D01*
X238004667Y-89783335D01*
X237984375Y-89810041D01*
X220971238Y-106823181D01*
X220909915Y-106856666D01*
X220883557Y-106859500D01*
X188268511Y-106859500D01*
X188201472Y-106839815D01*
X188155717Y-106787011D01*
X188145773Y-106717853D01*
X188174798Y-106654297D01*
X188203412Y-106629962D01*
X188328656Y-106552712D01*
X188452712Y-106428656D01*
X188544814Y-106279334D01*
X188599999Y-106112797D01*
X188610500Y-106010009D01*
X188610499Y-105409992D01*
X188609648Y-105401666D01*
X188599999Y-105307203D01*
X188599998Y-105307200D01*
X188544814Y-105140666D01*
X188452712Y-104991344D01*
X188328656Y-104867288D01*
X188179334Y-104775186D01*
X188012797Y-104720001D01*
X188012795Y-104720000D01*
X187910010Y-104709500D01*
X185209998Y-104709500D01*
X185209981Y-104709501D01*
X185107203Y-104720000D01*
X185107200Y-104720001D01*
X184940668Y-104775185D01*
X184940663Y-104775187D01*
X184791342Y-104867289D01*
X184667289Y-104991342D01*
X184667288Y-104991344D01*
X184645598Y-105026510D01*
X184630741Y-105050597D01*
X184578793Y-105097321D01*
X184525202Y-105109500D01*
X179694798Y-105109500D01*
X179685007Y-105106625D01*
X179674882Y-105107890D01*
X179652050Y-105096947D01*
X179627759Y-105089815D01*
X179619399Y-105081299D01*
X179611874Y-105077693D01*
X179589259Y-105050597D01*
X179582609Y-105039815D01*
X179552712Y-104991344D01*
X179552710Y-104991342D01*
X179551634Y-104989597D01*
X179533194Y-104922204D01*
X179554117Y-104855541D01*
X179607759Y-104810771D01*
X179657173Y-104800500D01*
X181083331Y-104800500D01*
X181083347Y-104800501D01*
X181090943Y-104800501D01*
X181249054Y-104800501D01*
X181249057Y-104800501D01*
X181401785Y-104759577D01*
X181470332Y-104720001D01*
X181538716Y-104680520D01*
X181650520Y-104568716D01*
X181650520Y-104568714D01*
X181660724Y-104558511D01*
X181660728Y-104558506D01*
X184298323Y-101920910D01*
X184359642Y-101887428D01*
X184429334Y-101892412D01*
X184485267Y-101934284D01*
X184509684Y-101999748D01*
X184510000Y-102008567D01*
X184510000Y-102009957D01*
X184510001Y-102009987D01*
X184520494Y-102112697D01*
X184575641Y-102279119D01*
X184575643Y-102279124D01*
X184667684Y-102428345D01*
X184791654Y-102552315D01*
X184940875Y-102644356D01*
X184940880Y-102644358D01*
X185107302Y-102699505D01*
X185107309Y-102699506D01*
X185210019Y-102709999D01*
X186309999Y-102709999D01*
X186810000Y-102709999D01*
X187909972Y-102709999D01*
X187909986Y-102709998D01*
X188012697Y-102699505D01*
X188179119Y-102644358D01*
X188179124Y-102644356D01*
X188328345Y-102552315D01*
X188452315Y-102428345D01*
X188544356Y-102279124D01*
X188544358Y-102279119D01*
X188599505Y-102112697D01*
X188599506Y-102112690D01*
X188609999Y-102009986D01*
X188610000Y-102009973D01*
X188610000Y-101960000D01*
X186810000Y-101960000D01*
X186810000Y-102709999D01*
X186309999Y-102709999D01*
X186310000Y-102709998D01*
X186310000Y-101460000D01*
X186810000Y-101460000D01*
X188609999Y-101460000D01*
X188609999Y-101410028D01*
X188609998Y-101410013D01*
X188599505Y-101307302D01*
X188544358Y-101140880D01*
X188544356Y-101140875D01*
X188452315Y-100991654D01*
X188328345Y-100867684D01*
X188179124Y-100775643D01*
X188179119Y-100775641D01*
X188012697Y-100720494D01*
X188012690Y-100720493D01*
X187909986Y-100710000D01*
X186810000Y-100710000D01*
X186810000Y-101460000D01*
X186310000Y-101460000D01*
X186310000Y-100710000D01*
X185808595Y-100710000D01*
X185741556Y-100690315D01*
X185695801Y-100637511D01*
X185685857Y-100568353D01*
X185714882Y-100504797D01*
X185720900Y-100498333D01*
X187963506Y-98255728D01*
X187963511Y-98255724D01*
X187973714Y-98245520D01*
X187973716Y-98245520D01*
X188085520Y-98133716D01*
X188145689Y-98029500D01*
X188164577Y-97996785D01*
X188205500Y-97844058D01*
X188205500Y-97685943D01*
X188205500Y-91016519D01*
X188214145Y-90987075D01*
X188220668Y-90957093D01*
X188224422Y-90952077D01*
X188225185Y-90949480D01*
X188241813Y-90928843D01*
X188342321Y-90828335D01*
X188403640Y-90794853D01*
X188473332Y-90799837D01*
X188517680Y-90828338D01*
X188619811Y-90930469D01*
X188619813Y-90930470D01*
X188619815Y-90930472D01*
X188765394Y-91018478D01*
X188927804Y-91069086D01*
X188998384Y-91075500D01*
X188998387Y-91075500D01*
X189511613Y-91075500D01*
X189511616Y-91075500D01*
X189582196Y-91069086D01*
X189744606Y-91018478D01*
X189890185Y-90930472D01*
X190010472Y-90810185D01*
X190098478Y-90664606D01*
X190149086Y-90502196D01*
X190155500Y-90431616D01*
X190155500Y-89768384D01*
X190149086Y-89697804D01*
X190098478Y-89535394D01*
X190010472Y-89389815D01*
X190010470Y-89389813D01*
X190010469Y-89389811D01*
X189890188Y-89269530D01*
X189890185Y-89269528D01*
X189776190Y-89200615D01*
X189729004Y-89149089D01*
X189717166Y-89080229D01*
X189744435Y-89015901D01*
X189802154Y-88976527D01*
X189840342Y-88970500D01*
X189938844Y-88970500D01*
X189938845Y-88970499D01*
X190093497Y-88939737D01*
X190239179Y-88879394D01*
X190370289Y-88791789D01*
X190481789Y-88680289D01*
X190569394Y-88549179D01*
X190629737Y-88403497D01*
X190660500Y-88248842D01*
X190660500Y-88091158D01*
X190660500Y-88091155D01*
X190659903Y-88085093D01*
X190662447Y-88084842D01*
X190667636Y-88026388D01*
X190710458Y-87971180D01*
X190719939Y-87964971D01*
X190725393Y-87961745D01*
X190725398Y-87961744D01*
X190866865Y-87878081D01*
X190983081Y-87761865D01*
X191066744Y-87620398D01*
X191105642Y-87486510D01*
X191112597Y-87462573D01*
X191112598Y-87462567D01*
X191115287Y-87428395D01*
X191115500Y-87425694D01*
X191115500Y-85644306D01*
X191112598Y-85607431D01*
X191103833Y-85577263D01*
X191066745Y-85449606D01*
X191066744Y-85449603D01*
X191066744Y-85449602D01*
X190983081Y-85308135D01*
X190983079Y-85308133D01*
X190983076Y-85308129D01*
X190866870Y-85191923D01*
X190866862Y-85191917D01*
X190766917Y-85132810D01*
X190725398Y-85108256D01*
X190725397Y-85108255D01*
X190725396Y-85108255D01*
X190725393Y-85108254D01*
X190567573Y-85062402D01*
X190567567Y-85062401D01*
X190530701Y-85059500D01*
X190530694Y-85059500D01*
X190099306Y-85059500D01*
X190099298Y-85059500D01*
X190062432Y-85062401D01*
X190062426Y-85062402D01*
X189904606Y-85108254D01*
X189904603Y-85108255D01*
X189763137Y-85191917D01*
X189756969Y-85196702D01*
X189755072Y-85194256D01*
X189706358Y-85220857D01*
X189636666Y-85215873D01*
X189615160Y-85205387D01*
X189602672Y-85197726D01*
X189596865Y-85191919D01*
X189495111Y-85131742D01*
X189494242Y-85131209D01*
X189471466Y-85106011D01*
X189448278Y-85081176D01*
X189448091Y-85080149D01*
X189447391Y-85079375D01*
X189441852Y-85045851D01*
X189435774Y-85012435D01*
X189436172Y-85011469D01*
X189436002Y-85010440D01*
X189449461Y-84979255D01*
X189462419Y-84947845D01*
X189463574Y-84946557D01*
X189463689Y-84946291D01*
X189464001Y-84946080D01*
X189471390Y-84937843D01*
X191132417Y-83276819D01*
X191193740Y-83243334D01*
X191220098Y-83240500D01*
X194513285Y-83240500D01*
X194580324Y-83260185D01*
G37*
%TD.AperFunction*%
%TA.AperFunction,Conductor*%
G36*
X172484340Y-99918068D02*
G01*
X172540274Y-99959939D01*
X172557189Y-99990917D01*
X172606202Y-100122328D01*
X172606206Y-100122335D01*
X172692452Y-100237544D01*
X172692455Y-100237547D01*
X172807664Y-100323793D01*
X172807671Y-100323797D01*
X172942517Y-100374091D01*
X172942516Y-100374091D01*
X172949444Y-100374835D01*
X173002127Y-100380500D01*
X174349901Y-100380499D01*
X174416940Y-100400184D01*
X174437582Y-100416818D01*
X174848477Y-100827713D01*
X174881962Y-100889036D01*
X174876978Y-100958728D01*
X174835106Y-101014661D01*
X174769642Y-101039078D01*
X174736604Y-101037011D01*
X174698844Y-101029500D01*
X174698842Y-101029500D01*
X174541158Y-101029500D01*
X174541155Y-101029500D01*
X174386510Y-101060261D01*
X174386498Y-101060264D01*
X174240828Y-101120602D01*
X174240812Y-101120611D01*
X174196603Y-101150150D01*
X174129925Y-101171027D01*
X174062545Y-101152541D01*
X174040033Y-101134728D01*
X174012732Y-101107427D01*
X174012728Y-101107424D01*
X173868492Y-101018457D01*
X173868481Y-101018452D01*
X173707606Y-100965144D01*
X173608322Y-100955000D01*
X173560000Y-100955000D01*
X173560000Y-101781000D01*
X173540315Y-101848039D01*
X173487511Y-101893794D01*
X173436000Y-101905000D01*
X173310000Y-101905000D01*
X173310000Y-102031000D01*
X173290315Y-102098039D01*
X173237511Y-102143794D01*
X173186000Y-102155000D01*
X172335001Y-102155000D01*
X172335001Y-102178322D01*
X172345144Y-102277607D01*
X172398452Y-102438481D01*
X172398457Y-102438492D01*
X172487424Y-102582728D01*
X172487427Y-102582732D01*
X172496660Y-102591965D01*
X172497012Y-102592611D01*
X172497656Y-102592972D01*
X172513738Y-102623241D01*
X172530145Y-102653288D01*
X172530092Y-102654022D01*
X172530438Y-102654673D01*
X172527606Y-102688780D01*
X172525161Y-102722980D01*
X172524698Y-102723815D01*
X172524658Y-102724304D01*
X172523120Y-102726667D01*
X172507391Y-102755085D01*
X172502425Y-102761562D01*
X172487032Y-102776956D01*
X172472231Y-102800951D01*
X172468408Y-102805939D01*
X172445076Y-102822992D01*
X172423588Y-102842321D01*
X172416396Y-102843955D01*
X172412000Y-102847169D01*
X172398755Y-102847964D01*
X172369996Y-102854500D01*
X171383548Y-102854500D01*
X171316509Y-102834815D01*
X171270754Y-102782011D01*
X171260810Y-102712853D01*
X171277431Y-102666350D01*
X171333019Y-102574395D01*
X171383590Y-102412106D01*
X171390000Y-102341572D01*
X171390000Y-102260000D01*
X170614000Y-102260000D01*
X170546961Y-102240315D01*
X170501206Y-102187511D01*
X170490000Y-102136000D01*
X170490000Y-102010000D01*
X170364000Y-102010000D01*
X170296961Y-101990315D01*
X170251206Y-101937511D01*
X170240000Y-101886000D01*
X170240000Y-101760000D01*
X170740000Y-101760000D01*
X171389999Y-101760000D01*
X171389999Y-101678416D01*
X171389998Y-101678415D01*
X171386486Y-101639747D01*
X171385752Y-101631677D01*
X172335000Y-101631677D01*
X172335000Y-101655000D01*
X173060000Y-101655000D01*
X173060000Y-100955000D01*
X173059999Y-100954999D01*
X173011693Y-100955000D01*
X173011675Y-100955001D01*
X172912392Y-100965144D01*
X172751518Y-101018452D01*
X172751507Y-101018457D01*
X172607271Y-101107424D01*
X172607267Y-101107427D01*
X172487427Y-101227267D01*
X172487424Y-101227271D01*
X172398457Y-101371507D01*
X172398452Y-101371518D01*
X172345144Y-101532393D01*
X172335000Y-101631677D01*
X171385752Y-101631677D01*
X171383591Y-101607897D01*
X171383590Y-101607892D01*
X171333018Y-101445603D01*
X171245072Y-101300122D01*
X171124877Y-101179927D01*
X170979395Y-101091980D01*
X170979396Y-101091980D01*
X170817105Y-101041409D01*
X170817106Y-101041409D01*
X170746572Y-101035000D01*
X170740000Y-101035000D01*
X170740000Y-101760000D01*
X170240000Y-101760000D01*
X170240000Y-101050595D01*
X170248644Y-101021154D01*
X170255168Y-100991168D01*
X170258922Y-100986152D01*
X170259685Y-100983556D01*
X170276314Y-100962919D01*
X170875478Y-100363755D01*
X170936799Y-100330272D01*
X171001473Y-100333506D01*
X171043757Y-100347246D01*
X171253713Y-100380500D01*
X171253714Y-100380500D01*
X171466286Y-100380500D01*
X171466287Y-100380500D01*
X171676243Y-100347246D01*
X171878412Y-100281557D01*
X172067816Y-100185051D01*
X172239792Y-100060104D01*
X172353329Y-99946566D01*
X172414648Y-99913084D01*
X172484340Y-99918068D01*
G37*
%TD.AperFunction*%
%TA.AperFunction,Conductor*%
G36*
X160193039Y-96039685D02*
G01*
X160238794Y-96092489D01*
X160250000Y-96144000D01*
X160250000Y-97270000D01*
X160497828Y-97270000D01*
X160497839Y-97269999D01*
X160532242Y-97266300D01*
X160601002Y-97278704D01*
X160652140Y-97326313D01*
X160669500Y-97389589D01*
X160669500Y-100316159D01*
X160649815Y-100383198D01*
X160597011Y-100428953D01*
X160527853Y-100438897D01*
X160464297Y-100409872D01*
X160457819Y-100403840D01*
X159886819Y-99832840D01*
X159853334Y-99771517D01*
X159850500Y-99745159D01*
X159850500Y-96144000D01*
X159853050Y-96135314D01*
X159851762Y-96126353D01*
X159862740Y-96102312D01*
X159870185Y-96076961D01*
X159877025Y-96071033D01*
X159880787Y-96062797D01*
X159903021Y-96048507D01*
X159922989Y-96031206D01*
X159933503Y-96028918D01*
X159939565Y-96025023D01*
X159974500Y-96020000D01*
X160126000Y-96020000D01*
X160193039Y-96039685D01*
G37*
%TD.AperFunction*%
%TA.AperFunction,Conductor*%
G36*
X179215701Y-84108227D02*
G01*
X179222180Y-84114259D01*
X179259707Y-84151786D01*
X179259711Y-84151789D01*
X179390814Y-84239390D01*
X179390827Y-84239397D01*
X179536498Y-84299735D01*
X179536503Y-84299737D01*
X179601147Y-84312595D01*
X179691849Y-84330638D01*
X179753760Y-84363023D01*
X179755339Y-84364574D01*
X182993181Y-87602416D01*
X183026666Y-87663739D01*
X183029500Y-87690097D01*
X183029500Y-87798846D01*
X183060261Y-87953489D01*
X183060264Y-87953501D01*
X183120602Y-88099172D01*
X183120609Y-88099185D01*
X183208210Y-88230288D01*
X183208213Y-88230292D01*
X183319707Y-88341786D01*
X183319711Y-88341789D01*
X183450814Y-88429390D01*
X183450827Y-88429397D01*
X183563674Y-88476139D01*
X183596503Y-88489737D01*
X183751153Y-88520499D01*
X183751156Y-88520500D01*
X183751158Y-88520500D01*
X183908844Y-88520500D01*
X183908845Y-88520499D01*
X184063497Y-88489737D01*
X184176401Y-88442971D01*
X184209172Y-88429397D01*
X184209172Y-88429396D01*
X184209179Y-88429394D01*
X184340289Y-88341789D01*
X184420859Y-88261218D01*
X184482180Y-88227735D01*
X184551872Y-88232719D01*
X184596220Y-88261220D01*
X184625000Y-88290000D01*
X185350000Y-88290000D01*
X185350000Y-87590000D01*
X185349999Y-87589999D01*
X185301693Y-87590000D01*
X185301675Y-87590001D01*
X185202392Y-87600144D01*
X185041518Y-87653452D01*
X185041507Y-87653457D01*
X184897271Y-87742424D01*
X184897267Y-87742427D01*
X184842181Y-87797514D01*
X184780858Y-87830999D01*
X184711166Y-87826015D01*
X184655233Y-87784143D01*
X184630816Y-87718679D01*
X184630500Y-87709833D01*
X184630500Y-87641155D01*
X184630499Y-87641153D01*
X184628300Y-87630099D01*
X184599737Y-87486503D01*
X184589823Y-87462569D01*
X184539397Y-87340827D01*
X184539390Y-87340814D01*
X184451789Y-87209711D01*
X184451786Y-87209707D01*
X184340292Y-87098213D01*
X184340288Y-87098210D01*
X184209185Y-87010609D01*
X184209172Y-87010602D01*
X184063499Y-86950263D01*
X184058764Y-86948827D01*
X184007084Y-86917849D01*
X183241416Y-86152181D01*
X183207931Y-86090858D01*
X183212915Y-86021166D01*
X183254787Y-85965233D01*
X183320251Y-85940816D01*
X183329097Y-85940500D01*
X184350234Y-85940500D01*
X184417273Y-85960185D01*
X184419125Y-85961398D01*
X184550814Y-86049390D01*
X184550827Y-86049397D01*
X184677684Y-86101942D01*
X184696503Y-86109737D01*
X184851153Y-86140499D01*
X184851156Y-86140500D01*
X184851158Y-86140500D01*
X185008844Y-86140500D01*
X185008845Y-86140499D01*
X185163497Y-86109737D01*
X185309179Y-86049394D01*
X185440289Y-85961789D01*
X185461578Y-85940500D01*
X185492819Y-85909260D01*
X185554142Y-85875775D01*
X185623834Y-85880759D01*
X185679767Y-85922631D01*
X185704184Y-85988095D01*
X185704500Y-85996941D01*
X185704500Y-87425701D01*
X185707401Y-87462567D01*
X185707402Y-87462573D01*
X185753254Y-87620393D01*
X185753255Y-87620396D01*
X185753256Y-87620398D01*
X185832732Y-87754785D01*
X185850000Y-87817906D01*
X185850000Y-88290000D01*
X186574999Y-88290000D01*
X186574999Y-88266692D01*
X186574998Y-88266677D01*
X186564855Y-88167388D01*
X186563439Y-88160771D01*
X186566418Y-88160133D01*
X186564483Y-88103661D01*
X186600222Y-88043623D01*
X186662746Y-88012439D01*
X186684587Y-88010500D01*
X186720686Y-88010500D01*
X186720694Y-88010500D01*
X186757569Y-88007598D01*
X186757571Y-88007597D01*
X186757573Y-88007597D01*
X186857321Y-87978617D01*
X186915398Y-87961744D01*
X186987381Y-87919173D01*
X187055102Y-87901991D01*
X187121365Y-87924151D01*
X187165129Y-87978617D01*
X187174500Y-88025906D01*
X187174500Y-89075855D01*
X187154815Y-89142894D01*
X187114650Y-89181971D01*
X187107585Y-89186243D01*
X186969811Y-89269530D01*
X186849531Y-89389810D01*
X186849528Y-89389814D01*
X186825446Y-89429651D01*
X186817512Y-89436916D01*
X186813043Y-89446703D01*
X186792193Y-89460101D01*
X186773918Y-89476838D01*
X186761765Y-89479656D01*
X186754265Y-89484477D01*
X186719330Y-89489500D01*
X186540004Y-89489500D01*
X186472965Y-89469815D01*
X186434465Y-89430596D01*
X186432164Y-89426866D01*
X186422968Y-89411956D01*
X186413339Y-89402327D01*
X186379854Y-89341004D01*
X186384838Y-89271312D01*
X186413345Y-89226959D01*
X186422573Y-89217731D01*
X186511542Y-89073492D01*
X186511547Y-89073481D01*
X186564855Y-88912606D01*
X186574999Y-88813322D01*
X186575000Y-88813309D01*
X186575000Y-88790000D01*
X184625001Y-88790000D01*
X184625001Y-88813322D01*
X184635144Y-88912607D01*
X184688452Y-89073481D01*
X184688457Y-89073492D01*
X184777424Y-89217728D01*
X184777427Y-89217732D01*
X184786660Y-89226965D01*
X184820145Y-89288288D01*
X184815161Y-89357980D01*
X184786663Y-89402324D01*
X184777033Y-89411953D01*
X184777029Y-89411959D01*
X184688001Y-89556294D01*
X184687996Y-89556305D01*
X184634651Y-89717290D01*
X184624500Y-89816647D01*
X184624500Y-90363337D01*
X184624501Y-90363355D01*
X184634650Y-90462707D01*
X184634651Y-90462710D01*
X184687996Y-90623694D01*
X184688001Y-90623705D01*
X184777029Y-90768040D01*
X184777032Y-90768044D01*
X184811306Y-90802318D01*
X184844791Y-90863641D01*
X184839807Y-90933333D01*
X184811307Y-90977679D01*
X184717032Y-91071955D01*
X184717029Y-91071959D01*
X184628001Y-91216294D01*
X184627996Y-91216305D01*
X184574651Y-91377290D01*
X184564500Y-91476647D01*
X184564500Y-92023337D01*
X184564501Y-92023355D01*
X184574650Y-92122707D01*
X184574651Y-92122710D01*
X184627996Y-92283694D01*
X184628001Y-92283705D01*
X184717029Y-92428040D01*
X184717032Y-92428044D01*
X184726660Y-92437672D01*
X184760145Y-92498995D01*
X184755161Y-92568687D01*
X184726663Y-92613031D01*
X184717428Y-92622265D01*
X184717424Y-92622271D01*
X184628457Y-92766507D01*
X184628452Y-92766518D01*
X184575144Y-92927393D01*
X184565000Y-93026677D01*
X184565000Y-93050000D01*
X186514999Y-93050000D01*
X186514999Y-93026692D01*
X186514998Y-93026677D01*
X186504855Y-92927392D01*
X186451547Y-92766518D01*
X186451542Y-92766507D01*
X186362575Y-92622271D01*
X186362572Y-92622267D01*
X186353339Y-92613034D01*
X186319854Y-92551711D01*
X186324838Y-92482019D01*
X186353343Y-92437668D01*
X186362968Y-92428044D01*
X186452003Y-92283697D01*
X186505349Y-92122708D01*
X186515500Y-92023345D01*
X186515499Y-91476656D01*
X186511838Y-91440821D01*
X186505349Y-91377292D01*
X186505348Y-91377289D01*
X186482955Y-91309711D01*
X186452003Y-91216303D01*
X186451999Y-91216297D01*
X186451998Y-91216294D01*
X186362970Y-91071959D01*
X186362967Y-91071955D01*
X186328693Y-91037681D01*
X186325728Y-91032252D01*
X186320611Y-91028775D01*
X186309179Y-91001945D01*
X186295208Y-90976358D01*
X186295649Y-90970188D01*
X186293224Y-90964496D01*
X186298112Y-90935746D01*
X186300192Y-90906666D01*
X186304162Y-90900165D01*
X186304936Y-90895615D01*
X186318868Y-90876087D01*
X186324772Y-90866423D01*
X186326678Y-90864333D01*
X186422968Y-90768044D01*
X186440569Y-90739507D01*
X186448402Y-90730923D01*
X186468730Y-90718582D01*
X186486412Y-90702679D01*
X186500027Y-90699584D01*
X186508129Y-90694667D01*
X186520295Y-90694978D01*
X186540004Y-90690500D01*
X186707239Y-90690500D01*
X186774278Y-90710185D01*
X186813356Y-90750350D01*
X186849526Y-90810183D01*
X186968181Y-90928838D01*
X187001666Y-90990161D01*
X187004500Y-91016519D01*
X187004500Y-94165280D01*
X186984815Y-94232319D01*
X186932011Y-94278074D01*
X186862853Y-94288018D01*
X186856310Y-94286898D01*
X186768842Y-94269500D01*
X186611158Y-94269500D01*
X186611155Y-94269500D01*
X186456510Y-94300261D01*
X186456498Y-94300264D01*
X186310827Y-94360602D01*
X186310814Y-94360609D01*
X186179125Y-94448602D01*
X186112447Y-94469480D01*
X186110234Y-94469500D01*
X186013012Y-94469500D01*
X185945973Y-94449815D01*
X185900218Y-94397011D01*
X185890274Y-94327853D01*
X185919299Y-94264297D01*
X185974008Y-94227794D01*
X186098481Y-94186547D01*
X186098492Y-94186542D01*
X186242728Y-94097575D01*
X186242732Y-94097572D01*
X186362572Y-93977732D01*
X186362575Y-93977728D01*
X186451542Y-93833492D01*
X186451547Y-93833481D01*
X186504855Y-93672606D01*
X186514999Y-93573322D01*
X186515000Y-93573309D01*
X186515000Y-93550000D01*
X184565001Y-93550000D01*
X184565001Y-93573322D01*
X184575144Y-93672607D01*
X184628452Y-93833481D01*
X184628457Y-93833492D01*
X184717424Y-93977728D01*
X184717427Y-93977732D01*
X184837267Y-94097572D01*
X184837271Y-94097575D01*
X184981507Y-94186542D01*
X184981518Y-94186547D01*
X185105992Y-94227794D01*
X185163437Y-94267567D01*
X185190260Y-94332083D01*
X185177945Y-94400858D01*
X185130402Y-94452058D01*
X185066988Y-94469500D01*
X184800098Y-94469500D01*
X184733059Y-94449815D01*
X184712417Y-94433181D01*
X181627590Y-91348355D01*
X181627588Y-91348352D01*
X181508717Y-91229481D01*
X181508712Y-91229477D01*
X181402520Y-91168168D01*
X181402518Y-91168167D01*
X181371787Y-91150424D01*
X181371786Y-91150423D01*
X181371785Y-91150423D01*
X181219057Y-91109499D01*
X181060943Y-91109499D01*
X181053347Y-91109499D01*
X181053331Y-91109500D01*
X179130094Y-91109500D01*
X179063055Y-91089815D01*
X179017300Y-91037011D01*
X179006804Y-90972246D01*
X179010500Y-90937873D01*
X179010499Y-89942128D01*
X179004091Y-89882517D01*
X178991340Y-89848332D01*
X178986357Y-89778642D01*
X178991340Y-89761669D01*
X179004091Y-89727483D01*
X179010500Y-89667873D01*
X179010499Y-88672128D01*
X179004091Y-88612517D01*
X178991340Y-88578332D01*
X178986357Y-88508642D01*
X178991340Y-88491669D01*
X179004091Y-88457483D01*
X179010500Y-88397873D01*
X179010499Y-87402128D01*
X179004091Y-87342517D01*
X178991340Y-87308332D01*
X178986357Y-87238642D01*
X178991340Y-87221669D01*
X179004091Y-87187483D01*
X179010500Y-87127873D01*
X179010499Y-86132128D01*
X179004091Y-86072517D01*
X178991340Y-86038332D01*
X178986357Y-85968642D01*
X178991340Y-85951669D01*
X179004091Y-85917483D01*
X179010500Y-85857873D01*
X179010499Y-84862128D01*
X179004091Y-84802517D01*
X178991340Y-84768332D01*
X178986357Y-84698642D01*
X178991340Y-84681669D01*
X179004091Y-84647483D01*
X179010500Y-84587873D01*
X179010499Y-84201938D01*
X179030183Y-84134901D01*
X179082987Y-84089146D01*
X179152146Y-84079202D01*
X179215701Y-84108227D01*
G37*
%TD.AperFunction*%
%TA.AperFunction,Conductor*%
G36*
X204300471Y-82410185D02*
G01*
X204346226Y-82462989D01*
X204357432Y-82514500D01*
X204357432Y-82659736D01*
X204337747Y-82726775D01*
X204329290Y-82738394D01*
X204328216Y-82739702D01*
X204240609Y-82870814D01*
X204240602Y-82870827D01*
X204180264Y-83016498D01*
X204180261Y-83016510D01*
X204149500Y-83171153D01*
X204149500Y-83328846D01*
X204180261Y-83483489D01*
X204180264Y-83483501D01*
X204240602Y-83629172D01*
X204240609Y-83629185D01*
X204328210Y-83760288D01*
X204328213Y-83760292D01*
X204439707Y-83871786D01*
X204439711Y-83871789D01*
X204493476Y-83907714D01*
X204538281Y-83961326D01*
X204546988Y-84030651D01*
X204516834Y-84093679D01*
X204512266Y-84098497D01*
X204175339Y-84435425D01*
X204114016Y-84468910D01*
X204111850Y-84469361D01*
X203956508Y-84500261D01*
X203956498Y-84500264D01*
X203810827Y-84560602D01*
X203810814Y-84560609D01*
X203679711Y-84648210D01*
X203679707Y-84648213D01*
X203568213Y-84759707D01*
X203568210Y-84759711D01*
X203480609Y-84890814D01*
X203480602Y-84890827D01*
X203420264Y-85036498D01*
X203420261Y-85036510D01*
X203389500Y-85191153D01*
X203389500Y-85348846D01*
X203420261Y-85503489D01*
X203420264Y-85503501D01*
X203480602Y-85649172D01*
X203480609Y-85649185D01*
X203568210Y-85780288D01*
X203568213Y-85780292D01*
X203679707Y-85891786D01*
X203679711Y-85891789D01*
X203810814Y-85979390D01*
X203810827Y-85979397D01*
X203953116Y-86038334D01*
X203956503Y-86039737D01*
X204061021Y-86060527D01*
X204111153Y-86070499D01*
X204111156Y-86070500D01*
X204111158Y-86070500D01*
X204268844Y-86070500D01*
X204268845Y-86070499D01*
X204423497Y-86039737D01*
X204565519Y-85980910D01*
X204569172Y-85979397D01*
X204569172Y-85979396D01*
X204569179Y-85979394D01*
X204700289Y-85891789D01*
X204811789Y-85780289D01*
X204899394Y-85649179D01*
X204901413Y-85644306D01*
X204943452Y-85542812D01*
X204959737Y-85503497D01*
X204982413Y-85389500D01*
X204990638Y-85348150D01*
X205023023Y-85286239D01*
X205024522Y-85284712D01*
X205300319Y-85008914D01*
X205315095Y-85000846D01*
X205326805Y-84988748D01*
X205345126Y-84984448D01*
X205361642Y-84975430D01*
X205378435Y-84976630D01*
X205394827Y-84972784D01*
X205412563Y-84979071D01*
X205431334Y-84980414D01*
X205444811Y-84990503D01*
X205460681Y-84996129D01*
X205472204Y-85011009D01*
X205487267Y-85022286D01*
X205493440Y-85038434D01*
X205503459Y-85051372D01*
X205508411Y-85077593D01*
X205511523Y-85085733D01*
X205512000Y-85091156D01*
X205512000Y-85146040D01*
X205526537Y-85256463D01*
X205526773Y-85259137D01*
X205526189Y-85262049D01*
X205526189Y-85286186D01*
X205512000Y-85393952D01*
X205512000Y-85646047D01*
X205521629Y-85719179D01*
X205527069Y-85760500D01*
X205527135Y-85760997D01*
X205527136Y-85761002D01*
X205586382Y-85904036D01*
X205614362Y-85940500D01*
X205679754Y-86025722D01*
X205680634Y-86026868D01*
X205686380Y-86032614D01*
X205684298Y-86034695D01*
X205717175Y-86079689D01*
X205724500Y-86121676D01*
X205724500Y-90387550D01*
X205704815Y-90454589D01*
X205688181Y-90475231D01*
X203672826Y-92490585D01*
X203611503Y-92524070D01*
X203541811Y-92519086D01*
X203485878Y-92477214D01*
X203479032Y-92467060D01*
X203450472Y-92419815D01*
X203450471Y-92419814D01*
X203450468Y-92419810D01*
X203331819Y-92301161D01*
X203317115Y-92274233D01*
X203300523Y-92248415D01*
X203299631Y-92242214D01*
X203298334Y-92239838D01*
X203295500Y-92213480D01*
X203295500Y-91999059D01*
X203295501Y-91999046D01*
X203295501Y-91830945D01*
X203295501Y-91830943D01*
X203254577Y-91678215D01*
X203202615Y-91588215D01*
X203175520Y-91541284D01*
X203063716Y-91429480D01*
X203063713Y-91429478D01*
X202178251Y-90544016D01*
X202144767Y-90482694D01*
X202149751Y-90413002D01*
X202191623Y-90357069D01*
X202226929Y-90338630D01*
X202278481Y-90321547D01*
X202278492Y-90321542D01*
X202422728Y-90232575D01*
X202422732Y-90232572D01*
X202542572Y-90112732D01*
X202542575Y-90112728D01*
X202631542Y-89968492D01*
X202631547Y-89968481D01*
X202684855Y-89807606D01*
X202694999Y-89708322D01*
X202695000Y-89708309D01*
X202695000Y-89660000D01*
X201869000Y-89660000D01*
X201801961Y-89640315D01*
X201756206Y-89587511D01*
X201745000Y-89536000D01*
X201745000Y-89410000D01*
X201619000Y-89410000D01*
X201551961Y-89390315D01*
X201506206Y-89337511D01*
X201495000Y-89286000D01*
X201495000Y-89160000D01*
X201995000Y-89160000D01*
X202694999Y-89160000D01*
X202694999Y-89111692D01*
X202694998Y-89111677D01*
X202684855Y-89012392D01*
X202631547Y-88851518D01*
X202631542Y-88851507D01*
X202542575Y-88707271D01*
X202542572Y-88707267D01*
X202422732Y-88587427D01*
X202422728Y-88587424D01*
X202278492Y-88498457D01*
X202278481Y-88498452D01*
X202117606Y-88445144D01*
X202018322Y-88435000D01*
X201995000Y-88435000D01*
X201995000Y-89160000D01*
X201495000Y-89160000D01*
X201495000Y-88434999D01*
X201471693Y-88435000D01*
X201471674Y-88435001D01*
X201372392Y-88445144D01*
X201211518Y-88498452D01*
X201211507Y-88498457D01*
X201067271Y-88587424D01*
X201067265Y-88587428D01*
X201058031Y-88596663D01*
X200996707Y-88630146D01*
X200927015Y-88625159D01*
X200882672Y-88596660D01*
X200873044Y-88587032D01*
X200873040Y-88587029D01*
X200728705Y-88498001D01*
X200728699Y-88497998D01*
X200728697Y-88497997D01*
X200677690Y-88481095D01*
X200567709Y-88444651D01*
X200468352Y-88434500D01*
X200468345Y-88434500D01*
X200120097Y-88434500D01*
X200090656Y-88425855D01*
X200060670Y-88419332D01*
X200055654Y-88415577D01*
X200053058Y-88414815D01*
X200032416Y-88398181D01*
X199866819Y-88232584D01*
X199833334Y-88171261D01*
X199830500Y-88144903D01*
X199830500Y-87471728D01*
X199838318Y-87428394D01*
X199874091Y-87332483D01*
X199880500Y-87272873D01*
X199880499Y-86427128D01*
X199874091Y-86367517D01*
X199823796Y-86232669D01*
X199823795Y-86232668D01*
X199823793Y-86232664D01*
X199737547Y-86117455D01*
X199737544Y-86117452D01*
X199622335Y-86031206D01*
X199622328Y-86031202D01*
X199487486Y-85980910D01*
X199487485Y-85980909D01*
X199487483Y-85980909D01*
X199427873Y-85974500D01*
X199427863Y-85974500D01*
X199032130Y-85974500D01*
X199032119Y-85974501D01*
X198993253Y-85978679D01*
X198966748Y-85978679D01*
X198927874Y-85974500D01*
X198532129Y-85974500D01*
X198532123Y-85974501D01*
X198472516Y-85980908D01*
X198337671Y-86031202D01*
X198337664Y-86031206D01*
X198222455Y-86117452D01*
X198222452Y-86117455D01*
X198136206Y-86232664D01*
X198136202Y-86232671D01*
X198085908Y-86367517D01*
X198080905Y-86414057D01*
X198079501Y-86427123D01*
X198079500Y-86427135D01*
X198079500Y-87272870D01*
X198079501Y-87272876D01*
X198085908Y-87332483D01*
X198121682Y-87428395D01*
X198129500Y-87471728D01*
X198129500Y-88402146D01*
X198127214Y-88409929D01*
X198128490Y-88417942D01*
X198117512Y-88442971D01*
X198109815Y-88469185D01*
X198102964Y-88476139D01*
X198100426Y-88481928D01*
X198079270Y-88500194D01*
X198074104Y-88505440D01*
X198072382Y-88506583D01*
X197941956Y-88587032D01*
X197923567Y-88605420D01*
X197913250Y-88612273D01*
X197891229Y-88619100D01*
X197871000Y-88630146D01*
X197858492Y-88629250D01*
X197846514Y-88632965D01*
X197824299Y-88626804D01*
X197801308Y-88625159D01*
X197788359Y-88616837D01*
X197779186Y-88614293D01*
X197772157Y-88606423D01*
X197756965Y-88596660D01*
X197747732Y-88587427D01*
X197747728Y-88587424D01*
X197603492Y-88498457D01*
X197603481Y-88498452D01*
X197442606Y-88445144D01*
X197343322Y-88435000D01*
X197320000Y-88435000D01*
X197320000Y-89286000D01*
X197300315Y-89353039D01*
X197247511Y-89398794D01*
X197196000Y-89410000D01*
X197070000Y-89410000D01*
X197070000Y-89536000D01*
X197050315Y-89603039D01*
X196997511Y-89648794D01*
X196946000Y-89660000D01*
X196120001Y-89660000D01*
X196120001Y-89708322D01*
X196130144Y-89807607D01*
X196183452Y-89968481D01*
X196183457Y-89968492D01*
X196272424Y-90112728D01*
X196272427Y-90112732D01*
X196392267Y-90232572D01*
X196392271Y-90232575D01*
X196536507Y-90321542D01*
X196536520Y-90321548D01*
X196588068Y-90338629D01*
X196645513Y-90378401D01*
X196672337Y-90442916D01*
X196660022Y-90511692D01*
X196636747Y-90544016D01*
X196511091Y-90669673D01*
X196391286Y-90789478D01*
X196391284Y-90789480D01*
X196279480Y-90901284D01*
X196258356Y-90937873D01*
X196200423Y-91038215D01*
X196159499Y-91190943D01*
X196159499Y-91190945D01*
X196159499Y-91359046D01*
X196159500Y-91359059D01*
X196159500Y-92263480D01*
X196152046Y-92288863D01*
X196148266Y-92315054D01*
X196141493Y-92324801D01*
X196139815Y-92330519D01*
X196129168Y-92344735D01*
X196126287Y-92348055D01*
X196014528Y-92459815D01*
X195980480Y-92516136D01*
X195973521Y-92524159D01*
X195952691Y-92537528D01*
X195934440Y-92554243D01*
X195923804Y-92556071D01*
X195914722Y-92561901D01*
X195889971Y-92561887D01*
X195865580Y-92566080D01*
X195855644Y-92561868D01*
X195844852Y-92561862D01*
X195824040Y-92548470D01*
X195801252Y-92538810D01*
X195792172Y-92530585D01*
X193931260Y-90669673D01*
X193897775Y-90608350D01*
X193902759Y-90538658D01*
X193944631Y-90482725D01*
X193971484Y-90467433D01*
X194039179Y-90439394D01*
X194170289Y-90351789D01*
X194281789Y-90240289D01*
X194369394Y-90109179D01*
X194370143Y-90107372D01*
X194427668Y-89968492D01*
X194429737Y-89963497D01*
X194449113Y-89866085D01*
X194460638Y-89808150D01*
X194493023Y-89746239D01*
X194494519Y-89744715D01*
X195127557Y-89111677D01*
X196120000Y-89111677D01*
X196120000Y-89160000D01*
X196820000Y-89160000D01*
X196820000Y-88434999D01*
X196796693Y-88435000D01*
X196796674Y-88435001D01*
X196697392Y-88445144D01*
X196536518Y-88498452D01*
X196536507Y-88498457D01*
X196392271Y-88587424D01*
X196392267Y-88587427D01*
X196272427Y-88707267D01*
X196272424Y-88707271D01*
X196183457Y-88851507D01*
X196183452Y-88851518D01*
X196130144Y-89012393D01*
X196120000Y-89111677D01*
X195127557Y-89111677D01*
X197413506Y-86825727D01*
X197413511Y-86825724D01*
X197423714Y-86815520D01*
X197423716Y-86815520D01*
X197535520Y-86703716D01*
X197577386Y-86631202D01*
X197589338Y-86610501D01*
X197589339Y-86610499D01*
X197614574Y-86566790D01*
X197614575Y-86566789D01*
X197614575Y-86566787D01*
X197614577Y-86566785D01*
X197655501Y-86414057D01*
X197655501Y-86255943D01*
X197655501Y-86248348D01*
X197655500Y-86248330D01*
X197655500Y-84778315D01*
X197675185Y-84711276D01*
X197727989Y-84665521D01*
X197797147Y-84655577D01*
X197829159Y-84666233D01*
X197829359Y-84665697D01*
X197884841Y-84686390D01*
X197972517Y-84719091D01*
X198032127Y-84725500D01*
X198427872Y-84725499D01*
X198427873Y-84725498D01*
X198427885Y-84725498D01*
X198466744Y-84721320D01*
X198493252Y-84721320D01*
X198532127Y-84725500D01*
X198927872Y-84725499D01*
X198987483Y-84719091D01*
X199043460Y-84698213D01*
X199122329Y-84668797D01*
X199122329Y-84668796D01*
X199122331Y-84668796D01*
X199155689Y-84643823D01*
X199221151Y-84619406D01*
X199289425Y-84634257D01*
X199304305Y-84643820D01*
X199337669Y-84668796D01*
X199337670Y-84668796D01*
X199337670Y-84668797D01*
X199388814Y-84687872D01*
X199472517Y-84719091D01*
X199532127Y-84725500D01*
X199927872Y-84725499D01*
X199987483Y-84719091D01*
X200122331Y-84668796D01*
X200237546Y-84582546D01*
X200323796Y-84467331D01*
X200374091Y-84332483D01*
X200380500Y-84272873D01*
X200380499Y-83594240D01*
X200400183Y-83527202D01*
X200401397Y-83525350D01*
X200409560Y-83513133D01*
X200471159Y-83420944D01*
X200472980Y-83416549D01*
X200505407Y-83338261D01*
X200531502Y-83275262D01*
X200562265Y-83120607D01*
X200562265Y-82962923D01*
X200562265Y-82962920D01*
X200562264Y-82962918D01*
X200548183Y-82892127D01*
X200531502Y-82808268D01*
X200515728Y-82770185D01*
X200471162Y-82662592D01*
X200471160Y-82662588D01*
X200471159Y-82662586D01*
X200452163Y-82634156D01*
X200431285Y-82567479D01*
X200449769Y-82500099D01*
X200501748Y-82453408D01*
X200570718Y-82442232D01*
X200624156Y-82462163D01*
X200644407Y-82475694D01*
X200652586Y-82481159D01*
X200652588Y-82481160D01*
X200652592Y-82481162D01*
X200743257Y-82518716D01*
X200798268Y-82541502D01*
X200943899Y-82570470D01*
X200952918Y-82572264D01*
X200952921Y-82572265D01*
X200952923Y-82572265D01*
X201110609Y-82572265D01*
X201110610Y-82572264D01*
X201265262Y-82541502D01*
X201410944Y-82481159D01*
X201438137Y-82462989D01*
X201515349Y-82411398D01*
X201582026Y-82390520D01*
X201584240Y-82390500D01*
X204233432Y-82390500D01*
X204300471Y-82410185D01*
G37*
%TD.AperFunction*%
%TA.AperFunction,Conductor*%
G36*
X215481942Y-81895185D02*
G01*
X215502584Y-81911819D01*
X216105139Y-82514374D01*
X216105149Y-82514385D01*
X216109479Y-82518715D01*
X216109480Y-82518716D01*
X216221284Y-82630520D01*
X216306304Y-82679606D01*
X216358215Y-82709577D01*
X216510943Y-82750501D01*
X216510946Y-82750501D01*
X216676653Y-82750501D01*
X216676669Y-82750500D01*
X227995501Y-82750500D01*
X228062540Y-82770185D01*
X228108295Y-82822989D01*
X228119501Y-82874500D01*
X228119501Y-83047876D01*
X228125908Y-83107483D01*
X228176202Y-83242328D01*
X228176204Y-83242331D01*
X228197807Y-83271189D01*
X228222224Y-83336654D01*
X228207372Y-83404927D01*
X228157967Y-83454332D01*
X228098540Y-83469500D01*
X210264171Y-83469500D01*
X210106057Y-83469500D01*
X209953329Y-83510423D01*
X209953328Y-83510423D01*
X209953326Y-83510424D01*
X209953323Y-83510425D01*
X209914224Y-83533000D01*
X209914222Y-83533001D01*
X209816404Y-83589475D01*
X209816396Y-83589481D01*
X209704594Y-83701284D01*
X209704593Y-83701285D01*
X209657893Y-83747984D01*
X209643661Y-83755755D01*
X209596571Y-83781468D01*
X209594403Y-83781920D01*
X209559944Y-83788774D01*
X209490353Y-83782545D01*
X209435176Y-83739682D01*
X209421193Y-83714609D01*
X209416462Y-83703188D01*
X209388617Y-83635963D01*
X209388616Y-83635962D01*
X209388616Y-83635961D01*
X209338202Y-83570261D01*
X209294367Y-83513133D01*
X209184678Y-83428966D01*
X209171536Y-83418882D01*
X209171537Y-83418882D01*
X209028502Y-83359636D01*
X209028500Y-83359635D01*
X209028499Y-83359635D01*
X209002952Y-83356271D01*
X208913547Y-83344500D01*
X208913540Y-83344500D01*
X208724098Y-83344500D01*
X208702852Y-83338261D01*
X208680765Y-83336682D01*
X208669981Y-83328609D01*
X208657059Y-83324815D01*
X208642560Y-83308083D01*
X208624831Y-83294811D01*
X208620123Y-83282188D01*
X208611304Y-83272011D01*
X208608152Y-83250095D01*
X208600414Y-83229347D01*
X208603276Y-83216185D01*
X208601360Y-83202853D01*
X208610558Y-83182711D01*
X208615265Y-83161074D01*
X208628536Y-83143345D01*
X208630385Y-83139297D01*
X208636416Y-83132819D01*
X208707416Y-83061818D01*
X208768739Y-83028333D01*
X208795098Y-83025499D01*
X209143338Y-83025499D01*
X209143344Y-83025499D01*
X209143352Y-83025498D01*
X209143355Y-83025498D01*
X209231342Y-83016510D01*
X209242708Y-83015349D01*
X209403697Y-82962003D01*
X209548044Y-82872968D01*
X209557668Y-82863343D01*
X209618987Y-82829856D01*
X209688679Y-82834835D01*
X209733034Y-82863339D01*
X209742267Y-82872572D01*
X209742271Y-82872575D01*
X209886507Y-82961542D01*
X209886518Y-82961547D01*
X210047393Y-83014855D01*
X210146683Y-83024999D01*
X210670000Y-83024999D01*
X210693308Y-83024999D01*
X210693322Y-83024998D01*
X210792607Y-83014855D01*
X210953481Y-82961547D01*
X210953492Y-82961542D01*
X211097728Y-82872575D01*
X211097732Y-82872572D01*
X211217572Y-82752732D01*
X211217575Y-82752728D01*
X211306542Y-82608492D01*
X211306547Y-82608481D01*
X211359855Y-82447606D01*
X211369999Y-82348322D01*
X211370000Y-82348309D01*
X211370000Y-82300000D01*
X210670000Y-82300000D01*
X210670000Y-83024999D01*
X210146683Y-83024999D01*
X210170000Y-83024998D01*
X210170000Y-82174000D01*
X210189685Y-82106961D01*
X210242489Y-82061206D01*
X210294000Y-82050000D01*
X210420000Y-82050000D01*
X210420000Y-81999500D01*
X210439685Y-81932461D01*
X210492489Y-81886706D01*
X210544000Y-81875500D01*
X215414903Y-81875500D01*
X215481942Y-81895185D01*
G37*
%TD.AperFunction*%
%TA.AperFunction,Conductor*%
G36*
X196540472Y-79825185D02*
G01*
X196561114Y-79841819D01*
X196930576Y-80211281D01*
X196964061Y-80272604D01*
X196959077Y-80342296D01*
X196917205Y-80398229D01*
X196890347Y-80413523D01*
X196800827Y-80450602D01*
X196800814Y-80450609D01*
X196669711Y-80538210D01*
X196669707Y-80538213D01*
X196558213Y-80649707D01*
X196558210Y-80649711D01*
X196470609Y-80780814D01*
X196470602Y-80780827D01*
X196410264Y-80926498D01*
X196410261Y-80926510D01*
X196379500Y-81081153D01*
X196379500Y-81238846D01*
X196410261Y-81393489D01*
X196410264Y-81393501D01*
X196470602Y-81539172D01*
X196470609Y-81539185D01*
X196512575Y-81601991D01*
X196533453Y-81668669D01*
X196514968Y-81736049D01*
X196489948Y-81765221D01*
X196482262Y-81771776D01*
X196419815Y-81809528D01*
X196314210Y-81915132D01*
X196310475Y-81918319D01*
X196282880Y-81930663D01*
X196256358Y-81945146D01*
X196251313Y-81944785D01*
X196246696Y-81946851D01*
X196216814Y-81942318D01*
X196186666Y-81940162D01*
X196181742Y-81936997D01*
X196177617Y-81936372D01*
X196169086Y-81928864D01*
X196142319Y-81911661D01*
X196040188Y-81809530D01*
X195970652Y-81767494D01*
X195894606Y-81721522D01*
X195732196Y-81670914D01*
X195732194Y-81670913D01*
X195732192Y-81670913D01*
X195682778Y-81666423D01*
X195661616Y-81664500D01*
X195148384Y-81664500D01*
X195129145Y-81666248D01*
X195077807Y-81670913D01*
X194915393Y-81721522D01*
X194769811Y-81809530D01*
X194649530Y-81929811D01*
X194619402Y-81979650D01*
X194567874Y-82026838D01*
X194513285Y-82039500D01*
X191239000Y-82039500D01*
X191171961Y-82019815D01*
X191126206Y-81967011D01*
X191115000Y-81915500D01*
X191115000Y-81835000D01*
X190439000Y-81835000D01*
X190371961Y-81815315D01*
X190326206Y-81762511D01*
X190315000Y-81711000D01*
X190315000Y-81585000D01*
X190189000Y-81585000D01*
X190121961Y-81565315D01*
X190076206Y-81512511D01*
X190065000Y-81461000D01*
X190065000Y-81335000D01*
X190565000Y-81335000D01*
X191115000Y-81335000D01*
X191115000Y-80694365D01*
X191114999Y-80694350D01*
X191112100Y-80657510D01*
X191112099Y-80657504D01*
X191066283Y-80499806D01*
X191066282Y-80499803D01*
X190982685Y-80358447D01*
X190982678Y-80358438D01*
X190866561Y-80242321D01*
X190866552Y-80242314D01*
X190725196Y-80158717D01*
X190725193Y-80158716D01*
X190567494Y-80112900D01*
X190567497Y-80112900D01*
X190565000Y-80112703D01*
X190565000Y-81335000D01*
X190065000Y-81335000D01*
X190065000Y-80102797D01*
X190042383Y-80065004D01*
X190044614Y-79995170D01*
X190084245Y-79937628D01*
X190100437Y-79926485D01*
X190101904Y-79925639D01*
X190188716Y-79875520D01*
X190222416Y-79841820D01*
X190283738Y-79808334D01*
X190310098Y-79805500D01*
X196473433Y-79805500D01*
X196540472Y-79825185D01*
G37*
%TD.AperFunction*%
%TA.AperFunction,Conductor*%
G36*
X216952617Y-71309445D02*
G01*
X216983511Y-71316746D01*
X216985895Y-71319217D01*
X216989191Y-71320185D01*
X217009980Y-71344177D01*
X217032027Y-71367025D01*
X217033571Y-71371402D01*
X217034946Y-71372989D01*
X217043769Y-71400308D01*
X217070261Y-71533491D01*
X217070264Y-71533501D01*
X217130602Y-71679172D01*
X217130609Y-71679185D01*
X217218210Y-71810288D01*
X217218213Y-71810292D01*
X217329707Y-71921786D01*
X217329711Y-71921789D01*
X217460814Y-72009390D01*
X217460827Y-72009397D01*
X217606498Y-72069735D01*
X217606503Y-72069737D01*
X217759574Y-72100185D01*
X217761153Y-72100499D01*
X217761156Y-72100500D01*
X217761158Y-72100500D01*
X217918844Y-72100500D01*
X217918845Y-72100499D01*
X218073497Y-72069737D01*
X218219179Y-72009394D01*
X218291012Y-71961396D01*
X218357688Y-71940519D01*
X218425068Y-71959003D01*
X218447583Y-71976818D01*
X227808584Y-81337819D01*
X227842069Y-81399142D01*
X227837085Y-81468834D01*
X227795213Y-81524767D01*
X227729749Y-81549184D01*
X227720903Y-81549500D01*
X216890097Y-81549500D01*
X216823058Y-81529815D01*
X216802416Y-81513181D01*
X216202590Y-80913355D01*
X216202588Y-80913352D01*
X216083717Y-80794481D01*
X216083716Y-80794480D01*
X215996904Y-80744360D01*
X215996904Y-80744359D01*
X215996900Y-80744358D01*
X215946785Y-80715423D01*
X215794057Y-80674499D01*
X215635943Y-80674499D01*
X215628347Y-80674499D01*
X215628331Y-80674500D01*
X209724062Y-80674500D01*
X209724058Y-80674499D01*
X209565943Y-80674499D01*
X209552073Y-80678215D01*
X209537047Y-80678524D01*
X209517250Y-80673150D01*
X209496744Y-80672662D01*
X209484216Y-80664182D01*
X209469617Y-80660220D01*
X209455868Y-80644996D01*
X209438882Y-80633500D01*
X209432927Y-80619594D01*
X209422787Y-80608367D01*
X209419451Y-80588127D01*
X209411377Y-80569272D01*
X209410500Y-80554550D01*
X209410500Y-80190004D01*
X209430185Y-80122965D01*
X209469403Y-80084465D01*
X209488044Y-80072968D01*
X209497668Y-80063343D01*
X209558987Y-80029856D01*
X209628679Y-80034835D01*
X209673034Y-80063339D01*
X209682267Y-80072572D01*
X209682271Y-80072575D01*
X209826507Y-80161542D01*
X209826518Y-80161547D01*
X209987393Y-80214855D01*
X210086683Y-80224999D01*
X210610000Y-80224999D01*
X210633308Y-80224999D01*
X210633322Y-80224998D01*
X210732607Y-80214855D01*
X210893481Y-80161547D01*
X210893492Y-80161542D01*
X211037728Y-80072575D01*
X211037732Y-80072572D01*
X211157572Y-79952732D01*
X211157575Y-79952728D01*
X211246542Y-79808492D01*
X211246547Y-79808481D01*
X211299855Y-79647606D01*
X211309999Y-79548322D01*
X211310000Y-79548309D01*
X211310000Y-79500000D01*
X210610000Y-79500000D01*
X210610000Y-80224999D01*
X210086683Y-80224999D01*
X210110000Y-80224998D01*
X210110000Y-79000000D01*
X210610000Y-79000000D01*
X211309999Y-79000000D01*
X211309999Y-78951692D01*
X211309998Y-78951677D01*
X211299855Y-78852392D01*
X211246547Y-78691518D01*
X211246542Y-78691507D01*
X211157575Y-78547271D01*
X211157572Y-78547267D01*
X211037732Y-78427427D01*
X211037728Y-78427424D01*
X210893492Y-78338457D01*
X210893481Y-78338452D01*
X210732606Y-78285144D01*
X210633322Y-78275000D01*
X210610000Y-78275000D01*
X210610000Y-79000000D01*
X210110000Y-79000000D01*
X210110000Y-78274999D01*
X210086693Y-78275000D01*
X210086674Y-78275001D01*
X209987392Y-78285144D01*
X209826518Y-78338452D01*
X209826507Y-78338457D01*
X209682271Y-78427424D01*
X209682265Y-78427428D01*
X209673031Y-78436663D01*
X209611707Y-78470146D01*
X209542015Y-78465159D01*
X209497672Y-78436660D01*
X209488044Y-78427032D01*
X209488040Y-78427029D01*
X209343705Y-78338001D01*
X209343699Y-78337998D01*
X209343697Y-78337997D01*
X209343694Y-78337996D01*
X209182709Y-78284651D01*
X209083346Y-78274500D01*
X208536662Y-78274500D01*
X208536644Y-78274501D01*
X208437292Y-78284650D01*
X208437289Y-78284651D01*
X208276305Y-78337996D01*
X208276294Y-78338001D01*
X208131959Y-78427029D01*
X208131955Y-78427032D01*
X208012032Y-78546955D01*
X208012029Y-78546959D01*
X207923001Y-78691294D01*
X207922996Y-78691305D01*
X207869651Y-78852290D01*
X207859500Y-78951647D01*
X207859500Y-79548337D01*
X207859502Y-79548360D01*
X207860277Y-79555947D01*
X207847506Y-79624640D01*
X207799624Y-79675523D01*
X207731834Y-79692442D01*
X207712728Y-79690163D01*
X207608846Y-79669500D01*
X207608842Y-79669500D01*
X207451158Y-79669500D01*
X207451155Y-79669500D01*
X207296510Y-79700261D01*
X207296498Y-79700264D01*
X207150827Y-79760602D01*
X207150814Y-79760609D01*
X207019714Y-79848208D01*
X207019708Y-79848213D01*
X206981502Y-79886418D01*
X206955690Y-79906199D01*
X206948472Y-79910353D01*
X206948215Y-79910423D01*
X206900317Y-79938076D01*
X206900097Y-79938204D01*
X206811287Y-79989477D01*
X206811282Y-79989481D01*
X206741284Y-80059480D01*
X206699480Y-80101284D01*
X206699478Y-80101286D01*
X206475711Y-80325054D01*
X206287584Y-80513181D01*
X206226261Y-80546666D01*
X206199903Y-80549500D01*
X204029097Y-80549500D01*
X203962058Y-80529815D01*
X203916303Y-80477011D01*
X203906359Y-80407853D01*
X203935384Y-80344297D01*
X203941416Y-80337819D01*
X212942416Y-71336819D01*
X213003739Y-71303334D01*
X213030097Y-71300500D01*
X216922152Y-71300500D01*
X216952617Y-71309445D01*
G37*
%TD.AperFunction*%
%TA.AperFunction,Conductor*%
G36*
X239724293Y-63487832D02*
G01*
X239756618Y-63511109D01*
X240013181Y-63767672D01*
X240046666Y-63828995D01*
X240049500Y-63855353D01*
X240049500Y-81378403D01*
X240029815Y-81445442D01*
X239977011Y-81491197D01*
X239907853Y-81501141D01*
X239893408Y-81498178D01*
X239749057Y-81459499D01*
X239590943Y-81459499D01*
X239583347Y-81459499D01*
X239583331Y-81459500D01*
X230944499Y-81459500D01*
X230877460Y-81439815D01*
X230831705Y-81387011D01*
X230820499Y-81335500D01*
X230820499Y-81252129D01*
X230820498Y-81252123D01*
X230819070Y-81238842D01*
X230815299Y-81203757D01*
X230814091Y-81192516D01*
X230763797Y-81057671D01*
X230763793Y-81057664D01*
X230677547Y-80942455D01*
X230677544Y-80942452D01*
X230562335Y-80856206D01*
X230562328Y-80856202D01*
X230427482Y-80805908D01*
X230427483Y-80805908D01*
X230367883Y-80799501D01*
X230367881Y-80799500D01*
X230367873Y-80799500D01*
X230367865Y-80799500D01*
X229020097Y-80799500D01*
X228953058Y-80779815D01*
X228932416Y-80763181D01*
X224091417Y-75922182D01*
X224080805Y-75902749D01*
X224066305Y-75886015D01*
X224064387Y-75872681D01*
X224057932Y-75860859D01*
X224059511Y-75838772D01*
X224056360Y-75816856D01*
X224061955Y-75804603D01*
X224062916Y-75791167D01*
X224076185Y-75773442D01*
X224085383Y-75753300D01*
X224096716Y-75746016D01*
X224104788Y-75735234D01*
X224125533Y-75727496D01*
X224144161Y-75715525D01*
X224166080Y-75712372D01*
X224170252Y-75710817D01*
X224179095Y-75710501D01*
X224220529Y-75710501D01*
X224220532Y-75710500D01*
X224228138Y-75710500D01*
X228164219Y-75710500D01*
X228231258Y-75730185D01*
X228277013Y-75782989D01*
X228286957Y-75852147D01*
X228274704Y-75890795D01*
X228228444Y-75981585D01*
X228162753Y-76183760D01*
X228136748Y-76347951D01*
X228129500Y-76393713D01*
X228129500Y-76606287D01*
X228131527Y-76619086D01*
X228160106Y-76799528D01*
X228162754Y-76816243D01*
X228220973Y-76995423D01*
X228228444Y-77018414D01*
X228324951Y-77207820D01*
X228449890Y-77379786D01*
X228600213Y-77530109D01*
X228772179Y-77655048D01*
X228772181Y-77655049D01*
X228772184Y-77655051D01*
X228961588Y-77751557D01*
X229163757Y-77817246D01*
X229373713Y-77850500D01*
X229373714Y-77850500D01*
X229586286Y-77850500D01*
X229586287Y-77850500D01*
X229796243Y-77817246D01*
X229998412Y-77751557D01*
X230187816Y-77655051D01*
X230209789Y-77639086D01*
X230359786Y-77530109D01*
X230359788Y-77530106D01*
X230359792Y-77530104D01*
X230510104Y-77379792D01*
X230510106Y-77379788D01*
X230510109Y-77379786D01*
X230568661Y-77299193D01*
X230635051Y-77207816D01*
X230639959Y-77198184D01*
X230655235Y-77168205D01*
X230703209Y-77117409D01*
X230765719Y-77100500D01*
X235521353Y-77100500D01*
X235588392Y-77120185D01*
X235631836Y-77168203D01*
X235656672Y-77216945D01*
X235674951Y-77252820D01*
X235799890Y-77424786D01*
X235950213Y-77575109D01*
X236122179Y-77700048D01*
X236122181Y-77700049D01*
X236122184Y-77700051D01*
X236311588Y-77796557D01*
X236513757Y-77862246D01*
X236723713Y-77895500D01*
X236723714Y-77895500D01*
X236936286Y-77895500D01*
X236936287Y-77895500D01*
X237146243Y-77862246D01*
X237348412Y-77796557D01*
X237537816Y-77700051D01*
X237589336Y-77662620D01*
X237709786Y-77575109D01*
X237709788Y-77575106D01*
X237709792Y-77575104D01*
X237860104Y-77424792D01*
X237860106Y-77424788D01*
X237860109Y-77424786D01*
X237985048Y-77252820D01*
X237985047Y-77252820D01*
X237985051Y-77252816D01*
X238081557Y-77063412D01*
X238147246Y-76861243D01*
X238180500Y-76651287D01*
X238180500Y-76438713D01*
X238147246Y-76228757D01*
X238081557Y-76026588D01*
X237985051Y-75837184D01*
X237985049Y-75837181D01*
X237985048Y-75837179D01*
X237860109Y-75665213D01*
X237746181Y-75551285D01*
X237712696Y-75489962D01*
X237717680Y-75420270D01*
X237759552Y-75364337D01*
X237790529Y-75347422D01*
X237922086Y-75298354D01*
X237922093Y-75298350D01*
X238037187Y-75212190D01*
X238037190Y-75212187D01*
X238123350Y-75097093D01*
X238123354Y-75097086D01*
X238173596Y-74962379D01*
X238173598Y-74962372D01*
X238179999Y-74902844D01*
X238180000Y-74902827D01*
X238180000Y-74255000D01*
X237263012Y-74255000D01*
X237295925Y-74197993D01*
X237330000Y-74070826D01*
X237330000Y-73939174D01*
X237295925Y-73812007D01*
X237263012Y-73755000D01*
X238180000Y-73755000D01*
X238180000Y-73107172D01*
X238179999Y-73107155D01*
X238173598Y-73047627D01*
X238173596Y-73047620D01*
X238123354Y-72912913D01*
X238123350Y-72912906D01*
X238037190Y-72797812D01*
X238037187Y-72797809D01*
X237922093Y-72711649D01*
X237922086Y-72711645D01*
X237787379Y-72661403D01*
X237787372Y-72661401D01*
X237727844Y-72655000D01*
X237080000Y-72655000D01*
X237080000Y-73571988D01*
X237022993Y-73539075D01*
X236895826Y-73505000D01*
X236764174Y-73505000D01*
X236637007Y-73539075D01*
X236580000Y-73571988D01*
X236580000Y-72655000D01*
X235932155Y-72655000D01*
X235872627Y-72661401D01*
X235872620Y-72661403D01*
X235737913Y-72711645D01*
X235737906Y-72711649D01*
X235622812Y-72797809D01*
X235622809Y-72797812D01*
X235536649Y-72912906D01*
X235536645Y-72912913D01*
X235486403Y-73047620D01*
X235486401Y-73047627D01*
X235480000Y-73107155D01*
X235480000Y-73755000D01*
X236396988Y-73755000D01*
X236364075Y-73812007D01*
X236330000Y-73939174D01*
X236330000Y-74070826D01*
X236364075Y-74197993D01*
X236396988Y-74255000D01*
X235480000Y-74255000D01*
X235480000Y-74902844D01*
X235486401Y-74962372D01*
X235486403Y-74962379D01*
X235536645Y-75097086D01*
X235536649Y-75097093D01*
X235622809Y-75212187D01*
X235622812Y-75212190D01*
X235737906Y-75298350D01*
X235737913Y-75298354D01*
X235869470Y-75347422D01*
X235925404Y-75389293D01*
X235949821Y-75454758D01*
X235934969Y-75523031D01*
X235913819Y-75551285D01*
X235799889Y-75665215D01*
X235674952Y-75837177D01*
X235673045Y-75840291D01*
X235621233Y-75887166D01*
X235567318Y-75899500D01*
X230926320Y-75899500D01*
X230859281Y-75879815D01*
X230813526Y-75827011D01*
X230803582Y-75757853D01*
X230832607Y-75694297D01*
X230864321Y-75668113D01*
X230998709Y-75590524D01*
X230998708Y-75590524D01*
X230998716Y-75590520D01*
X231110520Y-75478716D01*
X231189577Y-75341784D01*
X231230500Y-75189057D01*
X231230500Y-72899059D01*
X231230501Y-72899046D01*
X231230501Y-72730945D01*
X231230501Y-72730943D01*
X231189577Y-72578215D01*
X231189575Y-72578212D01*
X231189575Y-72578210D01*
X231189574Y-72578209D01*
X231160126Y-72527204D01*
X231160124Y-72527202D01*
X231155237Y-72518738D01*
X231110520Y-72441284D01*
X230998716Y-72329480D01*
X230998715Y-72329479D01*
X230994385Y-72325149D01*
X230994374Y-72325139D01*
X229787589Y-71118354D01*
X229780520Y-71111285D01*
X229780520Y-71111284D01*
X229741416Y-71072180D01*
X229719924Y-71032820D01*
X229707932Y-71010858D01*
X229712916Y-70941166D01*
X229754788Y-70885233D01*
X229754788Y-70885232D01*
X229754789Y-70885232D01*
X229795836Y-70869922D01*
X229820252Y-70860816D01*
X229829098Y-70860500D01*
X232753331Y-70860500D01*
X232753347Y-70860501D01*
X232760943Y-70860501D01*
X232919054Y-70860501D01*
X232919057Y-70860501D01*
X233071785Y-70819577D01*
X233071787Y-70819575D01*
X233071789Y-70819575D01*
X233071790Y-70819574D01*
X233123513Y-70789712D01*
X233123514Y-70789711D01*
X233208716Y-70740520D01*
X233320520Y-70628716D01*
X233320520Y-70628714D01*
X233330724Y-70618511D01*
X233330727Y-70618506D01*
X233573410Y-70375824D01*
X233634729Y-70342342D01*
X233673684Y-70340150D01*
X233774991Y-70350500D01*
X234525008Y-70350499D01*
X234525016Y-70350498D01*
X234525019Y-70350498D01*
X234604860Y-70342342D01*
X234627797Y-70339999D01*
X234794334Y-70284814D01*
X234943656Y-70192712D01*
X235067712Y-70068656D01*
X235159814Y-69919334D01*
X235214999Y-69752797D01*
X235225500Y-69650009D01*
X235225499Y-68249992D01*
X235214999Y-68147203D01*
X235159814Y-67980666D01*
X235067712Y-67831344D01*
X234943656Y-67707288D01*
X234938549Y-67702181D01*
X234940435Y-67700294D01*
X234907212Y-67653375D01*
X234900500Y-67613132D01*
X234900500Y-65731229D01*
X234920185Y-65664190D01*
X234972989Y-65618435D01*
X235042147Y-65608491D01*
X235105703Y-65637516D01*
X235112186Y-65643553D01*
X235116582Y-65647950D01*
X235116584Y-65647951D01*
X235239498Y-65730080D01*
X235239511Y-65730087D01*
X235376082Y-65786656D01*
X235376087Y-65786658D01*
X235376091Y-65786658D01*
X235376092Y-65786659D01*
X235521079Y-65815500D01*
X235521082Y-65815500D01*
X235668917Y-65815500D01*
X236430622Y-65815500D01*
X236497661Y-65835185D01*
X236536159Y-65874401D01*
X236557288Y-65908656D01*
X236681344Y-66032712D01*
X236830666Y-66124814D01*
X236997203Y-66179999D01*
X237099991Y-66190500D01*
X238900008Y-66190499D01*
X239002797Y-66179999D01*
X239169334Y-66124814D01*
X239318656Y-66032712D01*
X239442712Y-65908656D01*
X239534814Y-65759334D01*
X239589999Y-65592797D01*
X239600500Y-65490009D01*
X239600499Y-64639992D01*
X239599633Y-64631518D01*
X239589999Y-64537203D01*
X239589998Y-64537200D01*
X239580407Y-64508256D01*
X239534814Y-64370666D01*
X239442712Y-64221344D01*
X239318656Y-64097288D01*
X239315819Y-64095538D01*
X239314283Y-64093830D01*
X239312989Y-64092807D01*
X239313163Y-64092585D01*
X239269096Y-64043594D01*
X239257872Y-63974632D01*
X239285713Y-63910549D01*
X239315817Y-63884462D01*
X239318656Y-63882712D01*
X239442712Y-63758656D01*
X239534814Y-63609334D01*
X239551233Y-63559782D01*
X239591002Y-63502343D01*
X239655517Y-63475518D01*
X239724293Y-63487832D01*
G37*
%TD.AperFunction*%
%TA.AperFunction,Conductor*%
G36*
X170878834Y-70682915D02*
G01*
X170934767Y-70724787D01*
X170959184Y-70790251D01*
X170959500Y-70799097D01*
X170959500Y-70858965D01*
X170959499Y-70858983D01*
X170959499Y-71024689D01*
X170959498Y-71024689D01*
X171000423Y-71177420D01*
X171000424Y-71177423D01*
X171002213Y-71180521D01*
X171002216Y-71180526D01*
X171079477Y-71314347D01*
X171079481Y-71314352D01*
X171198349Y-71433220D01*
X171198355Y-71433225D01*
X172059504Y-72294374D01*
X172059514Y-72294385D01*
X172063844Y-72298715D01*
X172063845Y-72298716D01*
X172175649Y-72410520D01*
X172175651Y-72410521D01*
X172175655Y-72410524D01*
X172312574Y-72489573D01*
X172312581Y-72489577D01*
X172424384Y-72519534D01*
X172465307Y-72530500D01*
X172465308Y-72530500D01*
X172475919Y-72530500D01*
X172488848Y-72533290D01*
X172508389Y-72543918D01*
X172524536Y-72548659D01*
X172467007Y-72564075D01*
X172352993Y-72629901D01*
X172259901Y-72722993D01*
X172194075Y-72837007D01*
X172177037Y-72900591D01*
X171544728Y-72268282D01*
X171544727Y-72268282D01*
X171505380Y-72322439D01*
X171408904Y-72511782D01*
X171343242Y-72713869D01*
X171343242Y-72713872D01*
X171310000Y-72923753D01*
X171310000Y-73136246D01*
X171343242Y-73346127D01*
X171343242Y-73346130D01*
X171408904Y-73548217D01*
X171505375Y-73737550D01*
X171544728Y-73791716D01*
X172177037Y-73159408D01*
X172194075Y-73222993D01*
X172259901Y-73337007D01*
X172352993Y-73430099D01*
X172467007Y-73495925D01*
X172530590Y-73512962D01*
X171898282Y-74145269D01*
X171898282Y-74145270D01*
X171952449Y-74184624D01*
X172141782Y-74281095D01*
X172343870Y-74346757D01*
X172553754Y-74380000D01*
X172766246Y-74380000D01*
X172976127Y-74346757D01*
X172976130Y-74346757D01*
X173178217Y-74281095D01*
X173367554Y-74184622D01*
X173421716Y-74145270D01*
X173421717Y-74145270D01*
X172789408Y-73512962D01*
X172852993Y-73495925D01*
X172967007Y-73430099D01*
X173060099Y-73337007D01*
X173125925Y-73222993D01*
X173142962Y-73159408D01*
X173775270Y-73791717D01*
X173775270Y-73791716D01*
X173814622Y-73737554D01*
X173911095Y-73548217D01*
X173976757Y-73346130D01*
X173976757Y-73346127D01*
X174010000Y-73136246D01*
X174010000Y-72923753D01*
X173976758Y-72713879D01*
X173969916Y-72692819D01*
X173967921Y-72622978D01*
X174004001Y-72563145D01*
X174066702Y-72532316D01*
X174087847Y-72530500D01*
X175565500Y-72530500D01*
X175632539Y-72550185D01*
X175678294Y-72602989D01*
X175689500Y-72654500D01*
X175689500Y-73230001D01*
X175689501Y-73230019D01*
X175700000Y-73332796D01*
X175700001Y-73332799D01*
X175737756Y-73446734D01*
X175755186Y-73499334D01*
X175847287Y-73648655D01*
X175847289Y-73648657D01*
X175947718Y-73749086D01*
X175981203Y-73810409D01*
X175976219Y-73880101D01*
X175967424Y-73898767D01*
X175950424Y-73928211D01*
X175950423Y-73928215D01*
X175909499Y-74080943D01*
X175909499Y-74080945D01*
X175909499Y-74249046D01*
X175909500Y-74249059D01*
X175909500Y-75446275D01*
X175889815Y-75513314D01*
X175837011Y-75559069D01*
X175767853Y-75569013D01*
X175761309Y-75567892D01*
X175668846Y-75549500D01*
X175668842Y-75549500D01*
X175511158Y-75549500D01*
X175511155Y-75549500D01*
X175356510Y-75580261D01*
X175356498Y-75580264D01*
X175210827Y-75640602D01*
X175210814Y-75640609D01*
X175079125Y-75728602D01*
X175012447Y-75749480D01*
X175010234Y-75749500D01*
X172736670Y-75749500D01*
X172736654Y-75749499D01*
X172729058Y-75749499D01*
X172570943Y-75749499D01*
X172494579Y-75769961D01*
X172418214Y-75790423D01*
X172418209Y-75790426D01*
X172281290Y-75869475D01*
X172281282Y-75869481D01*
X170949482Y-77201281D01*
X170949480Y-77201284D01*
X170937979Y-77221204D01*
X170919882Y-77238457D01*
X170904902Y-77258469D01*
X170890841Y-77266146D01*
X170887410Y-77269418D01*
X170873925Y-77275383D01*
X170838332Y-77288658D01*
X170768640Y-77293642D01*
X170751669Y-77288659D01*
X170728897Y-77280166D01*
X170717483Y-77275909D01*
X170717482Y-77275908D01*
X170657883Y-77269501D01*
X170657881Y-77269500D01*
X170657873Y-77269500D01*
X170657864Y-77269500D01*
X169662129Y-77269500D01*
X169662123Y-77269501D01*
X169602518Y-77275908D01*
X169568331Y-77288659D01*
X169498639Y-77293642D01*
X169481669Y-77288659D01*
X169458897Y-77280166D01*
X169447483Y-77275909D01*
X169447482Y-77275908D01*
X169387883Y-77269501D01*
X169387881Y-77269500D01*
X169387873Y-77269500D01*
X169387864Y-77269500D01*
X168392129Y-77269500D01*
X168392123Y-77269501D01*
X168332518Y-77275908D01*
X168298331Y-77288659D01*
X168228639Y-77293642D01*
X168211669Y-77288659D01*
X168188897Y-77280166D01*
X168177483Y-77275909D01*
X168177482Y-77275908D01*
X168117883Y-77269501D01*
X168117881Y-77269500D01*
X168117873Y-77269500D01*
X168117864Y-77269500D01*
X167122129Y-77269500D01*
X167122123Y-77269501D01*
X167062518Y-77275908D01*
X167028331Y-77288659D01*
X166958639Y-77293642D01*
X166941669Y-77288659D01*
X166918897Y-77280166D01*
X166907483Y-77275909D01*
X166907482Y-77275908D01*
X166847883Y-77269501D01*
X166847881Y-77269500D01*
X166847873Y-77269500D01*
X166847864Y-77269500D01*
X165852129Y-77269500D01*
X165852123Y-77269501D01*
X165817753Y-77273196D01*
X165748994Y-77260789D01*
X165697857Y-77213178D01*
X165680500Y-77149906D01*
X165680500Y-75830097D01*
X165700185Y-75763058D01*
X165716819Y-75742416D01*
X170747819Y-70711416D01*
X170809142Y-70677931D01*
X170878834Y-70682915D01*
G37*
%TD.AperFunction*%
%TA.AperFunction,Conductor*%
G36*
X232872539Y-63010185D02*
G01*
X232918294Y-63062989D01*
X232929500Y-63114499D01*
X232929500Y-63289403D01*
X232943988Y-63399463D01*
X232943991Y-63399472D01*
X233000719Y-63536426D01*
X233000721Y-63536429D01*
X233060637Y-63614514D01*
X233085831Y-63679683D01*
X233071792Y-63748128D01*
X233060637Y-63765486D01*
X233000721Y-63843570D01*
X233000719Y-63843573D01*
X232943991Y-63980527D01*
X232943990Y-63980529D01*
X232929500Y-64090598D01*
X232929500Y-64289403D01*
X232943989Y-64399468D01*
X232946094Y-64407322D01*
X232942814Y-64408200D01*
X232948581Y-64462073D01*
X232945517Y-64472522D01*
X232946095Y-64472677D01*
X232943990Y-64480529D01*
X232929500Y-64590598D01*
X232929500Y-64789403D01*
X232943988Y-64899463D01*
X232943991Y-64899472D01*
X232988709Y-65007431D01*
X233000721Y-65036429D01*
X233090964Y-65154036D01*
X233193485Y-65232703D01*
X233211985Y-65258039D01*
X233231973Y-65282233D01*
X233232880Y-65286656D01*
X233234688Y-65289131D01*
X233241118Y-65316322D01*
X233241999Y-65323672D01*
X233241999Y-65441557D01*
X233267565Y-65536971D01*
X233268619Y-65545759D01*
X233268023Y-65549303D01*
X233269500Y-65560516D01*
X233269500Y-65613917D01*
X233269500Y-65613919D01*
X233269499Y-65613919D01*
X233298340Y-65758906D01*
X233298342Y-65758912D01*
X233333059Y-65842728D01*
X233354916Y-65895494D01*
X233378603Y-65930945D01*
X233399480Y-65997621D01*
X233399500Y-65999834D01*
X233399500Y-67613132D01*
X233379815Y-67680171D01*
X233360616Y-67701346D01*
X233361451Y-67702181D01*
X233232289Y-67831342D01*
X233140187Y-67980663D01*
X233140185Y-67980668D01*
X233121595Y-68036770D01*
X233085001Y-68147203D01*
X233085001Y-68147204D01*
X233085000Y-68147204D01*
X233074500Y-68249983D01*
X233074500Y-69124901D01*
X233054815Y-69191940D01*
X233038181Y-69212582D01*
X232934261Y-69316503D01*
X232715265Y-69535500D01*
X232627584Y-69623181D01*
X232600656Y-69637884D01*
X232574838Y-69654477D01*
X232568637Y-69655368D01*
X232566261Y-69656666D01*
X232539903Y-69659500D01*
X232399000Y-69659500D01*
X232331961Y-69639815D01*
X232286206Y-69587011D01*
X232275000Y-69535500D01*
X232275000Y-69200000D01*
X230125001Y-69200000D01*
X230125001Y-69535500D01*
X230105316Y-69602539D01*
X230052512Y-69648294D01*
X230001001Y-69659500D01*
X229345525Y-69659500D01*
X229278486Y-69639815D01*
X229232731Y-69587011D01*
X229222787Y-69517853D01*
X229239408Y-69471350D01*
X229298019Y-69374395D01*
X229348590Y-69212106D01*
X229355000Y-69141572D01*
X229355000Y-69060000D01*
X228579000Y-69060000D01*
X228511961Y-69040315D01*
X228466206Y-68987511D01*
X228455000Y-68936000D01*
X228455000Y-68810000D01*
X228329000Y-68810000D01*
X228261961Y-68790315D01*
X228216206Y-68737511D01*
X228205000Y-68686000D01*
X228205000Y-68560000D01*
X228705000Y-68560000D01*
X229354999Y-68560000D01*
X229354999Y-68478417D01*
X229348591Y-68407897D01*
X229348590Y-68407891D01*
X229309908Y-68283755D01*
X229299393Y-68250013D01*
X230125000Y-68250013D01*
X230125000Y-68700000D01*
X230950000Y-68700000D01*
X231450000Y-68700000D01*
X232274999Y-68700000D01*
X232274999Y-68250028D01*
X232274998Y-68250013D01*
X232264505Y-68147302D01*
X232209358Y-67980880D01*
X232209356Y-67980875D01*
X232117315Y-67831654D01*
X231993345Y-67707684D01*
X231844124Y-67615643D01*
X231844119Y-67615641D01*
X231677697Y-67560494D01*
X231677690Y-67560493D01*
X231574986Y-67550000D01*
X231450000Y-67550000D01*
X231450000Y-68700000D01*
X230950000Y-68700000D01*
X230950000Y-67550000D01*
X230825027Y-67550000D01*
X230825012Y-67550001D01*
X230722302Y-67560494D01*
X230555880Y-67615641D01*
X230555875Y-67615643D01*
X230406654Y-67707684D01*
X230282684Y-67831654D01*
X230190643Y-67980875D01*
X230190641Y-67980880D01*
X230135494Y-68147302D01*
X230135493Y-68147309D01*
X230125000Y-68250013D01*
X229299393Y-68250013D01*
X229298018Y-68245602D01*
X229210072Y-68100122D01*
X229089877Y-67979927D01*
X228944395Y-67891980D01*
X228944396Y-67891980D01*
X228782105Y-67841409D01*
X228782106Y-67841409D01*
X228711572Y-67835000D01*
X228705000Y-67835000D01*
X228705000Y-68560000D01*
X228205000Y-68560000D01*
X228205000Y-67967729D01*
X228224685Y-67900690D01*
X228241319Y-67880048D01*
X230372948Y-65748419D01*
X230372951Y-65748416D01*
X230455084Y-65625495D01*
X230511658Y-65488913D01*
X230521078Y-65441557D01*
X230540500Y-65343920D01*
X230540500Y-64760096D01*
X230560185Y-64693057D01*
X230576815Y-64672419D01*
X230901765Y-64347468D01*
X230963086Y-64313985D01*
X231005626Y-64312212D01*
X231030599Y-64315500D01*
X231804400Y-64315499D01*
X231804403Y-64315499D01*
X231914463Y-64301011D01*
X231914467Y-64301009D01*
X231914472Y-64301009D01*
X232051429Y-64244279D01*
X232169036Y-64154036D01*
X232259279Y-64036429D01*
X232316009Y-63899472D01*
X232330500Y-63789401D01*
X232330499Y-63590600D01*
X232316009Y-63480528D01*
X232316008Y-63480525D01*
X232313905Y-63472674D01*
X232317207Y-63471789D01*
X232311392Y-63418075D01*
X232314501Y-63407485D01*
X232313905Y-63407326D01*
X232316008Y-63399475D01*
X232316008Y-63399474D01*
X232316009Y-63399472D01*
X232330500Y-63289401D01*
X232330499Y-63114500D01*
X232350183Y-63047461D01*
X232402987Y-63001706D01*
X232454499Y-62990500D01*
X232805500Y-62990500D01*
X232872539Y-63010185D01*
G37*
%TD.AperFunction*%
%TA.AperFunction,Conductor*%
G36*
X226806711Y-62596292D02*
G01*
X226827252Y-62597220D01*
X226839557Y-62605937D01*
X226854024Y-62610185D01*
X226867486Y-62625721D01*
X226884266Y-62637608D01*
X226889905Y-62651594D01*
X226899779Y-62662989D01*
X226902705Y-62683339D01*
X226910394Y-62702409D01*
X226907576Y-62717221D01*
X226909723Y-62732147D01*
X226901181Y-62750851D01*
X226897340Y-62771048D01*
X226882191Y-62792433D01*
X226880698Y-62795703D01*
X226878628Y-62797462D01*
X226876939Y-62799848D01*
X226865825Y-62811561D01*
X226856956Y-62817032D01*
X226737032Y-62936956D01*
X226718789Y-62966531D01*
X226709950Y-62975848D01*
X226649527Y-63010932D01*
X226619996Y-63014500D01*
X225181557Y-63014500D01*
X225023443Y-63014500D01*
X224870715Y-63055423D01*
X224870714Y-63055423D01*
X224870712Y-63055424D01*
X224870709Y-63055425D01*
X224825891Y-63081302D01*
X224825890Y-63081303D01*
X224809789Y-63090599D01*
X224733785Y-63134479D01*
X224733782Y-63134481D01*
X224621978Y-63246286D01*
X220747709Y-67120554D01*
X220686386Y-67154039D01*
X220625435Y-67151950D01*
X220592572Y-67142403D01*
X220592573Y-67142403D01*
X220592569Y-67142402D01*
X220592566Y-67142401D01*
X220592563Y-67142401D01*
X220555701Y-67139500D01*
X220555694Y-67139500D01*
X220314500Y-67139500D01*
X220247461Y-67119815D01*
X220201706Y-67067011D01*
X220190500Y-67015500D01*
X220190500Y-65849313D01*
X220190499Y-65849298D01*
X220189982Y-65842732D01*
X220187598Y-65812431D01*
X220180110Y-65786659D01*
X220153836Y-65696224D01*
X220141744Y-65654602D01*
X220058081Y-65513135D01*
X220058079Y-65513133D01*
X220058076Y-65513129D01*
X219941870Y-65396923D01*
X219941862Y-65396917D01*
X219800396Y-65313255D01*
X219800393Y-65313254D01*
X219642573Y-65267402D01*
X219642567Y-65267401D01*
X219605701Y-65264500D01*
X219605694Y-65264500D01*
X219174306Y-65264500D01*
X219174298Y-65264500D01*
X219137432Y-65267401D01*
X219137426Y-65267402D01*
X218979606Y-65313254D01*
X218979603Y-65313255D01*
X218838137Y-65396917D01*
X218838129Y-65396923D01*
X218721923Y-65513129D01*
X218721917Y-65513137D01*
X218638255Y-65654603D01*
X218638254Y-65654606D01*
X218592402Y-65812426D01*
X218592401Y-65812432D01*
X218589500Y-65849298D01*
X218589500Y-67155701D01*
X218592401Y-67192567D01*
X218592402Y-67192573D01*
X218638254Y-67350393D01*
X218638255Y-67350396D01*
X218638256Y-67350398D01*
X218672732Y-67408694D01*
X218690000Y-67471814D01*
X218690000Y-68253500D01*
X218670315Y-68320539D01*
X218617511Y-68366294D01*
X218566000Y-68377500D01*
X218440000Y-68377500D01*
X218440000Y-68503500D01*
X218420315Y-68570539D01*
X218367511Y-68616294D01*
X218316000Y-68627500D01*
X217640000Y-68627500D01*
X217640000Y-68776965D01*
X217620315Y-68844004D01*
X217567511Y-68889759D01*
X217563453Y-68891526D01*
X217420823Y-68950604D01*
X217420814Y-68950609D01*
X217289125Y-69038602D01*
X217222447Y-69059480D01*
X217220234Y-69059500D01*
X216670097Y-69059500D01*
X216603058Y-69039815D01*
X216582416Y-69023181D01*
X215634319Y-68075084D01*
X215600834Y-68013761D01*
X215598000Y-67987403D01*
X215598000Y-67724350D01*
X217640000Y-67724350D01*
X217640000Y-68127500D01*
X218190000Y-68127500D01*
X218190000Y-67142703D01*
X218187503Y-67142900D01*
X218029806Y-67188716D01*
X218029803Y-67188717D01*
X217888447Y-67272314D01*
X217888438Y-67272321D01*
X217772321Y-67388438D01*
X217772314Y-67388447D01*
X217688717Y-67529803D01*
X217688716Y-67529806D01*
X217642900Y-67687504D01*
X217642899Y-67687510D01*
X217640000Y-67724350D01*
X215598000Y-67724350D01*
X215598000Y-67126722D01*
X215617685Y-67059683D01*
X215670489Y-67013928D01*
X215687405Y-67007646D01*
X215756644Y-66987529D01*
X215845398Y-66961744D01*
X215986865Y-66878081D01*
X216103081Y-66761865D01*
X216186744Y-66620398D01*
X216232598Y-66462569D01*
X216235500Y-66425694D01*
X216235500Y-65994306D01*
X216232598Y-65957431D01*
X216224071Y-65928082D01*
X216186745Y-65799606D01*
X216186744Y-65799603D01*
X216186744Y-65799602D01*
X216103081Y-65658135D01*
X216103079Y-65658133D01*
X216103076Y-65658129D01*
X215986870Y-65541923D01*
X215986862Y-65541917D01*
X215845396Y-65458255D01*
X215845393Y-65458254D01*
X215687573Y-65412402D01*
X215687567Y-65412401D01*
X215650701Y-65409500D01*
X215650694Y-65409500D01*
X214484500Y-65409500D01*
X214417461Y-65389815D01*
X214371706Y-65337011D01*
X214360500Y-65285500D01*
X214360500Y-65044313D01*
X214360499Y-65044298D01*
X214359879Y-65036425D01*
X214357598Y-65007431D01*
X214354117Y-64995450D01*
X214311745Y-64849606D01*
X214311744Y-64849603D01*
X214311744Y-64849602D01*
X214228081Y-64708135D01*
X214228079Y-64708133D01*
X214228076Y-64708129D01*
X214111870Y-64591923D01*
X214111862Y-64591917D01*
X214017441Y-64536077D01*
X213970398Y-64508256D01*
X213970397Y-64508255D01*
X213970396Y-64508255D01*
X213970393Y-64508254D01*
X213812573Y-64462402D01*
X213812567Y-64462401D01*
X213775701Y-64459500D01*
X213775694Y-64459500D01*
X212469306Y-64459500D01*
X212469298Y-64459500D01*
X212432432Y-64462401D01*
X212432426Y-64462402D01*
X212274606Y-64508254D01*
X212274603Y-64508255D01*
X212133137Y-64591917D01*
X212133129Y-64591923D01*
X212101874Y-64623180D01*
X212040552Y-64656666D01*
X212014192Y-64659500D01*
X210874097Y-64659500D01*
X210807058Y-64639815D01*
X210761303Y-64587011D01*
X210751359Y-64517853D01*
X210780384Y-64454297D01*
X210786416Y-64447819D01*
X212607416Y-62626819D01*
X212668739Y-62593334D01*
X212695097Y-62590500D01*
X226786985Y-62590500D01*
X226806711Y-62596292D01*
G37*
%TD.AperFunction*%
%TA.AperFunction,Conductor*%
G36*
X226623682Y-64216582D02*
G01*
X226627428Y-64215723D01*
X226656944Y-64226349D01*
X226687035Y-64235185D01*
X226690067Y-64238274D01*
X226693167Y-64239390D01*
X226718407Y-64264060D01*
X226722232Y-64269049D01*
X226737032Y-64293044D01*
X226752427Y-64308439D01*
X226757390Y-64314913D01*
X226767153Y-64340203D01*
X226780145Y-64363995D01*
X226779550Y-64372313D01*
X226782554Y-64380094D01*
X226777094Y-64406646D01*
X226775161Y-64433687D01*
X226770162Y-64440364D01*
X226768483Y-64448532D01*
X226746663Y-64478031D01*
X226737428Y-64487265D01*
X226737424Y-64487271D01*
X226648457Y-64631507D01*
X226648452Y-64631518D01*
X226595144Y-64792393D01*
X226585000Y-64891677D01*
X226585000Y-64915000D01*
X228534999Y-64915000D01*
X228534999Y-64891692D01*
X228534998Y-64891677D01*
X228524855Y-64792392D01*
X228471547Y-64631518D01*
X228471542Y-64631507D01*
X228424103Y-64554597D01*
X228405662Y-64487205D01*
X228426584Y-64420541D01*
X228480226Y-64375772D01*
X228529641Y-64365500D01*
X228922336Y-64365500D01*
X228989375Y-64385185D01*
X229035130Y-64437989D01*
X229045074Y-64507147D01*
X229043953Y-64513691D01*
X229039500Y-64536077D01*
X229039500Y-64907769D01*
X229019815Y-64974808D01*
X229003181Y-64995450D01*
X228619950Y-65378681D01*
X228558627Y-65412166D01*
X228532269Y-65415000D01*
X227810000Y-65415000D01*
X227810000Y-66137269D01*
X227790315Y-66204308D01*
X227773681Y-66224950D01*
X226222048Y-67776583D01*
X226214467Y-67787930D01*
X226183351Y-67834500D01*
X226139919Y-67899499D01*
X226139912Y-67899511D01*
X226083342Y-68036084D01*
X226083338Y-68036097D01*
X226083248Y-68036554D01*
X226083134Y-68036770D01*
X226081572Y-68041921D01*
X226080594Y-68041624D01*
X226053501Y-68093401D01*
X226054153Y-68093912D01*
X226051385Y-68097444D01*
X226050854Y-68098460D01*
X226049550Y-68099786D01*
X226049527Y-68099815D01*
X225961522Y-68245393D01*
X225910913Y-68407807D01*
X225904500Y-68478386D01*
X225904500Y-68599077D01*
X225884815Y-68666116D01*
X225832011Y-68711871D01*
X225762853Y-68721815D01*
X225699297Y-68692790D01*
X225677398Y-68667968D01*
X225631789Y-68599711D01*
X225631786Y-68599707D01*
X225520292Y-68488213D01*
X225520288Y-68488210D01*
X225389185Y-68400609D01*
X225389172Y-68400602D01*
X225243501Y-68340264D01*
X225243489Y-68340261D01*
X225088845Y-68309500D01*
X225088842Y-68309500D01*
X224931158Y-68309500D01*
X224931155Y-68309500D01*
X224776510Y-68340261D01*
X224776498Y-68340264D01*
X224630827Y-68400602D01*
X224630814Y-68400609D01*
X224499125Y-68488602D01*
X224432447Y-68509480D01*
X224430234Y-68509500D01*
X221372597Y-68509500D01*
X221343156Y-68500855D01*
X221313170Y-68494332D01*
X221308154Y-68490577D01*
X221305558Y-68489815D01*
X221284916Y-68473181D01*
X221276916Y-68465181D01*
X221243431Y-68403858D01*
X221248415Y-68334166D01*
X221276916Y-68289819D01*
X224128413Y-65438322D01*
X226585001Y-65438322D01*
X226595144Y-65537607D01*
X226648452Y-65698481D01*
X226648457Y-65698492D01*
X226737424Y-65842728D01*
X226737427Y-65842732D01*
X226857267Y-65962572D01*
X226857271Y-65962575D01*
X227001507Y-66051542D01*
X227001518Y-66051547D01*
X227162393Y-66104855D01*
X227261683Y-66114999D01*
X227309999Y-66114998D01*
X227310000Y-66114998D01*
X227310000Y-65415000D01*
X226585001Y-65415000D01*
X226585001Y-65438322D01*
X224128413Y-65438322D01*
X225314916Y-64251819D01*
X225376239Y-64218334D01*
X225402597Y-64215500D01*
X226619996Y-64215500D01*
X226623682Y-64216582D01*
G37*
%TD.AperFunction*%
%TD*%
M02*
