%TF.GenerationSoftware,KiCad,Pcbnew,10.0.3*%
%TF.CreationDate,2026-08-31T11:55:46+03:00*%
%TF.ProjectId,CV-collar,43562d63-6f6c-46c6-9172-2e6b69636164,rev?*%
%TF.SameCoordinates,Original*%
%TF.FileFunction,Paste,Top*%
%TF.FilePolarity,Positive*%
%FSLAX46Y46*%
G04 Gerber Fmt 4.6, Leading zero omitted, Abs format (unit mm)*
G04 Created by KiCad (PCBNEW 10.0.3) date 2026-08-31 11:55:46*
%MOMM*%
%LPD*%
G01*
G04 APERTURE LIST*
G04 Aperture macros list*
%AMRoundRect*
0 Rectangle with rounded corners*
0 $1 Rounding radius*
0 $2 $3 $4 $5 $6 $7 $8 $9 X,Y pos of 4 corners*
0 Add a 4 corners polygon primitive as box body*
4,1,4,$2,$3,$4,$5,$6,$7,$8,$9,$2,$3,0*
0 Add four circle primitives for the rounded corners*
1,1,$1+$1,$2,$3*
1,1,$1+$1,$4,$5*
1,1,$1+$1,$6,$7*
1,1,$1+$1,$8,$9*
0 Add four rect primitives between the rounded corners*
20,1,$1+$1,$2,$3,$4,$5,0*
20,1,$1+$1,$4,$5,$6,$7,0*
20,1,$1+$1,$6,$7,$8,$9,0*
20,1,$1+$1,$8,$9,$2,$3,0*%
G04 Aperture macros list end*
%ADD10RoundRect,0.087500X-0.225000X-0.087500X0.225000X-0.087500X0.225000X0.087500X-0.225000X0.087500X0*%
%ADD11RoundRect,0.087500X-0.087500X-0.225000X0.087500X-0.225000X0.087500X0.225000X-0.087500X0.225000X0*%
%ADD12RoundRect,0.250000X-1.300000X-0.250000X1.300000X-0.250000X1.300000X0.250000X-1.300000X0.250000X0*%
%ADD13RoundRect,0.150000X0.150000X-0.825000X0.150000X0.825000X-0.150000X0.825000X-0.150000X-0.825000X0*%
%ADD14RoundRect,0.200000X0.200000X0.275000X-0.200000X0.275000X-0.200000X-0.275000X0.200000X-0.275000X0*%
%ADD15RoundRect,0.250000X-0.325000X-0.650000X0.325000X-0.650000X0.325000X0.650000X-0.325000X0.650000X0*%
%ADD16RoundRect,0.225000X0.250000X-0.225000X0.250000X0.225000X-0.250000X0.225000X-0.250000X-0.225000X0*%
%ADD17RoundRect,0.200000X-0.200000X-0.275000X0.200000X-0.275000X0.200000X0.275000X-0.200000X0.275000X0*%
%ADD18RoundRect,0.225000X-0.225000X-0.250000X0.225000X-0.250000X0.225000X0.250000X-0.225000X0.250000X0*%
%ADD19RoundRect,0.250000X1.500000X0.550000X-1.500000X0.550000X-1.500000X-0.550000X1.500000X-0.550000X0*%
%ADD20RoundRect,0.150000X-0.587500X-0.150000X0.587500X-0.150000X0.587500X0.150000X-0.587500X0.150000X0*%
%ADD21RoundRect,0.200000X-0.275000X0.200000X-0.275000X-0.200000X0.275000X-0.200000X0.275000X0.200000X0*%
%ADD22R,0.300000X0.250013*%
%ADD23R,2.000000X2.400000*%
%ADD24R,0.900000X1.500000*%
%ADD25R,1.500000X0.900000*%
%ADD26R,1.050000X1.050000*%
%ADD27R,2.600000X3.600000*%
%ADD28RoundRect,0.200000X0.275000X-0.200000X0.275000X0.200000X-0.275000X0.200000X-0.275000X-0.200000X0*%
%ADD29RoundRect,0.225000X-0.250000X0.225000X-0.250000X-0.225000X0.250000X-0.225000X0.250000X0.225000X0*%
%ADD30R,0.300000X0.750000*%
%ADD31R,1.500000X1.500000*%
%ADD32RoundRect,0.250000X0.850000X-0.375000X0.850000X0.375000X-0.850000X0.375000X-0.850000X-0.375000X0*%
%ADD33RoundRect,0.130000X-0.130000X-0.305000X0.130000X-0.305000X0.130000X0.305000X-0.130000X0.305000X0*%
%ADD34RoundRect,0.062500X-0.350000X-0.062500X0.350000X-0.062500X0.350000X0.062500X-0.350000X0.062500X0*%
%ADD35RoundRect,0.150000X0.150000X-0.587500X0.150000X0.587500X-0.150000X0.587500X-0.150000X-0.587500X0*%
G04 APERTURE END LIST*
D10*
%TO.C,U7*%
X206325000Y-84020000D03*
X206325000Y-84520000D03*
X206325000Y-85020000D03*
X206325000Y-85520000D03*
D11*
X206987500Y-85682500D03*
X207487500Y-85682500D03*
X207987500Y-85682500D03*
D10*
X208650000Y-85520000D03*
X208650000Y-85020000D03*
X208650000Y-84520000D03*
X208650000Y-84020000D03*
D11*
X207987500Y-83857500D03*
X207487500Y-83857500D03*
X206987500Y-83857500D03*
%TD*%
D12*
%TO.C,SW1*%
X177740000Y-68930000D03*
X186640000Y-68930000D03*
X177740000Y-72930000D03*
X186640000Y-72930000D03*
%TD*%
D13*
%TO.C,U3*%
X186505000Y-86535000D03*
X187775000Y-86535000D03*
X189045000Y-86535000D03*
X190315000Y-86535000D03*
X190315000Y-81585000D03*
X189045000Y-81585000D03*
X187775000Y-81585000D03*
X186505000Y-81585000D03*
%TD*%
D14*
%TO.C,R6*%
X170490000Y-102010000D03*
X168840000Y-102010000D03*
%TD*%
D15*
%TO.C,C9*%
X231200000Y-68950000D03*
X234150000Y-68950000D03*
%TD*%
D16*
%TO.C,C8*%
X227560000Y-65165000D03*
X227560000Y-63615000D03*
%TD*%
D14*
%TO.C,R13*%
X197055000Y-82640000D03*
X195405000Y-82640000D03*
%TD*%
D16*
%TO.C,C1*%
X185600000Y-90090000D03*
X185600000Y-88540000D03*
%TD*%
D17*
%TO.C,R3*%
X187605000Y-90100000D03*
X189255000Y-90100000D03*
%TD*%
D18*
%TO.C,C11*%
X197070000Y-89410000D03*
X198620000Y-89410000D03*
%TD*%
D19*
%TO.C,C10*%
X166830000Y-106360000D03*
X161230000Y-106360000D03*
%TD*%
D17*
%TO.C,R5*%
X171675000Y-106380000D03*
X173325000Y-106380000D03*
%TD*%
D14*
%TO.C,R7*%
X188590000Y-75650000D03*
X186940000Y-75650000D03*
%TD*%
D20*
%TO.C,Q1*%
X213122500Y-65260000D03*
X213122500Y-67160000D03*
X214997500Y-66210000D03*
%TD*%
D21*
%TO.C,R4*%
X208980000Y-65405000D03*
X208980000Y-67055000D03*
%TD*%
D22*
%TO.C,U6*%
X260139618Y-85080000D03*
X260139618Y-85580127D03*
X260139618Y-86080000D03*
X260139618Y-86580127D03*
X260139618Y-87080000D03*
D23*
X261640000Y-86080000D03*
%TD*%
D24*
%TO.C,U1*%
X160000000Y-96020000D03*
X161270000Y-96020000D03*
X162540000Y-96020000D03*
X163810000Y-96020000D03*
X165080000Y-96020000D03*
X166350000Y-96020000D03*
X167620000Y-96020000D03*
X168890000Y-96020000D03*
X170160000Y-96020000D03*
X171430000Y-96020000D03*
X172700000Y-96020000D03*
X173970000Y-96020000D03*
X175240000Y-96020000D03*
X176510000Y-96020000D03*
D25*
X177760000Y-92980000D03*
X177760000Y-91710000D03*
X177760000Y-90440000D03*
X177760000Y-89170000D03*
X177760000Y-87900000D03*
X177760000Y-86630000D03*
X177760000Y-85360000D03*
X177760000Y-84090000D03*
X177760000Y-82820000D03*
X177760000Y-81550000D03*
D24*
X176510000Y-78520000D03*
X175240000Y-78520000D03*
X173970000Y-78520000D03*
X172700000Y-78520000D03*
X171430000Y-78520000D03*
X170160000Y-78520000D03*
X168890000Y-78520000D03*
X167620000Y-78520000D03*
X166350000Y-78520000D03*
X165080000Y-78520000D03*
X163810000Y-78520000D03*
X162540000Y-78520000D03*
X161270000Y-78520000D03*
X160000000Y-78520000D03*
D26*
X165815000Y-89475000D03*
X167340000Y-89475000D03*
X168865000Y-89475000D03*
X165815000Y-87950000D03*
X167340000Y-87950000D03*
X168865000Y-87950000D03*
X165815000Y-86425000D03*
X167340000Y-86425000D03*
X168865000Y-86425000D03*
%TD*%
D17*
%TO.C,R12*%
X201045000Y-93130000D03*
X202695000Y-93130000D03*
%TD*%
D27*
%TO.C,BT1*%
X210000000Y-102580000D03*
X239300000Y-102580000D03*
%TD*%
D28*
%TO.C,R9*%
X182750000Y-82190000D03*
X182750000Y-80540000D03*
%TD*%
D18*
%TO.C,C3*%
X208870000Y-82050000D03*
X210420000Y-82050000D03*
%TD*%
D17*
%TO.C,R10*%
X226805000Y-68810000D03*
X228455000Y-68810000D03*
%TD*%
D29*
%TO.C,C6*%
X255040000Y-88230000D03*
X255040000Y-89780000D03*
%TD*%
D30*
%TO.C,U5*%
X198230000Y-86850000D03*
X198730000Y-86850000D03*
X199230000Y-86850000D03*
X199730000Y-86850000D03*
X199730000Y-83850000D03*
X199230000Y-83850000D03*
X198730000Y-83850000D03*
X198230000Y-83850000D03*
D31*
X198980000Y-85350000D03*
%TD*%
D18*
%TO.C,C4*%
X208810000Y-79250000D03*
X210360000Y-79250000D03*
%TD*%
D32*
%TO.C,L1*%
X238000000Y-65065000D03*
X238000000Y-62915000D03*
%TD*%
D21*
%TO.C,R8*%
X188515000Y-77555000D03*
X188515000Y-79205000D03*
%TD*%
D33*
%TO.C,U4*%
X232330000Y-63190000D03*
X232330000Y-64190000D03*
X232930000Y-63190000D03*
X232930000Y-64190000D03*
D34*
X231417500Y-62690000D03*
X231417500Y-63190000D03*
X231417500Y-63690000D03*
X231417500Y-64190000D03*
X231417500Y-64690000D03*
X233842500Y-64690000D03*
X233842500Y-64190000D03*
X233842500Y-63690000D03*
X233842500Y-63190000D03*
X233842500Y-62690000D03*
%TD*%
D12*
%TO.C,SW2*%
X177660000Y-101710000D03*
X186560000Y-101710000D03*
X177660000Y-105710000D03*
X186560000Y-105710000D03*
%TD*%
D29*
%TO.C,C2*%
X185540000Y-91750000D03*
X185540000Y-93300000D03*
%TD*%
D16*
%TO.C,C7*%
X173310000Y-103455000D03*
X173310000Y-101905000D03*
%TD*%
D18*
%TO.C,C12*%
X200195000Y-89410000D03*
X201745000Y-89410000D03*
%TD*%
D14*
%TO.C,R11*%
X198420000Y-93170000D03*
X196770000Y-93170000D03*
%TD*%
D35*
%TO.C,Q2*%
X218440000Y-68377500D03*
X220340000Y-68377500D03*
X219390000Y-66502500D03*
%TD*%
M02*
