%TF.GenerationSoftware,KiCad,Pcbnew,10.0.3*%
%TF.CreationDate,2026-07-22T13:27:26+03:00*%
%TF.ProjectId,CV-collar,43562d63-6f6c-46c6-9172-2e6b69636164,rev?*%
%TF.SameCoordinates,Original*%
%TF.FileFunction,Copper,L1,Top*%
%TF.FilePolarity,Positive*%
%FSLAX46Y46*%
G04 Gerber Fmt 4.6, Leading zero omitted, Abs format (unit mm)*
G04 Created by KiCad (PCBNEW 10.0.3) date 2026-07-22 13:27:26*
%MOMM*%
%LPD*%
G01*
G04 APERTURE LIST*
G04 Aperture macros list*
%AMRoundRect*
0 Rectangle with rounded corners*
0 $1 Rounding radius*
0 $2 $3 $4 $5 $6 $7 $8 $9 X,Y pos of 4 corners*
0 Add a 4 corners polygon primitive as box body*
4,1,4,$2,$3,$4,$5,$6,$7,$8,$9,$2,$3,0*
0 Add four circle primitives for the rounded corners*
1,1,$1+$1,$2,$3*
1,1,$1+$1,$4,$5*
1,1,$1+$1,$6,$7*
1,1,$1+$1,$8,$9*
0 Add four rect primitives between the rounded corners*
20,1,$1+$1,$2,$3,$4,$5,0*
20,1,$1+$1,$4,$5,$6,$7,0*
20,1,$1+$1,$6,$7,$8,$9,0*
20,1,$1+$1,$8,$9,$2,$3,0*%
G04 Aperture macros list end*
%TA.AperFunction,SMDPad,CuDef*%
%ADD10RoundRect,0.250000X-1.300000X-0.250000X1.300000X-0.250000X1.300000X0.250000X-1.300000X0.250000X0*%
%TD*%
%TA.AperFunction,SMDPad,CuDef*%
%ADD11RoundRect,0.075000X-0.350000X-0.075000X0.350000X-0.075000X0.350000X0.075000X-0.350000X0.075000X0*%
%TD*%
%TA.AperFunction,SMDPad,CuDef*%
%ADD12RoundRect,0.075000X0.075000X-0.350000X0.075000X0.350000X-0.075000X0.350000X-0.075000X-0.350000X0*%
%TD*%
%TA.AperFunction,SMDPad,CuDef*%
%ADD13RoundRect,0.150000X0.150000X-0.875000X0.150000X0.875000X-0.150000X0.875000X-0.150000X-0.875000X0*%
%TD*%
%TA.AperFunction,SMDPad,CuDef*%
%ADD14RoundRect,0.200000X0.200000X0.275000X-0.200000X0.275000X-0.200000X-0.275000X0.200000X-0.275000X0*%
%TD*%
%TA.AperFunction,SMDPad,CuDef*%
%ADD15RoundRect,0.250000X-0.325000X-0.650000X0.325000X-0.650000X0.325000X0.650000X-0.325000X0.650000X0*%
%TD*%
%TA.AperFunction,SMDPad,CuDef*%
%ADD16RoundRect,0.225000X0.250000X-0.225000X0.250000X0.225000X-0.250000X0.225000X-0.250000X-0.225000X0*%
%TD*%
%TA.AperFunction,SMDPad,CuDef*%
%ADD17R,0.800000X1.000000*%
%TD*%
%TA.AperFunction,SMDPad,CuDef*%
%ADD18R,1.500000X0.700000*%
%TD*%
%TA.AperFunction,SMDPad,CuDef*%
%ADD19RoundRect,0.200000X-0.200000X-0.275000X0.200000X-0.275000X0.200000X0.275000X-0.200000X0.275000X0*%
%TD*%
%TA.AperFunction,SMDPad,CuDef*%
%ADD20RoundRect,0.225000X-0.225000X-0.250000X0.225000X-0.250000X0.225000X0.250000X-0.225000X0.250000X0*%
%TD*%
%TA.AperFunction,SMDPad,CuDef*%
%ADD21R,2.510000X1.000000*%
%TD*%
%TA.AperFunction,SMDPad,CuDef*%
%ADD22R,1.000000X0.800000*%
%TD*%
%TA.AperFunction,SMDPad,CuDef*%
%ADD23R,0.700000X1.500000*%
%TD*%
%TA.AperFunction,SMDPad,CuDef*%
%ADD24RoundRect,0.250000X-1.500000X-0.550000X1.500000X-0.550000X1.500000X0.550000X-1.500000X0.550000X0*%
%TD*%
%TA.AperFunction,SMDPad,CuDef*%
%ADD25RoundRect,0.150000X-0.587500X-0.150000X0.587500X-0.150000X0.587500X0.150000X-0.587500X0.150000X0*%
%TD*%
%TA.AperFunction,SMDPad,CuDef*%
%ADD26RoundRect,0.200000X-0.275000X0.200000X-0.275000X-0.200000X0.275000X-0.200000X0.275000X0.200000X0*%
%TD*%
%TA.AperFunction,SMDPad,CuDef*%
%ADD27R,0.900000X1.500000*%
%TD*%
%TA.AperFunction,SMDPad,CuDef*%
%ADD28R,1.500000X0.900000*%
%TD*%
%TA.AperFunction,SMDPad,CuDef*%
%ADD29R,1.050000X1.050000*%
%TD*%
%TA.AperFunction,HeatsinkPad*%
%ADD30C,0.600000*%
%TD*%
%TA.AperFunction,HeatsinkPad*%
%ADD31R,4.200000X4.200000*%
%TD*%
%TA.AperFunction,ComponentPad*%
%ADD32R,3.000000X3.000000*%
%TD*%
%TA.AperFunction,ComponentPad*%
%ADD33C,3.000000*%
%TD*%
%TA.AperFunction,SMDPad,CuDef*%
%ADD34R,0.300000X0.750000*%
%TD*%
%TA.AperFunction,SMDPad,CuDef*%
%ADD35R,1.500000X1.500000*%
%TD*%
%TA.AperFunction,SMDPad,CuDef*%
%ADD36RoundRect,0.250000X0.850000X-0.375000X0.850000X0.375000X-0.850000X0.375000X-0.850000X-0.375000X0*%
%TD*%
%TA.AperFunction,SMDPad,CuDef*%
%ADD37RoundRect,0.062500X-0.350000X-0.062500X0.350000X-0.062500X0.350000X0.062500X-0.350000X0.062500X0*%
%TD*%
%TA.AperFunction,HeatsinkPad*%
%ADD38C,0.500000*%
%TD*%
%TA.AperFunction,HeatsinkPad*%
%ADD39R,1.200000X2.000000*%
%TD*%
%TA.AperFunction,ComponentPad*%
%ADD40O,1.600000X1.200000*%
%TD*%
%TA.AperFunction,ComponentPad*%
%ADD41C,1.200000*%
%TD*%
%TA.AperFunction,ViaPad*%
%ADD42C,0.600000*%
%TD*%
%TA.AperFunction,Conductor*%
%ADD43C,0.200000*%
%TD*%
%TA.AperFunction,Conductor*%
%ADD44C,0.500000*%
%TD*%
%TA.AperFunction,Conductor*%
%ADD45C,0.750000*%
%TD*%
G04 APERTURE END LIST*
D10*
%TO.P,SW1,1,1_1*%
%TO.N,GND*%
X173480000Y-68630000D03*
X182380000Y-68630000D03*
%TO.P,SW1,2,2_2*%
%TO.N,GPIO0*%
X173480000Y-72630000D03*
X182380000Y-72630000D03*
%TD*%
D11*
%TO.P,U2,1,CLKIN_1*%
%TO.N,unconnected-(U2-CLKIN-Pad1)*%
X187250000Y-83800000D03*
%TO.P,U2,2,NC_2*%
%TO.N,unconnected-(U2-NC-Pad2)*%
X187250000Y-84300000D03*
%TO.P,U2,3,NC_3*%
%TO.N,unconnected-(U2-NC-Pad3)*%
X187250000Y-84800000D03*
%TO.P,U2,4,NC_4*%
%TO.N,unconnected-(U2-NC-Pad4)*%
X187250000Y-85300000D03*
%TO.P,U2,5,NC_5*%
%TO.N,unconnected-(U2-NC-Pad5)*%
X187250000Y-85800000D03*
%TO.P,U2,6,AUX_DA_6*%
%TO.N,unconnected-(U2-AUX_DA-Pad6)*%
X187250000Y-86300000D03*
D12*
%TO.P,U2,7,AUX_CL_7*%
%TO.N,unconnected-(U2-AUX_CL-Pad7)*%
X187950000Y-87000000D03*
%TO.P,U2,8,VLOGIC_8*%
%TO.N,SEN_VCC*%
X188450000Y-87000000D03*
%TO.P,U2,9,AD0_9*%
%TO.N,Net-(SW3-B)*%
X188950000Y-87000000D03*
%TO.P,U2,10,REGOUT_10*%
%TO.N,Net-(U2-REGOUT)*%
X189450000Y-87000000D03*
%TO.P,U2,11,FSYNC_11*%
%TO.N,GND*%
X189950000Y-87000000D03*
%TO.P,U2,12,INT_12*%
%TO.N,MPU_INT*%
X190450000Y-87000000D03*
D11*
%TO.P,U2,13,VDD_13*%
%TO.N,SEN_VCC*%
X191150000Y-86300000D03*
%TO.P,U2,14,NC_14*%
%TO.N,unconnected-(U2-NC-Pad14)*%
X191150000Y-85800000D03*
%TO.P,U2,15,NC_15*%
%TO.N,unconnected-(U2-NC-Pad15)*%
X191150000Y-85300000D03*
%TO.P,U2,16,NC_16*%
%TO.N,unconnected-(U2-NC-Pad16)*%
X191150000Y-84800000D03*
%TO.P,U2,17,NC_17*%
%TO.N,unconnected-(U2-NC-Pad17)*%
X191150000Y-84300000D03*
%TO.P,U2,18,GND_18*%
%TO.N,GND*%
X191150000Y-83800000D03*
D12*
%TO.P,U2,19,RESV_19*%
%TO.N,unconnected-(U2-RESV-Pad19)*%
X190450000Y-83100000D03*
%TO.P,U2,20,CPOUT_20*%
%TO.N,Net-(U2-CPOUT)*%
X189950000Y-83100000D03*
%TO.P,U2,21,RESV_21*%
%TO.N,unconnected-(U2-RESV-Pad21)*%
X189450000Y-83100000D03*
%TO.P,U2,22,RESV_22*%
%TO.N,unconnected-(U2-RESV-Pad22)*%
X188950000Y-83100000D03*
%TO.P,U2,23,SCL_23*%
%TO.N,SCL*%
X188450000Y-83100000D03*
%TO.P,U2,24,SDA_24*%
%TO.N,SDA*%
X187950000Y-83100000D03*
%TD*%
D13*
%TO.P,U3,1,32KHZ_1*%
%TO.N,unconnected-(U3-32KHZ-Pad1)*%
X206162500Y-88270000D03*
%TO.P,U3,2,VCC_2*%
%TO.N,VCC*%
X207432500Y-88270000D03*
%TO.P,U3,3,~{INT}/SQW_3*%
%TO.N,INT{slash}SQW*%
X208702500Y-88270000D03*
%TO.P,U3,4,~{RST}_4*%
%TO.N,unconnected-(U3-~{RST}-Pad4)*%
X209972500Y-88270000D03*
%TO.P,U3,5,GND_5*%
%TO.N,GND*%
X211242500Y-88270000D03*
%TO.P,U3,6,GND_6*%
X212512500Y-88270000D03*
%TO.P,U3,7,GND_7*%
X213782500Y-88270000D03*
%TO.P,U3,8,GND_8*%
X215052500Y-88270000D03*
%TO.P,U3,9,GND_9*%
X215052500Y-78970000D03*
%TO.P,U3,10,GND_10*%
X213782500Y-78970000D03*
%TO.P,U3,11,GND_11*%
X212512500Y-78970000D03*
%TO.P,U3,12,GND_12*%
X211242500Y-78970000D03*
%TO.P,U3,13,GND_13*%
X209972500Y-78970000D03*
%TO.P,U3,14,VBAT_14*%
%TO.N,Net-(BT1-+)*%
X208702500Y-78970000D03*
%TO.P,U3,15,SDA_15*%
%TO.N,SDA*%
X207432500Y-78970000D03*
%TO.P,U3,16,SCL_16*%
%TO.N,SCL*%
X206162500Y-78970000D03*
%TD*%
D14*
%TO.P,R6,1*%
%TO.N,GND*%
X204565000Y-68700000D03*
%TO.P,R6,2*%
%TO.N,GPIO27*%
X202915000Y-68700000D03*
%TD*%
D15*
%TO.P,C9,1*%
%TO.N,GND*%
X231220000Y-70830000D03*
%TO.P,C9,2*%
%TO.N,VCC*%
X234170000Y-70830000D03*
%TD*%
D16*
%TO.P,C8,1*%
%TO.N,GND*%
X227580000Y-67045000D03*
%TO.P,C8,2*%
%TO.N,Vin*%
X227580000Y-65495000D03*
%TD*%
D17*
%TO.P,SW5,*%
%TO.N,*%
X239215000Y-77760000D03*
X241425000Y-77760000D03*
X239215000Y-70460000D03*
X241425000Y-70460000D03*
D18*
%TO.P,SW5,1,A_1*%
%TO.N,3.7V*%
X238565000Y-76360000D03*
%TO.P,SW5,2,B_2*%
%TO.N,Net-(J5-Pin_2)*%
X238565000Y-73360000D03*
%TO.P,SW5,3,C_3*%
%TO.N,unconnected-(SW5-C-Pad3)*%
X238565000Y-71860000D03*
%TD*%
D19*
%TO.P,R13,1*%
%TO.N,ALRT*%
X196830000Y-103400000D03*
%TO.P,R13,2*%
%TO.N,VCC*%
X198480000Y-103400000D03*
%TD*%
D20*
%TO.P,C1,1*%
%TO.N,VCC*%
X201175000Y-95430000D03*
%TO.P,C1,2*%
%TO.N,GND*%
X202725000Y-95430000D03*
%TD*%
D21*
%TO.P,J3,1,Pin_1_1*%
%TO.N,RX*%
X237560000Y-99210000D03*
%TO.P,J3,2,Pin_2_2*%
%TO.N,TX*%
X240870000Y-101750000D03*
%TO.P,J3,3,Pin_3_3*%
%TO.N,VCC*%
X237560000Y-104290000D03*
%TO.P,J3,4,Pin_4_4*%
%TO.N,GND*%
X240870000Y-106830000D03*
%TD*%
D19*
%TO.P,R3,1*%
%TO.N,VCC*%
X201175000Y-103430000D03*
%TO.P,R3,2*%
%TO.N,INT{slash}SQW*%
X202825000Y-103430000D03*
%TD*%
D20*
%TO.P,C11,1*%
%TO.N,GND*%
X192400000Y-108320000D03*
%TO.P,C11,2*%
%TO.N,Net-(U5-CELL)*%
X193950000Y-108320000D03*
%TD*%
D22*
%TO.P,SW3,*%
%TO.N,*%
X205600000Y-110525000D03*
X205600000Y-112735000D03*
X212900000Y-110525000D03*
X212900000Y-112735000D03*
D23*
%TO.P,SW3,1,A_1*%
%TO.N,SEN_VCC*%
X207000000Y-109875000D03*
%TO.P,SW3,2,B_2*%
%TO.N,Net-(SW3-B)*%
X210000000Y-109875000D03*
%TO.P,SW3,3,C_3*%
%TO.N,GND*%
X211500000Y-109875000D03*
%TD*%
D24*
%TO.P,C10,1*%
%TO.N,VCC*%
X156970000Y-106060000D03*
%TO.P,C10,2*%
%TO.N,GND*%
X162570000Y-106060000D03*
%TD*%
D19*
%TO.P,R5,1*%
%TO.N,VCC*%
X167415000Y-106080000D03*
%TO.P,R5,2*%
%TO.N,EN*%
X169065000Y-106080000D03*
%TD*%
%TO.P,R7,1*%
%TO.N,VCC*%
X183595000Y-77540000D03*
%TO.P,R7,2*%
%TO.N,GPIO0*%
X185245000Y-77540000D03*
%TD*%
D25*
%TO.P,Q1,1,G_1*%
%TO.N,GPIO25*%
X208862500Y-64960000D03*
%TO.P,Q1,2,S_2*%
%TO.N,VCC*%
X208862500Y-66860000D03*
%TO.P,Q1,3,D_3*%
%TO.N,SEN_VCC*%
X210737500Y-65910000D03*
%TD*%
D21*
%TO.P,J5,1,Pin_1_1*%
%TO.N,GND*%
X228395000Y-76430000D03*
%TO.P,J5,2,Pin_2_2*%
%TO.N,Net-(J5-Pin_2)*%
X231705000Y-78970000D03*
%TD*%
D26*
%TO.P,R4,1*%
%TO.N,GPIO25*%
X204720000Y-65105000D03*
%TO.P,R4,2*%
%TO.N,VCC*%
X204720000Y-66755000D03*
%TD*%
D27*
%TO.P,U1,1,GND_1*%
%TO.N,GND*%
X155740000Y-95720000D03*
%TO.P,U1,2,VDD_2*%
%TO.N,VCC*%
X157010000Y-95720000D03*
%TO.P,U1,3,EN_3*%
%TO.N,EN*%
X158280000Y-95720000D03*
%TO.P,U1,4,SENSOR_VP_4*%
%TO.N,unconnected-(U1-SENSOR_VP-Pad4)*%
X159550000Y-95720000D03*
%TO.P,U1,5,SENSOR_VN_5*%
%TO.N,unconnected-(U1-SENSOR_VN-Pad5)*%
X160820000Y-95720000D03*
%TO.P,U1,6,IO34_6*%
%TO.N,unconnected-(U1-IO34-Pad6)*%
X162090000Y-95720000D03*
%TO.P,U1,7,IO35_7*%
%TO.N,unconnected-(U1-IO35-Pad7)*%
X163360000Y-95720000D03*
%TO.P,U1,8,IO32_8*%
%TO.N,unconnected-(U1-IO32-Pad8)*%
X164630000Y-95720000D03*
%TO.P,U1,9,IO33_9*%
%TO.N,unconnected-(U1-IO33-Pad9)*%
X165900000Y-95720000D03*
%TO.P,U1,10,IO25_10*%
%TO.N,GPIO25*%
X167170000Y-95720000D03*
%TO.P,U1,11,IO26_11*%
%TO.N,unconnected-(U1-IO26-Pad11)*%
X168440000Y-95720000D03*
%TO.P,U1,12,IO27_12*%
%TO.N,GPIO27*%
X169710000Y-95720000D03*
%TO.P,U1,13,IO14_13*%
%TO.N,unconnected-(U1-IO14-Pad13)*%
X170980000Y-95720000D03*
%TO.P,U1,14,IO12_14*%
%TO.N,unconnected-(U1-IO12-Pad14)*%
X172250000Y-95720000D03*
D28*
%TO.P,U1,15,GND_15*%
%TO.N,GND*%
X173500000Y-92680000D03*
%TO.P,U1,16,IO13_16*%
%TO.N,ALRT*%
X173500000Y-91410000D03*
%TO.P,U1,17,SHD/SD2_17*%
%TO.N,unconnected-(U1-SHD{slash}SD2-Pad17)*%
X173500000Y-90140000D03*
%TO.P,U1,18,SWP/SD3_18*%
%TO.N,unconnected-(U1-SWP{slash}SD3-Pad18)*%
X173500000Y-88870000D03*
%TO.P,U1,19,SCS/CMD_19*%
%TO.N,unconnected-(U1-SCS{slash}CMD-Pad19)*%
X173500000Y-87600000D03*
%TO.P,U1,20,SCK/CLK_20*%
%TO.N,unconnected-(U1-SCK{slash}CLK-Pad20)*%
X173500000Y-86330000D03*
%TO.P,U1,21,SDO/SD0_21*%
%TO.N,unconnected-(U1-SDO{slash}SD0-Pad21)*%
X173500000Y-85060000D03*
%TO.P,U1,22,SDI/SD1_22*%
%TO.N,unconnected-(U1-SDI{slash}SD1-Pad22)*%
X173500000Y-83790000D03*
%TO.P,U1,23,IO15_23*%
%TO.N,unconnected-(U1-IO15-Pad23)*%
X173500000Y-82520000D03*
%TO.P,U1,24,IO2_24*%
%TO.N,unconnected-(U1-IO2-Pad24)*%
X173500000Y-81250000D03*
D27*
%TO.P,U1,25,IO0_25*%
%TO.N,GPIO0*%
X172250000Y-78220000D03*
%TO.P,U1,26,IO4_26*%
%TO.N,INT{slash}SQW*%
X170980000Y-78220000D03*
%TO.P,U1,27,IO16_27*%
%TO.N,unconnected-(U1-IO16-Pad27)*%
X169710000Y-78220000D03*
%TO.P,U1,28,IO17_28*%
%TO.N,unconnected-(U1-IO17-Pad28)*%
X168440000Y-78220000D03*
%TO.P,U1,29,IO5_29*%
%TO.N,MPU_INT*%
X167170000Y-78220000D03*
%TO.P,U1,30,IO18_30*%
%TO.N,unconnected-(U1-IO18-Pad30)*%
X165900000Y-78220000D03*
%TO.P,U1,31,IO19_31*%
%TO.N,unconnected-(U1-IO19-Pad31)*%
X164630000Y-78220000D03*
%TO.P,U1,32,NC_32*%
%TO.N,unconnected-(U1-NC-Pad32)*%
X163360000Y-78220000D03*
%TO.P,U1,33,IO21_33*%
%TO.N,SDA*%
X162090000Y-78220000D03*
%TO.P,U1,34,RXD0/IO3_34*%
%TO.N,TX*%
X160820000Y-78220000D03*
%TO.P,U1,35,TXD0/IO1_35*%
%TO.N,RX*%
X159550000Y-78220000D03*
%TO.P,U1,36,IO22_36*%
%TO.N,SCL*%
X158280000Y-78220000D03*
%TO.P,U1,37,IO23_37*%
%TO.N,unconnected-(U1-IO23-Pad37)*%
X157010000Y-78220000D03*
%TO.P,U1,38,GND_38*%
%TO.N,GND*%
X155740000Y-78220000D03*
D29*
%TO.P,U1,39,GND_39*%
X161555000Y-89175000D03*
D30*
X162317500Y-89175000D03*
D29*
X163080000Y-89175000D03*
D30*
X163842500Y-89175000D03*
D29*
X164605000Y-89175000D03*
D30*
X161555000Y-88412500D03*
X163080000Y-88412500D03*
X164605000Y-88412500D03*
D29*
X161555000Y-87650000D03*
D30*
X162317500Y-87650000D03*
D29*
X163080000Y-87650000D03*
D31*
X163080000Y-87650000D03*
D30*
X163842500Y-87650000D03*
D29*
X164605000Y-87650000D03*
D30*
X161555000Y-86887500D03*
X163080000Y-86887500D03*
X164605000Y-86887500D03*
D29*
X161555000Y-86125000D03*
D30*
X162317500Y-86125000D03*
D29*
X163080000Y-86125000D03*
D30*
X163842500Y-86125000D03*
D29*
X164605000Y-86125000D03*
%TD*%
D19*
%TO.P,R12,1*%
%TO.N,Vin*%
X196375000Y-112040000D03*
%TO.P,R12,2*%
%TO.N,Net-(U5-VDD)*%
X198025000Y-112040000D03*
%TD*%
D32*
%TO.P,BT1,1,+_1*%
%TO.N,Net-(BT1-+)*%
X207610000Y-100530000D03*
D33*
%TO.P,BT1,2,-_2*%
%TO.N,GND*%
X228100000Y-100530000D03*
%TD*%
D21*
%TO.P,J9,1,Pin_1_1*%
%TO.N,Net-(J2-Pin_2)*%
X250805000Y-82891830D03*
%TO.P,J9,2,Pin_2_2*%
%TO.N,Net-(J2-Pin_3)*%
X254115000Y-85431830D03*
%TO.P,J9,3,Pin_3_3*%
%TO.N,Net-(J2-Pin_4)*%
X250805000Y-87971830D03*
%TO.P,J9,4,Pin_4_4*%
%TO.N,Net-(J2-Pin_1)*%
X254115000Y-90511830D03*
%TD*%
D19*
%TO.P,R9,1*%
%TO.N,VCC*%
X188980000Y-95140000D03*
%TO.P,R9,2*%
%TO.N,SCL*%
X190630000Y-95140000D03*
%TD*%
D20*
%TO.P,C5,1*%
%TO.N,Net-(U2-CPOUT)*%
X189755000Y-78940000D03*
%TO.P,C5,2*%
%TO.N,GND*%
X191305000Y-78940000D03*
%TD*%
%TO.P,C3,1*%
%TO.N,SEN_VCC*%
X193850000Y-84920000D03*
%TO.P,C3,2*%
%TO.N,GND*%
X195400000Y-84920000D03*
%TD*%
D19*
%TO.P,R10,1*%
%TO.N,Net-(U4-CFG1)*%
X226825000Y-70690000D03*
%TO.P,R10,2*%
%TO.N,GND*%
X228475000Y-70690000D03*
%TD*%
D20*
%TO.P,C6,1*%
%TO.N,Net-(J2-Pin_4)*%
X257485000Y-91441830D03*
%TO.P,C6,2*%
%TO.N,Net-(J2-Pin_1)*%
X259035000Y-91441830D03*
%TD*%
D34*
%TO.P,U5,1,CTG_1*%
%TO.N,GND*%
X193560000Y-105760000D03*
%TO.P,U5,2,CELL_2*%
%TO.N,Net-(U5-CELL)*%
X194060000Y-105760000D03*
%TO.P,U5,3,VDD_3*%
%TO.N,Net-(U5-VDD)*%
X194560000Y-105760000D03*
%TO.P,U5,4,GND_4*%
%TO.N,GND*%
X195060000Y-105760000D03*
%TO.P,U5,5,~{ALRT}_5*%
%TO.N,ALRT*%
X195060000Y-102760000D03*
%TO.P,U5,6,QSTRT_6*%
%TO.N,GND*%
X194560000Y-102760000D03*
%TO.P,U5,7,SCL_7*%
%TO.N,SCL*%
X194060000Y-102760000D03*
%TO.P,U5,8,SDA_8*%
%TO.N,SDA*%
X193560000Y-102760000D03*
D35*
%TO.P,U5,9,EP_9*%
%TO.N,GND*%
X194310000Y-104260000D03*
%TD*%
D20*
%TO.P,C4,1*%
%TO.N,Net-(U2-REGOUT)*%
X188955000Y-91100000D03*
%TO.P,C4,2*%
%TO.N,GND*%
X190505000Y-91100000D03*
%TD*%
D36*
%TO.P,L1,1,1_1*%
%TO.N,Net-(U4-LX2)*%
X238020000Y-66945000D03*
%TO.P,L1,2,2_2*%
%TO.N,Net-(U4-LX1)*%
X238020000Y-64795000D03*
%TD*%
D19*
%TO.P,R8,1*%
%TO.N,VCC*%
X188895000Y-98300000D03*
%TO.P,R8,2*%
%TO.N,SDA*%
X190545000Y-98300000D03*
%TD*%
D21*
%TO.P,J8,1,Pin_1_1*%
%TO.N,SCL*%
X237470000Y-82880000D03*
%TO.P,J8,2,Pin_2_2*%
%TO.N,SDA*%
X240780000Y-85420000D03*
%TO.P,J8,3,Pin_3_3*%
%TO.N,SEN_VCC*%
X237470000Y-87960000D03*
%TO.P,J8,4,Pin_4_4*%
%TO.N,GND*%
X240780000Y-90500000D03*
%TD*%
D37*
%TO.P,U4,1,EN_1*%
%TO.N,Vin*%
X231437500Y-64570000D03*
%TO.P,U4,2,SEL_2*%
X231437500Y-65070000D03*
%TO.P,U4,3,CFG1_3*%
%TO.N,Net-(U4-CFG1)*%
X231437500Y-65570000D03*
%TO.P,U4,4,CFG2_4*%
%TO.N,GND*%
X231437500Y-66070000D03*
%TO.P,U4,5,CFG3_5*%
X231437500Y-66570000D03*
%TO.P,U4,6,VOUT_6*%
%TO.N,VCC*%
X233862500Y-66570000D03*
%TO.P,U4,7,LX2_7*%
%TO.N,Net-(U4-LX2)*%
X233862500Y-66070000D03*
%TO.P,U4,8,GND_8*%
%TO.N,GND*%
X233862500Y-65570000D03*
%TO.P,U4,9,LX1_9*%
%TO.N,Net-(U4-LX1)*%
X233862500Y-65070000D03*
%TO.P,U4,10,VIN_10*%
%TO.N,Vin*%
X233862500Y-64570000D03*
D38*
%TO.P,U4,11,GND_11*%
%TO.N,GND*%
X232300000Y-64820000D03*
X232300000Y-65570000D03*
X232300000Y-66320000D03*
D39*
X232650000Y-65570000D03*
D38*
X233000000Y-64820000D03*
X233000000Y-65570000D03*
X233000000Y-66320000D03*
%TD*%
D10*
%TO.P,SW2,1,1_1*%
%TO.N,GND*%
X173400000Y-101410000D03*
X182300000Y-101410000D03*
%TO.P,SW2,2,2_2*%
%TO.N,EN*%
X173400000Y-105410000D03*
X182300000Y-105410000D03*
%TD*%
D20*
%TO.P,C2,1*%
%TO.N,VCC*%
X201220000Y-99150000D03*
%TO.P,C2,2*%
%TO.N,GND*%
X202770000Y-99150000D03*
%TD*%
D16*
%TO.P,C7,1*%
%TO.N,EN*%
X169050000Y-103155000D03*
%TO.P,C7,2*%
%TO.N,GND*%
X169050000Y-101605000D03*
%TD*%
D20*
%TO.P,C12,1*%
%TO.N,Net-(U5-VDD)*%
X195525000Y-108320000D03*
%TO.P,C12,2*%
%TO.N,GND*%
X197075000Y-108320000D03*
%TD*%
D19*
%TO.P,R11,1*%
%TO.N,Vin*%
X192090000Y-112100000D03*
%TO.P,R11,2*%
%TO.N,Net-(U5-CELL)*%
X193740000Y-112100000D03*
%TD*%
D22*
%TO.P,SW4,*%
%TO.N,*%
X165880000Y-110365000D03*
X165880000Y-112575000D03*
X173180000Y-110365000D03*
X173180000Y-112575000D03*
D23*
%TO.P,SW4,1,A_1*%
%TO.N,VCC*%
X167280000Y-109715000D03*
%TO.P,SW4,2,B_2*%
%TO.N,GPIO27*%
X170280000Y-109715000D03*
%TO.P,SW4,3,C_3*%
%TO.N,unconnected-(SW4-C-Pad3)*%
X171780000Y-109715000D03*
%TD*%
D25*
%TO.P,Q2,1,G_1*%
%TO.N,GND*%
X199080000Y-75690000D03*
%TO.P,Q2,2,S_2*%
%TO.N,Vin*%
X199080000Y-77590000D03*
%TO.P,Q2,3,D_3*%
%TO.N,3.7V*%
X200955000Y-76640000D03*
%TD*%
D40*
%TO.P,J2,1,Pin_1_1*%
%TO.N,Net-(J2-Pin_1)*%
X262520000Y-86971830D03*
D41*
%TO.P,J2,2,Pin_2_2*%
%TO.N,Net-(J2-Pin_2)*%
X259980000Y-89511830D03*
%TO.P,J2,3,Pin_3_3*%
%TO.N,Net-(J2-Pin_3)*%
X257440000Y-86971830D03*
%TO.P,J2,4,Pin_4_4*%
%TO.N,Net-(J2-Pin_4)*%
X259980000Y-84431830D03*
%TD*%
D42*
%TO.N,GND*%
X196000000Y-80480000D03*
X188010000Y-103490000D03*
X190049171Y-88161535D03*
X195250000Y-86470000D03*
X209920000Y-85140000D03*
X216400000Y-90010000D03*
X219550000Y-79010000D03*
X189920000Y-104340000D03*
X222610000Y-76610000D03*
X209920000Y-82560000D03*
X197860000Y-105630000D03*
X192230735Y-85690735D03*
X209250000Y-107250000D03*
X195980000Y-83000000D03*
%TO.N,GPIO0*%
X176154744Y-72700000D03*
X178830000Y-72670000D03*
X178790000Y-78530000D03*
X184450000Y-78610000D03*
%TO.N,SEN_VCC*%
X218760000Y-79700000D03*
X187620735Y-88220735D03*
X218760000Y-75820000D03*
X199930000Y-104070000D03*
X192480000Y-88780000D03*
X202820000Y-79950000D03*
%TO.N,Net-(SW3-B)*%
X187470000Y-89220000D03*
X204120000Y-106650000D03*
%TO.N,MPU_INT*%
X188665735Y-93204265D03*
X191540000Y-93240000D03*
%TO.N,SCL*%
X189940000Y-80360000D03*
X192610000Y-81270000D03*
%TO.N,SDA*%
X175030000Y-80330000D03*
X192520000Y-82100000D03*
X176950000Y-79360000D03*
X189015735Y-80435735D03*
%TO.N,VCC*%
X202195735Y-71725735D03*
X204080000Y-85620000D03*
X207050000Y-67790000D03*
%TO.N,INT{slash}SQW*%
X205970000Y-92610000D03*
X187605000Y-91295003D03*
%TO.N,Net-(BT1-+)*%
X208620000Y-82590000D03*
%TO.N,GPIO27*%
X179971152Y-79720169D03*
X167070000Y-93650000D03*
X170220000Y-100280000D03*
X170300000Y-106800000D03*
%TO.N,Vin*%
X201370000Y-79800000D03*
X199380000Y-85270000D03*
X199350000Y-80280000D03*
X219970000Y-71660000D03*
X217610000Y-74060000D03*
X203020000Y-75390000D03*
%TO.N,ALRT*%
X194660000Y-101030000D03*
X188050000Y-101030000D03*
%TO.N,RX*%
X171530000Y-74640000D03*
X198020000Y-84450000D03*
%TO.N,TX*%
X171500000Y-75510000D03*
X197927863Y-83655321D03*
%TO.N,EN*%
X165040000Y-102460000D03*
X166359265Y-103119265D03*
%TO.N,GPIO25*%
X179400000Y-79160000D03*
X165780000Y-94170000D03*
%TD*%
%TO.N,GND*%
D43*
X227580000Y-69410000D02*
X227580000Y-67045000D01*
X215052500Y-78970000D02*
X219510000Y-78970000D01*
X194310000Y-104260000D02*
X190000000Y-104260000D01*
X155740000Y-94990000D02*
X161555000Y-89175000D01*
X209640552Y-64360000D02*
X209900000Y-64619448D01*
X211500000Y-109875000D02*
X211500000Y-107880000D01*
X213782500Y-88270000D02*
X215052500Y-88270000D01*
X228475000Y-70305000D02*
X227580000Y-69410000D01*
X209800000Y-107250000D02*
X210335000Y-106715000D01*
X209250000Y-107250000D02*
X209800000Y-107250000D01*
X173500000Y-92680000D02*
X168110000Y-92680000D01*
X209920000Y-82560000D02*
X209972500Y-82507500D01*
X155740000Y-80310000D02*
X161555000Y-86125000D01*
X173480000Y-68630000D02*
X182380000Y-68630000D01*
X209900000Y-65300552D02*
X209640552Y-65560000D01*
X195250000Y-85070000D02*
X195400000Y-84920000D01*
D44*
X216400000Y-90010000D02*
X212982500Y-90010000D01*
D43*
X195400000Y-83580000D02*
X195400000Y-84920000D01*
X202725000Y-94713052D02*
X208102500Y-89335552D01*
X199080000Y-75690000D02*
X196000000Y-78770000D01*
X196000000Y-78770000D02*
X196000000Y-80480000D01*
X192230735Y-84423325D02*
X192230735Y-85690735D01*
X164380000Y-68630000D02*
X155740000Y-77270000D01*
X234400000Y-106830000D02*
X228100000Y-100530000D01*
X209972500Y-78970000D02*
X211242500Y-78970000D01*
X220845000Y-100530000D02*
X228100000Y-100530000D01*
X227580000Y-67045000D02*
X230962500Y-67045000D01*
D44*
X212982500Y-90010000D02*
X211242500Y-88270000D01*
D43*
X173400000Y-101410000D02*
X173400000Y-92780000D01*
X209640552Y-65560000D02*
X209640552Y-66260000D01*
X219510000Y-78970000D02*
X219550000Y-79010000D01*
X167050000Y-101580000D02*
X169025000Y-101580000D01*
X228395000Y-73655000D02*
X231220000Y-70830000D01*
X189950000Y-88090000D02*
X189950000Y-87000000D01*
X232050000Y-66070000D02*
X232300000Y-66320000D01*
X190505000Y-91100000D02*
X190505000Y-88645000D01*
X209972500Y-82507500D02*
X209972500Y-78970000D01*
X194310000Y-104260000D02*
X193560000Y-105010000D01*
X192400000Y-106920000D02*
X193560000Y-105760000D01*
X191305000Y-78940000D02*
X191305000Y-83645000D01*
X212512500Y-78970000D02*
X213782500Y-78970000D01*
X169025000Y-101580000D02*
X169195000Y-101410000D01*
X233862500Y-65570000D02*
X233000000Y-65570000D01*
X169195000Y-101410000D02*
X173400000Y-101410000D01*
X213782500Y-78970000D02*
X215052500Y-78970000D01*
X190000000Y-104260000D02*
X189920000Y-104340000D01*
X238130000Y-90500000D02*
X228100000Y-100530000D01*
X196805000Y-105630000D02*
X197860000Y-105630000D01*
X186650000Y-64360000D02*
X209640552Y-64360000D01*
X191150000Y-83800000D02*
X191607410Y-83800000D01*
X210652500Y-85140000D02*
X209920000Y-85140000D01*
X197075000Y-107775000D02*
X195060000Y-105760000D01*
X195250000Y-86470000D02*
X195250000Y-85070000D01*
X190505000Y-88645000D02*
X189950000Y-88090000D01*
X210335000Y-106715000D02*
X202770000Y-99150000D01*
X155740000Y-95720000D02*
X155740000Y-94990000D01*
X228395000Y-76430000D02*
X228395000Y-73655000D01*
X191305000Y-83645000D02*
X191150000Y-83800000D01*
X230962500Y-67045000D02*
X231437500Y-66570000D01*
X168110000Y-92680000D02*
X164605000Y-89175000D01*
X208361948Y-86945000D02*
X209043052Y-86945000D01*
X194560000Y-102760000D02*
X194560000Y-103385000D01*
X209043052Y-86945000D02*
X209302500Y-87204448D01*
X211500000Y-109875000D02*
X220845000Y-100530000D01*
X209043052Y-86016948D02*
X209920000Y-85140000D01*
X209900000Y-64619448D02*
X209900000Y-65300552D01*
X208102500Y-87204448D02*
X208361948Y-86945000D01*
X209640552Y-66260000D02*
X209900000Y-66519448D01*
X191607410Y-83800000D02*
X192230735Y-84423325D01*
X194560000Y-104010000D02*
X194310000Y-104260000D01*
X212512500Y-88270000D02*
X213782500Y-88270000D01*
X240870000Y-106830000D02*
X234400000Y-106830000D01*
X211500000Y-107880000D02*
X210335000Y-106715000D01*
X222870000Y-76610000D02*
X223050000Y-76430000D01*
X222610000Y-76610000D02*
X222870000Y-76610000D01*
X194310000Y-104260000D02*
X195060000Y-105010000D01*
X231437500Y-66570000D02*
X232050000Y-66570000D01*
X192400000Y-108320000D02*
X192400000Y-106920000D01*
X209900000Y-67200552D02*
X208400552Y-68700000D01*
X177200000Y-92680000D02*
X173500000Y-92680000D01*
X194560000Y-103385000D02*
X196805000Y-105630000D01*
X162570000Y-106060000D02*
X167050000Y-101580000D01*
X173480000Y-68630000D02*
X164380000Y-68630000D01*
X155740000Y-77270000D02*
X155740000Y-78220000D01*
X211242500Y-78970000D02*
X212512500Y-78970000D01*
X240780000Y-90500000D02*
X238130000Y-90500000D01*
X213782500Y-88270000D02*
X210652500Y-85140000D01*
X209302500Y-92617500D02*
X202770000Y-99150000D01*
X173400000Y-92780000D02*
X173500000Y-92680000D01*
X232050000Y-66570000D02*
X232300000Y-66320000D01*
X188010000Y-103490000D02*
X177200000Y-92680000D01*
X208400552Y-68700000D02*
X204565000Y-68700000D01*
X231220000Y-70830000D02*
X228615000Y-70830000D01*
X209900000Y-66519448D02*
X209900000Y-67200552D01*
X195980000Y-83000000D02*
X195400000Y-83580000D01*
X193560000Y-105010000D02*
X193560000Y-105760000D01*
X194560000Y-102760000D02*
X194560000Y-104010000D01*
X209302500Y-87204448D02*
X209302500Y-92617500D01*
X208102500Y-89335552D02*
X208102500Y-87204448D01*
X228615000Y-70830000D02*
X228475000Y-70690000D01*
X197075000Y-108320000D02*
X197075000Y-107775000D01*
X231437500Y-66070000D02*
X232050000Y-66070000D01*
X223050000Y-76430000D02*
X228395000Y-76430000D01*
X209043052Y-86945000D02*
X209043052Y-86016948D01*
X195060000Y-105010000D02*
X195060000Y-105760000D01*
X182380000Y-68630000D02*
X186650000Y-64360000D01*
X155740000Y-78220000D02*
X155740000Y-80310000D01*
X173400000Y-101410000D02*
X182300000Y-101410000D01*
X204565000Y-70205000D02*
X199080000Y-75690000D01*
X228475000Y-70690000D02*
X228475000Y-70305000D01*
X204565000Y-68700000D02*
X204565000Y-70205000D01*
X202725000Y-95430000D02*
X202725000Y-94713052D01*
%TO.N,GPIO0*%
X184450000Y-78610000D02*
X184450000Y-78335000D01*
X173480000Y-72630000D02*
X176084744Y-72630000D01*
X173480000Y-72630000D02*
X172250000Y-73860000D01*
X182380000Y-72630000D02*
X178790000Y-76220000D01*
X178790000Y-76220000D02*
X178790000Y-78530000D01*
X176084744Y-72630000D02*
X176154744Y-72700000D01*
X172250000Y-73860000D02*
X172250000Y-78220000D01*
X184450000Y-78335000D02*
X185245000Y-77540000D01*
X178870000Y-72630000D02*
X182380000Y-72630000D01*
X178830000Y-72670000D02*
X178870000Y-72630000D01*
%TO.N,SEN_VCC*%
X227020000Y-87960000D02*
X218760000Y-79700000D01*
X192470000Y-86300000D02*
X193850000Y-84920000D01*
X187620735Y-88220735D02*
X187686675Y-88220735D01*
X191150000Y-86300000D02*
X192470000Y-86300000D01*
X199917500Y-77047500D02*
X202820000Y-79950000D01*
X187686675Y-88220735D02*
X188450000Y-87457410D01*
X188450000Y-87457410D02*
X188450000Y-87000000D01*
X218760000Y-67960000D02*
X216710000Y-65910000D01*
X206432352Y-109875000D02*
X200627352Y-104070000D01*
X210737500Y-72142500D02*
X204074448Y-72142500D01*
X210737500Y-65910000D02*
X210737500Y-72142500D01*
X216710000Y-65910000D02*
X210737500Y-65910000D01*
X237470000Y-87960000D02*
X227020000Y-87960000D01*
X207000000Y-109875000D02*
X206432352Y-109875000D01*
X204074448Y-72142500D02*
X199917500Y-76299448D01*
X199917500Y-76299448D02*
X199917500Y-77047500D01*
X218760000Y-75820000D02*
X218760000Y-67960000D01*
X192480000Y-88780000D02*
X192480000Y-87630000D01*
X200627352Y-104070000D02*
X199930000Y-104070000D01*
X192480000Y-87630000D02*
X191150000Y-86300000D01*
%TO.N,Net-(SW3-B)*%
X210000000Y-108880000D02*
X210000000Y-109875000D01*
X207780000Y-106660000D02*
X210000000Y-108880000D01*
X188950000Y-87740000D02*
X187470000Y-89220000D01*
X204130000Y-106660000D02*
X207780000Y-106660000D01*
X204120000Y-106650000D02*
X204130000Y-106660000D01*
X188950000Y-87000000D02*
X188950000Y-87740000D01*
%TO.N,Net-(U2-REGOUT)*%
X188955000Y-88625000D02*
X189450000Y-88130000D01*
X188955000Y-91100000D02*
X188955000Y-88625000D01*
X189450000Y-88130000D02*
X189450000Y-87000000D01*
%TO.N,MPU_INT*%
X191540000Y-93240000D02*
X191540000Y-88730000D01*
X167170000Y-79170000D02*
X167170000Y-78220000D01*
X191540000Y-88730000D02*
X190450000Y-87640000D01*
X190450000Y-87640000D02*
X190450000Y-87000000D01*
X188665735Y-93204265D02*
X184080735Y-88619265D01*
X167680000Y-79680000D02*
X167170000Y-79170000D01*
X184080735Y-88619265D02*
X184080735Y-88360735D01*
X175400000Y-79680000D02*
X167680000Y-79680000D01*
X184080735Y-88360735D02*
X175400000Y-79680000D01*
%TO.N,Net-(U2-CPOUT)*%
X189755000Y-78940000D02*
X190640000Y-79825000D01*
X189950000Y-82642590D02*
X189950000Y-83100000D01*
X190640000Y-79825000D02*
X190640000Y-81952590D01*
X190640000Y-81952590D02*
X189950000Y-82642590D01*
%TO.N,SCL*%
X206162500Y-78077500D02*
X206162500Y-78970000D01*
X158280000Y-78220000D02*
X158280000Y-77690000D01*
X188450000Y-81850000D02*
X188450000Y-83100000D01*
X194600000Y-84446304D02*
X193551286Y-83397590D01*
X179711640Y-80320169D02*
X187149831Y-80320169D01*
X158280000Y-77690000D02*
X164140000Y-71830000D01*
X190630000Y-95140000D02*
X194600000Y-91170000D01*
X192610000Y-79021304D02*
X192610000Y-81270000D01*
X190630000Y-95140000D02*
X194060000Y-98570000D01*
X237470000Y-82880000D02*
X225540000Y-82880000D01*
X206162500Y-78970000D02*
X203862500Y-81270000D01*
X176754744Y-77363273D02*
X179711640Y-80320169D01*
X219870000Y-77210000D02*
X207030000Y-77210000D01*
X189305000Y-78165000D02*
X191753696Y-78165000D01*
X192501471Y-81270000D02*
X192610000Y-81270000D01*
X164140000Y-71830000D02*
X176754744Y-71830000D01*
X191753696Y-78165000D02*
X192610000Y-79021304D01*
X194600000Y-91170000D02*
X194600000Y-84446304D01*
X191920000Y-81851471D02*
X192501471Y-81270000D01*
X191920000Y-82348529D02*
X191920000Y-81851471D01*
X187149831Y-80320169D02*
X189305000Y-78165000D01*
X176754744Y-71830000D02*
X176754744Y-77363273D01*
X193551286Y-83397590D02*
X192969061Y-83397590D01*
X192969061Y-83397590D02*
X191920000Y-82348529D01*
X207030000Y-77210000D02*
X206162500Y-78077500D01*
X194060000Y-98570000D02*
X194060000Y-102760000D01*
X203862500Y-81270000D02*
X192610000Y-81270000D01*
X225540000Y-82880000D02*
X219870000Y-77210000D01*
X189940000Y-80360000D02*
X188450000Y-81850000D01*
%TO.N,SDA*%
X189705000Y-92535000D02*
X189045000Y-91875000D01*
X188731301Y-80720169D02*
X178310169Y-80720169D01*
X188205000Y-91035000D02*
X186525000Y-89355000D01*
X205327499Y-82100000D02*
X192520000Y-82100000D01*
X189015735Y-80435735D02*
X187950000Y-81501470D01*
X207432500Y-79994999D02*
X205327499Y-82100000D01*
X219320000Y-77610000D02*
X207767501Y-77610000D01*
X227130000Y-85420000D02*
X219320000Y-77610000D01*
X190545000Y-98300000D02*
X191480000Y-98300000D01*
X207767501Y-77610000D02*
X207432500Y-77945001D01*
X163670000Y-80330000D02*
X175030000Y-80330000D01*
X162090000Y-78750000D02*
X163670000Y-80330000D01*
X240780000Y-85420000D02*
X227130000Y-85420000D01*
X207432500Y-78970000D02*
X207432500Y-79994999D01*
X188506304Y-91875000D02*
X188205000Y-91573696D01*
X190545000Y-98300000D02*
X189705000Y-97460000D01*
X207432500Y-77945001D02*
X207432500Y-78970000D01*
X191480000Y-98300000D02*
X193560000Y-100380000D01*
X189705000Y-97460000D02*
X189705000Y-92535000D01*
X162090000Y-78220000D02*
X162090000Y-78750000D01*
X188205000Y-91573696D02*
X188205000Y-91035000D01*
X189045000Y-91875000D02*
X188506304Y-91875000D01*
X186525000Y-82926470D02*
X189015735Y-80435735D01*
X189015735Y-80435735D02*
X188731301Y-80720169D01*
X187950000Y-81501470D02*
X187950000Y-83100000D01*
X178310169Y-80720169D02*
X176950000Y-79360000D01*
X193560000Y-100380000D02*
X193560000Y-102760000D01*
X186525000Y-89355000D02*
X186525000Y-82926470D01*
%TO.N,VCC*%
X205807499Y-85620000D02*
X204080000Y-85620000D01*
D44*
X199260000Y-113914797D02*
X188830000Y-113897360D01*
D43*
X207980000Y-66860000D02*
X208862500Y-66860000D01*
X199721471Y-103430000D02*
X199260000Y-103891471D01*
X201220000Y-103385000D02*
X201175000Y-103430000D01*
X189409265Y-71725735D02*
X202195735Y-71725735D01*
X201220000Y-99150000D02*
X201220000Y-103385000D01*
X204720000Y-66755000D02*
X208757500Y-66755000D01*
D44*
X156250000Y-108050000D02*
X156970000Y-107330000D01*
D43*
X207432500Y-87245001D02*
X205807499Y-85620000D01*
D44*
X188830000Y-113897360D02*
X161571789Y-113851789D01*
D43*
X188980000Y-98215000D02*
X188895000Y-98300000D01*
X188895000Y-113832360D02*
X188830000Y-113897360D01*
D44*
X234530000Y-68150000D02*
X234170000Y-68510000D01*
D43*
X207050000Y-67790000D02*
X207980000Y-66860000D01*
D44*
X235670000Y-69330000D02*
X243330000Y-69330000D01*
D43*
X201175000Y-99105000D02*
X201220000Y-99150000D01*
X201175000Y-103430000D02*
X200910000Y-103430000D01*
D44*
X157010000Y-104840000D02*
X157010000Y-95720000D01*
D43*
X207432500Y-88270000D02*
X207432500Y-87245001D01*
D44*
X243478724Y-113988724D02*
X199260000Y-113914797D01*
D43*
X200910000Y-103430000D02*
X200880000Y-103400000D01*
X188980000Y-95140000D02*
X188980000Y-98215000D01*
X201175000Y-95430000D02*
X207432500Y-89172500D01*
D44*
X243330000Y-104380000D02*
X243330000Y-113840000D01*
D43*
X237560000Y-104290000D02*
X237650000Y-104380000D01*
D44*
X243330000Y-113840000D02*
X243478724Y-113988724D01*
D43*
X167415000Y-109580000D02*
X167280000Y-109715000D01*
X183595000Y-77540000D02*
X189409265Y-71725735D01*
X201175000Y-95430000D02*
X201175000Y-99105000D01*
X237650000Y-104380000D02*
X243330000Y-104380000D01*
D44*
X161571789Y-113851789D02*
X156785000Y-109065000D01*
D43*
X233862500Y-66570000D02*
X233862500Y-67482500D01*
D44*
X156250000Y-108530000D02*
X156250000Y-108050000D01*
X156970000Y-106060000D02*
X156970000Y-104880000D01*
X166630000Y-109065000D02*
X167280000Y-109715000D01*
D43*
X200880000Y-103400000D02*
X198480000Y-103400000D01*
D44*
X234170000Y-70830000D02*
X235670000Y-69330000D01*
X156970000Y-104880000D02*
X157010000Y-104840000D01*
X243330000Y-69330000D02*
X243330000Y-104380000D01*
X156970000Y-107330000D02*
X156970000Y-106060000D01*
D43*
X233862500Y-67482500D02*
X234530000Y-68150000D01*
D44*
X156785000Y-109065000D02*
X156250000Y-108530000D01*
D43*
X188895000Y-98300000D02*
X188895000Y-113832360D01*
X208757500Y-66755000D02*
X208862500Y-66860000D01*
D44*
X234170000Y-68510000D02*
X234170000Y-70830000D01*
D43*
X207432500Y-89172500D02*
X207432500Y-88270000D01*
X199260000Y-103891471D02*
X199260000Y-113914797D01*
X201175000Y-103430000D02*
X199721471Y-103430000D01*
D44*
X156785000Y-109065000D02*
X166630000Y-109065000D01*
D43*
X167415000Y-106080000D02*
X167415000Y-109580000D01*
%TO.N,INT{slash}SQW*%
X202020000Y-102625000D02*
X202020000Y-97380000D01*
X208702500Y-89877500D02*
X208702500Y-88270000D01*
X202020000Y-97380000D02*
X205970000Y-93430000D01*
X205970000Y-92610000D02*
X208702500Y-89877500D01*
X202825000Y-103430000D02*
X202020000Y-102625000D01*
X171510000Y-79280000D02*
X170980000Y-78750000D01*
X187605000Y-91295000D02*
X175590000Y-79280000D01*
X170980000Y-78750000D02*
X170980000Y-78220000D01*
X205970000Y-93430000D02*
X205970000Y-92610000D01*
X187605000Y-91295003D02*
X187605000Y-91295000D01*
X175590000Y-79280000D02*
X171510000Y-79280000D01*
%TO.N,Net-(BT1-+)*%
D44*
X208620000Y-79052500D02*
X208702500Y-78970000D01*
X208620000Y-82590000D02*
X208620000Y-79052500D01*
%TO.N,GPIO27*%
D43*
X167070000Y-93650000D02*
X168810000Y-93650000D01*
X170280000Y-106820000D02*
X170300000Y-106800000D01*
X202915000Y-68700000D02*
X202855000Y-68640000D01*
X169710000Y-94550000D02*
X169710000Y-95720000D01*
X202855000Y-68640000D02*
X191051321Y-68640000D01*
X169710000Y-99770000D02*
X169710000Y-95720000D01*
X168810000Y-93650000D02*
X169710000Y-94550000D01*
X170280000Y-109715000D02*
X170280000Y-106820000D01*
X191051321Y-68640000D02*
X179971152Y-79720169D01*
X170220000Y-100280000D02*
X169710000Y-99770000D01*
%TO.N,Vin*%
X192865000Y-112875000D02*
X195540000Y-112875000D01*
X197150000Y-112815000D02*
X198437648Y-112815000D01*
X197780000Y-86870000D02*
X199380000Y-85270000D01*
X199080000Y-80010000D02*
X199080000Y-77590000D01*
X227510000Y-65310000D02*
X227750000Y-65070000D01*
X226135000Y-65495000D02*
X227580000Y-65495000D01*
X198437648Y-112815000D02*
X198725000Y-112527648D01*
X233562500Y-64270000D02*
X233862500Y-64570000D01*
X198725000Y-104832648D02*
X197780000Y-103887648D01*
X196375000Y-112040000D02*
X197150000Y-112815000D01*
X231437500Y-64570000D02*
X231437500Y-65070000D01*
X199350000Y-80280000D02*
X199080000Y-80010000D01*
X216280000Y-75390000D02*
X217610000Y-74060000D01*
X231437500Y-64570000D02*
X231737500Y-64270000D01*
X231737500Y-64270000D02*
X233562500Y-64270000D01*
X192090000Y-112100000D02*
X192865000Y-112875000D01*
X195540000Y-112875000D02*
X196375000Y-112040000D01*
X203020000Y-75390000D02*
X216280000Y-75390000D01*
X198725000Y-112527648D02*
X198725000Y-104832648D01*
X219970000Y-71660000D02*
X226135000Y-65495000D01*
X201290000Y-79800000D02*
X201370000Y-79800000D01*
X199080000Y-77590000D02*
X201290000Y-79800000D01*
X197780000Y-103887648D02*
X197780000Y-86870000D01*
X227750000Y-65070000D02*
X231437500Y-65070000D01*
%TO.N,3.7V*%
X225490000Y-81820000D02*
X220315000Y-76645000D01*
X220315000Y-76645000D02*
X220320000Y-76640000D01*
X220320000Y-76640000D02*
X200955000Y-76640000D01*
X233105000Y-81820000D02*
X225490000Y-81820000D01*
X238565000Y-76360000D02*
X233105000Y-81820000D01*
%TO.N,Net-(J5-Pin_2)*%
X231705000Y-78970000D02*
X237315000Y-73360000D01*
X237315000Y-73360000D02*
X238565000Y-73360000D01*
%TO.N,ALRT*%
X194660000Y-101030000D02*
X195060000Y-101430000D01*
X177260000Y-91410000D02*
X173500000Y-91410000D01*
X196830000Y-103400000D02*
X195700000Y-103400000D01*
X195060000Y-101430000D02*
X195060000Y-102760000D01*
X195700000Y-103400000D02*
X195060000Y-102760000D01*
X195060000Y-102760000D02*
X195510000Y-103210000D01*
X188050000Y-101030000D02*
X186880000Y-101030000D01*
X186880000Y-101030000D02*
X177260000Y-91410000D01*
%TO.N,RX*%
X162180000Y-74640000D02*
X159550000Y-77270000D01*
X242335000Y-89700000D02*
X218270000Y-89700000D01*
X237560000Y-99210000D02*
X242335000Y-94435000D01*
X159550000Y-77270000D02*
X159550000Y-78220000D01*
X218270000Y-89700000D02*
X213020000Y-84450000D01*
X171530000Y-74640000D02*
X162180000Y-74640000D01*
X242335000Y-94435000D02*
X242335000Y-89700000D01*
X213020000Y-84450000D02*
X198020000Y-84450000D01*
%TO.N,TX*%
X242735000Y-99885000D02*
X242735000Y-89534315D01*
X212791007Y-83655321D02*
X197927863Y-83655321D01*
X242735000Y-89534315D02*
X242500685Y-89300000D01*
X242500685Y-89300000D02*
X218435686Y-89300000D01*
X171500000Y-75510000D02*
X162580000Y-75510000D01*
X218435686Y-89300000D02*
X212791007Y-83655321D01*
X162580000Y-75510000D02*
X160820000Y-77270000D01*
X160820000Y-77270000D02*
X160820000Y-78220000D01*
X240870000Y-101750000D02*
X242735000Y-99885000D01*
%TO.N,Net-(U5-CELL)*%
X193950000Y-108320000D02*
X193950000Y-111890000D01*
X194060000Y-108210000D02*
X193950000Y-108320000D01*
X194060000Y-105760000D02*
X194060000Y-108210000D01*
X193950000Y-111890000D02*
X193740000Y-112100000D01*
%TO.N,EN*%
X169050000Y-106065000D02*
X169065000Y-106080000D01*
X158280000Y-96180000D02*
X158280000Y-95720000D01*
X169050000Y-103155000D02*
X169050000Y-103230000D01*
X164560000Y-102460000D02*
X158280000Y-96180000D01*
X173400000Y-105410000D02*
X182300000Y-105410000D01*
X169050000Y-103155000D02*
X166395000Y-103155000D01*
X168865000Y-103155000D02*
X168790000Y-103230000D01*
X169065000Y-106080000D02*
X172730000Y-106080000D01*
X169050000Y-103155000D02*
X169050000Y-106065000D01*
X172730000Y-106080000D02*
X173400000Y-105410000D01*
X169050000Y-103155000D02*
X168865000Y-103155000D01*
X166395000Y-103155000D02*
X166359265Y-103119265D01*
X165040000Y-102460000D02*
X164560000Y-102460000D01*
%TO.N,GPIO25*%
X193455000Y-65105000D02*
X179400000Y-79160000D01*
X208717500Y-65105000D02*
X208862500Y-64960000D01*
X165780000Y-94170000D02*
X166570000Y-94170000D01*
X167170000Y-94770000D02*
X167170000Y-95720000D01*
X204720000Y-65105000D02*
X193455000Y-65105000D01*
X204720000Y-65105000D02*
X208717500Y-65105000D01*
X166570000Y-94170000D02*
X167170000Y-94770000D01*
%TO.N,Net-(U5-VDD)*%
X198025000Y-110820000D02*
X195525000Y-108320000D01*
X195525000Y-108320000D02*
X194560000Y-107355000D01*
X198025000Y-112040000D02*
X198025000Y-110820000D01*
X194560000Y-107355000D02*
X194560000Y-105760000D01*
%TO.N,Net-(J2-Pin_2)*%
X250805000Y-82891830D02*
X254641830Y-82891830D01*
X259980000Y-88230000D02*
X259980000Y-89511830D01*
X254641830Y-82891830D02*
X259980000Y-88230000D01*
%TO.N,Net-(J2-Pin_3)*%
X254115000Y-85431830D02*
X255900000Y-85431830D01*
X255900000Y-85431830D02*
X257440000Y-86971830D01*
%TO.N,Net-(J2-Pin_4)*%
X250805000Y-89556830D02*
X250805000Y-87971830D01*
X257485000Y-91441830D02*
X252690000Y-91441830D01*
X259483696Y-92216830D02*
X263620000Y-88080526D01*
X263620000Y-86599038D02*
X261452792Y-84431830D01*
X261452792Y-84431830D02*
X259980000Y-84431830D01*
X257485000Y-91441830D02*
X258260000Y-92216830D01*
X263620000Y-88080526D02*
X263620000Y-86599038D01*
X252690000Y-91441830D02*
X250805000Y-89556830D01*
X258260000Y-92216830D02*
X259483696Y-92216830D01*
%TO.N,Net-(J2-Pin_1)*%
X262520000Y-88406830D02*
X262520000Y-86971830D01*
X259035000Y-91441830D02*
X259485000Y-91441830D01*
X254115000Y-90511830D02*
X258105000Y-90511830D01*
X259485000Y-91441830D02*
X262520000Y-88406830D01*
X258105000Y-90511830D02*
X259035000Y-91441830D01*
%TO.N,Net-(U4-CFG1)*%
X226805000Y-66546304D02*
X227106304Y-66245000D01*
X226805000Y-70670000D02*
X226805000Y-66546304D01*
X228053696Y-66245000D02*
X228728696Y-65570000D01*
X226825000Y-70690000D02*
X226805000Y-70670000D01*
X227106304Y-66245000D02*
X228053696Y-66245000D01*
X228728696Y-65570000D02*
X231437500Y-65570000D01*
%TO.N,Net-(U4-LX2)*%
X234820000Y-66070000D02*
X235150000Y-66400000D01*
D45*
X235150000Y-66400000D02*
X235695000Y-66945000D01*
X235695000Y-66945000D02*
X238020000Y-66945000D01*
D43*
X233862500Y-66070000D02*
X234820000Y-66070000D01*
%TO.N,Net-(U4-LX1)*%
D45*
X234870000Y-64930000D02*
X235005000Y-64795000D01*
D43*
X234730000Y-65070000D02*
X234870000Y-64930000D01*
X233862500Y-65070000D02*
X234730000Y-65070000D01*
D45*
X235005000Y-64795000D02*
X238020000Y-64795000D01*
%TD*%
M02*
