%TF.GenerationSoftware,KiCad,Pcbnew,10.0.3*%
%TF.CreationDate,2026-08-31T11:55:46+03:00*%
%TF.ProjectId,CV-collar,43562d63-6f6c-46c6-9172-2e6b69636164,rev?*%
%TF.SameCoordinates,Original*%
%TF.FileFunction,Legend,Top*%
%TF.FilePolarity,Positive*%
%FSLAX46Y46*%
G04 Gerber Fmt 4.6, Leading zero omitted, Abs format (unit mm)*
G04 Created by KiCad (PCBNEW 10.0.3) date 2026-08-31 11:55:46*
%MOMM*%
%LPD*%
G01*
G04 APERTURE LIST*
G04 Aperture macros list*
%AMRoundRect*
0 Rectangle with rounded corners*
0 $1 Rounding radius*
0 $2 $3 $4 $5 $6 $7 $8 $9 X,Y pos of 4 corners*
0 Add a 4 corners polygon primitive as box body*
4,1,4,$2,$3,$4,$5,$6,$7,$8,$9,$2,$3,0*
0 Add four circle primitives for the rounded corners*
1,1,$1+$1,$2,$3*
1,1,$1+$1,$4,$5*
1,1,$1+$1,$6,$7*
1,1,$1+$1,$8,$9*
0 Add four rect primitives between the rounded corners*
20,1,$1+$1,$2,$3,$4,$5,0*
20,1,$1+$1,$4,$5,$6,$7,0*
20,1,$1+$1,$6,$7,$8,$9,0*
20,1,$1+$1,$8,$9,$2,$3,0*%
G04 Aperture macros list end*
%ADD10C,0.100000*%
%ADD11C,0.150000*%
%ADD12C,0.120000*%
%ADD13C,0.254001*%
%ADD14C,0.060000*%
%ADD15RoundRect,0.087500X-0.225000X-0.087500X0.225000X-0.087500X0.225000X0.087500X-0.225000X0.087500X0*%
%ADD16RoundRect,0.087500X-0.087500X-0.225000X0.087500X-0.225000X0.087500X0.225000X-0.087500X0.225000X0*%
%ADD17RoundRect,0.250000X-1.300000X-0.250000X1.300000X-0.250000X1.300000X0.250000X-1.300000X0.250000X0*%
%ADD18RoundRect,0.150000X0.150000X-0.825000X0.150000X0.825000X-0.150000X0.825000X-0.150000X-0.825000X0*%
%ADD19RoundRect,0.200000X0.200000X0.275000X-0.200000X0.275000X-0.200000X-0.275000X0.200000X-0.275000X0*%
%ADD20RoundRect,0.250000X-0.325000X-0.650000X0.325000X-0.650000X0.325000X0.650000X-0.325000X0.650000X0*%
%ADD21R,1.700000X1.700000*%
%ADD22C,1.700000*%
%ADD23RoundRect,0.225000X0.250000X-0.225000X0.250000X0.225000X-0.250000X0.225000X-0.250000X-0.225000X0*%
%ADD24RoundRect,0.200000X-0.200000X-0.275000X0.200000X-0.275000X0.200000X0.275000X-0.200000X0.275000X0*%
%ADD25RoundRect,0.225000X-0.225000X-0.250000X0.225000X-0.250000X0.225000X0.250000X-0.225000X0.250000X0*%
%ADD26C,0.500000*%
%ADD27RoundRect,0.250000X1.500000X0.550000X-1.500000X0.550000X-1.500000X-0.550000X1.500000X-0.550000X0*%
%ADD28RoundRect,0.150000X-0.587500X-0.150000X0.587500X-0.150000X0.587500X0.150000X-0.587500X0.150000X0*%
%ADD29RoundRect,0.200000X-0.275000X0.200000X-0.275000X-0.200000X0.275000X-0.200000X0.275000X0.200000X0*%
%ADD30R,0.300000X0.250013*%
%ADD31R,2.000000X2.400000*%
%ADD32R,0.900000X1.500000*%
%ADD33R,1.500000X0.900000*%
%ADD34C,0.600000*%
%ADD35R,4.200000X4.200000*%
%ADD36R,2.600000X3.600000*%
%ADD37RoundRect,0.200000X0.275000X-0.200000X0.275000X0.200000X-0.275000X0.200000X-0.275000X-0.200000X0*%
%ADD38RoundRect,0.225000X-0.250000X0.225000X-0.250000X-0.225000X0.250000X-0.225000X0.250000X0.225000X0*%
%ADD39R,0.300000X0.750000*%
%ADD40R,1.500000X1.500000*%
%ADD41RoundRect,0.250000X0.850000X-0.375000X0.850000X0.375000X-0.850000X0.375000X-0.850000X-0.375000X0*%
%ADD42RoundRect,0.062500X-0.350000X-0.062500X0.350000X-0.062500X0.350000X0.062500X-0.350000X0.062500X0*%
%ADD43R,1.200000X2.000000*%
%ADD44RoundRect,0.150000X0.150000X-0.587500X0.150000X0.587500X-0.150000X0.587500X-0.150000X-0.587500X0*%
G04 APERTURE END LIST*
D10*
X238961466Y-73946115D02*
X238961466Y-73184211D01*
X238981466Y-76796115D02*
X238981466Y-76034211D01*
X239362419Y-76415163D02*
X238600514Y-76415163D01*
D11*
X206725595Y-82024819D02*
X206725595Y-82834342D01*
X206725595Y-82834342D02*
X206773214Y-82929580D01*
X206773214Y-82929580D02*
X206820833Y-82977200D01*
X206820833Y-82977200D02*
X206916071Y-83024819D01*
X206916071Y-83024819D02*
X207106547Y-83024819D01*
X207106547Y-83024819D02*
X207201785Y-82977200D01*
X207201785Y-82977200D02*
X207249404Y-82929580D01*
X207249404Y-82929580D02*
X207297023Y-82834342D01*
X207297023Y-82834342D02*
X207297023Y-82024819D01*
X207677976Y-82024819D02*
X208344642Y-82024819D01*
X208344642Y-82024819D02*
X207916071Y-83024819D01*
X180856667Y-75577200D02*
X180999524Y-75624819D01*
X180999524Y-75624819D02*
X181237619Y-75624819D01*
X181237619Y-75624819D02*
X181332857Y-75577200D01*
X181332857Y-75577200D02*
X181380476Y-75529580D01*
X181380476Y-75529580D02*
X181428095Y-75434342D01*
X181428095Y-75434342D02*
X181428095Y-75339104D01*
X181428095Y-75339104D02*
X181380476Y-75243866D01*
X181380476Y-75243866D02*
X181332857Y-75196247D01*
X181332857Y-75196247D02*
X181237619Y-75148628D01*
X181237619Y-75148628D02*
X181047143Y-75101009D01*
X181047143Y-75101009D02*
X180951905Y-75053390D01*
X180951905Y-75053390D02*
X180904286Y-75005771D01*
X180904286Y-75005771D02*
X180856667Y-74910533D01*
X180856667Y-74910533D02*
X180856667Y-74815295D01*
X180856667Y-74815295D02*
X180904286Y-74720057D01*
X180904286Y-74720057D02*
X180951905Y-74672438D01*
X180951905Y-74672438D02*
X181047143Y-74624819D01*
X181047143Y-74624819D02*
X181285238Y-74624819D01*
X181285238Y-74624819D02*
X181428095Y-74672438D01*
X181761429Y-74624819D02*
X181999524Y-75624819D01*
X181999524Y-75624819D02*
X182190000Y-74910533D01*
X182190000Y-74910533D02*
X182380476Y-75624819D01*
X182380476Y-75624819D02*
X182618572Y-74624819D01*
X183523333Y-75624819D02*
X182951905Y-75624819D01*
X183237619Y-75624819D02*
X183237619Y-74624819D01*
X183237619Y-74624819D02*
X183142381Y-74767676D01*
X183142381Y-74767676D02*
X183047143Y-74862914D01*
X183047143Y-74862914D02*
X182951905Y-74910533D01*
X184464819Y-84821904D02*
X185274342Y-84821904D01*
X185274342Y-84821904D02*
X185369580Y-84774285D01*
X185369580Y-84774285D02*
X185417200Y-84726666D01*
X185417200Y-84726666D02*
X185464819Y-84631428D01*
X185464819Y-84631428D02*
X185464819Y-84440952D01*
X185464819Y-84440952D02*
X185417200Y-84345714D01*
X185417200Y-84345714D02*
X185369580Y-84298095D01*
X185369580Y-84298095D02*
X185274342Y-84250476D01*
X185274342Y-84250476D02*
X184464819Y-84250476D01*
X184464819Y-83869523D02*
X184464819Y-83250476D01*
X184464819Y-83250476D02*
X184845771Y-83583809D01*
X184845771Y-83583809D02*
X184845771Y-83440952D01*
X184845771Y-83440952D02*
X184893390Y-83345714D01*
X184893390Y-83345714D02*
X184941009Y-83298095D01*
X184941009Y-83298095D02*
X185036247Y-83250476D01*
X185036247Y-83250476D02*
X185274342Y-83250476D01*
X185274342Y-83250476D02*
X185369580Y-83298095D01*
X185369580Y-83298095D02*
X185417200Y-83345714D01*
X185417200Y-83345714D02*
X185464819Y-83440952D01*
X185464819Y-83440952D02*
X185464819Y-83726666D01*
X185464819Y-83726666D02*
X185417200Y-83821904D01*
X185417200Y-83821904D02*
X185369580Y-83869523D01*
X169498333Y-103894819D02*
X169165000Y-103418628D01*
X168926905Y-103894819D02*
X168926905Y-102894819D01*
X168926905Y-102894819D02*
X169307857Y-102894819D01*
X169307857Y-102894819D02*
X169403095Y-102942438D01*
X169403095Y-102942438D02*
X169450714Y-102990057D01*
X169450714Y-102990057D02*
X169498333Y-103085295D01*
X169498333Y-103085295D02*
X169498333Y-103228152D01*
X169498333Y-103228152D02*
X169450714Y-103323390D01*
X169450714Y-103323390D02*
X169403095Y-103371009D01*
X169403095Y-103371009D02*
X169307857Y-103418628D01*
X169307857Y-103418628D02*
X168926905Y-103418628D01*
X170355476Y-102894819D02*
X170165000Y-102894819D01*
X170165000Y-102894819D02*
X170069762Y-102942438D01*
X170069762Y-102942438D02*
X170022143Y-102990057D01*
X170022143Y-102990057D02*
X169926905Y-103132914D01*
X169926905Y-103132914D02*
X169879286Y-103323390D01*
X169879286Y-103323390D02*
X169879286Y-103704342D01*
X169879286Y-103704342D02*
X169926905Y-103799580D01*
X169926905Y-103799580D02*
X169974524Y-103847200D01*
X169974524Y-103847200D02*
X170069762Y-103894819D01*
X170069762Y-103894819D02*
X170260238Y-103894819D01*
X170260238Y-103894819D02*
X170355476Y-103847200D01*
X170355476Y-103847200D02*
X170403095Y-103799580D01*
X170403095Y-103799580D02*
X170450714Y-103704342D01*
X170450714Y-103704342D02*
X170450714Y-103466247D01*
X170450714Y-103466247D02*
X170403095Y-103371009D01*
X170403095Y-103371009D02*
X170355476Y-103323390D01*
X170355476Y-103323390D02*
X170260238Y-103275771D01*
X170260238Y-103275771D02*
X170069762Y-103275771D01*
X170069762Y-103275771D02*
X169974524Y-103323390D01*
X169974524Y-103323390D02*
X169926905Y-103371009D01*
X169926905Y-103371009D02*
X169879286Y-103466247D01*
X232508333Y-67459580D02*
X232460714Y-67507200D01*
X232460714Y-67507200D02*
X232317857Y-67554819D01*
X232317857Y-67554819D02*
X232222619Y-67554819D01*
X232222619Y-67554819D02*
X232079762Y-67507200D01*
X232079762Y-67507200D02*
X231984524Y-67411961D01*
X231984524Y-67411961D02*
X231936905Y-67316723D01*
X231936905Y-67316723D02*
X231889286Y-67126247D01*
X231889286Y-67126247D02*
X231889286Y-66983390D01*
X231889286Y-66983390D02*
X231936905Y-66792914D01*
X231936905Y-66792914D02*
X231984524Y-66697676D01*
X231984524Y-66697676D02*
X232079762Y-66602438D01*
X232079762Y-66602438D02*
X232222619Y-66554819D01*
X232222619Y-66554819D02*
X232317857Y-66554819D01*
X232317857Y-66554819D02*
X232460714Y-66602438D01*
X232460714Y-66602438D02*
X232508333Y-66650057D01*
X232984524Y-67554819D02*
X233175000Y-67554819D01*
X233175000Y-67554819D02*
X233270238Y-67507200D01*
X233270238Y-67507200D02*
X233317857Y-67459580D01*
X233317857Y-67459580D02*
X233413095Y-67316723D01*
X233413095Y-67316723D02*
X233460714Y-67126247D01*
X233460714Y-67126247D02*
X233460714Y-66745295D01*
X233460714Y-66745295D02*
X233413095Y-66650057D01*
X233413095Y-66650057D02*
X233365476Y-66602438D01*
X233365476Y-66602438D02*
X233270238Y-66554819D01*
X233270238Y-66554819D02*
X233079762Y-66554819D01*
X233079762Y-66554819D02*
X232984524Y-66602438D01*
X232984524Y-66602438D02*
X232936905Y-66650057D01*
X232936905Y-66650057D02*
X232889286Y-66745295D01*
X232889286Y-66745295D02*
X232889286Y-66983390D01*
X232889286Y-66983390D02*
X232936905Y-67078628D01*
X232936905Y-67078628D02*
X232984524Y-67126247D01*
X232984524Y-67126247D02*
X233079762Y-67173866D01*
X233079762Y-67173866D02*
X233270238Y-67173866D01*
X233270238Y-67173866D02*
X233365476Y-67126247D01*
X233365476Y-67126247D02*
X233413095Y-67078628D01*
X233413095Y-67078628D02*
X233460714Y-66983390D01*
X236496666Y-71079819D02*
X236496666Y-71794104D01*
X236496666Y-71794104D02*
X236449047Y-71936961D01*
X236449047Y-71936961D02*
X236353809Y-72032200D01*
X236353809Y-72032200D02*
X236210952Y-72079819D01*
X236210952Y-72079819D02*
X236115714Y-72079819D01*
X237401428Y-71413152D02*
X237401428Y-72079819D01*
X237163333Y-71032200D02*
X236925238Y-71746485D01*
X236925238Y-71746485D02*
X237544285Y-71746485D01*
X226489580Y-64556666D02*
X226537200Y-64604285D01*
X226537200Y-64604285D02*
X226584819Y-64747142D01*
X226584819Y-64747142D02*
X226584819Y-64842380D01*
X226584819Y-64842380D02*
X226537200Y-64985237D01*
X226537200Y-64985237D02*
X226441961Y-65080475D01*
X226441961Y-65080475D02*
X226346723Y-65128094D01*
X226346723Y-65128094D02*
X226156247Y-65175713D01*
X226156247Y-65175713D02*
X226013390Y-65175713D01*
X226013390Y-65175713D02*
X225822914Y-65128094D01*
X225822914Y-65128094D02*
X225727676Y-65080475D01*
X225727676Y-65080475D02*
X225632438Y-64985237D01*
X225632438Y-64985237D02*
X225584819Y-64842380D01*
X225584819Y-64842380D02*
X225584819Y-64747142D01*
X225584819Y-64747142D02*
X225632438Y-64604285D01*
X225632438Y-64604285D02*
X225680057Y-64556666D01*
X226013390Y-63985237D02*
X225965771Y-64080475D01*
X225965771Y-64080475D02*
X225918152Y-64128094D01*
X225918152Y-64128094D02*
X225822914Y-64175713D01*
X225822914Y-64175713D02*
X225775295Y-64175713D01*
X225775295Y-64175713D02*
X225680057Y-64128094D01*
X225680057Y-64128094D02*
X225632438Y-64080475D01*
X225632438Y-64080475D02*
X225584819Y-63985237D01*
X225584819Y-63985237D02*
X225584819Y-63794761D01*
X225584819Y-63794761D02*
X225632438Y-63699523D01*
X225632438Y-63699523D02*
X225680057Y-63651904D01*
X225680057Y-63651904D02*
X225775295Y-63604285D01*
X225775295Y-63604285D02*
X225822914Y-63604285D01*
X225822914Y-63604285D02*
X225918152Y-63651904D01*
X225918152Y-63651904D02*
X225965771Y-63699523D01*
X225965771Y-63699523D02*
X226013390Y-63794761D01*
X226013390Y-63794761D02*
X226013390Y-63985237D01*
X226013390Y-63985237D02*
X226061009Y-64080475D01*
X226061009Y-64080475D02*
X226108628Y-64128094D01*
X226108628Y-64128094D02*
X226203866Y-64175713D01*
X226203866Y-64175713D02*
X226394342Y-64175713D01*
X226394342Y-64175713D02*
X226489580Y-64128094D01*
X226489580Y-64128094D02*
X226537200Y-64080475D01*
X226537200Y-64080475D02*
X226584819Y-63985237D01*
X226584819Y-63985237D02*
X226584819Y-63794761D01*
X226584819Y-63794761D02*
X226537200Y-63699523D01*
X226537200Y-63699523D02*
X226489580Y-63651904D01*
X226489580Y-63651904D02*
X226394342Y-63604285D01*
X226394342Y-63604285D02*
X226203866Y-63604285D01*
X226203866Y-63604285D02*
X226108628Y-63651904D01*
X226108628Y-63651904D02*
X226061009Y-63699523D01*
X226061009Y-63699523D02*
X226013390Y-63794761D01*
X195587142Y-84524819D02*
X195253809Y-84048628D01*
X195015714Y-84524819D02*
X195015714Y-83524819D01*
X195015714Y-83524819D02*
X195396666Y-83524819D01*
X195396666Y-83524819D02*
X195491904Y-83572438D01*
X195491904Y-83572438D02*
X195539523Y-83620057D01*
X195539523Y-83620057D02*
X195587142Y-83715295D01*
X195587142Y-83715295D02*
X195587142Y-83858152D01*
X195587142Y-83858152D02*
X195539523Y-83953390D01*
X195539523Y-83953390D02*
X195491904Y-84001009D01*
X195491904Y-84001009D02*
X195396666Y-84048628D01*
X195396666Y-84048628D02*
X195015714Y-84048628D01*
X196539523Y-84524819D02*
X195968095Y-84524819D01*
X196253809Y-84524819D02*
X196253809Y-83524819D01*
X196253809Y-83524819D02*
X196158571Y-83667676D01*
X196158571Y-83667676D02*
X196063333Y-83762914D01*
X196063333Y-83762914D02*
X195968095Y-83810533D01*
X196872857Y-83524819D02*
X197491904Y-83524819D01*
X197491904Y-83524819D02*
X197158571Y-83905771D01*
X197158571Y-83905771D02*
X197301428Y-83905771D01*
X197301428Y-83905771D02*
X197396666Y-83953390D01*
X197396666Y-83953390D02*
X197444285Y-84001009D01*
X197444285Y-84001009D02*
X197491904Y-84096247D01*
X197491904Y-84096247D02*
X197491904Y-84334342D01*
X197491904Y-84334342D02*
X197444285Y-84429580D01*
X197444285Y-84429580D02*
X197396666Y-84477200D01*
X197396666Y-84477200D02*
X197301428Y-84524819D01*
X197301428Y-84524819D02*
X197015714Y-84524819D01*
X197015714Y-84524819D02*
X196920476Y-84477200D01*
X196920476Y-84477200D02*
X196872857Y-84429580D01*
X184529580Y-89481666D02*
X184577200Y-89529285D01*
X184577200Y-89529285D02*
X184624819Y-89672142D01*
X184624819Y-89672142D02*
X184624819Y-89767380D01*
X184624819Y-89767380D02*
X184577200Y-89910237D01*
X184577200Y-89910237D02*
X184481961Y-90005475D01*
X184481961Y-90005475D02*
X184386723Y-90053094D01*
X184386723Y-90053094D02*
X184196247Y-90100713D01*
X184196247Y-90100713D02*
X184053390Y-90100713D01*
X184053390Y-90100713D02*
X183862914Y-90053094D01*
X183862914Y-90053094D02*
X183767676Y-90005475D01*
X183767676Y-90005475D02*
X183672438Y-89910237D01*
X183672438Y-89910237D02*
X183624819Y-89767380D01*
X183624819Y-89767380D02*
X183624819Y-89672142D01*
X183624819Y-89672142D02*
X183672438Y-89529285D01*
X183672438Y-89529285D02*
X183720057Y-89481666D01*
X184624819Y-88529285D02*
X184624819Y-89100713D01*
X184624819Y-88814999D02*
X183624819Y-88814999D01*
X183624819Y-88814999D02*
X183767676Y-88910237D01*
X183767676Y-88910237D02*
X183862914Y-89005475D01*
X183862914Y-89005475D02*
X183910533Y-89100713D01*
X172326666Y-62484819D02*
X172326666Y-63199104D01*
X172326666Y-63199104D02*
X172279047Y-63341961D01*
X172279047Y-63341961D02*
X172183809Y-63437200D01*
X172183809Y-63437200D02*
X172040952Y-63484819D01*
X172040952Y-63484819D02*
X171945714Y-63484819D01*
X172707619Y-62484819D02*
X173326666Y-62484819D01*
X173326666Y-62484819D02*
X172993333Y-62865771D01*
X172993333Y-62865771D02*
X173136190Y-62865771D01*
X173136190Y-62865771D02*
X173231428Y-62913390D01*
X173231428Y-62913390D02*
X173279047Y-62961009D01*
X173279047Y-62961009D02*
X173326666Y-63056247D01*
X173326666Y-63056247D02*
X173326666Y-63294342D01*
X173326666Y-63294342D02*
X173279047Y-63389580D01*
X173279047Y-63389580D02*
X173231428Y-63437200D01*
X173231428Y-63437200D02*
X173136190Y-63484819D01*
X173136190Y-63484819D02*
X172850476Y-63484819D01*
X172850476Y-63484819D02*
X172755238Y-63437200D01*
X172755238Y-63437200D02*
X172707619Y-63389580D01*
X188263333Y-89124819D02*
X187930000Y-88648628D01*
X187691905Y-89124819D02*
X187691905Y-88124819D01*
X187691905Y-88124819D02*
X188072857Y-88124819D01*
X188072857Y-88124819D02*
X188168095Y-88172438D01*
X188168095Y-88172438D02*
X188215714Y-88220057D01*
X188215714Y-88220057D02*
X188263333Y-88315295D01*
X188263333Y-88315295D02*
X188263333Y-88458152D01*
X188263333Y-88458152D02*
X188215714Y-88553390D01*
X188215714Y-88553390D02*
X188168095Y-88601009D01*
X188168095Y-88601009D02*
X188072857Y-88648628D01*
X188072857Y-88648628D02*
X187691905Y-88648628D01*
X188596667Y-88124819D02*
X189215714Y-88124819D01*
X189215714Y-88124819D02*
X188882381Y-88505771D01*
X188882381Y-88505771D02*
X189025238Y-88505771D01*
X189025238Y-88505771D02*
X189120476Y-88553390D01*
X189120476Y-88553390D02*
X189168095Y-88601009D01*
X189168095Y-88601009D02*
X189215714Y-88696247D01*
X189215714Y-88696247D02*
X189215714Y-88934342D01*
X189215714Y-88934342D02*
X189168095Y-89029580D01*
X189168095Y-89029580D02*
X189120476Y-89077200D01*
X189120476Y-89077200D02*
X189025238Y-89124819D01*
X189025238Y-89124819D02*
X188739524Y-89124819D01*
X188739524Y-89124819D02*
X188644286Y-89077200D01*
X188644286Y-89077200D02*
X188596667Y-89029580D01*
X197202142Y-88339580D02*
X197154523Y-88387200D01*
X197154523Y-88387200D02*
X197011666Y-88434819D01*
X197011666Y-88434819D02*
X196916428Y-88434819D01*
X196916428Y-88434819D02*
X196773571Y-88387200D01*
X196773571Y-88387200D02*
X196678333Y-88291961D01*
X196678333Y-88291961D02*
X196630714Y-88196723D01*
X196630714Y-88196723D02*
X196583095Y-88006247D01*
X196583095Y-88006247D02*
X196583095Y-87863390D01*
X196583095Y-87863390D02*
X196630714Y-87672914D01*
X196630714Y-87672914D02*
X196678333Y-87577676D01*
X196678333Y-87577676D02*
X196773571Y-87482438D01*
X196773571Y-87482438D02*
X196916428Y-87434819D01*
X196916428Y-87434819D02*
X197011666Y-87434819D01*
X197011666Y-87434819D02*
X197154523Y-87482438D01*
X197154523Y-87482438D02*
X197202142Y-87530057D01*
X198154523Y-88434819D02*
X197583095Y-88434819D01*
X197868809Y-88434819D02*
X197868809Y-87434819D01*
X197868809Y-87434819D02*
X197773571Y-87577676D01*
X197773571Y-87577676D02*
X197678333Y-87672914D01*
X197678333Y-87672914D02*
X197583095Y-87720533D01*
X199106904Y-88434819D02*
X198535476Y-88434819D01*
X198821190Y-88434819D02*
X198821190Y-87434819D01*
X198821190Y-87434819D02*
X198725952Y-87577676D01*
X198725952Y-87577676D02*
X198630714Y-87672914D01*
X198630714Y-87672914D02*
X198535476Y-87720533D01*
X163387142Y-111069580D02*
X163339523Y-111117200D01*
X163339523Y-111117200D02*
X163196666Y-111164819D01*
X163196666Y-111164819D02*
X163101428Y-111164819D01*
X163101428Y-111164819D02*
X162958571Y-111117200D01*
X162958571Y-111117200D02*
X162863333Y-111021961D01*
X162863333Y-111021961D02*
X162815714Y-110926723D01*
X162815714Y-110926723D02*
X162768095Y-110736247D01*
X162768095Y-110736247D02*
X162768095Y-110593390D01*
X162768095Y-110593390D02*
X162815714Y-110402914D01*
X162815714Y-110402914D02*
X162863333Y-110307676D01*
X162863333Y-110307676D02*
X162958571Y-110212438D01*
X162958571Y-110212438D02*
X163101428Y-110164819D01*
X163101428Y-110164819D02*
X163196666Y-110164819D01*
X163196666Y-110164819D02*
X163339523Y-110212438D01*
X163339523Y-110212438D02*
X163387142Y-110260057D01*
X164339523Y-111164819D02*
X163768095Y-111164819D01*
X164053809Y-111164819D02*
X164053809Y-110164819D01*
X164053809Y-110164819D02*
X163958571Y-110307676D01*
X163958571Y-110307676D02*
X163863333Y-110402914D01*
X163863333Y-110402914D02*
X163768095Y-110450533D01*
X164958571Y-110164819D02*
X165053809Y-110164819D01*
X165053809Y-110164819D02*
X165149047Y-110212438D01*
X165149047Y-110212438D02*
X165196666Y-110260057D01*
X165196666Y-110260057D02*
X165244285Y-110355295D01*
X165244285Y-110355295D02*
X165291904Y-110545771D01*
X165291904Y-110545771D02*
X165291904Y-110783866D01*
X165291904Y-110783866D02*
X165244285Y-110974342D01*
X165244285Y-110974342D02*
X165196666Y-111069580D01*
X165196666Y-111069580D02*
X165149047Y-111117200D01*
X165149047Y-111117200D02*
X165053809Y-111164819D01*
X165053809Y-111164819D02*
X164958571Y-111164819D01*
X164958571Y-111164819D02*
X164863333Y-111117200D01*
X164863333Y-111117200D02*
X164815714Y-111069580D01*
X164815714Y-111069580D02*
X164768095Y-110974342D01*
X164768095Y-110974342D02*
X164720476Y-110783866D01*
X164720476Y-110783866D02*
X164720476Y-110545771D01*
X164720476Y-110545771D02*
X164768095Y-110355295D01*
X164768095Y-110355295D02*
X164815714Y-110260057D01*
X164815714Y-110260057D02*
X164863333Y-110212438D01*
X164863333Y-110212438D02*
X164958571Y-110164819D01*
X172333333Y-105404819D02*
X172000000Y-104928628D01*
X171761905Y-105404819D02*
X171761905Y-104404819D01*
X171761905Y-104404819D02*
X172142857Y-104404819D01*
X172142857Y-104404819D02*
X172238095Y-104452438D01*
X172238095Y-104452438D02*
X172285714Y-104500057D01*
X172285714Y-104500057D02*
X172333333Y-104595295D01*
X172333333Y-104595295D02*
X172333333Y-104738152D01*
X172333333Y-104738152D02*
X172285714Y-104833390D01*
X172285714Y-104833390D02*
X172238095Y-104881009D01*
X172238095Y-104881009D02*
X172142857Y-104928628D01*
X172142857Y-104928628D02*
X171761905Y-104928628D01*
X173238095Y-104404819D02*
X172761905Y-104404819D01*
X172761905Y-104404819D02*
X172714286Y-104881009D01*
X172714286Y-104881009D02*
X172761905Y-104833390D01*
X172761905Y-104833390D02*
X172857143Y-104785771D01*
X172857143Y-104785771D02*
X173095238Y-104785771D01*
X173095238Y-104785771D02*
X173190476Y-104833390D01*
X173190476Y-104833390D02*
X173238095Y-104881009D01*
X173238095Y-104881009D02*
X173285714Y-104976247D01*
X173285714Y-104976247D02*
X173285714Y-105214342D01*
X173285714Y-105214342D02*
X173238095Y-105309580D01*
X173238095Y-105309580D02*
X173190476Y-105357200D01*
X173190476Y-105357200D02*
X173095238Y-105404819D01*
X173095238Y-105404819D02*
X172857143Y-105404819D01*
X172857143Y-105404819D02*
X172761905Y-105357200D01*
X172761905Y-105357200D02*
X172714286Y-105309580D01*
X185633333Y-77294819D02*
X185300000Y-76818628D01*
X185061905Y-77294819D02*
X185061905Y-76294819D01*
X185061905Y-76294819D02*
X185442857Y-76294819D01*
X185442857Y-76294819D02*
X185538095Y-76342438D01*
X185538095Y-76342438D02*
X185585714Y-76390057D01*
X185585714Y-76390057D02*
X185633333Y-76485295D01*
X185633333Y-76485295D02*
X185633333Y-76628152D01*
X185633333Y-76628152D02*
X185585714Y-76723390D01*
X185585714Y-76723390D02*
X185538095Y-76771009D01*
X185538095Y-76771009D02*
X185442857Y-76818628D01*
X185442857Y-76818628D02*
X185061905Y-76818628D01*
X185966667Y-76294819D02*
X186633333Y-76294819D01*
X186633333Y-76294819D02*
X186204762Y-77294819D01*
X213964761Y-64360057D02*
X213869523Y-64312438D01*
X213869523Y-64312438D02*
X213774285Y-64217200D01*
X213774285Y-64217200D02*
X213631428Y-64074342D01*
X213631428Y-64074342D02*
X213536190Y-64026723D01*
X213536190Y-64026723D02*
X213440952Y-64026723D01*
X213488571Y-64264819D02*
X213393333Y-64217200D01*
X213393333Y-64217200D02*
X213298095Y-64121961D01*
X213298095Y-64121961D02*
X213250476Y-63931485D01*
X213250476Y-63931485D02*
X213250476Y-63598152D01*
X213250476Y-63598152D02*
X213298095Y-63407676D01*
X213298095Y-63407676D02*
X213393333Y-63312438D01*
X213393333Y-63312438D02*
X213488571Y-63264819D01*
X213488571Y-63264819D02*
X213679047Y-63264819D01*
X213679047Y-63264819D02*
X213774285Y-63312438D01*
X213774285Y-63312438D02*
X213869523Y-63407676D01*
X213869523Y-63407676D02*
X213917142Y-63598152D01*
X213917142Y-63598152D02*
X213917142Y-63931485D01*
X213917142Y-63931485D02*
X213869523Y-64121961D01*
X213869523Y-64121961D02*
X213774285Y-64217200D01*
X213774285Y-64217200D02*
X213679047Y-64264819D01*
X213679047Y-64264819D02*
X213488571Y-64264819D01*
X214869523Y-64264819D02*
X214298095Y-64264819D01*
X214583809Y-64264819D02*
X214583809Y-63264819D01*
X214583809Y-63264819D02*
X214488571Y-63407676D01*
X214488571Y-63407676D02*
X214393333Y-63502914D01*
X214393333Y-63502914D02*
X214298095Y-63550533D01*
X210864819Y-66396666D02*
X210388628Y-66729999D01*
X210864819Y-66968094D02*
X209864819Y-66968094D01*
X209864819Y-66968094D02*
X209864819Y-66587142D01*
X209864819Y-66587142D02*
X209912438Y-66491904D01*
X209912438Y-66491904D02*
X209960057Y-66444285D01*
X209960057Y-66444285D02*
X210055295Y-66396666D01*
X210055295Y-66396666D02*
X210198152Y-66396666D01*
X210198152Y-66396666D02*
X210293390Y-66444285D01*
X210293390Y-66444285D02*
X210341009Y-66491904D01*
X210341009Y-66491904D02*
X210388628Y-66587142D01*
X210388628Y-66587142D02*
X210388628Y-66968094D01*
X210198152Y-65539523D02*
X210864819Y-65539523D01*
X209817200Y-65777618D02*
X210531485Y-66015713D01*
X210531485Y-66015713D02*
X210531485Y-65396666D01*
X264319838Y-86841904D02*
X265129361Y-86841904D01*
X265129361Y-86841904D02*
X265224599Y-86794285D01*
X265224599Y-86794285D02*
X265272219Y-86746666D01*
X265272219Y-86746666D02*
X265319838Y-86651428D01*
X265319838Y-86651428D02*
X265319838Y-86460952D01*
X265319838Y-86460952D02*
X265272219Y-86365714D01*
X265272219Y-86365714D02*
X265224599Y-86318095D01*
X265224599Y-86318095D02*
X265129361Y-86270476D01*
X265129361Y-86270476D02*
X264319838Y-86270476D01*
X264319838Y-85365714D02*
X264319838Y-85556190D01*
X264319838Y-85556190D02*
X264367457Y-85651428D01*
X264367457Y-85651428D02*
X264415076Y-85699047D01*
X264415076Y-85699047D02*
X264557933Y-85794285D01*
X264557933Y-85794285D02*
X264748409Y-85841904D01*
X264748409Y-85841904D02*
X265129361Y-85841904D01*
X265129361Y-85841904D02*
X265224599Y-85794285D01*
X265224599Y-85794285D02*
X265272219Y-85746666D01*
X265272219Y-85746666D02*
X265319838Y-85651428D01*
X265319838Y-85651428D02*
X265319838Y-85460952D01*
X265319838Y-85460952D02*
X265272219Y-85365714D01*
X265272219Y-85365714D02*
X265224599Y-85318095D01*
X265224599Y-85318095D02*
X265129361Y-85270476D01*
X265129361Y-85270476D02*
X264891266Y-85270476D01*
X264891266Y-85270476D02*
X264796028Y-85318095D01*
X264796028Y-85318095D02*
X264748409Y-85365714D01*
X264748409Y-85365714D02*
X264700790Y-85460952D01*
X264700790Y-85460952D02*
X264700790Y-85651428D01*
X264700790Y-85651428D02*
X264748409Y-85746666D01*
X264748409Y-85746666D02*
X264796028Y-85794285D01*
X264796028Y-85794285D02*
X264891266Y-85841904D01*
X176848095Y-97144819D02*
X176848095Y-97954342D01*
X176848095Y-97954342D02*
X176895714Y-98049580D01*
X176895714Y-98049580D02*
X176943333Y-98097200D01*
X176943333Y-98097200D02*
X177038571Y-98144819D01*
X177038571Y-98144819D02*
X177229047Y-98144819D01*
X177229047Y-98144819D02*
X177324285Y-98097200D01*
X177324285Y-98097200D02*
X177371904Y-98049580D01*
X177371904Y-98049580D02*
X177419523Y-97954342D01*
X177419523Y-97954342D02*
X177419523Y-97144819D01*
X178419523Y-98144819D02*
X177848095Y-98144819D01*
X178133809Y-98144819D02*
X178133809Y-97144819D01*
X178133809Y-97144819D02*
X178038571Y-97287676D01*
X178038571Y-97287676D02*
X177943333Y-97382914D01*
X177943333Y-97382914D02*
X177848095Y-97430533D01*
X201227142Y-92154819D02*
X200893809Y-91678628D01*
X200655714Y-92154819D02*
X200655714Y-91154819D01*
X200655714Y-91154819D02*
X201036666Y-91154819D01*
X201036666Y-91154819D02*
X201131904Y-91202438D01*
X201131904Y-91202438D02*
X201179523Y-91250057D01*
X201179523Y-91250057D02*
X201227142Y-91345295D01*
X201227142Y-91345295D02*
X201227142Y-91488152D01*
X201227142Y-91488152D02*
X201179523Y-91583390D01*
X201179523Y-91583390D02*
X201131904Y-91631009D01*
X201131904Y-91631009D02*
X201036666Y-91678628D01*
X201036666Y-91678628D02*
X200655714Y-91678628D01*
X202179523Y-92154819D02*
X201608095Y-92154819D01*
X201893809Y-92154819D02*
X201893809Y-91154819D01*
X201893809Y-91154819D02*
X201798571Y-91297676D01*
X201798571Y-91297676D02*
X201703333Y-91392914D01*
X201703333Y-91392914D02*
X201608095Y-91440533D01*
X202560476Y-91250057D02*
X202608095Y-91202438D01*
X202608095Y-91202438D02*
X202703333Y-91154819D01*
X202703333Y-91154819D02*
X202941428Y-91154819D01*
X202941428Y-91154819D02*
X203036666Y-91202438D01*
X203036666Y-91202438D02*
X203084285Y-91250057D01*
X203084285Y-91250057D02*
X203131904Y-91345295D01*
X203131904Y-91345295D02*
X203131904Y-91440533D01*
X203131904Y-91440533D02*
X203084285Y-91583390D01*
X203084285Y-91583390D02*
X202512857Y-92154819D01*
X202512857Y-92154819D02*
X203131904Y-92154819D01*
X209739285Y-97211009D02*
X209882142Y-97258628D01*
X209882142Y-97258628D02*
X209929761Y-97306247D01*
X209929761Y-97306247D02*
X209977380Y-97401485D01*
X209977380Y-97401485D02*
X209977380Y-97544342D01*
X209977380Y-97544342D02*
X209929761Y-97639580D01*
X209929761Y-97639580D02*
X209882142Y-97687200D01*
X209882142Y-97687200D02*
X209786904Y-97734819D01*
X209786904Y-97734819D02*
X209405952Y-97734819D01*
X209405952Y-97734819D02*
X209405952Y-96734819D01*
X209405952Y-96734819D02*
X209739285Y-96734819D01*
X209739285Y-96734819D02*
X209834523Y-96782438D01*
X209834523Y-96782438D02*
X209882142Y-96830057D01*
X209882142Y-96830057D02*
X209929761Y-96925295D01*
X209929761Y-96925295D02*
X209929761Y-97020533D01*
X209929761Y-97020533D02*
X209882142Y-97115771D01*
X209882142Y-97115771D02*
X209834523Y-97163390D01*
X209834523Y-97163390D02*
X209739285Y-97211009D01*
X209739285Y-97211009D02*
X209405952Y-97211009D01*
X210263095Y-96734819D02*
X210834523Y-96734819D01*
X210548809Y-97734819D02*
X210548809Y-96734819D01*
X211691666Y-97734819D02*
X211120238Y-97734819D01*
X211405952Y-97734819D02*
X211405952Y-96734819D01*
X211405952Y-96734819D02*
X211310714Y-96877676D01*
X211310714Y-96877676D02*
X211215476Y-96972914D01*
X211215476Y-96972914D02*
X211120238Y-97020533D01*
X251416666Y-80144819D02*
X251416666Y-80859104D01*
X251416666Y-80859104D02*
X251369047Y-81001961D01*
X251369047Y-81001961D02*
X251273809Y-81097200D01*
X251273809Y-81097200D02*
X251130952Y-81144819D01*
X251130952Y-81144819D02*
X251035714Y-81144819D01*
X251940476Y-81144819D02*
X252130952Y-81144819D01*
X252130952Y-81144819D02*
X252226190Y-81097200D01*
X252226190Y-81097200D02*
X252273809Y-81049580D01*
X252273809Y-81049580D02*
X252369047Y-80906723D01*
X252369047Y-80906723D02*
X252416666Y-80716247D01*
X252416666Y-80716247D02*
X252416666Y-80335295D01*
X252416666Y-80335295D02*
X252369047Y-80240057D01*
X252369047Y-80240057D02*
X252321428Y-80192438D01*
X252321428Y-80192438D02*
X252226190Y-80144819D01*
X252226190Y-80144819D02*
X252035714Y-80144819D01*
X252035714Y-80144819D02*
X251940476Y-80192438D01*
X251940476Y-80192438D02*
X251892857Y-80240057D01*
X251892857Y-80240057D02*
X251845238Y-80335295D01*
X251845238Y-80335295D02*
X251845238Y-80573390D01*
X251845238Y-80573390D02*
X251892857Y-80668628D01*
X251892857Y-80668628D02*
X251940476Y-80716247D01*
X251940476Y-80716247D02*
X252035714Y-80763866D01*
X252035714Y-80763866D02*
X252226190Y-80763866D01*
X252226190Y-80763866D02*
X252321428Y-80716247D01*
X252321428Y-80716247D02*
X252369047Y-80668628D01*
X252369047Y-80668628D02*
X252416666Y-80573390D01*
X181774819Y-81531666D02*
X181298628Y-81864999D01*
X181774819Y-82103094D02*
X180774819Y-82103094D01*
X180774819Y-82103094D02*
X180774819Y-81722142D01*
X180774819Y-81722142D02*
X180822438Y-81626904D01*
X180822438Y-81626904D02*
X180870057Y-81579285D01*
X180870057Y-81579285D02*
X180965295Y-81531666D01*
X180965295Y-81531666D02*
X181108152Y-81531666D01*
X181108152Y-81531666D02*
X181203390Y-81579285D01*
X181203390Y-81579285D02*
X181251009Y-81626904D01*
X181251009Y-81626904D02*
X181298628Y-81722142D01*
X181298628Y-81722142D02*
X181298628Y-82103094D01*
X181774819Y-81055475D02*
X181774819Y-80864999D01*
X181774819Y-80864999D02*
X181727200Y-80769761D01*
X181727200Y-80769761D02*
X181679580Y-80722142D01*
X181679580Y-80722142D02*
X181536723Y-80626904D01*
X181536723Y-80626904D02*
X181346247Y-80579285D01*
X181346247Y-80579285D02*
X180965295Y-80579285D01*
X180965295Y-80579285D02*
X180870057Y-80626904D01*
X180870057Y-80626904D02*
X180822438Y-80674523D01*
X180822438Y-80674523D02*
X180774819Y-80769761D01*
X180774819Y-80769761D02*
X180774819Y-80960237D01*
X180774819Y-80960237D02*
X180822438Y-81055475D01*
X180822438Y-81055475D02*
X180870057Y-81103094D01*
X180870057Y-81103094D02*
X180965295Y-81150713D01*
X180965295Y-81150713D02*
X181203390Y-81150713D01*
X181203390Y-81150713D02*
X181298628Y-81103094D01*
X181298628Y-81103094D02*
X181346247Y-81055475D01*
X181346247Y-81055475D02*
X181393866Y-80960237D01*
X181393866Y-80960237D02*
X181393866Y-80769761D01*
X181393866Y-80769761D02*
X181346247Y-80674523D01*
X181346247Y-80674523D02*
X181298628Y-80626904D01*
X181298628Y-80626904D02*
X181203390Y-80579285D01*
X209478333Y-80979580D02*
X209430714Y-81027200D01*
X209430714Y-81027200D02*
X209287857Y-81074819D01*
X209287857Y-81074819D02*
X209192619Y-81074819D01*
X209192619Y-81074819D02*
X209049762Y-81027200D01*
X209049762Y-81027200D02*
X208954524Y-80931961D01*
X208954524Y-80931961D02*
X208906905Y-80836723D01*
X208906905Y-80836723D02*
X208859286Y-80646247D01*
X208859286Y-80646247D02*
X208859286Y-80503390D01*
X208859286Y-80503390D02*
X208906905Y-80312914D01*
X208906905Y-80312914D02*
X208954524Y-80217676D01*
X208954524Y-80217676D02*
X209049762Y-80122438D01*
X209049762Y-80122438D02*
X209192619Y-80074819D01*
X209192619Y-80074819D02*
X209287857Y-80074819D01*
X209287857Y-80074819D02*
X209430714Y-80122438D01*
X209430714Y-80122438D02*
X209478333Y-80170057D01*
X209811667Y-80074819D02*
X210430714Y-80074819D01*
X210430714Y-80074819D02*
X210097381Y-80455771D01*
X210097381Y-80455771D02*
X210240238Y-80455771D01*
X210240238Y-80455771D02*
X210335476Y-80503390D01*
X210335476Y-80503390D02*
X210383095Y-80551009D01*
X210383095Y-80551009D02*
X210430714Y-80646247D01*
X210430714Y-80646247D02*
X210430714Y-80884342D01*
X210430714Y-80884342D02*
X210383095Y-80979580D01*
X210383095Y-80979580D02*
X210335476Y-81027200D01*
X210335476Y-81027200D02*
X210240238Y-81074819D01*
X210240238Y-81074819D02*
X209954524Y-81074819D01*
X209954524Y-81074819D02*
X209859286Y-81027200D01*
X209859286Y-81027200D02*
X209811667Y-80979580D01*
X226987142Y-67834819D02*
X226653809Y-67358628D01*
X226415714Y-67834819D02*
X226415714Y-66834819D01*
X226415714Y-66834819D02*
X226796666Y-66834819D01*
X226796666Y-66834819D02*
X226891904Y-66882438D01*
X226891904Y-66882438D02*
X226939523Y-66930057D01*
X226939523Y-66930057D02*
X226987142Y-67025295D01*
X226987142Y-67025295D02*
X226987142Y-67168152D01*
X226987142Y-67168152D02*
X226939523Y-67263390D01*
X226939523Y-67263390D02*
X226891904Y-67311009D01*
X226891904Y-67311009D02*
X226796666Y-67358628D01*
X226796666Y-67358628D02*
X226415714Y-67358628D01*
X227939523Y-67834819D02*
X227368095Y-67834819D01*
X227653809Y-67834819D02*
X227653809Y-66834819D01*
X227653809Y-66834819D02*
X227558571Y-66977676D01*
X227558571Y-66977676D02*
X227463333Y-67072914D01*
X227463333Y-67072914D02*
X227368095Y-67120533D01*
X228558571Y-66834819D02*
X228653809Y-66834819D01*
X228653809Y-66834819D02*
X228749047Y-66882438D01*
X228749047Y-66882438D02*
X228796666Y-66930057D01*
X228796666Y-66930057D02*
X228844285Y-67025295D01*
X228844285Y-67025295D02*
X228891904Y-67215771D01*
X228891904Y-67215771D02*
X228891904Y-67453866D01*
X228891904Y-67453866D02*
X228844285Y-67644342D01*
X228844285Y-67644342D02*
X228796666Y-67739580D01*
X228796666Y-67739580D02*
X228749047Y-67787200D01*
X228749047Y-67787200D02*
X228653809Y-67834819D01*
X228653809Y-67834819D02*
X228558571Y-67834819D01*
X228558571Y-67834819D02*
X228463333Y-67787200D01*
X228463333Y-67787200D02*
X228415714Y-67739580D01*
X228415714Y-67739580D02*
X228368095Y-67644342D01*
X228368095Y-67644342D02*
X228320476Y-67453866D01*
X228320476Y-67453866D02*
X228320476Y-67215771D01*
X228320476Y-67215771D02*
X228368095Y-67025295D01*
X228368095Y-67025295D02*
X228415714Y-66930057D01*
X228415714Y-66930057D02*
X228463333Y-66882438D01*
X228463333Y-66882438D02*
X228558571Y-66834819D01*
X229146666Y-71034819D02*
X229146666Y-71749104D01*
X229146666Y-71749104D02*
X229099047Y-71891961D01*
X229099047Y-71891961D02*
X229003809Y-71987200D01*
X229003809Y-71987200D02*
X228860952Y-72034819D01*
X228860952Y-72034819D02*
X228765714Y-72034819D01*
X230099047Y-71034819D02*
X229622857Y-71034819D01*
X229622857Y-71034819D02*
X229575238Y-71511009D01*
X229575238Y-71511009D02*
X229622857Y-71463390D01*
X229622857Y-71463390D02*
X229718095Y-71415771D01*
X229718095Y-71415771D02*
X229956190Y-71415771D01*
X229956190Y-71415771D02*
X230051428Y-71463390D01*
X230051428Y-71463390D02*
X230099047Y-71511009D01*
X230099047Y-71511009D02*
X230146666Y-71606247D01*
X230146666Y-71606247D02*
X230146666Y-71844342D01*
X230146666Y-71844342D02*
X230099047Y-71939580D01*
X230099047Y-71939580D02*
X230051428Y-71987200D01*
X230051428Y-71987200D02*
X229956190Y-72034819D01*
X229956190Y-72034819D02*
X229718095Y-72034819D01*
X229718095Y-72034819D02*
X229622857Y-71987200D01*
X229622857Y-71987200D02*
X229575238Y-71939580D01*
X256829580Y-89171666D02*
X256877200Y-89219285D01*
X256877200Y-89219285D02*
X256924819Y-89362142D01*
X256924819Y-89362142D02*
X256924819Y-89457380D01*
X256924819Y-89457380D02*
X256877200Y-89600237D01*
X256877200Y-89600237D02*
X256781961Y-89695475D01*
X256781961Y-89695475D02*
X256686723Y-89743094D01*
X256686723Y-89743094D02*
X256496247Y-89790713D01*
X256496247Y-89790713D02*
X256353390Y-89790713D01*
X256353390Y-89790713D02*
X256162914Y-89743094D01*
X256162914Y-89743094D02*
X256067676Y-89695475D01*
X256067676Y-89695475D02*
X255972438Y-89600237D01*
X255972438Y-89600237D02*
X255924819Y-89457380D01*
X255924819Y-89457380D02*
X255924819Y-89362142D01*
X255924819Y-89362142D02*
X255972438Y-89219285D01*
X255972438Y-89219285D02*
X256020057Y-89171666D01*
X255924819Y-88314523D02*
X255924819Y-88504999D01*
X255924819Y-88504999D02*
X255972438Y-88600237D01*
X255972438Y-88600237D02*
X256020057Y-88647856D01*
X256020057Y-88647856D02*
X256162914Y-88743094D01*
X256162914Y-88743094D02*
X256353390Y-88790713D01*
X256353390Y-88790713D02*
X256734342Y-88790713D01*
X256734342Y-88790713D02*
X256829580Y-88743094D01*
X256829580Y-88743094D02*
X256877200Y-88695475D01*
X256877200Y-88695475D02*
X256924819Y-88600237D01*
X256924819Y-88600237D02*
X256924819Y-88409761D01*
X256924819Y-88409761D02*
X256877200Y-88314523D01*
X256877200Y-88314523D02*
X256829580Y-88266904D01*
X256829580Y-88266904D02*
X256734342Y-88219285D01*
X256734342Y-88219285D02*
X256496247Y-88219285D01*
X256496247Y-88219285D02*
X256401009Y-88266904D01*
X256401009Y-88266904D02*
X256353390Y-88314523D01*
X256353390Y-88314523D02*
X256305771Y-88409761D01*
X256305771Y-88409761D02*
X256305771Y-88600237D01*
X256305771Y-88600237D02*
X256353390Y-88695475D01*
X256353390Y-88695475D02*
X256401009Y-88743094D01*
X256401009Y-88743094D02*
X256496247Y-88790713D01*
X197998095Y-81424819D02*
X197998095Y-82234342D01*
X197998095Y-82234342D02*
X198045714Y-82329580D01*
X198045714Y-82329580D02*
X198093333Y-82377200D01*
X198093333Y-82377200D02*
X198188571Y-82424819D01*
X198188571Y-82424819D02*
X198379047Y-82424819D01*
X198379047Y-82424819D02*
X198474285Y-82377200D01*
X198474285Y-82377200D02*
X198521904Y-82329580D01*
X198521904Y-82329580D02*
X198569523Y-82234342D01*
X198569523Y-82234342D02*
X198569523Y-81424819D01*
X199521904Y-81424819D02*
X199045714Y-81424819D01*
X199045714Y-81424819D02*
X198998095Y-81901009D01*
X198998095Y-81901009D02*
X199045714Y-81853390D01*
X199045714Y-81853390D02*
X199140952Y-81805771D01*
X199140952Y-81805771D02*
X199379047Y-81805771D01*
X199379047Y-81805771D02*
X199474285Y-81853390D01*
X199474285Y-81853390D02*
X199521904Y-81901009D01*
X199521904Y-81901009D02*
X199569523Y-81996247D01*
X199569523Y-81996247D02*
X199569523Y-82234342D01*
X199569523Y-82234342D02*
X199521904Y-82329580D01*
X199521904Y-82329580D02*
X199474285Y-82377200D01*
X199474285Y-82377200D02*
X199379047Y-82424819D01*
X199379047Y-82424819D02*
X199140952Y-82424819D01*
X199140952Y-82424819D02*
X199045714Y-82377200D01*
X199045714Y-82377200D02*
X198998095Y-82329580D01*
X209418333Y-78179580D02*
X209370714Y-78227200D01*
X209370714Y-78227200D02*
X209227857Y-78274819D01*
X209227857Y-78274819D02*
X209132619Y-78274819D01*
X209132619Y-78274819D02*
X208989762Y-78227200D01*
X208989762Y-78227200D02*
X208894524Y-78131961D01*
X208894524Y-78131961D02*
X208846905Y-78036723D01*
X208846905Y-78036723D02*
X208799286Y-77846247D01*
X208799286Y-77846247D02*
X208799286Y-77703390D01*
X208799286Y-77703390D02*
X208846905Y-77512914D01*
X208846905Y-77512914D02*
X208894524Y-77417676D01*
X208894524Y-77417676D02*
X208989762Y-77322438D01*
X208989762Y-77322438D02*
X209132619Y-77274819D01*
X209132619Y-77274819D02*
X209227857Y-77274819D01*
X209227857Y-77274819D02*
X209370714Y-77322438D01*
X209370714Y-77322438D02*
X209418333Y-77370057D01*
X210275476Y-77608152D02*
X210275476Y-78274819D01*
X210037381Y-77227200D02*
X209799286Y-77941485D01*
X209799286Y-77941485D02*
X210418333Y-77941485D01*
X236404819Y-64156666D02*
X236404819Y-64632856D01*
X236404819Y-64632856D02*
X235404819Y-64632856D01*
X236404819Y-63299523D02*
X236404819Y-63870951D01*
X236404819Y-63585237D02*
X235404819Y-63585237D01*
X235404819Y-63585237D02*
X235547676Y-63680475D01*
X235547676Y-63680475D02*
X235642914Y-63775713D01*
X235642914Y-63775713D02*
X235690533Y-63870951D01*
X175734819Y-99363333D02*
X176449104Y-99363333D01*
X176449104Y-99363333D02*
X176591961Y-99410952D01*
X176591961Y-99410952D02*
X176687200Y-99506190D01*
X176687200Y-99506190D02*
X176734819Y-99649047D01*
X176734819Y-99649047D02*
X176734819Y-99744285D01*
X175734819Y-98458571D02*
X175734819Y-98649047D01*
X175734819Y-98649047D02*
X175782438Y-98744285D01*
X175782438Y-98744285D02*
X175830057Y-98791904D01*
X175830057Y-98791904D02*
X175972914Y-98887142D01*
X175972914Y-98887142D02*
X176163390Y-98934761D01*
X176163390Y-98934761D02*
X176544342Y-98934761D01*
X176544342Y-98934761D02*
X176639580Y-98887142D01*
X176639580Y-98887142D02*
X176687200Y-98839523D01*
X176687200Y-98839523D02*
X176734819Y-98744285D01*
X176734819Y-98744285D02*
X176734819Y-98553809D01*
X176734819Y-98553809D02*
X176687200Y-98458571D01*
X176687200Y-98458571D02*
X176639580Y-98410952D01*
X176639580Y-98410952D02*
X176544342Y-98363333D01*
X176544342Y-98363333D02*
X176306247Y-98363333D01*
X176306247Y-98363333D02*
X176211009Y-98410952D01*
X176211009Y-98410952D02*
X176163390Y-98458571D01*
X176163390Y-98458571D02*
X176115771Y-98553809D01*
X176115771Y-98553809D02*
X176115771Y-98744285D01*
X176115771Y-98744285D02*
X176163390Y-98839523D01*
X176163390Y-98839523D02*
X176211009Y-98887142D01*
X176211009Y-98887142D02*
X176306247Y-98934761D01*
X190399819Y-78546666D02*
X189923628Y-78879999D01*
X190399819Y-79118094D02*
X189399819Y-79118094D01*
X189399819Y-79118094D02*
X189399819Y-78737142D01*
X189399819Y-78737142D02*
X189447438Y-78641904D01*
X189447438Y-78641904D02*
X189495057Y-78594285D01*
X189495057Y-78594285D02*
X189590295Y-78546666D01*
X189590295Y-78546666D02*
X189733152Y-78546666D01*
X189733152Y-78546666D02*
X189828390Y-78594285D01*
X189828390Y-78594285D02*
X189876009Y-78641904D01*
X189876009Y-78641904D02*
X189923628Y-78737142D01*
X189923628Y-78737142D02*
X189923628Y-79118094D01*
X189828390Y-77975237D02*
X189780771Y-78070475D01*
X189780771Y-78070475D02*
X189733152Y-78118094D01*
X189733152Y-78118094D02*
X189637914Y-78165713D01*
X189637914Y-78165713D02*
X189590295Y-78165713D01*
X189590295Y-78165713D02*
X189495057Y-78118094D01*
X189495057Y-78118094D02*
X189447438Y-78070475D01*
X189447438Y-78070475D02*
X189399819Y-77975237D01*
X189399819Y-77975237D02*
X189399819Y-77784761D01*
X189399819Y-77784761D02*
X189447438Y-77689523D01*
X189447438Y-77689523D02*
X189495057Y-77641904D01*
X189495057Y-77641904D02*
X189590295Y-77594285D01*
X189590295Y-77594285D02*
X189637914Y-77594285D01*
X189637914Y-77594285D02*
X189733152Y-77641904D01*
X189733152Y-77641904D02*
X189780771Y-77689523D01*
X189780771Y-77689523D02*
X189828390Y-77784761D01*
X189828390Y-77784761D02*
X189828390Y-77975237D01*
X189828390Y-77975237D02*
X189876009Y-78070475D01*
X189876009Y-78070475D02*
X189923628Y-78118094D01*
X189923628Y-78118094D02*
X190018866Y-78165713D01*
X190018866Y-78165713D02*
X190209342Y-78165713D01*
X190209342Y-78165713D02*
X190304580Y-78118094D01*
X190304580Y-78118094D02*
X190352200Y-78070475D01*
X190352200Y-78070475D02*
X190399819Y-77975237D01*
X190399819Y-77975237D02*
X190399819Y-77784761D01*
X190399819Y-77784761D02*
X190352200Y-77689523D01*
X190352200Y-77689523D02*
X190304580Y-77641904D01*
X190304580Y-77641904D02*
X190209342Y-77594285D01*
X190209342Y-77594285D02*
X190018866Y-77594285D01*
X190018866Y-77594285D02*
X189923628Y-77641904D01*
X189923628Y-77641904D02*
X189876009Y-77689523D01*
X189876009Y-77689523D02*
X189828390Y-77784761D01*
X238766666Y-80864819D02*
X238766666Y-81579104D01*
X238766666Y-81579104D02*
X238719047Y-81721961D01*
X238719047Y-81721961D02*
X238623809Y-81817200D01*
X238623809Y-81817200D02*
X238480952Y-81864819D01*
X238480952Y-81864819D02*
X238385714Y-81864819D01*
X239385714Y-81293390D02*
X239290476Y-81245771D01*
X239290476Y-81245771D02*
X239242857Y-81198152D01*
X239242857Y-81198152D02*
X239195238Y-81102914D01*
X239195238Y-81102914D02*
X239195238Y-81055295D01*
X239195238Y-81055295D02*
X239242857Y-80960057D01*
X239242857Y-80960057D02*
X239290476Y-80912438D01*
X239290476Y-80912438D02*
X239385714Y-80864819D01*
X239385714Y-80864819D02*
X239576190Y-80864819D01*
X239576190Y-80864819D02*
X239671428Y-80912438D01*
X239671428Y-80912438D02*
X239719047Y-80960057D01*
X239719047Y-80960057D02*
X239766666Y-81055295D01*
X239766666Y-81055295D02*
X239766666Y-81102914D01*
X239766666Y-81102914D02*
X239719047Y-81198152D01*
X239719047Y-81198152D02*
X239671428Y-81245771D01*
X239671428Y-81245771D02*
X239576190Y-81293390D01*
X239576190Y-81293390D02*
X239385714Y-81293390D01*
X239385714Y-81293390D02*
X239290476Y-81341009D01*
X239290476Y-81341009D02*
X239242857Y-81388628D01*
X239242857Y-81388628D02*
X239195238Y-81483866D01*
X239195238Y-81483866D02*
X239195238Y-81674342D01*
X239195238Y-81674342D02*
X239242857Y-81769580D01*
X239242857Y-81769580D02*
X239290476Y-81817200D01*
X239290476Y-81817200D02*
X239385714Y-81864819D01*
X239385714Y-81864819D02*
X239576190Y-81864819D01*
X239576190Y-81864819D02*
X239671428Y-81817200D01*
X239671428Y-81817200D02*
X239719047Y-81769580D01*
X239719047Y-81769580D02*
X239766666Y-81674342D01*
X239766666Y-81674342D02*
X239766666Y-81483866D01*
X239766666Y-81483866D02*
X239719047Y-81388628D01*
X239719047Y-81388628D02*
X239671428Y-81341009D01*
X239671428Y-81341009D02*
X239576190Y-81293390D01*
X231868095Y-60944819D02*
X231868095Y-61754342D01*
X231868095Y-61754342D02*
X231915714Y-61849580D01*
X231915714Y-61849580D02*
X231963333Y-61897200D01*
X231963333Y-61897200D02*
X232058571Y-61944819D01*
X232058571Y-61944819D02*
X232249047Y-61944819D01*
X232249047Y-61944819D02*
X232344285Y-61897200D01*
X232344285Y-61897200D02*
X232391904Y-61849580D01*
X232391904Y-61849580D02*
X232439523Y-61754342D01*
X232439523Y-61754342D02*
X232439523Y-60944819D01*
X233344285Y-61278152D02*
X233344285Y-61944819D01*
X233106190Y-60897200D02*
X232868095Y-61611485D01*
X232868095Y-61611485D02*
X233487142Y-61611485D01*
X180776667Y-108357200D02*
X180919524Y-108404819D01*
X180919524Y-108404819D02*
X181157619Y-108404819D01*
X181157619Y-108404819D02*
X181252857Y-108357200D01*
X181252857Y-108357200D02*
X181300476Y-108309580D01*
X181300476Y-108309580D02*
X181348095Y-108214342D01*
X181348095Y-108214342D02*
X181348095Y-108119104D01*
X181348095Y-108119104D02*
X181300476Y-108023866D01*
X181300476Y-108023866D02*
X181252857Y-107976247D01*
X181252857Y-107976247D02*
X181157619Y-107928628D01*
X181157619Y-107928628D02*
X180967143Y-107881009D01*
X180967143Y-107881009D02*
X180871905Y-107833390D01*
X180871905Y-107833390D02*
X180824286Y-107785771D01*
X180824286Y-107785771D02*
X180776667Y-107690533D01*
X180776667Y-107690533D02*
X180776667Y-107595295D01*
X180776667Y-107595295D02*
X180824286Y-107500057D01*
X180824286Y-107500057D02*
X180871905Y-107452438D01*
X180871905Y-107452438D02*
X180967143Y-107404819D01*
X180967143Y-107404819D02*
X181205238Y-107404819D01*
X181205238Y-107404819D02*
X181348095Y-107452438D01*
X181681429Y-107404819D02*
X181919524Y-108404819D01*
X181919524Y-108404819D02*
X182110000Y-107690533D01*
X182110000Y-107690533D02*
X182300476Y-108404819D01*
X182300476Y-108404819D02*
X182538572Y-107404819D01*
X182871905Y-107500057D02*
X182919524Y-107452438D01*
X182919524Y-107452438D02*
X183014762Y-107404819D01*
X183014762Y-107404819D02*
X183252857Y-107404819D01*
X183252857Y-107404819D02*
X183348095Y-107452438D01*
X183348095Y-107452438D02*
X183395714Y-107500057D01*
X183395714Y-107500057D02*
X183443333Y-107595295D01*
X183443333Y-107595295D02*
X183443333Y-107690533D01*
X183443333Y-107690533D02*
X183395714Y-107833390D01*
X183395714Y-107833390D02*
X182824286Y-108404819D01*
X182824286Y-108404819D02*
X183443333Y-108404819D01*
X187329580Y-92691666D02*
X187377200Y-92739285D01*
X187377200Y-92739285D02*
X187424819Y-92882142D01*
X187424819Y-92882142D02*
X187424819Y-92977380D01*
X187424819Y-92977380D02*
X187377200Y-93120237D01*
X187377200Y-93120237D02*
X187281961Y-93215475D01*
X187281961Y-93215475D02*
X187186723Y-93263094D01*
X187186723Y-93263094D02*
X186996247Y-93310713D01*
X186996247Y-93310713D02*
X186853390Y-93310713D01*
X186853390Y-93310713D02*
X186662914Y-93263094D01*
X186662914Y-93263094D02*
X186567676Y-93215475D01*
X186567676Y-93215475D02*
X186472438Y-93120237D01*
X186472438Y-93120237D02*
X186424819Y-92977380D01*
X186424819Y-92977380D02*
X186424819Y-92882142D01*
X186424819Y-92882142D02*
X186472438Y-92739285D01*
X186472438Y-92739285D02*
X186520057Y-92691666D01*
X186520057Y-92310713D02*
X186472438Y-92263094D01*
X186472438Y-92263094D02*
X186424819Y-92167856D01*
X186424819Y-92167856D02*
X186424819Y-91929761D01*
X186424819Y-91929761D02*
X186472438Y-91834523D01*
X186472438Y-91834523D02*
X186520057Y-91786904D01*
X186520057Y-91786904D02*
X186615295Y-91739285D01*
X186615295Y-91739285D02*
X186710533Y-91739285D01*
X186710533Y-91739285D02*
X186853390Y-91786904D01*
X186853390Y-91786904D02*
X187424819Y-92358332D01*
X187424819Y-92358332D02*
X187424819Y-91739285D01*
X172239580Y-102846666D02*
X172287200Y-102894285D01*
X172287200Y-102894285D02*
X172334819Y-103037142D01*
X172334819Y-103037142D02*
X172334819Y-103132380D01*
X172334819Y-103132380D02*
X172287200Y-103275237D01*
X172287200Y-103275237D02*
X172191961Y-103370475D01*
X172191961Y-103370475D02*
X172096723Y-103418094D01*
X172096723Y-103418094D02*
X171906247Y-103465713D01*
X171906247Y-103465713D02*
X171763390Y-103465713D01*
X171763390Y-103465713D02*
X171572914Y-103418094D01*
X171572914Y-103418094D02*
X171477676Y-103370475D01*
X171477676Y-103370475D02*
X171382438Y-103275237D01*
X171382438Y-103275237D02*
X171334819Y-103132380D01*
X171334819Y-103132380D02*
X171334819Y-103037142D01*
X171334819Y-103037142D02*
X171382438Y-102894285D01*
X171382438Y-102894285D02*
X171430057Y-102846666D01*
X171334819Y-102513332D02*
X171334819Y-101846666D01*
X171334819Y-101846666D02*
X172334819Y-102275237D01*
X200327142Y-88339580D02*
X200279523Y-88387200D01*
X200279523Y-88387200D02*
X200136666Y-88434819D01*
X200136666Y-88434819D02*
X200041428Y-88434819D01*
X200041428Y-88434819D02*
X199898571Y-88387200D01*
X199898571Y-88387200D02*
X199803333Y-88291961D01*
X199803333Y-88291961D02*
X199755714Y-88196723D01*
X199755714Y-88196723D02*
X199708095Y-88006247D01*
X199708095Y-88006247D02*
X199708095Y-87863390D01*
X199708095Y-87863390D02*
X199755714Y-87672914D01*
X199755714Y-87672914D02*
X199803333Y-87577676D01*
X199803333Y-87577676D02*
X199898571Y-87482438D01*
X199898571Y-87482438D02*
X200041428Y-87434819D01*
X200041428Y-87434819D02*
X200136666Y-87434819D01*
X200136666Y-87434819D02*
X200279523Y-87482438D01*
X200279523Y-87482438D02*
X200327142Y-87530057D01*
X201279523Y-88434819D02*
X200708095Y-88434819D01*
X200993809Y-88434819D02*
X200993809Y-87434819D01*
X200993809Y-87434819D02*
X200898571Y-87577676D01*
X200898571Y-87577676D02*
X200803333Y-87672914D01*
X200803333Y-87672914D02*
X200708095Y-87720533D01*
X201660476Y-87530057D02*
X201708095Y-87482438D01*
X201708095Y-87482438D02*
X201803333Y-87434819D01*
X201803333Y-87434819D02*
X202041428Y-87434819D01*
X202041428Y-87434819D02*
X202136666Y-87482438D01*
X202136666Y-87482438D02*
X202184285Y-87530057D01*
X202184285Y-87530057D02*
X202231904Y-87625295D01*
X202231904Y-87625295D02*
X202231904Y-87720533D01*
X202231904Y-87720533D02*
X202184285Y-87863390D01*
X202184285Y-87863390D02*
X201612857Y-88434819D01*
X201612857Y-88434819D02*
X202231904Y-88434819D01*
X196952142Y-95054819D02*
X196618809Y-94578628D01*
X196380714Y-95054819D02*
X196380714Y-94054819D01*
X196380714Y-94054819D02*
X196761666Y-94054819D01*
X196761666Y-94054819D02*
X196856904Y-94102438D01*
X196856904Y-94102438D02*
X196904523Y-94150057D01*
X196904523Y-94150057D02*
X196952142Y-94245295D01*
X196952142Y-94245295D02*
X196952142Y-94388152D01*
X196952142Y-94388152D02*
X196904523Y-94483390D01*
X196904523Y-94483390D02*
X196856904Y-94531009D01*
X196856904Y-94531009D02*
X196761666Y-94578628D01*
X196761666Y-94578628D02*
X196380714Y-94578628D01*
X197904523Y-95054819D02*
X197333095Y-95054819D01*
X197618809Y-95054819D02*
X197618809Y-94054819D01*
X197618809Y-94054819D02*
X197523571Y-94197676D01*
X197523571Y-94197676D02*
X197428333Y-94292914D01*
X197428333Y-94292914D02*
X197333095Y-94340533D01*
X198856904Y-95054819D02*
X198285476Y-95054819D01*
X198571190Y-95054819D02*
X198571190Y-94054819D01*
X198571190Y-94054819D02*
X198475952Y-94197676D01*
X198475952Y-94197676D02*
X198380714Y-94292914D01*
X198380714Y-94292914D02*
X198285476Y-94340533D01*
X229136666Y-79224819D02*
X229136666Y-79939104D01*
X229136666Y-79939104D02*
X229089047Y-80081961D01*
X229089047Y-80081961D02*
X228993809Y-80177200D01*
X228993809Y-80177200D02*
X228850952Y-80224819D01*
X228850952Y-80224819D02*
X228755714Y-80224819D01*
X230136666Y-80224819D02*
X229565238Y-80224819D01*
X229850952Y-80224819D02*
X229850952Y-79224819D01*
X229850952Y-79224819D02*
X229755714Y-79367676D01*
X229755714Y-79367676D02*
X229660476Y-79462914D01*
X229660476Y-79462914D02*
X229565238Y-79510533D01*
X217540057Y-67535238D02*
X217492438Y-67630476D01*
X217492438Y-67630476D02*
X217397200Y-67725714D01*
X217397200Y-67725714D02*
X217254342Y-67868571D01*
X217254342Y-67868571D02*
X217206723Y-67963809D01*
X217206723Y-67963809D02*
X217206723Y-68059047D01*
X217444819Y-68011428D02*
X217397200Y-68106666D01*
X217397200Y-68106666D02*
X217301961Y-68201904D01*
X217301961Y-68201904D02*
X217111485Y-68249523D01*
X217111485Y-68249523D02*
X216778152Y-68249523D01*
X216778152Y-68249523D02*
X216587676Y-68201904D01*
X216587676Y-68201904D02*
X216492438Y-68106666D01*
X216492438Y-68106666D02*
X216444819Y-68011428D01*
X216444819Y-68011428D02*
X216444819Y-67820952D01*
X216444819Y-67820952D02*
X216492438Y-67725714D01*
X216492438Y-67725714D02*
X216587676Y-67630476D01*
X216587676Y-67630476D02*
X216778152Y-67582857D01*
X216778152Y-67582857D02*
X217111485Y-67582857D01*
X217111485Y-67582857D02*
X217301961Y-67630476D01*
X217301961Y-67630476D02*
X217397200Y-67725714D01*
X217397200Y-67725714D02*
X217444819Y-67820952D01*
X217444819Y-67820952D02*
X217444819Y-68011428D01*
X216540057Y-67201904D02*
X216492438Y-67154285D01*
X216492438Y-67154285D02*
X216444819Y-67059047D01*
X216444819Y-67059047D02*
X216444819Y-66820952D01*
X216444819Y-66820952D02*
X216492438Y-66725714D01*
X216492438Y-66725714D02*
X216540057Y-66678095D01*
X216540057Y-66678095D02*
X216635295Y-66630476D01*
X216635295Y-66630476D02*
X216730533Y-66630476D01*
X216730533Y-66630476D02*
X216873390Y-66678095D01*
X216873390Y-66678095D02*
X217444819Y-67249523D01*
X217444819Y-67249523D02*
X217444819Y-66630476D01*
%TO.C,U7*%
D12*
X205877500Y-83410000D02*
X206552500Y-83410000D01*
X205877500Y-83585000D02*
X205877500Y-83410000D01*
X205877500Y-86130000D02*
X205877500Y-85955000D01*
X206552500Y-86130000D02*
X205877500Y-86130000D01*
X208422500Y-83410000D02*
X209097500Y-83410000D01*
X209097500Y-83410000D02*
X209097500Y-83585000D01*
X209097500Y-85955000D02*
X209097500Y-86130000D01*
X209097500Y-86130000D02*
X208422500Y-86130000D01*
X205747500Y-84020000D02*
X205417500Y-84260000D01*
X205417500Y-83780000D01*
X205747500Y-84020000D01*
G36*
X205747500Y-84020000D02*
G01*
X205417500Y-84260000D01*
X205417500Y-83780000D01*
X205747500Y-84020000D01*
G37*
%TO.C,SW1*%
X178980000Y-67695000D02*
X178980000Y-68130000D01*
X178980000Y-69730000D02*
X178980000Y-72130000D01*
X178980000Y-73730000D02*
X178980000Y-74165000D01*
X178980000Y-74165000D02*
X185400000Y-74165000D01*
X185400000Y-67695000D02*
X178980000Y-67695000D01*
X185400000Y-68130000D02*
X185400000Y-67695000D01*
X185400000Y-72130000D02*
X185400000Y-69730000D01*
X185400000Y-74165000D02*
X185400000Y-73860000D01*
%TO.C,U3*%
X185850000Y-82000000D02*
X185945000Y-82000000D01*
X185850000Y-86120000D02*
X185850000Y-82000000D01*
X185945000Y-86120000D02*
X185850000Y-86120000D01*
X190875000Y-82000000D02*
X190970000Y-82000000D01*
X190970000Y-82000000D02*
X190970000Y-86120000D01*
X190970000Y-86120000D02*
X190875000Y-86120000D01*
X185940000Y-86660000D02*
X185610000Y-86900000D01*
X185610000Y-86420000D01*
X185940000Y-86660000D01*
G36*
X185940000Y-86660000D02*
G01*
X185610000Y-86900000D01*
X185610000Y-86420000D01*
X185940000Y-86660000D01*
G37*
%TO.C,R6*%
X169902258Y-101487500D02*
X169427742Y-101487500D01*
X169902258Y-102532500D02*
X169427742Y-102532500D01*
%TO.C,C9*%
X231963748Y-68040000D02*
X233386252Y-68040000D01*
X231963748Y-69860000D02*
X233386252Y-69860000D01*
%TO.C,J4*%
X235450000Y-72625000D02*
X236830000Y-72625000D01*
X235450000Y-74005000D02*
X235450000Y-72625000D01*
X235450000Y-75275000D02*
X235450000Y-77925000D01*
X235450000Y-75275000D02*
X238210000Y-75275000D01*
X235450000Y-77925000D02*
X238210000Y-77925000D01*
X238210000Y-75275000D02*
X238210000Y-77925000D01*
%TO.C,C8*%
X227050000Y-64530580D02*
X227050000Y-64249420D01*
X228070000Y-64530580D02*
X228070000Y-64249420D01*
%TO.C,R13*%
X196467258Y-82117500D02*
X195992742Y-82117500D01*
X196467258Y-83162500D02*
X195992742Y-83162500D01*
%TO.C,C1*%
X185090000Y-89455580D02*
X185090000Y-89174420D01*
X186110000Y-89455580D02*
X186110000Y-89174420D01*
%TO.C,J3*%
X171280000Y-64030000D02*
X172660000Y-64030000D01*
X171280000Y-65410000D02*
X171280000Y-64030000D01*
X171280000Y-66680000D02*
X171280000Y-74410000D01*
X171280000Y-66680000D02*
X174040000Y-66680000D01*
X171280000Y-74410000D02*
X174040000Y-74410000D01*
X174040000Y-66680000D02*
X174040000Y-74410000D01*
%TO.C,R3*%
X188192742Y-89577500D02*
X188667258Y-89577500D01*
X188192742Y-90622500D02*
X188667258Y-90622500D01*
%TO.C,C11*%
X197704420Y-88900000D02*
X197985580Y-88900000D01*
X197704420Y-89920000D02*
X197985580Y-89920000D01*
%TO.C,C10*%
X160620000Y-102950000D02*
X160620000Y-105300000D01*
X160620000Y-109770000D02*
X160620000Y-107420000D01*
X166375563Y-102950000D02*
X160620000Y-102950000D01*
X166375563Y-109770000D02*
X160620000Y-109770000D01*
X167440000Y-104014437D02*
X166375563Y-102950000D01*
X167440000Y-104014437D02*
X167440000Y-105300000D01*
X167440000Y-108705563D02*
X166375563Y-109770000D01*
X167440000Y-108705563D02*
X167440000Y-107420000D01*
X168073750Y-108601250D02*
X168073750Y-107813750D01*
X168467500Y-108207500D02*
X167680000Y-108207500D01*
%TO.C,R5*%
X172262742Y-105857500D02*
X172737258Y-105857500D01*
X172262742Y-106902500D02*
X172737258Y-106902500D01*
%TO.C,R7*%
X188002258Y-75127500D02*
X187527742Y-75127500D01*
X188002258Y-76172500D02*
X187527742Y-76172500D01*
%TO.C,Q1*%
X213300000Y-64650000D02*
X214820000Y-64650000D01*
X213300000Y-64700000D02*
X213300000Y-64650000D01*
X213300000Y-66600000D02*
X213300000Y-65820000D01*
X213300000Y-67770000D02*
X213300000Y-67720000D01*
X214820000Y-64650000D02*
X214820000Y-65650000D01*
X214820000Y-66770000D02*
X214820000Y-67770000D01*
X214820000Y-67770000D02*
X213300000Y-67770000D01*
X212760000Y-65830000D02*
X213000000Y-66160000D01*
X212520000Y-66160000D01*
X212760000Y-65830000D01*
G36*
X213000000Y-66160000D02*
G01*
X212520000Y-66160000D01*
X212760000Y-65830000D01*
X213000000Y-66160000D01*
G37*
%TO.C,R4*%
X208457500Y-65992742D02*
X208457500Y-66467258D01*
X209502500Y-65992742D02*
X209502500Y-66467258D01*
%TO.C,U6*%
D13*
X259865019Y-84580000D02*
X262865019Y-84580000D01*
X259865019Y-84698872D02*
X259865019Y-84580000D01*
X259865019Y-87580000D02*
X259865019Y-87461153D01*
X262865019Y-84580000D02*
X262865019Y-84680406D01*
X262865019Y-87479619D02*
X262865019Y-87580000D01*
X262865019Y-87580000D02*
X259865019Y-87580000D01*
X259764968Y-84180076D02*
G75*
G02*
X259564816Y-84180076I-100076J0D01*
G01*
X259564816Y-84180076D02*
G75*
G02*
X259764968Y-84180076I100076J0D01*
G01*
%TO.C,U1*%
D12*
X152390000Y-78150000D02*
X158805000Y-78150000D01*
X152390000Y-96390000D02*
X152390000Y-78150000D01*
X152390000Y-96390000D02*
X158550000Y-96390000D01*
X177350000Y-78150000D02*
X178130000Y-78150000D01*
X177350000Y-96390000D02*
X178130000Y-96390000D01*
X178130000Y-78150000D02*
X178130000Y-79150000D01*
X178130000Y-96390000D02*
X178130000Y-95390000D01*
X159275000Y-96395000D02*
X159275000Y-96895000D01*
X158775000Y-96395000D01*
X159275000Y-96395000D01*
G36*
X159275000Y-96895000D02*
G01*
X158775000Y-96395000D01*
X159275000Y-96395000D01*
X159275000Y-96895000D01*
G37*
%TO.C,R12*%
X201632742Y-92607500D02*
X202107258Y-92607500D01*
X201632742Y-93652500D02*
X202107258Y-93652500D01*
%TO.C,BT1*%
X210100000Y-98730000D02*
X210100000Y-100280000D01*
X210100000Y-106430000D02*
X210100000Y-104880000D01*
X211650000Y-107580000D02*
X211650000Y-109580000D01*
X212650000Y-108580000D02*
X210650000Y-108580000D01*
X213300000Y-94230000D02*
X213300000Y-98730000D01*
X213300000Y-94230000D02*
X236000000Y-94230000D01*
X213300000Y-98730000D02*
X210100000Y-98730000D01*
X213300000Y-106430000D02*
X210100000Y-106430000D01*
X213300000Y-109130000D02*
X213300000Y-106430000D01*
X215100000Y-110930000D02*
X213300000Y-109130000D01*
X236000000Y-94230000D02*
X236000000Y-98730000D01*
X236000000Y-98730000D02*
X239200000Y-98730000D01*
X236000000Y-106430000D02*
X239200000Y-106430000D01*
X236000000Y-110930000D02*
X215100000Y-110930000D01*
X236000000Y-110930000D02*
X236000000Y-106430000D01*
X239200000Y-98730000D02*
X239200000Y-100280000D01*
X239200000Y-106430000D02*
X239200000Y-104880000D01*
%TO.C,J9*%
X250370000Y-81690000D02*
X251750000Y-81690000D01*
X250370000Y-83070000D02*
X250370000Y-81690000D01*
X250370000Y-84340000D02*
X250370000Y-92070000D01*
X250370000Y-84340000D02*
X253130000Y-84340000D01*
X250370000Y-92070000D02*
X253130000Y-92070000D01*
X253130000Y-84340000D02*
X253130000Y-92070000D01*
%TO.C,R9*%
X182227500Y-81602258D02*
X182227500Y-81127742D01*
X183272500Y-81602258D02*
X183272500Y-81127742D01*
%TO.C,C3*%
X209504420Y-81540000D02*
X209785580Y-81540000D01*
X209504420Y-82560000D02*
X209785580Y-82560000D01*
%TO.C,R10*%
X227392742Y-68287500D02*
X227867258Y-68287500D01*
X227392742Y-69332500D02*
X227867258Y-69332500D01*
%TO.C,J5*%
X228100000Y-72580000D02*
X229480000Y-72580000D01*
X228100000Y-73960000D02*
X228100000Y-72580000D01*
X228100000Y-75230000D02*
X228100000Y-77880000D01*
X228100000Y-75230000D02*
X230860000Y-75230000D01*
X228100000Y-77880000D02*
X230860000Y-77880000D01*
X230860000Y-75230000D02*
X230860000Y-77880000D01*
%TO.C,C6*%
X254530000Y-88864420D02*
X254530000Y-89145580D01*
X255550000Y-88864420D02*
X255550000Y-89145580D01*
%TO.C,U5*%
D11*
X197840000Y-83830000D02*
X197840000Y-86870000D01*
X197840000Y-86870000D02*
X197850000Y-86870000D01*
X197850000Y-83830000D02*
X197840000Y-83830000D01*
X200110000Y-86870000D02*
X200120000Y-86870000D01*
X200120000Y-83830000D02*
X200110000Y-83830000D01*
X200120000Y-86870000D02*
X200120000Y-83830000D01*
X197740000Y-87150000D02*
G75*
G02*
X197620000Y-87150000I-60000J0D01*
G01*
X197620000Y-87150000D02*
G75*
G02*
X197740000Y-87150000I60000J0D01*
G01*
D14*
X198010000Y-86850000D02*
G75*
G02*
X197950000Y-86850000I-30000J0D01*
G01*
X197950000Y-86850000D02*
G75*
G02*
X198010000Y-86850000I30000J0D01*
G01*
%TO.C,C4*%
D12*
X209444420Y-78740000D02*
X209725580Y-78740000D01*
X209444420Y-79760000D02*
X209725580Y-79760000D01*
%TO.C,L1*%
X236890000Y-64251252D02*
X236890000Y-63728748D01*
X239110000Y-64251252D02*
X239110000Y-63728748D01*
%TO.C,J6*%
X169980000Y-97650000D02*
X169980000Y-100410000D01*
X172630000Y-97650000D02*
X169980000Y-97650000D01*
X172630000Y-97650000D02*
X172630000Y-100410000D01*
X172630000Y-100410000D02*
X169980000Y-100410000D01*
X173900000Y-97650000D02*
X175280000Y-97650000D01*
X175280000Y-97650000D02*
X175280000Y-99030000D01*
%TO.C,R8*%
X187992500Y-78142742D02*
X187992500Y-78617258D01*
X189037500Y-78142742D02*
X189037500Y-78617258D01*
%TO.C,J8*%
X237720000Y-82410000D02*
X239100000Y-82410000D01*
X237720000Y-83790000D02*
X237720000Y-82410000D01*
X237720000Y-85060000D02*
X237720000Y-92790000D01*
X237720000Y-85060000D02*
X240480000Y-85060000D01*
X237720000Y-92790000D02*
X240480000Y-92790000D01*
X240480000Y-85060000D02*
X240480000Y-92790000D01*
%TO.C,U4*%
X231270000Y-62305000D02*
X233990000Y-62305000D01*
X233990000Y-65075000D02*
X231270000Y-65075000D01*
X230740000Y-62690000D02*
X230410000Y-62930000D01*
X230410000Y-62450000D01*
X230740000Y-62690000D01*
G36*
X230740000Y-62690000D02*
G01*
X230410000Y-62930000D01*
X230410000Y-62450000D01*
X230740000Y-62690000D01*
G37*
%TO.C,SW2*%
X178900000Y-100475000D02*
X178900000Y-100910000D01*
X178900000Y-102510000D02*
X178900000Y-104910000D01*
X178900000Y-106510000D02*
X178900000Y-106945000D01*
X178900000Y-106945000D02*
X185320000Y-106945000D01*
X185320000Y-100475000D02*
X178900000Y-100475000D01*
X185320000Y-100910000D02*
X185320000Y-100475000D01*
X185320000Y-104910000D02*
X185320000Y-102510000D01*
X185320000Y-106945000D02*
X185320000Y-106640000D01*
%TO.C,C2*%
X185030000Y-92384420D02*
X185030000Y-92665580D01*
X186050000Y-92384420D02*
X186050000Y-92665580D01*
%TO.C,C7*%
X172800000Y-102820580D02*
X172800000Y-102539420D01*
X173820000Y-102820580D02*
X173820000Y-102539420D01*
%TO.C,C12*%
X200829420Y-88900000D02*
X201110580Y-88900000D01*
X200829420Y-89920000D02*
X201110580Y-89920000D01*
%TO.C,R11*%
X197832258Y-92647500D02*
X197357742Y-92647500D01*
X197832258Y-93692500D02*
X197357742Y-93692500D01*
%TO.C,J1*%
X228090000Y-80770000D02*
X229470000Y-80770000D01*
X228090000Y-82150000D02*
X228090000Y-80770000D01*
X228090000Y-83420000D02*
X228090000Y-88610000D01*
X228090000Y-83420000D02*
X230850000Y-83420000D01*
X228090000Y-88610000D02*
X230850000Y-88610000D01*
X230850000Y-83420000D02*
X230850000Y-88610000D01*
%TO.C,Q2*%
X217830000Y-66680000D02*
X218830000Y-66680000D01*
X217830000Y-68200000D02*
X217830000Y-66680000D01*
X217880000Y-68200000D02*
X217830000Y-68200000D01*
X219780000Y-68200000D02*
X219000000Y-68200000D01*
X219950000Y-66680000D02*
X220950000Y-66680000D01*
X220950000Y-66680000D02*
X220950000Y-68200000D01*
X220950000Y-68200000D02*
X220900000Y-68200000D01*
X219010000Y-68740000D02*
X219340000Y-68500000D01*
X219340000Y-68980000D01*
X219010000Y-68740000D01*
G36*
X219340000Y-68980000D02*
G01*
X219010000Y-68740000D01*
X219340000Y-68500000D01*
X219340000Y-68980000D01*
G37*
%TD*%
%LPC*%
D15*
%TO.C,U7*%
X206325000Y-84020000D03*
X206325000Y-84520000D03*
X206325000Y-85020000D03*
X206325000Y-85520000D03*
D16*
X206987500Y-85682500D03*
X207487500Y-85682500D03*
X207987500Y-85682500D03*
D15*
X208650000Y-85520000D03*
X208650000Y-85020000D03*
X208650000Y-84520000D03*
X208650000Y-84020000D03*
D16*
X207987500Y-83857500D03*
X207487500Y-83857500D03*
X206987500Y-83857500D03*
%TD*%
D17*
%TO.C,SW1*%
X177740000Y-68930000D03*
X186640000Y-68930000D03*
X177740000Y-72930000D03*
X186640000Y-72930000D03*
%TD*%
D18*
%TO.C,U3*%
X186505000Y-86535000D03*
X187775000Y-86535000D03*
X189045000Y-86535000D03*
X190315000Y-86535000D03*
X190315000Y-81585000D03*
X189045000Y-81585000D03*
X187775000Y-81585000D03*
X186505000Y-81585000D03*
%TD*%
D19*
%TO.C,R6*%
X170490000Y-102010000D03*
X168840000Y-102010000D03*
%TD*%
D20*
%TO.C,C9*%
X231200000Y-68950000D03*
X234150000Y-68950000D03*
%TD*%
D21*
%TO.C,J4*%
X236830000Y-74005000D03*
D22*
X236830000Y-76545000D03*
%TD*%
D23*
%TO.C,C8*%
X227560000Y-65165000D03*
X227560000Y-63615000D03*
%TD*%
D19*
%TO.C,R13*%
X197055000Y-82640000D03*
X195405000Y-82640000D03*
%TD*%
D23*
%TO.C,C1*%
X185600000Y-90090000D03*
X185600000Y-88540000D03*
%TD*%
D21*
%TO.C,J3*%
X172660000Y-65410000D03*
D22*
X172660000Y-67950000D03*
X172660000Y-70490000D03*
X172660000Y-73030000D03*
%TD*%
D24*
%TO.C,R3*%
X187605000Y-90100000D03*
X189255000Y-90100000D03*
%TD*%
D25*
%TO.C,C11*%
X197070000Y-89410000D03*
X198620000Y-89410000D03*
%TD*%
D26*
%TO.C,REF\u002A\u002A*%
X245660000Y-86210000D03*
X245660000Y-85360000D03*
X245660000Y-84510000D03*
X245660000Y-83660000D03*
X245660000Y-82810000D03*
%TD*%
D27*
%TO.C,C10*%
X166830000Y-106360000D03*
X161230000Y-106360000D03*
%TD*%
D24*
%TO.C,R5*%
X171675000Y-106380000D03*
X173325000Y-106380000D03*
%TD*%
D19*
%TO.C,R7*%
X188590000Y-75650000D03*
X186940000Y-75650000D03*
%TD*%
D28*
%TO.C,Q1*%
X213122500Y-65260000D03*
X213122500Y-67160000D03*
X214997500Y-66210000D03*
%TD*%
D29*
%TO.C,R4*%
X208980000Y-65405000D03*
X208980000Y-67055000D03*
%TD*%
D30*
%TO.C,U6*%
X260139618Y-85080000D03*
X260139618Y-85580127D03*
X260139618Y-86080000D03*
X260139618Y-86580127D03*
X260139618Y-87080000D03*
D31*
X261640000Y-86080000D03*
%TD*%
D32*
%TO.C,U1*%
X160000000Y-96020000D03*
X161270000Y-96020000D03*
X162540000Y-96020000D03*
X163810000Y-96020000D03*
X165080000Y-96020000D03*
X166350000Y-96020000D03*
X167620000Y-96020000D03*
X168890000Y-96020000D03*
X170160000Y-96020000D03*
X171430000Y-96020000D03*
X172700000Y-96020000D03*
X173970000Y-96020000D03*
X175240000Y-96020000D03*
X176510000Y-96020000D03*
D33*
X177760000Y-92980000D03*
X177760000Y-91710000D03*
X177760000Y-90440000D03*
X177760000Y-89170000D03*
X177760000Y-87900000D03*
X177760000Y-86630000D03*
X177760000Y-85360000D03*
X177760000Y-84090000D03*
X177760000Y-82820000D03*
X177760000Y-81550000D03*
D32*
X176510000Y-78520000D03*
X175240000Y-78520000D03*
X173970000Y-78520000D03*
X172700000Y-78520000D03*
X171430000Y-78520000D03*
X170160000Y-78520000D03*
X168890000Y-78520000D03*
X167620000Y-78520000D03*
X166350000Y-78520000D03*
X165080000Y-78520000D03*
X163810000Y-78520000D03*
X162540000Y-78520000D03*
X161270000Y-78520000D03*
X160000000Y-78520000D03*
D34*
X166577500Y-89475000D03*
X168102500Y-89475000D03*
X165815000Y-88712500D03*
X167340000Y-88712500D03*
X168865000Y-88712500D03*
X166577500Y-87950000D03*
D35*
X167340000Y-87950000D03*
D34*
X168102500Y-87950000D03*
X165815000Y-87187500D03*
X167340000Y-87187500D03*
X168865000Y-87187500D03*
X166577500Y-86425000D03*
X168102500Y-86425000D03*
%TD*%
D24*
%TO.C,R12*%
X201045000Y-93130000D03*
X202695000Y-93130000D03*
%TD*%
D36*
%TO.C,BT1*%
X210000000Y-102580000D03*
X239300000Y-102580000D03*
%TD*%
D21*
%TO.C,J9*%
X251750000Y-83070000D03*
D22*
X251750000Y-85610000D03*
X251750000Y-88150000D03*
X251750000Y-90690000D03*
%TD*%
D37*
%TO.C,R9*%
X182750000Y-82190000D03*
X182750000Y-80540000D03*
%TD*%
D25*
%TO.C,C3*%
X208870000Y-82050000D03*
X210420000Y-82050000D03*
%TD*%
D24*
%TO.C,R10*%
X226805000Y-68810000D03*
X228455000Y-68810000D03*
%TD*%
D21*
%TO.C,J5*%
X229480000Y-73960000D03*
D22*
X229480000Y-76500000D03*
%TD*%
D38*
%TO.C,C6*%
X255040000Y-88230000D03*
X255040000Y-89780000D03*
%TD*%
D39*
%TO.C,U5*%
X198230000Y-86850000D03*
X198730000Y-86850000D03*
X199230000Y-86850000D03*
X199730000Y-86850000D03*
X199730000Y-83850000D03*
X199230000Y-83850000D03*
X198730000Y-83850000D03*
X198230000Y-83850000D03*
D40*
X198980000Y-85350000D03*
%TD*%
D25*
%TO.C,C4*%
X208810000Y-79250000D03*
X210360000Y-79250000D03*
%TD*%
D41*
%TO.C,L1*%
X238000000Y-65065000D03*
X238000000Y-62915000D03*
%TD*%
D21*
%TO.C,J6*%
X173900000Y-99030000D03*
D22*
X171360000Y-99030000D03*
%TD*%
D29*
%TO.C,R8*%
X188515000Y-77555000D03*
X188515000Y-79205000D03*
%TD*%
D21*
%TO.C,J8*%
X239100000Y-83790000D03*
D22*
X239100000Y-86330000D03*
X239100000Y-88870000D03*
X239100000Y-91410000D03*
%TD*%
D42*
%TO.C,U4*%
X231417500Y-62690000D03*
X231417500Y-63190000D03*
X231417500Y-63690000D03*
X231417500Y-64190000D03*
X231417500Y-64690000D03*
X233842500Y-64690000D03*
X233842500Y-64190000D03*
X233842500Y-63690000D03*
X233842500Y-63190000D03*
X233842500Y-62690000D03*
D43*
X232630000Y-63690000D03*
%TD*%
D17*
%TO.C,SW2*%
X177660000Y-101710000D03*
X186560000Y-101710000D03*
X177660000Y-105710000D03*
X186560000Y-105710000D03*
%TD*%
D38*
%TO.C,C2*%
X185540000Y-91750000D03*
X185540000Y-93300000D03*
%TD*%
D23*
%TO.C,C7*%
X173310000Y-103455000D03*
X173310000Y-101905000D03*
%TD*%
D25*
%TO.C,C12*%
X200195000Y-89410000D03*
X201745000Y-89410000D03*
%TD*%
D19*
%TO.C,R11*%
X198420000Y-93170000D03*
X196770000Y-93170000D03*
%TD*%
D21*
%TO.C,J1*%
X229470000Y-82150000D03*
D22*
X229470000Y-84690000D03*
X229470000Y-87230000D03*
%TD*%
D44*
%TO.C,Q2*%
X218440000Y-68377500D03*
X220340000Y-68377500D03*
X219390000Y-66502500D03*
%TD*%
%LPD*%
M02*
