M48
; DRILL file KiCad 10.0.3 date 2026-08-31T11:55:46
; FORMAT={-:-/ absolute / inch / decimal}
; #@! TF.CreationDate,2026-08-31T11:55:46+03:00
; #@! TF.GenerationSoftware,Kicad,Pcbnew,10.0.3
; #@! TF.FileFunction,Plated,1,2,PTH
FMAT,2
INCH
; #@! TA.AperFunction,Plated,PTH,ComponentDrill
T1C0.0079
; #@! TA.AperFunction,Plated,PTH,ViaDrill
T2C0.0118
; #@! TA.AperFunction,Plated,PTH,ComponentDrill
T3C0.0394
%
G90
G05
T1
X6.5281Y-3.4326
X6.5281Y-3.4926
X6.5582Y-3.4026
X6.5582Y-3.4626
X6.5582Y-3.5226
X6.5882Y-3.4326
X6.5882Y-3.4926
X6.6182Y-3.4026
X6.6182Y-3.4626
X6.6182Y-3.5226
X6.6482Y-3.4326
X6.6482Y-3.4926
X9.1449Y-2.478
X9.1449Y-2.5075
X9.1449Y-2.537
X9.1724Y-2.478
X9.1724Y-2.5075
X9.1724Y-2.537
T2
X6.2992Y-3.8366
X6.7728Y-3.974
X6.8622Y-3.0295
X6.8697Y-4.0756
X6.8748Y-4.0091
X6.8894Y-4.1441
X6.913Y-3.0059
X7.0752Y-3.2457
X7.0776Y-3.2886
X7.198Y-3.574
X7.2374Y-3.4535
X7.2614Y-3.235
X7.2783Y-3.0858
X7.2807Y-3.3598
X7.285Y-3.135
X7.35Y-3.7429
X7.4374Y-3.1531
X7.4646Y-3.2721
X7.4748Y-3.4713
X7.5614Y-3.3205
X7.5862Y-3.3591
X7.6039Y-3.1917
X7.6244Y-3.5327
X7.763Y-3.1953
X7.8024Y-3.4484
X7.8206Y-3.192
X7.8642Y-3.615
X7.8646Y-3.2694
X7.8654Y-3.4457
X7.9146Y-3.2194
X7.9941Y-3.1646
X8.039Y-3.3571
X8.0689Y-3.2776
X8.1594Y-3.4559
X8.1705Y-3.1681
X8.183Y-3.3519
X8.1976Y-3.4598
X8.2548Y-3.33
X8.3303Y-3.2327
X8.5417Y-2.6917
X8.5748Y-2.7425
X8.5764Y-2.8071
X8.6374Y-2.7382
X8.7043Y-2.8035
X8.8346Y-2.6193
X8.8587Y-2.7209
X8.8638Y-2.8142
X8.8732Y-3.1827
X9.8354Y-3.5713
X10.2469Y-3.2724
T3
X6.7465Y-3.8988
X6.7976Y-2.5752
X6.7976Y-2.6752
X6.7976Y-2.7752
X6.7976Y-2.8752
X6.8465Y-3.8988
X9.0343Y-3.2343
X9.0343Y-3.3343
X9.0343Y-3.4343
X9.0346Y-2.9118
X9.0346Y-3.0118
X9.324Y-2.9136
X9.324Y-3.0136
X9.4134Y-3.2988
X9.4134Y-3.3988
X9.4134Y-3.4988
X9.4134Y-3.5988
X9.9114Y-3.2705
X9.9114Y-3.3705
X9.9114Y-3.4705
X9.9114Y-3.5705
M30
